<svg xmlns="http://www.w3.org/2000/svg" xmlns:xlink="http://www.w3.org/1999/xlink" width="1008" height="1200" viewBox="0 0 1008 1200"><defs><marker orient="auto" id="c" overflow="visible"><path d="M10 0l4-4L0 0l14 4-4-4z" fill-rule="evenodd" stroke="#000" stroke-width=".8pt"/></marker></defs><path d="M504 1056V840h99.56C540 888 516 942 516 1056zm0-396H260.5C216 636 174 606 174 570c0-42 36-60 114-108 156-90 204-126 204-288h12z" fill="silver" fill-rule="evenodd"/><g transform="translate(0 -336)"><path d="M504 1464V408m408 768H96" fill="none" stroke="#000" stroke-width="4"/><use xlink:href="#a" transform="matrix(-1 0 0 1 1008 90)" width="100%" height="100%"/><path id="b" d="M492 1302c0-174-60-204-192-282-66-42-126-66-126-114s60-72 126-114c126-78 192-102 192-282" fill="none" fill-rule="evenodd" stroke="#000" stroke-width="3"/><path d="M260.5 996H504" fill="none" stroke="#000" stroke-width="2" stroke-dasharray="8, 8"/><path d="M150 906h354" id="a" fill="none" fill-rule="evenodd" stroke="#000" stroke-width="2"/><use xlink:href="#b" transform="matrix(-1 0 0 1 1008 90)" width="100%" height="100%"/><path d="M876 1008H504" fill="none" stroke="#000" stroke-width="3"/><path d="M882 1014l30 66" fill="none" stroke="#000" stroke-width="1.375" marker-start="url(#c)"/></g></svg>