<svg xmlns="http://www.w3.org/2000/svg" xmlns:xlink="http://www.w3.org/1999/xlink" width="1008" height="1008" viewBox="0 0 1008 1008"><defs><marker id="a" orient="auto" overflow="visible"><path d="M10 0l4-4L0 0l14 4-4-4z" fill-rule="evenodd" stroke="#000" stroke-width=".8pt"/></marker></defs><path d="M48 672.5h246v-87.515C246 630.5 186 660.5 48 660z" fill="silver" fill-rule="evenodd"/><g fill="none" stroke="#000"><path d="M960 659.5c-174 0-228-42-312-150-48-60-96-126-144-126s-96 66-144 126c-84 108-138 150-312 150" stroke-width="3"/><path d="M294 720V336M48 672h912" stroke-width="4"/><path d="M504 360v312" stroke-width="2" stroke-dasharray="4, 8"/></g><g transform="translate(0 -528)"><text style="line-height:125%" x="131.27" y="1311.59" font-size="40" font-family="sans-serif" letter-spacing="0" word-spacing="0"><tspan x="131.27" y="1311.59" style="line-height:125%;-inkscape-font-specification:'Avenir Next Condensed, Semi-Bold Condensed';text-align:start" font-weight="700" font-size="70" font-family="Merriweather Sans">5%</tspan></text><text y="1311.59" x="339.27" style="line-height:125%" font-size="40" font-family="sans-serif" letter-spacing="0" word-spacing="0"><tspan style="line-height:125%;-inkscape-font-specification:'Avenir Next Condensed, Semi-Bold Condensed';text-align:start" y="1311.59" x="339.27" font-weight="700" font-size="70" font-family="Merriweather Sans">95%</tspan></text><path d="M60 1224h210" id="b" fill="none" fill-rule="evenodd" stroke="#000" stroke-width="2" marker-start="url(#a)"/><use xlink:href="#b" transform="matrix(-1 0 0 1 588 0)" width="100%" height="100%"/></g></svg>