<svg xmlns="http://www.w3.org/2000/svg" width="1440" height="1008" viewBox="0 0 1440 1008"><g fill="none" stroke="#000"><path d="M516 288c0 174 252 210 252 300S516 720 516 882" stroke-width="3"/><path d="M768 588H504" stroke-width="2"/><path d="M504 588H144" stroke-width="2" stroke-dasharray="8, 16" stroke-dashoffset="6"/><path d="M944.833 438c0 156 384 150 384 222 0 66-384 72-384 216" stroke-width="3"/><path d="M1328.833 660h-396" stroke-width="2"/><path d="M932.833 660H142.49" stroke-width="2" stroke-dasharray="8, 16" stroke-dashoffset="8"/><path d="M456 792h360m68.833 0h432" stroke-width="4"/><path d="M156 114c0 240 192 288 192 408S156 702 156 918" stroke-width="3"/><path d="M348 522H144" stroke-width="2"/><path d="M144 918V114M96 792h312m524.833 126V114M504 918V114" stroke-width="4"/></g></svg>