<?xml version="1.0" encoding="UTF-8" standalone="no"?>
<!-- Created with Inkscape (http://www.inkscape.org/) -->

<svg
   xmlns:dc="http://purl.org/dc/elements/1.1/"
   xmlns:cc="http://creativecommons.org/ns#"
   xmlns:rdf="http://www.w3.org/1999/02/22-rdf-syntax-ns#"
   xmlns:svg="http://www.w3.org/2000/svg"
   xmlns="http://www.w3.org/2000/svg"
   xmlns:xlink="http://www.w3.org/1999/xlink"
   xmlns:sodipodi="http://sodipodi.sourceforge.net/DTD/sodipodi-0.dtd"
   xmlns:inkscape="http://www.inkscape.org/namespaces/inkscape"
   width="100%"
   viewBox="0 0 960 960"
   id="svg2"
   version="1.1"
   inkscape:version="0.91 r13725"
   sodipodi:docname="git-file-states.svg">
  <defs
     id="defs4">
    <marker
       inkscape:isstock="true"
       style="overflow:visible;"
       id="marker46626"
       refX="0.0"
       refY="0.0"
       orient="auto"
       inkscape:stockid="Arrow2Mend">
      <path
         transform="scale(0.6) rotate(180) translate(0,0)"
         d="M 8.7185878,4.0337352 L -2.2072895,0.016013256 L 8.7185884,-4.0017078 C 6.9730900,-1.6296469 6.9831476,1.6157441 8.7185878,4.0337352 z "
         style="fill-rule:evenodd;stroke-width:0.625;stroke-linejoin:round;stroke:#000000;stroke-opacity:1;fill:#000000;fill-opacity:1"
         id="path46628" />
    </marker>
    <marker
       inkscape:stockid="Arrow2Mend"
       orient="auto"
       refY="0.0"
       refX="0.0"
       id="marker46580"
       style="overflow:visible;"
       inkscape:isstock="true"
       inkscape:collect="always">
      <path
         id="path46582"
         style="fill-rule:evenodd;stroke-width:0.625;stroke-linejoin:round;stroke:#000000;stroke-opacity:1;fill:#000000;fill-opacity:1"
         d="M 8.7185878,4.0337352 L -2.2072895,0.016013256 L 8.7185884,-4.0017078 C 6.9730900,-1.6296469 6.9831476,1.6157441 8.7185878,4.0337352 z "
         transform="scale(0.6) rotate(180) translate(0,0)" />
    </marker>
  </defs>
  <sodipodi:namedview
     id="base"
     pagecolor="#ffffff"
     bordercolor="#666666"
     borderopacity="1.0"
     inkscape:pageopacity="0.0"
     inkscape:pageshadow="2"
     inkscape:zoom="0.58"
     inkscape:cx="458.86102"
     inkscape:cy="558.56944"
     inkscape:document-units="px"
     inkscape:current-layer="layer4"
     showgrid="true"
     units="px"
     inkscape:object-nodes="true"
     inkscape:window-width="1156"
     inkscape:window-height="752"
     inkscape:window-x="0"
     inkscape:window-y="0"
     inkscape:window-maximized="0"
     inkscape:snap-bbox="false"
     inkscape:bbox-nodes="false"
     inkscape:snap-nodes="true"
     inkscape:snap-bbox-edge-midpoints="true">
    <inkscape:grid
       type="xygrid"
       id="grid3336"
       spacingx="4"
       spacingy="4.0000001"
       empspacing="3" />
  </sodipodi:namedview>
  <metadata
     id="metadata7">
    <rdf:RDF>
      <cc:Work
         rdf:about="">
        <dc:format>image/svg+xml</dc:format>
        <dc:type
           rdf:resource="http://purl.org/dc/dcmitype/StillImage" />
        <dc:title />
      </cc:Work>
    </rdf:RDF>
  </metadata>
  <g
     inkscape:groupmode="layer"
     id="layer4"
     inkscape:label="Arrows">
    <path
       style="fill:none;fill-rule:evenodd;stroke:#000000;stroke-width:3;stroke-linecap:butt;stroke-linejoin:miter;stroke-miterlimit:4;stroke-dasharray:none;stroke-opacity:1;marker-end:url(#marker46580)"
       d="m 336,192 -72,12 c 12,36 36,60 72,72"
       id="path4254"
       inkscape:connector-curvature="0"
       sodipodi:nodetypes="ccc" />
    <use
       x="0"
       y="0"
       xlink:href="#path4254"
       id="use5365"
       transform="translate(0,120)"
       width="100%"
       height="100%" />
    <use
       x="0"
       y="0"
       xlink:href="#path4254"
       id="use44932"
       transform="translate(0,240)"
       width="100%"
       height="100%" />
    <use
       x="0"
       y="0"
       xlink:href="#use44932"
       id="use44966"
       transform="translate(0,120)"
       width="100%"
       height="100%" />
    <use
       x="0"
       y="0"
       xlink:href="#use44966"
       id="use44968"
       transform="translate(0,120)"
       width="100%"
       height="100%" />
    <use
       x="0"
       y="0"
       xlink:href="#path4254"
       id="use45900"
       transform="matrix(-1,0,0,-1,960,480)"
       width="100%"
       height="100%" />
    <path
       sodipodi:nodetypes="ccc"
       inkscape:connector-curvature="0"
       id="use45934"
       d="m 624,408 72,-12 c 48,-48 68,-180 -64,-216"
       style="fill:none;fill-rule:evenodd;stroke:#000000;stroke-width:3;stroke-linecap:butt;stroke-linejoin:miter;stroke-miterlimit:4;stroke-dasharray:none;stroke-opacity:1;marker-end:url(#marker46580)" />
    <path
       sodipodi:nodetypes="cc"
       inkscape:connector-curvature="0"
       id="use46590"
       d="m 264,84 c 12,36 36,60 72,72"
       style="fill:none;fill-rule:evenodd;stroke:#000000;stroke-width:3;stroke-linecap:butt;stroke-linejoin:miter;stroke-miterlimit:4;stroke-dasharray:none;stroke-opacity:1;marker-end:url(#marker46626)" />
    <use
       x="0"
       y="0"
       xlink:href="#use45900"
       id="use3446"
       transform="translate(0,360)"
       width="100%"
       height="100%" />
    <use
       x="0"
       y="0"
       xlink:href="#use3446"
       id="use3448"
       transform="translate(0,-120)"
       width="100%"
       height="100%" />
  </g>
  <g
     inkscape:groupmode="layer"
     id="layer3"
     inkscape:label="Blocks"
     style="display:inline">
    <rect
       style="opacity:1;fill:#000000;fill-opacity:1;stroke:none;stroke-width:4;stroke-linecap:round;stroke-linejoin:miter;stroke-miterlimit:4;stroke-dasharray:none;stroke-dashoffset:0;stroke-opacity:1"
       id="rect3420"
       width="288"
       height="36"
       x="12"
       y="66"
       transform="translate(0,0)" />
    <use
       x="0"
       y="0"
       xlink:href="#rect3420"
       id="use4222"
       transform="translate(0,600)"
       width="100%"
       height="100%" />
    <use
       x="0"
       y="0"
       xlink:href="#use4222"
       id="use4224"
       transform="translate(0,-240)"
       width="100%"
       height="100%" />
    <use
       x="0"
       y="0"
       xlink:href="#use4224"
       id="use4226"
       transform="translate(0,-240)"
       width="100%"
       height="100%" />
    <use
       x="0"
       y="0"
       xlink:href="#rect3420"
       id="use4228"
       transform="translate(0,240)"
       width="100%"
       height="100%" />
    <use
       x="0"
       y="0"
       xlink:href="#rect3420"
       id="use4230"
       transform="translate(0,480)"
       width="100%"
       height="100%" />
    <use
       x="0"
       y="0"
       xlink:href="#rect3420"
       id="use4232"
       transform="translate(648,192)"
       width="100%"
       height="100%" />
    <use
       x="0"
       y="0"
       xlink:href="#use4232"
       id="use4234"
       transform="translate(0,120)"
       width="100%"
       height="100%" />
    <use
       x="0"
       y="0"
       xlink:href="#use4234"
       id="use4236"
       transform="translate(0,120)"
       width="100%"
       height="100%" />
    <use
       x="0"
       y="0"
       xlink:href="#use4236"
       id="use4238"
       transform="translate(0,120)"
       width="100%"
       height="100%" />
  </g>
  <g
     inkscape:label="Layer 1"
     inkscape:groupmode="layer"
     id="layer1"
     transform="translate(0,-92.362138)">
    <path
       style="fill:#ffc0c6;fill-opacity:1;fill-rule:evenodd;stroke:#000000;stroke-width:1px;stroke-linecap:butt;stroke-linejoin:miter;stroke-opacity:1"
       d="m 360,236.36213 240,0 c 36,0 36,72 0,72 l -240,0 c -36,0 -36,-72 0,-72 z"
       id="path3357"
       inkscape:connector-curvature="0"
       sodipodi:nodetypes="ccccc" />
    <rect
       style="opacity:1;fill:#000000;fill-opacity:1;stroke:#000000;stroke-width:4;stroke-linecap:round;stroke-linejoin:miter;stroke-miterlimit:4;stroke-dasharray:none;stroke-dashoffset:0;stroke-opacity:1"
       id="rect4201"
       width="24"
       height="48"
       x="348"
       y="248.36214" />
    <rect
       y="248.36214"
       x="588"
       height="48"
       width="24"
       id="use4203"
       style="opacity:1;fill:#ffffff;fill-opacity:1;stroke:#000000;stroke-width:4;stroke-linecap:round;stroke-linejoin:miter;stroke-miterlimit:4;stroke-dasharray:none;stroke-dashoffset:0;stroke-opacity:1" />
    <use
       x="0"
       y="0"
       xlink:href="#use4203"
       id="use4211"
       transform="translate(-48,0)"
       width="100%"
       height="100%" />
    <use
       x="0"
       y="0"
       xlink:href="#use4211"
       id="use4213"
       transform="translate(-48,0)"
       width="100%"
       height="100%" />
    <use
       x="0"
       y="0"
       xlink:href="#rect4201"
       id="use4215"
       transform="translate(48,0)"
       width="100%"
       height="100%" />
    <use
       x="0"
       y="0"
       xlink:href="#use4215"
       id="use4217"
       transform="translate(48,0)"
       width="100%"
       height="100%" />
    <path
       sodipodi:nodetypes="ccccc"
       inkscape:connector-curvature="0"
       id="use4219"
       d="m 360,356.36214 240,0 c 36,0 36,72 0,72 l -240,0 c -36,0 -36,-72 0,-72 z"
       style="fill:#deffde;fill-opacity:1;fill-rule:evenodd;stroke:#000000;stroke-width:1px;stroke-linecap:butt;stroke-linejoin:miter;stroke-opacity:1" />
    <path
       style="fill:#c0e8ff;fill-opacity:1;fill-rule:evenodd;stroke:#000000;stroke-width:1px;stroke-linecap:butt;stroke-linejoin:miter;stroke-opacity:1"
       d="m 360,476.36214 240,0 c 36,0 36,72 0,72 l -240,0 c -36,0 -36,-72 0,-72 z"
       id="use4221"
       inkscape:connector-curvature="0"
       sodipodi:nodetypes="ccccc" />
    <path
       sodipodi:nodetypes="ccccc"
       inkscape:connector-curvature="0"
       id="use4223"
       d="m 360,596.36214 240,0 c 36,0 36,72 0,72 l -240,0 c -36,0 -36,-72 0,-72 z"
       style="fill:#ffffc0;fill-opacity:1;fill-rule:evenodd;stroke:#000000;stroke-width:1px;stroke-linecap:butt;stroke-linejoin:miter;stroke-opacity:1" />
    <use
       x="0"
       y="0"
       xlink:href="#use4221"
       id="use4243"
       transform="translate(0,360)"
       width="100%"
       height="100%" />
    <use
       x="0"
       y="0"
       xlink:href="#use4219"
       id="use4245"
       transform="translate(0,360)"
       width="100%"
       height="100%" />
    <use
       x="0"
       y="0"
       xlink:href="#rect4201"
       id="use4247"
       transform="translate(0,120)"
       width="100%"
       height="100%" />
    <use
       x="0"
       y="0"
       xlink:href="#use4247"
       id="use4251"
       transform="translate(48,0)"
       width="100%"
       height="100%" />
    <use
       x="0"
       y="0"
       xlink:href="#use4251"
       id="use4253"
       transform="translate(48,0)"
       width="100%"
       height="100%" />
    <use
       x="0"
       y="0"
       xlink:href="#use4203"
       id="use4255"
       transform="translate(0,120)"
       width="100%"
       height="100%" />
    <use
       x="0"
       y="0"
       xlink:href="#use4255"
       id="use4257"
       transform="translate(-48,0)"
       width="100%"
       height="100%" />
    <use
       x="0"
       y="0"
       xlink:href="#use4257"
       id="use4259"
       transform="translate(-48,0)"
       width="100%"
       height="100%" />
    <use
       x="0"
       y="0"
       xlink:href="#use4247"
       id="use4261"
       transform="translate(0,120)"
       width="100%"
       height="100%" />
    <use
       x="0"
       y="0"
       xlink:href="#use4261"
       id="use4263"
       transform="translate(48,0)"
       width="100%"
       height="100%" />
    <use
       x="0"
       y="0"
       xlink:href="#use4263"
       id="use4265"
       transform="translate(48,0)"
       width="100%"
       height="100%" />
    <use
       x="0"
       y="0"
       xlink:href="#use4255"
       id="use4267"
       transform="translate(0,120)"
       width="100%"
       height="100%" />
    <use
       x="0"
       y="0"
       xlink:href="#use4267"
       id="use4269"
       transform="translate(-48,0)"
       width="100%"
       height="100%" />
    <use
       x="0"
       y="0"
       xlink:href="#use4269"
       id="use4271"
       transform="translate(-48,0)"
       width="100%"
       height="100%" />
    <use
       x="0"
       y="0"
       xlink:href="#use4267"
       id="use4279"
       transform="translate(0,120)"
       width="100%"
       height="100%" />
    <use
       x="0"
       y="0"
       xlink:href="#use4279"
       id="use4281"
       transform="translate(-144,0)"
       width="100%"
       height="100%" />
    <use
       x="0"
       y="0"
       xlink:href="#use4261"
       id="use4283"
       transform="translate(0,120)"
       width="100%"
       height="100%" />
    <use
       x="0"
       y="0"
       xlink:href="#use4283"
       id="use4285"
       transform="translate(48,0)"
       width="100%"
       height="100%" />
    <use
       x="0"
       y="0"
       xlink:href="#use4283"
       id="use4287"
       transform="translate(144,0)"
       width="100%"
       height="100%" />
    <use
       x="0"
       y="0"
       xlink:href="#use4287"
       id="use4289"
       transform="translate(48,0)"
       width="100%"
       height="100%" />
    <use
       x="0"
       y="0"
       xlink:href="#use4279"
       id="use4291"
       transform="translate(0,120)"
       width="100%"
       height="100%" />
    <use
       x="0"
       y="0"
       xlink:href="#use4281"
       id="use4293"
       transform="translate(0,120)"
       width="100%"
       height="100%" />
    <use
       x="0"
       y="0"
       xlink:href="#use4283"
       id="use4295"
       transform="translate(0,120)"
       width="100%"
       height="100%" />
    <use
       x="0"
       y="0"
       xlink:href="#use4285"
       id="use4297"
       transform="translate(0,120)"
       width="100%"
       height="100%" />
    <use
       x="0"
       y="0"
       xlink:href="#use4287"
       id="use4299"
       transform="translate(0,120)"
       width="100%"
       height="100%" />
    <use
       x="0"
       y="0"
       xlink:href="#use4289"
       id="use4301"
       transform="translate(0,120)"
       width="100%"
       height="100%" />
    <use
       x="0"
       y="0"
       xlink:href="#use4291"
       id="use4303"
       transform="translate(0,120)"
       width="100%"
       height="100%" />
    <use
       x="0"
       y="0"
       xlink:href="#use4293"
       id="use4305"
       transform="translate(0,120)"
       width="100%"
       height="100%" />
    <use
       x="0"
       y="0"
       xlink:href="#use4295"
       id="use4307"
       transform="translate(0,120)"
       width="100%"
       height="100%" />
    <use
       x="0"
       y="0"
       xlink:href="#use4297"
       id="use4309"
       transform="translate(0,120)"
       width="100%"
       height="100%" />
    <use
       x="0"
       y="0"
       xlink:href="#use4299"
       id="use4311"
       transform="translate(0,120)"
       width="100%"
       height="100%" />
    <use
       x="0"
       y="0"
       xlink:href="#use4301"
       id="use4313"
       transform="translate(0,120)"
       width="100%"
       height="100%" />
    <text
       xml:space="preserve"
       style="font-style:normal;font-variant:normal;font-weight:bold;font-stretch:normal;font-size:17.5px;line-height:110.00000238%;font-family:monospace;-inkscape-font-specification:'monospace, Bold';text-align:start;letter-spacing:0px;word-spacing:0px;writing-mode:lr-tb;text-anchor:start;fill:#ffffff;fill-opacity:1;stroke:none;stroke-width:1px;stroke-linecap:butt;stroke-linejoin:miter;stroke-opacity:1;"
       x="23.162598"
       y="301.66425"
       id="text4315"
       sodipodi:linespacing="110%"><tspan
         sodipodi:role="line"
         id="tspan4317"
         x="23.162598"
         y="301.66425">git add [filename]</tspan></text>
    <text
       sodipodi:linespacing="110%"
       id="use4319"
       y="421.66425"
       x="23.162598"
       style="font-style:normal;font-variant:normal;font-weight:bold;font-stretch:normal;font-size:17.5px;line-height:110.00000238%;font-family:monospace;-inkscape-font-specification:'monospace, Bold';text-align:start;letter-spacing:0px;word-spacing:0px;writing-mode:lr-tb;text-anchor:start;fill:#ffffff;fill-opacity:1;stroke:none;stroke-width:1px;stroke-linecap:butt;stroke-linejoin:miter;stroke-opacity:1;"
       xml:space="preserve"><tspan
         y="421.66425"
         x="23.162598"
         id="tspan4323"
         sodipodi:role="line">git commit -m &quot;comment&quot;</tspan></text>
    <use
       x="0"
       y="0"
       xlink:href="#text4315"
       id="use4325"
       transform="translate(0,360)"
       width="100%"
       height="100%" />
    <use
       x="0"
       y="0"
       xlink:href="#use4319"
       id="use4327"
       transform="translate(0,360)"
       width="100%"
       height="100%" />
    <text
       xml:space="preserve"
       style="font-style:normal;font-variant:normal;font-weight:bold;font-stretch:normal;font-size:17.5px;line-height:110.00000238%;font-family:monospace;-inkscape-font-specification:'monospace, Bold';text-align:start;letter-spacing:0px;word-spacing:0px;writing-mode:lr-tb;text-anchor:start;fill:#ffffff;fill-opacity:1;stroke:none;stroke-width:1px;stroke-linecap:butt;stroke-linejoin:miter;stroke-opacity:1;"
       x="20.394043"
       y="541.66425"
       id="text4329"
       sodipodi:linespacing="110%"><tspan
         sodipodi:role="line"
         x="20.394043"
         y="541.66425"
         id="tspan4333">[modify file]</tspan></text>
    <text
       xml:space="preserve"
       style="font-style:normal;font-variant:normal;font-weight:bold;font-stretch:normal;font-size:17.5px;line-height:110.00000238%;font-family:monospace;-inkscape-font-specification:'monospace, Bold';text-align:start;letter-spacing:0px;word-spacing:0px;writing-mode:lr-tb;text-anchor:start;fill:#ffffff;fill-opacity:1;stroke:none;stroke-width:1px;stroke-linecap:butt;stroke-linejoin:miter;stroke-opacity:1;"
       x="671.1626"
       y="493.66425"
       id="text4337"
       sodipodi:linespacing="110%"><tspan
         sodipodi:role="line"
         id="tspan4339"
         x="671.1626"
         y="493.66425">git rm --cache [filename]</tspan></text>
    <text
       xml:space="preserve"
       style="font-style:normal;font-variant:normal;font-weight:bold;font-stretch:normal;font-size:17.5px;line-height:110.00000238%;font-family:monospace;-inkscape-font-specification:'monospace, Bold';text-align:start;letter-spacing:0px;word-spacing:0px;writing-mode:lr-tb;text-anchor:start;fill:#ffffff;fill-opacity:1;stroke:none;stroke-width:1px;stroke-linecap:butt;stroke-linejoin:miter;stroke-opacity:1;"
       x="671.1626"
       y="613.66425"
       id="text4341"
       sodipodi:linespacing="110%"><tspan
         sodipodi:role="line"
         id="tspan4343"
         x="671.1626"
         y="613.66425">git checkout -- [filename]</tspan></text>
    <text
       xml:space="preserve"
       style="font-style:normal;font-variant:normal;font-weight:bold;font-stretch:normal;font-size:17.5px;line-height:110.00000238%;font-family:monospace;-inkscape-font-specification:'monospace, Bold';text-align:start;letter-spacing:0px;word-spacing:0px;writing-mode:lr-tb;text-anchor:start;fill:#ffffff;fill-opacity:1;stroke:none;stroke-width:1px;stroke-linecap:butt;stroke-linejoin:miter;stroke-opacity:1;"
       x="671.1626"
       y="733.66425"
       id="text3406"
       sodipodi:linespacing="110%"><tspan
         sodipodi:role="line"
         id="tspan3408"
         x="671.1626"
         y="733.66425">git reset HEAD [filename]</tspan></text>
    <use
       x="0"
       y="0"
       xlink:href="#text3406"
       id="use3410"
       transform="translate(0,-360)"
       width="100%"
       height="100%" />
    <text
       xml:space="preserve"
       style="font-style:normal;font-variant:normal;font-weight:bold;font-stretch:normal;font-size:17.5px;line-height:110.00000238%;font-family:monospace;-inkscape-font-specification:'monospace, Bold';text-align:start;letter-spacing:0px;word-spacing:0px;writing-mode:lr-tb;text-anchor:start;fill:#ffffff;fill-opacity:1;stroke:none;stroke-width:1px;stroke-linecap:butt;stroke-linejoin:miter;stroke-opacity:1;"
       x="20.394043"
       y="182.32222"
       id="text3412"
       sodipodi:linespacing="110%"><tspan
         sodipodi:role="line"
         x="20.394043"
         y="182.32222"
         id="tspan3416">[create file]</tspan></text>
  </g>
  <g
     inkscape:groupmode="layer"
     id="layer2"
     inkscape:label="Guides"
     style="display:none">
    <path
       style="fill:none;fill-rule:evenodd;stroke:#000000;stroke-width:1px;stroke-linecap:butt;stroke-linejoin:miter;stroke-opacity:1"
       d="m -24,480 1032,0"
       id="path3339"
       inkscape:connector-curvature="0" />
    <use
       x="0"
       y="0"
       xlink:href="#path3339"
       id="use3341"
       transform="translate(0,240)"
       width="100%"
       height="100%" />
    <use
       x="0"
       y="0"
       xlink:href="#path3339"
       id="use3343"
       transform="translate(0,360)"
       width="100%"
       height="100%" />
    <use
       x="0"
       y="0"
       xlink:href="#path3339"
       id="use3345"
       transform="translate(0,120)"
       width="100%"
       height="100%" />
    <use
       x="0"
       y="0"
       xlink:href="#path3339"
       id="use3347"
       transform="translate(0,-120)"
       width="100%"
       height="100%" />
    <use
       x="0"
       y="0"
       xlink:href="#path3339"
       id="use3349"
       transform="translate(0,-360)"
       width="100%"
       height="100%" />
    <use
       x="0"
       y="0"
       xlink:href="#path3339"
       id="use3351"
       transform="translate(0,-240)"
       width="100%"
       height="100%" />
    <path
       style="fill:none;fill-rule:evenodd;stroke:#000000;stroke-width:1px;stroke-linecap:butt;stroke-linejoin:miter;stroke-opacity:1"
       d="M 312,-24.000004 312,984"
       id="path3353"
       inkscape:connector-curvature="0" />
    <use
       x="0"
       y="0"
       xlink:href="#path3353"
       id="use3355"
       transform="translate(336,0)"
       width="100%"
       height="100%" />
    <use
       style="display:inline;opacity:0.2"
       height="100%"
       width="100%"
       transform="translate(0,-240)"
       id="use4840"
       xlink:href="#use4224"
       y="0"
       x="0" />
  </g>
</svg>
