<svg xmlns="http://www.w3.org/2000/svg" xmlns:xlink="http://www.w3.org/1999/xlink" viewBox="0 0 960 960"><defs><marker id="e" orient="auto" overflow="visible"><path d="M-5.23-2.42L1.323-.01-5.23 2.4c1.046-1.422 1.04-3.37 0-4.82z" fill-rule="evenodd" stroke-width=".375" stroke-linejoin="round" stroke="#000"/></marker><marker orient="auto" id="a" overflow="visible"><path d="M-5.23-2.42L1.323-.01-5.23 2.4c1.046-1.422 1.04-3.37 0-4.82z" fill-rule="evenodd" stroke-width=".375" stroke-linejoin="round" stroke="#000"/></marker></defs><path d="M336 192l-72 12c12 36 36 60 72 72" id="b" fill="none" fill-rule="evenodd" stroke="#000" stroke-width="3" marker-end="url(#a)"/><use xlink:href="#b" transform="translate(0 120)" width="100%" height="100%"/><use xlink:href="#b" id="c" transform="translate(0 240)" width="100%" height="100%"/><use xlink:href="#c" id="d" transform="translate(0 120)" width="100%" height="100%"/><use xlink:href="#d" transform="translate(0 120)" width="100%" height="100%"/><use xlink:href="#b" id="f" transform="rotate(180 480 240)" width="100%" height="100%"/><path d="M624 408l72-12c48-48 68-180-64-216" fill="none" stroke="#000" stroke-width="3" marker-end="url(#a)"/><path d="M264 84c12 36 36 60 72 72" fill="none" stroke="#000" stroke-width="3" marker-end="url(#e)"/><use xlink:href="#f" id="g" transform="translate(0 360)" width="100%" height="100%"/><use xlink:href="#g" transform="translate(0 -120)" width="100%" height="100%"/><path id="h" stroke-width="4" stroke-linecap="round" d="M12 66h288v36H12z"/><use xlink:href="#h" id="i" transform="translate(0 600)" width="100%" height="100%"/><use xlink:href="#i" id="j" transform="translate(0 -240)" width="100%" height="100%"/><use xlink:href="#j" transform="translate(0 -240)" width="100%" height="100%"/><use xlink:href="#h" transform="translate(0 240)" width="100%" height="100%"/><use xlink:href="#h" transform="translate(0 480)" width="100%" height="100%"/><use xlink:href="#h" id="k" transform="translate(648 192)" width="100%" height="100%"/><use xlink:href="#k" id="l" transform="translate(0 120)" width="100%" height="100%"/><use xlink:href="#l" id="m" transform="translate(0 120)" width="100%" height="100%"/><use xlink:href="#m" transform="translate(0 120)" width="100%" height="100%"/><g transform="translate(0 -92.362)"><path d="M360 236.362h240c36 0 36 72 0 72H360c-36 0-36-72 0-72z" fill="#ffc0c6" fill-rule="evenodd" stroke="#000"/><path id="p" stroke="#000" stroke-width="4" stroke-linecap="round" d="M348 248.362h24v48h-24z"/><path id="n" fill="#fff" stroke="#000" stroke-width="4" stroke-linecap="round" d="M588 248.362h24v48h-24z"/><use xlink:href="#n" id="o" transform="translate(-48)" width="100%" height="100%"/><use xlink:href="#o" transform="translate(-48)" width="100%" height="100%"/><use xlink:href="#p" id="q" transform="translate(48)" width="100%" height="100%"/><use xlink:href="#q" transform="translate(48)" width="100%" height="100%"/><path id="s" d="M360 356.362h240c36 0 36 72 0 72H360c-36 0-36-72 0-72z" fill="#deffde" fill-rule="evenodd" stroke="#000"/><path d="M360 476.362h240c36 0 36 72 0 72H360c-36 0-36-72 0-72z" id="r" fill="#c0e8ff" fill-rule="evenodd" stroke="#000"/><path d="M360 596.362h240c36 0 36 72 0 72H360c-36 0-36-72 0-72z" fill="#ffffc0" fill-rule="evenodd" stroke="#000"/><use xlink:href="#r" transform="translate(0 360)" width="100%" height="100%"/><use xlink:href="#s" transform="translate(0 360)" width="100%" height="100%"/><use xlink:href="#p" id="t" transform="translate(0 120)" width="100%" height="100%"/><use xlink:href="#t" id="u" transform="translate(48)" width="100%" height="100%"/><use xlink:href="#u" transform="translate(48)" width="100%" height="100%"/><use xlink:href="#n" id="v" transform="translate(0 120)" width="100%" height="100%"/><use xlink:href="#v" id="w" transform="translate(-48)" width="100%" height="100%"/><use xlink:href="#w" transform="translate(-48)" width="100%" height="100%"/><use xlink:href="#t" id="x" transform="translate(0 120)" width="100%" height="100%"/><use xlink:href="#x" id="y" transform="translate(48)" width="100%" height="100%"/><use xlink:href="#y" transform="translate(48)" width="100%" height="100%"/><use xlink:href="#v" id="z" transform="translate(0 120)" width="100%" height="100%"/><use xlink:href="#z" id="A" transform="translate(-48)" width="100%" height="100%"/><use xlink:href="#A" transform="translate(-48)" width="100%" height="100%"/><use xlink:href="#z" id="B" transform="translate(0 120)" width="100%" height="100%"/><use xlink:href="#B" id="E" transform="translate(-144)" width="100%" height="100%"/><use xlink:href="#x" id="C" transform="translate(0 120)" width="100%" height="100%"/><use xlink:href="#C" id="F" transform="translate(48)" width="100%" height="100%"/><use xlink:href="#C" id="D" transform="translate(144)" width="100%" height="100%"/><use xlink:href="#D" id="G" transform="translate(48)" width="100%" height="100%"/><use xlink:href="#B" id="H" transform="translate(0 120)" width="100%" height="100%"/><use xlink:href="#E" id="I" transform="translate(0 120)" width="100%" height="100%"/><use xlink:href="#C" id="J" transform="translate(0 120)" width="100%" height="100%"/><use xlink:href="#F" id="K" transform="translate(0 120)" width="100%" height="100%"/><use xlink:href="#D" id="L" transform="translate(0 120)" width="100%" height="100%"/><use xlink:href="#G" id="M" transform="translate(0 120)" width="100%" height="100%"/><use xlink:href="#H" transform="translate(0 120)" width="100%" height="100%"/><use xlink:href="#I" transform="translate(0 120)" width="100%" height="100%"/><use xlink:href="#J" transform="translate(0 120)" width="100%" height="100%"/><use xlink:href="#K" transform="translate(0 120)" width="100%" height="100%"/><use xlink:href="#L" transform="translate(0 120)" width="100%" height="100%"/><use xlink:href="#M" transform="translate(0 120)" width="100%" height="100%"/><text style="line-height:110.00000238%;-inkscape-font-specification:'monospace, Bold';text-align:start" x="23.163" y="301.664" id="N" font-weight="bold" font-size="17.5" font-family="monospace" letter-spacing="0" word-spacing="0" fill="#fff"><tspan x="23.163" y="301.664">git add [filename]</tspan></text><text id="O" y="421.664" x="23.163" style="line-height:110.00000238%;-inkscape-font-specification:'monospace, Bold';text-align:start" font-weight="bold" font-size="17.5" font-family="monospace" letter-spacing="0" word-spacing="0" fill="#fff"><tspan y="421.664" x="23.163">git commit -m &quot;comment&quot;</tspan></text><use xlink:href="#N" transform="translate(0 360)" width="100%" height="100%"/><use xlink:href="#O" transform="translate(0 360)" width="100%" height="100%"/><text style="line-height:110.00000238%;-inkscape-font-specification:'monospace, Bold';text-align:start" x="20.394" y="541.664" font-weight="bold" font-size="17.5" font-family="monospace" letter-spacing="0" word-spacing="0" fill="#fff"><tspan x="20.394" y="541.664">[modify file]</tspan></text><text style="line-height:110.00000238%;-inkscape-font-specification:'monospace, Bold';text-align:start" x="671.163" y="493.664" font-weight="bold" font-size="17.5" font-family="monospace" letter-spacing="0" word-spacing="0" fill="#fff"><tspan x="671.163" y="493.664">git rm --cache [filename]</tspan></text><text style="line-height:110.00000238%;-inkscape-font-specification:'monospace, Bold';text-align:start" x="671.163" y="613.664" font-weight="bold" font-size="17.5" font-family="monospace" letter-spacing="0" word-spacing="0" fill="#fff"><tspan x="671.163" y="613.664">git checkout -- [filename]</tspan></text><text style="line-height:110.00000238%;-inkscape-font-specification:'monospace, Bold';text-align:start" x="671.163" y="733.664" id="P" font-weight="bold" font-size="17.5" font-family="monospace" letter-spacing="0" word-spacing="0" fill="#fff"><tspan x="671.163" y="733.664">git reset HEAD [filename]</tspan></text><use xlink:href="#P" transform="translate(0 -360)" width="100%" height="100%"/><text style="line-height:110.00000238%;-inkscape-font-specification:'monospace, Bold';text-align:start" x="20.394" y="182.322" font-weight="bold" font-size="17.5" font-family="monospace" letter-spacing="0" word-spacing="0" fill="#fff"><tspan x="20.394" y="182.322">[create file]</tspan></text></g></svg>