<?xml version="1.0" encoding="UTF-8" standalone="no"?>
<svg
   xmlns:dc="http://purl.org/dc/elements/1.1/"
   xmlns:cc="http://creativecommons.org/ns#"
   xmlns:rdf="http://www.w3.org/1999/02/22-rdf-syntax-ns#"
   xmlns:svg="http://www.w3.org/2000/svg"
   xmlns="http://www.w3.org/2000/svg"
   xmlns:xlink="http://www.w3.org/1999/xlink"
   xmlns:sodipodi="http://sodipodi.sourceforge.net/DTD/sodipodi-0.dtd"
   xmlns:inkscape="http://www.inkscape.org/namespaces/inkscape"
   width="1008"
   height="1200"
   viewBox="0 0 1008 1200"
   id="svg2"
   version="1.1"
   inkscape:version="0.91 r13725"
   sodipodi:docname="insignificant-result.svg"
   inkscape:export-filename="/Users/MJF/Documents/Git Repositories/freeman.blue/pages/images/large/insignificant-result.png"
   inkscape:export-xdpi="90"
   inkscape:export-ydpi="90">
  <metadata
     id="metadata33">
    <rdf:RDF>
      <cc:Work
         rdf:about="">
        <dc:format>image/svg+xml</dc:format>
        <dc:type
           rdf:resource="http://purl.org/dc/dcmitype/StillImage" />
      </cc:Work>
    </rdf:RDF>
  </metadata>
  <sodipodi:namedview
     pagecolor="#ffffff"
     bordercolor="#666666"
     borderopacity="1"
     objecttolerance="10"
     gridtolerance="10"
     guidetolerance="10"
     inkscape:pageopacity="0"
     inkscape:pageshadow="2"
     inkscape:window-width="1134"
     inkscape:window-height="691"
     id="namedview31"
     showgrid="false"
     inkscape:zoom="0.19666667"
     inkscape:cx="504"
     inkscape:cy="600"
     inkscape:window-x="0"
     inkscape:window-y="0"
     inkscape:window-maximized="0"
     inkscape:current-layer="svg2" />
  <defs
     id="defs4">
    <marker
       id="c"
       orient="auto"
       overflow="visible">
      <path
         d="M-10 0l-4 4L0 0l-14-4 4 4z"
         fill-rule="evenodd"
         stroke="#000"
         stroke-width=".8pt"
         id="path7" />
    </marker>
  </defs>
  <path
     d="M504 1068V840h116.126c-45.74 33.15-98.185 60.04-104.126 228zm0-408H260.5C216 636 174 606 174 570c0-42 36-60 114-108 156-90 204-126 204-288h12z"
     fill="#e3e3e3"
     fill-rule="evenodd"
     id="path9" />
  <g
     transform="translate(0 -336)"
     id="g11">
    <path
       d="M504 1464V408m408 768H96"
       fill="none"
       stroke="#000"
       stroke-width="4"
       id="path13" />
    <use
       xlink:href="#a"
       transform="matrix(-1 0 0 1 1008 90)"
       width="100%"
       height="100%"
       opacity=".6"
       id="use15" />
    <path
       id="b"
       d="M492 1302c0-174-60-204-192-282-66-42-126-66-126-114s60-72 126-114c126-78 192-102 192-282"
       fill="none"
       fill-rule="evenodd"
       stroke="#000"
       stroke-width="3" />
    <path
       d="M260.5 996H504"
       fill="none"
       stroke="#000"
       stroke-width="2"
       stroke-dasharray="8, 8"
       id="path18" />
    <path
       d="M150 906h354"
       id="a"
       fill="none"
       fill-rule="evenodd"
       stroke="#000"
       stroke-width="2" />
    <use
       xlink:href="#b"
       transform="matrix(-1 0 0 1 1008 102)"
       width="100%"
       height="100%"
       id="use21" />
    <path
       d="M858 828H604.565"
       fill="none"
       stroke="#000"
       stroke-width="2"
       id="path23" />
    <path
       d="M504 828h100.565"
       fill="none"
       stroke="#000"
       stroke-width="2"
       stroke-dasharray="8, 8"
       id="path25" />
    <path
       d="M504 1008h372"
       fill="none"
       stroke="#000"
       stroke-width="3"
       id="path27" />
    <path
       d="M864 990c42-48 48-84 0-156"
       fill="none"
       stroke="#000"
       stroke-width="2"
       stroke-linecap="round"
       marker-end="url(#c)"
       id="path29" />
  </g>
</svg>
