<svg xmlns="http://www.w3.org/2000/svg" xmlns:xlink="http://www.w3.org/1999/xlink" width="960" height="960" viewBox="0 0 960 960"><path d="M176 64v740h720" opacity=".97" fill="none" stroke="#000" stroke-width="1.5"/><path d="M176 812v16" id="a" fill="none" fill-rule="evenodd" stroke="#000"/><use xlink:href="#a" transform="translate(180)" width="100%" height="100%"/><use xlink:href="#a" transform="translate(360)" width="100%" height="100%"/><use xlink:href="#a" transform="translate(540)" width="100%" height="100%"/><use xlink:href="#a" transform="translate(720)" width="100%" height="100%"/><use xlink:href="#a" id="b" transform="rotate(90 176 804)" width="100%" height="100%"/><use xlink:href="#b" transform="translate(0 -148)" width="100%" height="100%"/><use xlink:href="#b" transform="translate(0 -296)" width="100%" height="100%"/><use xlink:href="#b" transform="translate(0 -444)" width="100%" height="100%"/><use xlink:href="#b" transform="translate(0 -592)" width="100%" height="100%"/><use xlink:href="#b" transform="translate(0 -740)" width="100%" height="100%"/><g font-size="25" font-family="sans-serif" letter-spacing="0" word-spacing="0"><text style="line-height:89.99999762%;-inkscape-font-specification:'sans-serif, Normal';text-align:start" x="329.836" y="858.555"><tspan x="329.836" y="858.555">10</tspan></text><text style="line-height:89.99999762%;-inkscape-font-specification:'sans-serif, Normal';text-align:start" x="493.918" y="858.555"><tspan x="493.918" y="858.555">100</tspan></text><text style="line-height:89.99999762%;-inkscape-font-specification:'sans-serif, Normal';text-align:start" x="650.042" y="858.555"><tspan x="650.042" y="858.555">1,000</tspan></text><text style="line-height:89.99999762%;-inkscape-font-specification:'sans-serif, Normal';text-align:start" x="814.124" y="858.555"><tspan x="814.124" y="858.555">10,000</tspan></text><text y="858.555" x="165.754" style="line-height:89.99999762%;-inkscape-font-specification:'sans-serif, Normal';text-align:start"><tspan y="858.555" x="165.754">0</tspan></text><text style="line-height:89.99999762%;-inkscape-font-specification:'sans-serif, Normal';text-align:start" x="101.877" y="817.1"><tspan x="101.877" y="817.1">0.0</tspan></text><text style="line-height:89.99999762%;-inkscape-font-specification:'sans-serif, Normal';text-align:start" x="102.72" y="669.1"><tspan x="102.72" y="669.1">0.2</tspan></text><text style="line-height:89.99999762%;-inkscape-font-specification:'sans-serif, Normal';text-align:start" x="101.621" y="521.1"><tspan x="101.621" y="521.1">0.4</tspan></text><text style="line-height:89.99999762%;-inkscape-font-specification:'sans-serif, Normal';text-align:start" x="101.792" y="373.1"><tspan x="101.792" y="373.1">0.6</tspan></text><text style="line-height:89.99999762%;-inkscape-font-specification:'sans-serif, Normal';text-align:start" x="101.926" y="225.1"><tspan x="101.926" y="225.1">0.8</tspan></text><text style="line-height:89.99999762%;-inkscape-font-specification:'sans-serif, Normal';text-align:start" x="101.877" y="77.1"><tspan x="101.877" y="77.1">1.0</tspan></text><text style="line-height:89.99999762%;-inkscape-font-specification:sans-serif;text-align:start" x="451.303" y="914.994"><tspan x="451.303" y="914.994">Sample Size</tspan></text><text style="line-height:89.99999762%;-inkscape-font-specification:sans-serif;text-align:start" x="-498.73" y="63.646" transform="rotate(-90)"><tspan x="-498.73" y="63.646">Correlation</tspan></text></g><path d="M896 792c-168-16-316-48-428.2-208.6C380 452 347.357 318.61 307.387 183.96 296 144 288 120 281.3 101.1c-3.325-8.275-6.57-14.73-10.814-19.76" fill="none" stroke="#000" stroke-width="2.375"/></svg>