<svg xmlns="http://www.w3.org/2000/svg" xmlns:xlink="http://www.w3.org/1999/xlink" width="2400" height="1056" viewBox="0 0 2400 1056"><g fill-rule="evenodd"><path d="M276 564V84h-12c0 240-192 288-192 408 0 48 24.08 72 24.08 72H276m0 408V840h35.27c-9.023 25.627-18.597 43.28-23.27 132zm768-36h-12v-96h71.43c-43.838 29.698-57.158 59.85-59.43 96zm-12-228V408h-12c0 168-384 156-384 228 0 36 97.513 53.276 170.013 72H1032m924.04-108V120h-12c0 240-192 288-192 408h204.04" fill="#e0e0e0"/><path d="M1956.08 600V300h-12c0 168-384 156-384 228h395.96" fill="#e0e0e0"/><path d="M1752.04 528h204v72h-178.875c-17.127-24-21.65-48-25.125-72" fill="#a5baff"/><path d="M1560.04 528h192c2.413 26.385 8.88 51.148 25.125 72h-47.112c-78.012-21.997-171.25-39.09-170.013-72z" fill="#cdd9ff"/></g><g transform="translate(-24 96)"><path d="M72 744h480m96 0h816M300 876V-12m756 888V-12" fill="none" stroke="#000" stroke-width="4"/><path d="M312 60c0 240 192 288 192 408S312 636 312 876" id="a" fill="none" fill-rule="evenodd" stroke="#000" stroke-width="3"/><use xlink:href="#a" transform="matrix(-1 0 0 1 600 -72)" width="100%" height="100%"/><path d="M504 468H300m0-72H96" fill="none" stroke="#000" stroke-width="2"/><path d="M1068 840c0-168 384-156 384-228s-384-60-384-228" id="b" fill="none" fill-rule="evenodd" stroke="#000" stroke-width="3"/><path d="M1056 612h396" fill="none" stroke="#000" stroke-width="2"/><use xlink:href="#b" transform="matrix(-1 0 0 1 2112 -72)" width="100%" height="100%"/><path d="M660 540h396" fill="none" stroke="#000" stroke-width="2"/><path d="M300 468H120.08M1056 612H830.013" fill="none" stroke="#000" stroke-width="2" stroke-dasharray="8, 8"/><path d="M1992.08 732c0-168 384-156 384-228s-384-60-384-228" fill="none" stroke="#000" stroke-width="3"/><path d="M1980.08 504h396m-792-72h396" fill="none" stroke="#000" stroke-width="2"/><path d="M1980.04 912l.04-960" fill="none" stroke="#000" stroke-width="4"/><path d="M1992.04 96c0 240 192 288 192 408s-192 168-192 408" fill="none" stroke="#000" stroke-width="3"/><path d="M2184.04 504h-204m0-72h-204" fill="none" stroke="#000" stroke-width="2"/><path d="M1980 888l.04-456" fill="none" stroke="#304790" stroke-width="4"/><path d="M1980.04 432h-204" fill="none" stroke="#000" stroke-width="2"/><path d="M1968.04 840c0-240-192-288-192-408" fill="none" stroke="#304790" stroke-width="3"/><path d="M1584.04 432h396" fill="none" stroke="#304690" stroke-width="2"/><path d="M1968.04 660c0-168-384-156-384-228" fill="none" stroke="#304790" stroke-width="3"/><path d="M1980.04 504h-225.987" fill="none" stroke="#304690" stroke-width="2" stroke-dasharray="8, 8"/><path d="M1968.08 204c0 168-384 156-384 228m192 0c0-120 192-168 192-408" fill="none" stroke="#000" stroke-width="3"/></g></svg>