<?xml version="1.0" encoding="UTF-8" standalone="no"?>
<svg
   xmlns:dc="http://purl.org/dc/elements/1.1/"
   xmlns:cc="http://creativecommons.org/ns#"
   xmlns:rdf="http://www.w3.org/1999/02/22-rdf-syntax-ns#"
   xmlns:svg="http://www.w3.org/2000/svg"
   xmlns="http://www.w3.org/2000/svg"
   xmlns:sodipodi="http://sodipodi.sourceforge.net/DTD/sodipodi-0.dtd"
   xmlns:inkscape="http://www.inkscape.org/namespaces/inkscape"
   width="892"
   height="984"
   viewBox="0 0 892 984.00002"
   id="svg2"
   version="1.1"
   inkscape:version="0.91 r13725"
   sodipodi:docname="N-impact-on-power-overlapped-C.svg">
  <metadata
     id="metadata60">
    <rdf:RDF>
      <cc:Work
         rdf:about="">
        <dc:format>image/svg+xml</dc:format>
        <dc:type
           rdf:resource="http://purl.org/dc/dcmitype/StillImage" />
        <dc:title></dc:title>
      </cc:Work>
    </rdf:RDF>
  </metadata>
  <defs
     id="defs58" />
  <sodipodi:namedview
     pagecolor="#ffffff"
     bordercolor="#666666"
     borderopacity="1"
     objecttolerance="10"
     gridtolerance="10"
     guidetolerance="10"
     inkscape:pageopacity="0"
     inkscape:pageshadow="2"
     inkscape:window-width="1161"
     inkscape:window-height="737"
     id="namedview56"
     showgrid="false"
     inkscape:snap-grids="true"
     inkscape:object-nodes="true"
     inkscape:zoom="0.48"
     inkscape:cx="320.64269"
     inkscape:cy="489.23659"
     inkscape:window-x="0"
     inkscape:window-y="0"
     inkscape:window-maximized="0"
     inkscape:current-layer="layer1"
     fit-margin-left="48"
     fit-margin-right="48"
     fit-margin-bottom="12"
     fit-margin-top="12">
    <inkscape:grid
       type="xygrid"
       id="grid3443"
       originx="-1510.54"
       originy="-35.999937" />
  </sodipodi:namedview>
  <g
     inkscape:groupmode="layer"
     id="layer1"
     inkscape:label="Main"
     style="display:inline"
     transform="translate(-1510.54,-36.0001)">
    <path
       d="m 1752.04,528 c 0,-120 192,-168 192,-408 l 11.96,0 0,408 z"
       id="use3438"
       inkscape:connector-curvature="0"
       style="display:inline;fill:#e0e0e0;fill-opacity:1;stroke:none;stroke-width:1;stroke-miterlimit:4;stroke-dasharray:none;stroke-opacity:1"
       sodipodi:nodetypes="ccccc" />
    <path
       style="fill:#a5baff;fill-rule:evenodd"
       inkscape:connector-curvature="0"
       id="path10"
       d="m 1752.04,528 204,0 0,72 -178.875,0 c -17.127,-24 -21.65,-48 -25.125,-72" />
    <path
       style="fill:#cdd9ff;fill-rule:evenodd"
       inkscape:connector-curvature="0"
       id="path12"
       d="m 1560.04,528 192,0 c 2.413,26.385 8.88,51.148 25.125,72 l -47.112,0 c -78.012,-21.997 -171.25,-39.09 -170.013,-72 z" />
    <path
       style="fill:none;stroke:#000000;stroke-width:3"
       inkscape:connector-curvature="0"
       id="path32"
       d="m 1968.08,828 c 0,-168 384,-156 384,-228 0,-72 -384,-60 -384,-228" />
    <path
       style="fill:none;stroke:#000000;stroke-width:2"
       inkscape:connector-curvature="0"
       id="path34"
       d="m 1956.08,600 396,0 m -792,-72 396,0" />
    <path
       style="fill:none;stroke:#000000;stroke-width:3"
       inkscape:connector-curvature="0"
       id="path38"
       d="m 1968.04,192 c 0,240 192,288 192,408 0,120 -192,168 -192,408" />
    <path
       style="fill:none;stroke:#000000;stroke-width:2"
       inkscape:connector-curvature="0"
       id="path40"
       d="m 2160.04,600 -204,0 m 0,-72 -204,0" />
    <path
       style="fill:none;stroke:#304790;stroke-width:4"
       inkscape:connector-curvature="0"
       id="path42"
       d="m 1956,984 0.04,-456" />
    <path
       style="fill:none;stroke:#000000;stroke-width:2"
       inkscape:connector-curvature="0"
       id="path44"
       d="m 1956.04,528 -204,0" />
    <path
       style="fill:none;stroke:#304790;stroke-width:3"
       inkscape:connector-curvature="0"
       id="path46"
       d="m 1944.04,936 c 0,-240 -192,-288 -192,-408" />
    <path
       style="fill:none;stroke:#304690;stroke-width:2"
       inkscape:connector-curvature="0"
       id="path48"
       d="m 1560.04,528 396,0" />
    <path
       style="fill:none;stroke:#304790;stroke-width:3"
       inkscape:connector-curvature="0"
       id="path50"
       d="m 1944.04,756 c 0,-168 -384,-156 -384,-228" />
    <path
       style="fill:none;stroke:#304690;stroke-width:2;stroke-dasharray:8, 8"
       inkscape:connector-curvature="0"
       id="path52"
       d="m 1956.04,600 -225.987,0" />
    <path
       style="display:inline;fill:#e0e0e0;fill-rule:evenodd;stroke:none"
       inkscape:connector-curvature="0"
       id="path8"
       d="m 1956.08,600 0,-300 -12,0 c 0,168 -384,156 -384,228 l 395.96,0" />
    <path
       style="display:inline;fill:none;stroke:#000000;stroke-width:3"
       inkscape:connector-curvature="0"
       id="path54"
       d="m 1944.08,300 c 0,168 -384,156 -384,228 m 192,0 c 0,-120 192,-168 192,-408" />
    <path
       style="fill:none;stroke:#000000;stroke-width:4"
       inkscape:connector-curvature="0"
       id="path36"
       d="m 1956.04,1008 0.04,-960" />
  </g>
</svg>
