<?xml version="1.0" encoding="UTF-8" standalone="no"?><svg xmlns="http://www.w3.org/2000/svg" xmlns:xlink="http://www.w3.org/1999/xlink" width="1008" height="816" viewBox="0 0 1008 816"><path d="M112 664h736v-12c-152-4-204-200-228-252-24-44-80-256-140-256-56 0-116 208-148 280-28 60-72 220-220 228z" fill="#f7f7f7" fill-rule="evenodd"/><path d="M620 400c-16-24-80-256-140-256-56 0-112 192-144 272-8 20-52 128-88 166.475V664h464v-83.78C668 532 632 432 620 400z" fill="#e7e7e7" fill-rule="evenodd" stroke="#3f3f3f" stroke-width="1.125" stroke-dasharray="3.375, 3.375"/><path d="M591.03 326.862C561.863 251.947 524 144 480 144c-40 0-69.962 83.07-106.205 170.66-9.07 24.437-23.066 62.032-29.795 79.84V664h272V391.83c-7.57-18.3-16.797-43.167-24.97-64.968z" fill="#dbdbdb" fill-rule="evenodd" stroke="#000" stroke-width="1.125" stroke-dasharray="3.375, 3.375"/><path d="M444 168.96V664h72V166.96c-8.118-8.61-17.953-22.972-36-22.96-18.41.012-31.517 18.073-36 24.96z" fill="#cbcbcb" fill-rule="evenodd" stroke="#000" stroke-width="1.125" stroke-dasharray="3.375, 3.37500000000000000"/><path d="M112 652c148-8 192-168 220-228 32-72 91.575-280.364 147.575-280.364C539.575 143.636 596 356 620 400c24 52 76 248 228 252" fill="none" stroke="#000" stroke-width="2"/><g transform="translate(0 -192)"><path d="M112 856V264" fill="none" stroke="#000" stroke-width="2" stroke-linecap="square"/><path d="M112 856h800" stroke-miterlimit="2" fill="none" stroke="#000" stroke-width="4"/><path d="M112 872v32" id="a" fill="none" fill-rule="evenodd" stroke="#000"/><use xlink:href="#a" transform="translate(80)" /><use xlink:href="#a" transform="translate(160)" /><use xlink:href="#a" transform="translate(240)" /><use xlink:href="#a" transform="translate(320)" /><use xlink:href="#a" transform="translate(400)" /><use xlink:href="#a" transform="translate(480)" /><use xlink:href="#a" transform="translate(560)" /><use xlink:href="#a" transform="translate(640)" /><use xlink:href="#a" transform="translate(720)" /><use xlink:href="#a" transform="translate(800)" /><path d="M128 872v16" id="b" fill="none" fill-rule="evenodd" stroke="#000"/><use xlink:href="#b" transform="translate(16)" /><use xlink:href="#b" transform="translate(32)" /><use xlink:href="#b" transform="translate(48)" /><use xlink:href="#b" transform="translate(64)" /><use xlink:href="#b" transform="translate(80)" /><use xlink:href="#b" transform="translate(96)" /><use xlink:href="#b" transform="translate(112)" /><use xlink:href="#b" transform="translate(128)" /><use xlink:href="#b" transform="translate(144)" /><use xlink:href="#b" transform="translate(160)" /><use xlink:href="#b" transform="translate(176)" /><use xlink:href="#b" transform="translate(192)" /><use xlink:href="#b" transform="translate(208)" /><use xlink:href="#b" transform="translate(224)" /><use xlink:href="#b" transform="translate(240)" /><use xlink:href="#b" transform="translate(256)" /><use xlink:href="#b" transform="translate(272)" /><use xlink:href="#b" transform="translate(288)" /><use xlink:href="#b" transform="translate(304)" /><use xlink:href="#b" transform="translate(320)" /><use xlink:href="#b" transform="translate(336)" /><use xlink:href="#b" transform="translate(352)" /><use xlink:href="#b" transform="translate(368)" /><use xlink:href="#b" transform="translate(384)" /><use xlink:href="#b" transform="translate(400)" /><use xlink:href="#b" transform="translate(416)" /><use xlink:href="#b" transform="translate(432)" /><use xlink:href="#b" transform="translate(448)" /><use xlink:href="#b" transform="translate(464)" /><use xlink:href="#b" transform="translate(480)" /><use xlink:href="#b" transform="translate(496)" /><use xlink:href="#b" transform="translate(512)" /><use xlink:href="#b" transform="translate(528)" /><use xlink:href="#b" transform="translate(544)" /><use xlink:href="#b" transform="translate(560)" /><use xlink:href="#b" transform="translate(576)" /><use xlink:href="#b" transform="translate(592)" /><use xlink:href="#b" transform="translate(608)" /><use xlink:href="#b" transform="translate(624)" /><use xlink:href="#b" transform="translate(640)" /><use xlink:href="#b" transform="translate(656)" /><use xlink:href="#b" transform="translate(672)" /><use xlink:href="#b" transform="translate(688)" /><use xlink:href="#b" transform="translate(704)" /><use xlink:href="#b" transform="translate(720)" /><use xlink:href="#b" transform="translate(736)" /><use xlink:href="#b" transform="translate(752)" /><use xlink:href="#b" transform="translate(768)" /><use xlink:href="#a" transform="rotate(-90 -176 624)" /></g></svg>
