<?xml version="1.0" encoding="UTF-8" standalone="no"?>
<!-- Created with Inkscape (http://www.inkscape.org/) -->

<svg
   xmlns:dc="http://purl.org/dc/elements/1.1/"
   xmlns:cc="http://creativecommons.org/ns#"
   xmlns:rdf="http://www.w3.org/1999/02/22-rdf-syntax-ns#"
   xmlns:svg="http://www.w3.org/2000/svg"
   xmlns="http://www.w3.org/2000/svg"
   xmlns:xlink="http://www.w3.org/1999/xlink"
   xmlns:sodipodi="http://sodipodi.sourceforge.net/DTD/sodipodi-0.dtd"
   xmlns:inkscape="http://www.inkscape.org/namespaces/inkscape"
   width="1920"
   height="1920"
   viewBox="0 0 1920 1920"
   id="svg2"
   version="1.1"
   inkscape:version="0.91 r13725"
   sodipodi:docname="P-A-A-PA-communications.svg"
   inkscape:export-filename="/Users/MJF/Documents/Git Repositories/freeman.blue/pages/images/large/P-A-A-PA-communications.png"
   inkscape:export-xdpi="90"
   inkscape:export-ydpi="90">
  <defs
     id="defs4">
    <marker
       inkscape:stockid="StopL"
       orient="auto"
       refY="0.0"
       refX="0.0"
       id="marker11626"
       style="overflow:visible"
       inkscape:isstock="true">
      <path
         id="path11628"
         d="M 0.0,5.65 L 0.0,-5.65"
         style="fill:none;fill-opacity:0.75;fill-rule:evenodd;stroke:#000000;stroke-width:1pt;stroke-opacity:1"
         transform="scale(0.8)" />
    </marker>
    <marker
       inkscape:isstock="true"
       style="overflow:visible"
       id="marker11599"
       refX="0.0"
       refY="0.0"
       orient="auto"
       inkscape:stockid="Arrow1Lstart">
      <path
         transform="scale(0.8) translate(12.5,0)"
         style="fill-rule:evenodd;stroke:#000000;stroke-width:1pt;stroke-opacity:1;fill:#000000;fill-opacity:1"
         d="M 0.0,0.0 L 5.0,-5.0 L -12.5,0.0 L 5.0,5.0 L 0.0,0.0 z "
         id="path11601" />
    </marker>
    <marker
       inkscape:stockid="Arrow2Mstart"
       orient="auto"
       refY="0.0"
       refX="0.0"
       id="Arrow2Mstart"
       style="overflow:visible"
       inkscape:isstock="true">
      <path
         id="path4322"
         style="fill-rule:evenodd;stroke-width:0.625;stroke-linejoin:round;stroke:#000000;stroke-opacity:1;fill:#000000;fill-opacity:1"
         d="M 8.7185878,4.0337352 L -2.2072895,0.016013256 L 8.7185884,-4.0017078 C 6.9730900,-1.6296469 6.9831476,1.6157441 8.7185878,4.0337352 z "
         transform="scale(0.6) translate(0,0)" />
    </marker>
    <marker
       inkscape:stockid="Arrow2Sstart"
       orient="auto"
       refY="0.0"
       refX="0.0"
       id="Arrow2Sstart"
       style="overflow:visible"
       inkscape:isstock="true">
      <path
         id="path4328"
         style="fill-rule:evenodd;stroke-width:0.625;stroke-linejoin:round;stroke:#000000;stroke-opacity:1;fill:#000000;fill-opacity:1"
         d="M 8.7185878,4.0337352 L -2.2072895,0.016013256 L 8.7185884,-4.0017078 C 6.9730900,-1.6296469 6.9831476,1.6157441 8.7185878,4.0337352 z "
         transform="scale(0.3) translate(-2.3,0)" />
    </marker>
    <marker
       style="overflow:visible"
       id="DistanceStart"
       refX="0.0"
       refY="0.0"
       orient="auto"
       inkscape:stockid="DistanceStart"
       inkscape:isstock="true">
      <g
         id="g2300"
         style="stroke:#000000;stroke-opacity:1;fill:#000000;fill-opacity:1">
        <path
           style="fill:#000000;stroke:#000000;stroke-width:1.15;stroke-linecap:square;stroke-opacity:1;fill-opacity:1"
           d="M 0,0 L 2,0"
           id="path2306" />
        <path
           style="fill:#000000;fill-rule:evenodd;stroke:#000000;stroke-opacity:1;fill-opacity:1"
           d="M 0,0 L 13,4 L 9,0 13,-4 L 0,0 z "
           id="path2302" />
        <path
           style="fill:#000000;stroke:#000000;stroke-width:1;stroke-linecap:square;stroke-opacity:1;fill-opacity:1"
           d="M 0,-4 L 0,40"
           id="path2304" />
      </g>
    </marker>
    <marker
       inkscape:stockid="Arrow1Lend"
       orient="auto"
       refY="0.0"
       refX="0.0"
       id="Arrow1Lend"
       style="overflow:visible;"
       inkscape:isstock="true">
      <path
         id="path4301"
         d="M 0.0,0.0 L 5.0,-5.0 L -12.5,0.0 L 5.0,5.0 L 0.0,0.0 z "
         style="fill-rule:evenodd;stroke:#000000;stroke-width:1pt;stroke-opacity:1;fill:#000000;fill-opacity:1"
         transform="scale(0.8) rotate(180) translate(12.5,0)" />
    </marker>
  </defs>
  <sodipodi:namedview
     id="base"
     pagecolor="#ffffff"
     bordercolor="#666666"
     borderopacity="1.0"
     inkscape:pageopacity="1"
     inkscape:pageshadow="2"
     inkscape:zoom="0.41986485"
     inkscape:cx="836.8795"
     inkscape:cy="740.19017"
     inkscape:document-units="px"
     inkscape:current-layer="layer2"
     showgrid="false"
     units="px"
     inkscape:snap-intersection-paths="false"
     inkscape:snap-others="true"
     inkscape:object-nodes="true"
     inkscape:snap-bbox="true"
     inkscape:bbox-nodes="false"
     inkscape:snap-nodes="false"
     inkscape:object-paths="false"
     inkscape:snap-grids="true"
     inkscape:window-width="1182"
     inkscape:window-height="753"
     inkscape:window-x="0"
     inkscape:window-y="0"
     inkscape:window-maximized="0"
     inkscape:snap-smooth-nodes="true"
     inkscape:bbox-paths="false"
     inkscape:snap-bbox-edge-midpoints="true">
    <inkscape:grid
       type="xygrid"
       id="grid3336"
       spacingx="4"
       spacingy="4"
       empspacing="4" />
  </sodipodi:namedview>
  <metadata
     id="metadata7">
    <rdf:RDF>
      <cc:Work
         rdf:about="">
        <dc:format>image/svg+xml</dc:format>
        <dc:type
           rdf:resource="http://purl.org/dc/dcmitype/StillImage" />
        <dc:title />
      </cc:Work>
    </rdf:RDF>
  </metadata>
  <g
     inkscape:label="Layer 1"
     inkscape:groupmode="layer"
     id="layer1"
     transform="translate(0,867.63784)">
    <path
       style="display:inline;opacity:1;fill:#e3e3e3;fill-opacity:1;stroke:#000000;stroke-width:2;stroke-linecap:round;stroke-linejoin:round;stroke-miterlimit:4;stroke-dasharray:none;stroke-dashoffset:0;stroke-opacity:1"
       id="path4157"
       sodipodi:type="arc"
       sodipodi:cx="958.01123"
       sodipodi:cy="-705.64886"
       sodipodi:rx="128.99432"
       sodipodi:ry="128.99449"
       sodipodi:start="3.971008"
       sodipodi:end="3.9639569"
       sodipodi:open="true"
       d="m 870.90045,-800.78703 a 128.99432,128.99449 0 0 1 182.09515,7.8597 128.99432,128.99449 0 0 1 -7.5387,182.10893 128.99432,128.99449 0 0 1 -182.12172,-7.21767 128.99432,128.99449 0 0 1 6.89661,-182.13438" />
    <path
       style="opacity:1;fill:none;fill-opacity:1;stroke:#000000;stroke-width:3;stroke-linecap:round;stroke-linejoin:round;stroke-miterlimit:4;stroke-dasharray:none;stroke-dashoffset:0;stroke-opacity:1"
       id="path4151"
       sodipodi:type="arc"
       sodipodi:cx="380.02258"
       sodipodi:cy="-291.63785"
       sodipodi:rx="288"
       sodipodi:ry="272"
       sodipodi:start="3.971008"
       sodipodi:end="3.9639569"
       sodipodi:open="true"
       d="m 185.53414,-492.24782 a 288,272 0 0 1 406.55584,16.5731 288,272 0 0 1 -16.8313,383.998017 288,272 0 0 1 -406.61518,-15.219307 288,272 0 0 1 15.39776,-384.05167" />
    <use
       x="0"
       y="0"
       xlink:href="#path4151"
       id="use4153"
       transform="translate(1152.9823,1.0062848)"
       width="100%"
       height="100%" />
    <use
       x="0"
       y="0"
       xlink:href="#path4166"
       id="use4169"
       transform="matrix(-1,0,0,1,1916.0884,-767.8801)"
       width="100%"
       height="100%"
       style="fill:#e3e3e3;fill-opacity:1" />
    <use
       style="display:inline"
       x="0"
       y="0"
       xlink:href="#text4184"
       id="use4192"
       transform="translate(1136,1.5200718e-5)"
       width="100%"
       height="100%" />
    <g
       transform="translate(-3.9774213,-851.63783)"
       style="font-style:normal;font-variant:normal;font-weight:600;font-stretch:condensed;font-size:70px;line-height:110.00000238%;font-family:'Avenir Next Condensed';-inkscape-font-specification:'Avenir Next Condensed, Semi-Bold Condensed';text-align:center;letter-spacing:0px;word-spacing:0px;writing-mode:lr-tb;text-anchor:middle;display:inline;fill:#000000;fill-opacity:1;stroke:none;stroke-width:1px;stroke-linecap:butt;stroke-linejoin:miter;stroke-opacity:1"
       id="text4184">
      <path
         d="m 326.65922,564.91998 -7.7,-21.14 -4.69,0 0,21.14 -8.12,0 0,-49.56 14.14,0 q 3.08,0 5.67,0.84 2.59,0.77 4.41,2.52 1.89,1.75 2.94,4.41 1.05,2.66 1.05,6.37 0,2.87 -0.77,5.11 -0.7,2.17 -1.82,3.71 -1.12,1.54 -2.52,2.52 -1.33,0.91 -2.66,1.26 l 8.89,22.82 -8.82,0 z m -0.56,-35 q 0,-2.24 -0.63,-3.71 -0.63,-1.47 -1.68,-2.31 -0.98,-0.84 -2.24,-1.19 -1.26,-0.35 -2.52,-0.35 l -4.76,0 0,15.26 4.76,0 q 3.08,0 5.04,-1.89 2.03,-1.96 2.03,-5.81 z"
         id="path3451"
         inkscape:connector-curvature="0" />
      <path
         d="m 350.22953,518.85998 q 0,2.1 -1.33,3.5 -1.33,1.4 -3.29,1.4 -2.03,0 -3.36,-1.4 -1.26,-1.4 -1.26,-3.5 0,-2.03 1.26,-3.5 1.33,-1.47 3.36,-1.47 2.03,0 3.29,1.47 1.33,1.47 1.33,3.5 z m -8.54,46.06 0,-35.7 7.84,0 0,35.7 -7.84,0 z"
         id="path3453"
         inkscape:connector-curvature="0" />
      <path
         d="m 384.24953,563.93998 q 0,3.99 -0.77,7.21 -0.77,3.29 -2.52,5.6 -1.75,2.38 -4.48,3.64 -2.73,1.33 -6.65,1.33 -3.71,0 -7.07,-1.47 -3.36,-1.4 -5.53,-3.78 l 4.27,-5.67 q 1.54,1.68 3.57,2.8 2.1,1.12 4.55,1.12 1.96,0 3.29,-0.84 1.33,-0.77 2.1,-2.17 0.84,-1.33 1.19,-3.22 0.35,-1.82 0.35,-3.99 l 0,-4.34 -0.14,0 q -0.77,2.38 -2.87,4.06 -2.03,1.61 -4.97,1.61 -2.87,0 -5.04,-1.4 -2.17,-1.4 -3.64,-3.92 -1.4,-2.52 -2.17,-5.95 -0.7,-3.43 -0.7,-7.49 0,-4.13 0.77,-7.63 0.77,-3.5 2.24,-6.02 1.47,-2.52 3.57,-3.92 2.17,-1.47 4.97,-1.47 3.43,0 5.25,1.82 1.82,1.75 2.66,4.41 l 0.21,0 0,-5.04 7.56,0 0,34.72 z m -7.49,-16.94 q 0,-2.52 -0.42,-4.76 -0.35,-2.24 -1.12,-3.85 -0.7,-1.61 -1.82,-2.52 -1.12,-0.98 -2.59,-0.98 -1.54,0 -2.66,0.98 -1.12,0.91 -1.82,2.52 -0.7,1.61 -1.05,3.85 -0.35,2.24 -0.35,4.76 0,2.52 0.35,4.76 0.35,2.24 1.05,3.92 0.7,1.61 1.82,2.59 1.12,0.91 2.66,0.91 1.47,0 2.59,-0.91 1.12,-0.98 1.82,-2.59 0.77,-1.68 1.12,-3.92 0.42,-2.24 0.42,-4.76 z"
         id="path3455"
         inkscape:connector-curvature="0" />
      <path
         d="m 411.70266,564.91998 0,-22.4 q 0,-1.33 -0.14,-2.66 -0.14,-1.4 -0.63,-2.52 -0.42,-1.12 -1.33,-1.75 -0.84,-0.7 -2.24,-0.7 -2.66,0 -4.27,2.66 -1.54,2.66 -1.54,6.72 l 0,20.65 -7.91,0 0,-52.92 7.91,0 0,22.75 0.14,0 q 0.91,-2.73 3.08,-4.69 2.24,-2.03 5.6,-2.03 2.94,0 4.76,1.26 1.82,1.19 2.8,3.22 0.98,2.03 1.33,4.69 0.35,2.59 0.35,5.32 l 0,22.4 -7.91,0 z"
         id="path3457"
         inkscape:connector-curvature="0" />
      <path
         d="m 436.8961,535.30998 0,18.34 q 0,2.94 0.84,4.27 0.91,1.33 2.73,1.33 0.63,0 1.26,-0.14 0.7,-0.14 1.19,-0.42 l 0.14,6.16 q -0.84,0.42 -2.24,0.7 -1.4,0.28 -2.8,0.28 -4.55,0 -6.58,-2.66 -1.96,-2.73 -1.96,-7.77 l 0,-20.09 -4.48,0 0,-6.09 4.48,0 0,-9.1 7.42,0 0,9.1 6.23,0 0,6.09 -6.23,0 z"
         id="path3459"
         inkscape:connector-curvature="0" />
      <path
         d="m 464.06703,537.26998 q -0.98,-1.33 -2.45,-2.17 -1.47,-0.84 -3.36,-0.84 -1.75,0 -2.94,1.26 -1.19,1.19 -1.19,3.22 0,2.1 1.26,3.08 1.26,0.91 3.99,1.89 1.54,0.56 3.01,1.4 1.54,0.77 2.73,2.03 1.26,1.26 1.96,3.08 0.77,1.75 0.77,4.2 0,2.94 -0.98,5.18 -0.91,2.17 -2.52,3.64 -1.61,1.47 -3.71,2.17 -2.03,0.7 -4.27,0.7 -3.36,0 -6.3,-1.33 -2.87,-1.33 -4.9,-3.57 l 4.27,-5.04 q 1.26,1.47 2.94,2.52 1.68,1.05 3.92,1.05 1.96,0 3.08,-1.33 1.12,-1.33 1.12,-3.5 0,-2.52 -1.68,-3.64 -1.61,-1.12 -4.34,-2.1 -1.4,-0.49 -2.73,-1.19 -1.33,-0.7 -2.45,-1.89 -1.12,-1.19 -1.82,-2.87 -0.63,-1.75 -0.63,-4.2 0,-2.59 0.91,-4.62 0.98,-2.03 2.52,-3.43 1.54,-1.47 3.57,-2.17 2.03,-0.77 4.2,-0.77 3.22,0 5.81,1.19 2.59,1.12 4.41,2.94 l -4.2,5.11 z"
         id="path3461"
         inkscape:connector-curvature="0" />
      <path
         d="m 346.63,641.91998 -9.66,0 -6.86,-37.24 -0.14,0 -6.86,37.24 -9.66,0 -9.45,-49.56 8.54,0 6.37,38.5 0.28,0 6.65,-38.5 8.82,0 6.86,38.5 0.14,0 6.37,-38.5 8.12,0 -9.52,49.56 z"
         id="path3463"
         inkscape:connector-curvature="0" />
      <path
         d="m 375.45688,625.18998 -2.31,0 q -1.47,0 -2.87,0.28 -1.33,0.21 -2.38,0.91 -1.05,0.7 -1.68,1.96 -0.63,1.19 -0.63,3.08 0,2.8 1.19,4.13 1.26,1.33 2.87,1.33 1.61,0 2.73,-0.91 1.12,-0.91 1.75,-2.31 0.7,-1.4 0.98,-3.08 0.35,-1.75 0.35,-3.36 l 0,-2.03 z m 0.28,11.41 q -0.77,2.94 -2.8,4.62 -2.03,1.61 -5.39,1.61 -1.54,0 -3.15,-0.56 -1.61,-0.56 -2.94,-1.82 -1.26,-1.33 -2.1,-3.36 -0.84,-2.1 -0.84,-5.04 0,-3.78 1.33,-6.16 1.4,-2.45 3.5,-3.85 2.17,-1.4 4.76,-1.89 2.66,-0.56 5.18,-0.56 l 1.96,0 0,-1.12 q 0,-3.57 -1.47,-5.11 -1.4,-1.61 -3.78,-1.61 -2.03,0 -3.71,0.98 -1.61,0.91 -2.8,2.45 l -3.78,-4.97 q 1.96,-2.45 4.97,-3.78 3.01,-1.4 5.95,-1.4 3.29,0 5.53,1.05 2.31,1.05 3.71,3.08 1.4,1.96 1.96,4.9 0.63,2.94 0.63,6.65 l 0,21.21 -6.58,0 0,-5.32 -0.14,0 z"
         id="path3465"
         inkscape:connector-curvature="0" />
      <path
         d="m 399.36516,606.21998 0,5.67 0.14,0 q 0.98,-2.87 3.22,-4.83 2.31,-2.03 5.67,-2.03 2.94,0 4.69,1.26 1.82,1.19 2.8,3.22 0.98,2.03 1.33,4.69 0.35,2.59 0.35,5.32 l 0,22.4 -7.91,0 0,-22.4 q 0,-1.33 -0.14,-2.66 -0.14,-1.4 -0.63,-2.52 -0.42,-1.12 -1.33,-1.75 -0.84,-0.7 -2.24,-0.7 -2.66,0 -4.27,2.66 -1.54,2.66 -1.54,6.72 l 0,20.65 -7.91,0 0,-35.7 7.77,0 z"
         id="path3467"
         inkscape:connector-curvature="0" />
      <path
         d="m 434.84532,612.30998 0,18.34 q 0,2.94 0.84,4.27 0.91,1.33 2.73,1.33 0.63,0 1.26,-0.14 0.7,-0.14 1.19,-0.42 l 0.14,6.16 q -0.84,0.42 -2.24,0.7 -1.4,0.28 -2.8,0.28 -4.55,0 -6.58,-2.66 -1.96,-2.73 -1.96,-7.77 l 0,-20.09 -4.48,0 0,-6.09 4.48,0 0,-9.1 7.42,0 0,9.1 6.23,0 0,6.09 -6.23,0 z"
         id="path3469"
         inkscape:connector-curvature="0" />
      <path
         d="m 462.01625,614.26998 q -0.98,-1.33 -2.45,-2.17 -1.47,-0.84 -3.36,-0.84 -1.75,0 -2.94,1.26 -1.19,1.19 -1.19,3.22 0,2.1 1.26,3.08 1.26,0.91 3.99,1.89 1.54,0.56 3.01,1.4 1.54,0.77 2.73,2.03 1.26,1.26 1.96,3.08 0.77,1.75 0.77,4.2 0,2.94 -0.98,5.18 -0.91,2.17 -2.52,3.64 -1.61,1.47 -3.71,2.17 -2.03,0.7 -4.27,0.7 -3.36,0 -6.3,-1.33 -2.87,-1.33 -4.9,-3.57 l 4.27,-5.04 q 1.26,1.47 2.94,2.52 1.68,1.05 3.92,1.05 1.96,0 3.08,-1.33 1.12,-1.33 1.12,-3.5 0,-2.52 -1.68,-3.64 -1.61,-1.12 -4.34,-2.1 -1.4,-0.49 -2.73,-1.19 -1.33,-0.7 -2.45,-1.89 -1.12,-1.19 -1.82,-2.87 -0.63,-1.75 -0.63,-4.2 0,-2.59 0.91,-4.62 0.98,-2.03 2.52,-3.43 1.54,-1.47 3.57,-2.17 2.03,-0.77 4.2,-0.77 3.22,0 5.81,1.19 2.59,1.12 4.41,2.94 l -4.2,5.11 z"
         id="path3471"
         inkscape:connector-curvature="0" />
      <path
         d="m 330.37852,718.91999 -14.07,-35 -0.21,0 0.14,35 -7.56,0 0,-49.56 9.59,0 13.93,35.21 0.21,0 -0.07,-35.21 7.28,0 0,49.56 -9.24,0 z"
         id="path3473"
         inkscape:connector-curvature="0" />
      <path
         d="m 355.08414,703.09999 q 0,2.1 0.42,3.99 0.42,1.82 1.19,3.22 0.84,1.33 1.96,2.17 1.19,0.77 2.73,0.77 2.17,0 3.43,-1.4 1.33,-1.4 2.1,-3.22 l 5.81,3.36 q -1.54,3.71 -4.41,5.95 -2.8,2.17 -7.21,2.17 -6.23,0 -10.01,-4.9 -3.78,-4.9 -3.78,-14.07 0,-4.27 0.98,-7.77 0.98,-3.57 2.8,-6.09 1.82,-2.52 4.27,-3.85 2.52,-1.4 5.6,-1.4 3.43,0 5.81,1.4 2.45,1.4 3.92,3.85 1.54,2.38 2.24,5.67 0.7,3.29 0.7,7.14 l 0,3.01 -18.55,0 z m 10.99,-5.74 q 0,-3.99 -1.26,-6.44 -1.26,-2.52 -3.92,-2.52 -1.54,0 -2.66,0.91 -1.05,0.91 -1.75,2.31 -0.63,1.33 -0.98,2.94 -0.35,1.54 -0.35,2.8 l 10.92,0 z"
         id="path3475"
         inkscape:connector-curvature="0" />
      <path
         d="m 386.25602,703.09999 q 0,2.1 0.42,3.99 0.42,1.82 1.19,3.22 0.84,1.33 1.96,2.17 1.19,0.77 2.73,0.77 2.17,0 3.43,-1.4 1.33,-1.4 2.1,-3.22 l 5.81,3.36 q -1.54,3.71 -4.41,5.95 -2.8,2.17 -7.21,2.17 -6.23,0 -10.01,-4.9 -3.78,-4.9 -3.78,-14.07 0,-4.27 0.98,-7.77 0.98,-3.57 2.8,-6.09 1.82,-2.52 4.27,-3.85 2.52,-1.4 5.6,-1.4 3.43,0 5.81,1.4 2.45,1.4 3.92,3.85 1.54,2.38 2.24,5.67 0.7,3.29 0.7,7.14 l 0,3.01 -18.55,0 z m 10.99,-5.74 q 0,-3.99 -1.26,-6.44 -1.26,-2.52 -3.92,-2.52 -1.54,0 -2.66,0.91 -1.05,0.91 -1.75,2.31 -0.63,1.33 -0.98,2.94 -0.35,1.54 -0.35,2.8 l 10.92,0 z"
         id="path3477"
         inkscape:connector-curvature="0" />
      <path
         d="m 429.32789,718.91999 0,-5.11 -0.14,0 q -0.77,2.66 -2.66,4.48 -1.82,1.82 -5.32,1.82 -2.73,0 -4.9,-1.47 -2.17,-1.47 -3.64,-4.06 -1.47,-2.66 -2.24,-6.16 -0.77,-3.57 -0.77,-7.7 0,-4.06 0.7,-7.49 0.77,-3.43 2.24,-5.88 1.47,-2.52 3.57,-3.92 2.17,-1.4 5.04,-1.4 2.94,0 4.97,1.68 2.03,1.61 2.8,4.06 l 0.21,0 0,-21.77 7.77,0 0,52.92 -7.63,0 z m 0.14,-17.85 q 0,-2.59 -0.42,-4.76 -0.35,-2.24 -1.12,-3.85 -0.7,-1.68 -1.89,-2.59 -1.12,-0.98 -2.59,-0.98 -1.54,0 -2.66,0.98 -1.12,0.91 -1.82,2.59 -0.7,1.61 -1.05,3.85 -0.35,2.17 -0.35,4.76 0,2.52 0.35,4.76 0.35,2.17 1.05,3.85 0.7,1.61 1.82,2.59 1.12,0.91 2.66,0.91 1.54,0 2.66,-0.91 1.12,-0.98 1.82,-2.59 0.77,-1.68 1.12,-3.85 0.42,-2.24 0.42,-4.76 z"
         id="path3479"
         inkscape:connector-curvature="0" />
      <path
         d="m 461.53774,691.26999 q -0.98,-1.33 -2.45,-2.17 -1.47,-0.84 -3.36,-0.84 -1.75,0 -2.94,1.26 -1.19,1.19 -1.19,3.22 0,2.1 1.26,3.08 1.26,0.91 3.99,1.89 1.54,0.56 3.01,1.4 1.54,0.77 2.73,2.03 1.26,1.26 1.96,3.08 0.77,1.75 0.77,4.2 0,2.94 -0.98,5.18 -0.91,2.17 -2.52,3.64 -1.61,1.47 -3.71,2.17 -2.03,0.7 -4.27,0.7 -3.36,0 -6.3,-1.33 -2.87,-1.33 -4.9,-3.57 l 4.27,-5.04 q 1.26,1.47 2.94,2.52 1.68,1.05 3.92,1.05 1.96,0 3.08,-1.33 1.12,-1.33 1.12,-3.5 0,-2.52 -1.68,-3.64 -1.61,-1.12 -4.34,-2.1 -1.4,-0.49 -2.73,-1.19 -1.33,-0.7 -2.45,-1.89 -1.12,-1.19 -1.82,-2.87 -0.63,-1.75 -0.63,-4.2 0,-2.59 0.91,-4.62 0.98,-2.03 2.52,-3.43 1.54,-1.47 3.57,-2.17 2.03,-0.77 4.2,-0.77 3.22,0 5.81,1.19 2.59,1.12 4.41,2.94 l -4.2,5.11 z"
         id="path3481"
         inkscape:connector-curvature="0" />
    </g>
    <g
       transform="translate(-3.9774213,-851.63783)"
       style="display:inline;fill:#000000;fill-opacity:1;stroke:none;stroke-width:1px;stroke-linecap:butt;stroke-linejoin:miter;stroke-opacity:1"
       id="text4180">
      <path
         d="m 377.81155,414.47 0.18,-48.96 -0.27,0 -12.78,48.96 -8.46,0 -12.51,-48.96 -0.27,0 0.18,48.96 -9.81,0 0,-63.72 14.49,0 12.24,46.62 0.36,0 11.97,-46.62 15.21,0 0,63.72 -10.53,0 z"
         id="path3484"
         inkscape:connector-curvature="0" />
      <path
         d="m 408.14999,394.13 q 0,2.7 0.54,5.13 0.54,2.34 1.53,4.14 1.08,1.71 2.52,2.79 1.53,0.99 3.51,0.99 2.79,0 4.41,-1.8 1.71,-1.8 2.7,-4.14 l 7.47,4.32 q -1.98,4.77 -5.67,7.65 -3.6,2.79 -9.27,2.79 -8.01,0 -12.87,-6.3 -4.86,-6.3 -4.86,-18.09 0,-5.49 1.26,-9.99 1.26,-4.59 3.6,-7.83 2.34,-3.24 5.49,-4.95 3.24,-1.8 7.2,-1.8 4.41,0 7.47,1.8 3.15,1.8 5.04,4.95 1.98,3.06 2.88,7.29 0.9,4.23 0.9,9.18 l 0,3.87 -23.85,0 z m 14.13,-7.38 q 0,-5.13 -1.62,-8.28 -1.62,-3.24 -5.04,-3.24 -1.98,0 -3.42,1.17 -1.35,1.17 -2.25,2.97 -0.81,1.71 -1.26,3.78 -0.45,1.98 -0.45,3.6 l 14.04,0 z"
         id="path3486"
         inkscape:connector-curvature="0" />
    </g>
    <g
       transform="translate(-3.9774213,-851.63783)"
       style="display:inline;fill:#000000;fill-opacity:1;stroke:none;stroke-width:1px;stroke-linecap:butt;stroke-linejoin:miter;stroke-opacity:1"
       id="use4203">
      <path
         d="m 1498.55,391.33 0,24.39 -10.62,0 0,-24.39 L 1472,352 l 11.7,0 9.54,28.44 0.27,-0.18 9.72,-28.26 11.43,0 -16.11,39.33 z"
         id="path3380"
         inkscape:connector-curvature="0" />
      <path
         d="m 1547.9783,392.86 q 0,5.4 -1.26,9.9 -1.17,4.5 -3.51,7.74 -2.25,3.15 -5.49,4.95 -3.24,1.8 -7.38,1.8 -4.14,0 -7.38,-1.8 -3.24,-1.8 -5.58,-4.95 -2.25,-3.24 -3.51,-7.74 -1.17,-4.5 -1.17,-9.9 0,-5.49 1.17,-9.99 1.26,-4.59 3.51,-7.83 2.25,-3.24 5.49,-4.95 3.33,-1.8 7.47,-1.8 4.14,0 7.38,1.8 3.24,1.71 5.49,4.95 2.34,3.24 3.51,7.83 1.26,4.5 1.26,9.99 z m -10.08,-0.09 q 0,-3.33 -0.45,-6.12 -0.45,-2.88 -1.44,-4.95 -0.9,-2.16 -2.34,-3.33 -1.35,-1.26 -3.33,-1.26 -1.98,0 -3.42,1.26 -1.35,1.17 -2.25,3.33 -0.9,2.07 -1.35,4.95 -0.45,2.79 -0.45,6.12 0,3.24 0.45,6.12 0.45,2.88 1.35,4.95 0.9,2.07 2.25,3.33 1.44,1.17 3.42,1.17 1.98,0 3.42,-1.17 1.44,-1.26 2.34,-3.33 0.9,-2.07 1.35,-4.95 0.45,-2.88 0.45,-6.12 z"
         id="path3382"
         inkscape:connector-curvature="0" />
      <path
         d="m 1580.45,415.72 0,-7.29 -0.18,0 q -1.26,3.69 -4.23,6.3 -2.88,2.52 -7.2,2.52 -3.78,0 -6.12,-1.53 -2.25,-1.62 -3.51,-4.23 -1.26,-2.61 -1.71,-5.94 -0.45,-3.42 -0.45,-6.93 l 0,-28.8 10.17,0 0,28.8 q 0,1.8 0.18,3.51 0.18,1.71 0.72,3.15 0.63,1.35 1.71,2.25 1.17,0.81 2.97,0.81 3.42,0 5.4,-3.33 2.07,-3.42 2.07,-8.64 l 0,-26.55 10.17,0 0,45.9 -9.99,0 z"
         id="path3384"
         inkscape:connector-curvature="0" />
    </g>
    <path
       style="display:inline;opacity:1;fill:#f7f7f7;fill-opacity:0.96862745;stroke:#000000;stroke-width:2;stroke-linecap:round;stroke-linejoin:round;stroke-miterlimit:4;stroke-dasharray:none;stroke-dashoffset:0;stroke-opacity:1"
       id="path4171"
       sodipodi:type="arc"
       sodipodi:cx="956.73358"
       sodipodi:cy="-322.63742"
       sodipodi:rx="127.75372"
       sodipodi:ry="128.00024"
       sodipodi:start="4.7107962"
       sodipodi:end="1.5685368"
       d="m 956.5301,-450.6375 a 127.75372,128.00024 0 0 1 127.957,127.75353 127.75372,128.00024 0 0 1 -127.46486,128.24647 l -0.28866,-127.99992 z" />
    <use
       style="display:inline"
       x="0"
       y="0"
       xlink:href="#path4171"
       id="use4176"
       transform="matrix(-1,0,0,1,1913.5099,-1.6520072e-4)"
       width="100%"
       height="100%" />
    <g
       style="letter-spacing:0px;word-spacing:0px;writing-mode:lr-tb;text-anchor:start;fill:#000000;fill-opacity:1;stroke:none;stroke-width:1px;stroke-linecap:butt;stroke-linejoin:miter;stroke-opacity:1"
       id="text4211"
       transform="translate(-3.9774213,-784)">
      <path
         d="m 898.9773,478.92233 0.14,-38.08 -0.21,0 -9.94,38.08 -6.58,0 -9.73,-38.08 -0.21,0 0.14,38.08 -7.63,0 0,-49.56 11.27,0 9.52,36.26 0.28,0 9.31,-36.26 11.83,0 0,49.56 -8.19,0 z"
         id="path3446"
         inkscape:connector-curvature="0" />
      <path
         d="m 922.57386,463.10233 q 0,2.1 0.42,3.99 0.42,1.82 1.19,3.22 0.84,1.33 1.96,2.17 1.19,0.77 2.73,0.77 2.17,0 3.43,-1.4 1.33,-1.4 2.1,-3.22 l 5.81,3.36 q -1.54,3.71 -4.41,5.95 -2.8,2.17 -7.21,2.17 -6.23,0 -10.01,-4.9 -3.78,-4.9 -3.78,-14.07 0,-4.27 0.98,-7.77 0.98,-3.57 2.8,-6.09 1.82,-2.52 4.27,-3.85 2.52,-1.4 5.6,-1.4 3.43,0 5.81,1.4 2.45,1.4 3.92,3.85 1.54,2.38 2.24,5.67 0.7,3.29 0.7,7.14 l 0,3.01 -18.55,0 z m 10.99,-5.74 q 0,-3.99 -1.26,-6.44 -1.26,-2.52 -3.92,-2.52 -1.54,0 -2.66,0.91 -1.05,0.91 -1.75,2.31 -0.63,1.33 -0.98,2.94 -0.35,1.54 -0.35,2.8 l 10.92,0 z"
         id="path3448"
         inkscape:connector-curvature="0" />
    </g>
    <g
       style="letter-spacing:0px;word-spacing:0px;writing-mode:lr-tb;text-anchor:start;fill:#000000;fill-opacity:1;stroke:none;stroke-width:1px;stroke-linecap:butt;stroke-linejoin:miter;stroke-opacity:1"
       id="text4217"
       transform="translate(-3.9774213,-784)">
      <path
         d="m 997.60726,459.95233 0,18.97 -8.26,0 0,-18.97 -12.39,-30.59 9.1,0 7.42,22.12 0.21,-0.14 7.56004,-21.98 8.89,0 -12.53004,30.59 z"
         id="path3439"
         inkscape:connector-curvature="0" />
      <path
         d="m 1036.0515,461.14233 q 0,4.2 -0.98,7.7 -0.91,3.5 -2.73,6.02 -1.75,2.45 -4.27,3.85 -2.52,1.4 -5.74,1.4 -3.22,0 -5.74,-1.4 -2.52,-1.4 -4.34,-3.85 -1.75,-2.52 -2.73,-6.02 -0.91,-3.5 -0.91,-7.7 0,-4.27 0.91,-7.77 0.98,-3.57 2.73,-6.09 1.75,-2.52 4.27,-3.85 2.59,-1.4 5.81,-1.4 3.22,0 5.74,1.4 2.52,1.33 4.27,3.85 1.82,2.52 2.73,6.09 0.98,3.5 0.98,7.77 z m -7.84,-0.07 q 0,-2.59 -0.35,-4.76 -0.35,-2.24 -1.12,-3.85 -0.7,-1.68 -1.82,-2.59 -1.05,-0.98 -2.59,-0.98 -1.54,0 -2.66,0.98 -1.05,0.91 -1.75,2.59 -0.7,1.61 -1.05,3.85 -0.35,2.17 -0.35,4.76 0,2.52 0.35,4.76 0.35,2.24 1.05,3.85 0.7,1.61 1.75,2.59 1.12,0.91 2.66,0.91 1.54,0 2.66,-0.91 1.12,-0.98 1.82,-2.59 0.7,-1.61 1.05,-3.85 0.35,-2.24 0.35,-4.76 z"
         id="path3441"
         inkscape:connector-curvature="0" />
      <path
         d="m 1061.3073,478.92233 0,-5.67 -0.14,0 q -0.98,2.87 -3.29,4.9 -2.24,1.96 -5.6,1.96 -2.94,0 -4.76,-1.19 -1.75,-1.26 -2.73,-3.29 -0.98,-2.03 -1.33,-4.62 -0.35,-2.66 -0.35,-5.39 l 0,-22.4 7.91,0 0,22.4 q 0,1.4 0.14,2.73 0.14,1.33 0.56,2.45 0.49,1.05 1.33,1.75 0.91,0.63 2.31,0.63 2.66,0 4.2,-2.59 1.61,-2.66 1.61,-6.72 l 0,-20.65 7.91,0 0,35.7 -7.77,0 z"
         id="path3443"
         inkscape:connector-curvature="0" />
    </g>
    <g
       transform="translate(-49.575,-915.63784)"
       style="font-style:normal;font-variant:normal;font-weight:bold;font-stretch:condensed;font-size:80px;line-height:110.00000238%;font-family:'Avenir Next Condensed';-inkscape-font-specification:'Avenir Next Condensed, Bold Condensed';text-align:start;letter-spacing:0px;word-spacing:0px;writing-mode:lr-tb;text-anchor:start;fill:#000000;fill-opacity:1;stroke:none;stroke-width:1px;stroke-linecap:butt;stroke-linejoin:miter;stroke-opacity:1"
       id="use4221">
      <path
         d="m 986.88002,148.24 0,20.4 -12.56,0 0,-20.4 -14.32,-36.24 13.84,0 6.8,23.44 0.16,0 6.88,-23.44 13.59998,0 -14.39998,36.24 z"
         id="path3494"
         inkscape:connector-curvature="0" />
      <path
         d="m 1033.0038,147.76 q 0,4.88 -1.2,9.04 -1.2,4.08 -3.44,7.04 -2.16,2.96 -5.44,4.64 -3.2,1.68 -7.28,1.68 -4.08,0 -7.28,-1.68 -3.2,-1.68 -5.52,-4.64 -2.24,-2.96 -3.44003,-7.04 -1.2,-4.16 -1.2,-9.04 0,-4.88 1.2,-9.04 1.20003,-4.16 3.44003,-7.12 2.24,-2.96 5.44,-4.64 3.28,-1.68 7.36,-1.68 4.08,0 7.28,1.68 3.28,1.68 5.44,4.64 2.24,2.96 3.44,7.12 1.2,4.16 1.2,9.04 z m -12,-0.08 q 0,-2.4 -0.32,-4.4 -0.32,-2.08 -0.96,-3.6 -0.64,-1.6 -1.68,-2.48 -0.96,-0.88 -2.4,-0.88 -1.36,0 -2.4,0.88 -0.96,0.88 -1.6,2.48 -0.64,1.52 -0.96,3.6 -0.32,2 -0.32,4.4 0,2.4 0.32,4.48 0.32,2 0.96,3.6 0.64,1.52 1.6,2.4 1.04,0.88 2.4,0.88 1.44,0 2.4,-0.88 1.04,-0.88 1.68,-2.4 0.64,-1.6 0.96,-3.6 0.32,-2.08 0.32,-4.48 z"
         id="path3496"
         inkscape:connector-curvature="0" />
      <path
         d="m 1061.335,168.64 0,-5.92 -0.16,0 q -1.04,3.04 -3.68,5.28 -2.64,2.16 -6.56,2.16 -3.6,0 -5.76,-1.52 -2.16,-1.44 -3.36,-3.92 -1.2,-2.48 -1.6,-5.68 -0.4,-3.2 -0.4,-6.64 l 0,-25.6 12.56,0 0,25.6 q 0,1.36 0.16,2.56 0.16,1.2 0.56,2.08 0.4,0.88 1.12,1.44 0.8,0.56 1.92,0.56 2.32,0 3.6,-2.08 1.28,-2.16 1.28,-5.6 l 0,-24.56 12.56,0 0,41.84 -12.24,0 z"
         id="path3498"
         inkscape:connector-curvature="0" />
    </g>
    <g
       transform="translate(-3.9774213,-851.63783)"
       style="letter-spacing:0px;word-spacing:0px;writing-mode:lr-tb;text-anchor:start;fill:#000000;fill-opacity:1;stroke:none;stroke-width:1px;stroke-linecap:butt;stroke-linejoin:miter;stroke-opacity:1"
       id="text4223">
      <path
         d="m 872.19998,163.39999 0,-29.3 -0.15,0 -7.9,29.3 -4.05,0 -7.8,-29.3 -0.15,0 0,29.3 -4.15,0 0,-35.4 6.6,0 7.55,28.1 0.2,0 7.4,-28.1 6.9,0 0,35.4 -4.45,0 z"
         style="font-style:normal;font-variant:normal;font-weight:500;font-stretch:condensed;font-size:50px;line-height:110.00000238%;font-family:'Avenir Next Condensed';-inkscape-font-specification:'Avenir Next Condensed, Medium Condensed';text-align:start;writing-mode:lr-tb;text-anchor:start"
         id="path3489"
         inkscape:connector-curvature="0" />
      <path
         d="m 887.07576,151.94999 q 0,1.8 0.3,3.35 0.35,1.55 0.95,2.7 0.65,1.15 1.6,1.8 0.95,0.65 2.2,0.65 1.7,0 2.7,-1.05 1,-1.05 1.6,-2.5 l 3.2,1.85 q -1,2.4 -2.9,3.95 -1.85,1.55 -4.75,1.55 -4.3,0 -6.75,-3.5 -2.45,-3.55 -2.45,-9.85 0,-3 0.65,-5.45 0.65,-2.5 1.85,-4.25 1.2,-1.8 2.9,-2.75 1.7,-1 3.75,-1 2.3,0 3.9,1 1.6,0.95 2.6,2.65 1.05,1.65 1.5,3.95 0.45,2.25 0.45,4.85 l 0,2.05 -13.3,0 z m 9,-3.45 q 0,-3.3 -1.05,-5.3 -1,-2.05 -3.2,-2.05 -1.3,0 -2.2,0.8 -0.85,0.75 -1.4,1.9 -0.55,1.1 -0.8,2.4 -0.25,1.25 -0.25,2.25 l 8.9,0 z"
         style="font-style:normal;font-variant:normal;font-weight:500;font-stretch:condensed;font-size:50px;line-height:110.00000238%;font-family:'Avenir Next Condensed';-inkscape-font-specification:'Avenir Next Condensed, Medium Condensed';text-align:start;writing-mode:lr-tb;text-anchor:start"
         id="path3491"
         inkscape:connector-curvature="0" />
    </g>
    <path
       d="m 870.90045,-32.78703 a 128.99432,128.99449 0 0 1 182.09515,7.859704 128.99432,128.99449 0 0 1 -7.5387,182.108926 128.99432,128.99449 0 0 1 -182.12172,-7.21767 128.99432,128.99449 0 0 1 6.89661,-182.134372"
       sodipodi:open="true"
       sodipodi:end="3.9639569"
       sodipodi:start="3.971008"
       sodipodi:ry="128.99449"
       sodipodi:rx="128.99432"
       sodipodi:cy="62.351139"
       sodipodi:cx="958.01123"
       sodipodi:type="arc"
       id="use4161"
       style="opacity:1;fill:#e3e3e3;fill-opacity:1;stroke:#000000;stroke-width:2;stroke-linecap:round;stroke-linejoin:round;stroke-miterlimit:4;stroke-dasharray:none;stroke-dashoffset:0;stroke-opacity:1" />
    <path
       style="display:inline;opacity:1;fill:#ffffff;fill-opacity:1;stroke:#000000;stroke-width:2;stroke-linecap:round;stroke-linejoin:round;stroke-miterlimit:4;stroke-dasharray:none;stroke-dashoffset:0;stroke-opacity:1"
       id="path4166"
       sodipodi:type="arc"
       sodipodi:cx="955.94244"
       sodipodi:cy="62.93195"
       sodipodi:rx="131.00012"
       sodipodi:ry="128.9518"
       sodipodi:start="5.7674641"
       sodipodi:end="0.4976855"
       d="M 1069.9043,-0.66222603 A 131.00012,128.9518 0 0 1 1071.0509,124.49265 L 955.94244,62.93195 Z" />
    <g
       style="font-style:normal;font-variant:normal;font-weight:bold;font-stretch:condensed;font-size:80px;line-height:110.00000238%;font-family:'Avenir Next Condensed';-inkscape-font-specification:'Avenir Next Condensed, Bold Condensed';text-align:start;letter-spacing:0px;word-spacing:0px;writing-mode:lr-tb;text-anchor:start;fill:#000000;fill-opacity:1;stroke:none;stroke-width:1px;stroke-linecap:butt;stroke-linejoin:miter;stroke-opacity:1"
       id="use4215"
       transform="translate(63.99998,-848.00004)">
      <path
         d="m 887.04002,869.0022 0.48,-38.88 -0.32,0 -9.52,38.88 -9.04,0 -9.2,-38.88 -0.24,0 0.4,38.88 -11.6,0 0,-56.64 16.16,0 9.12,36.48 0.32,0 8.88,-36.48 17.12,0 0,56.64 -12.56,0 z"
         id="path3415"
         inkscape:connector-curvature="0" />
      <path
         d="m 919.08252,851.2422 q 0,1.76 0.4,3.36 0.48,1.52 1.2,2.72 0.72,1.12 1.76,1.84 1.04,0.64 2.32,0.64 2.08,0 3.36,-1.36 1.28,-1.36 2,-3.2 l 9.2,5.2 q -2.08,4.64 -5.84,7.36 -3.68,2.72 -9.2,2.72 -3.68,0 -6.88,-1.44 -3.12,-1.44 -5.52,-4.24 -2.32,-2.88 -3.68,-7.04 -1.28,-4.16 -1.28,-9.6 0,-5.12 1.2,-9.28 1.28,-4.24 3.52,-7.12 2.32,-2.96 5.44,-4.56 3.12,-1.6 6.88,-1.6 4.32,0 7.36,1.68 3.04,1.68 4.96,4.64 2,2.88 2.88,6.96 0.88,4 0.88,8.8 l 0,3.52 -20.96,0 z m 9.44,-8.16 q 0,-3.36 -1.04,-5.6 -1.04,-2.24 -3.44,-2.24 -1.28,0 -2.24,0.8 -0.88,0.72 -1.52,1.92 -0.64,1.12 -0.96,2.56 -0.32,1.36 -0.32,2.56 l 9.52,0 z"
         id="path3417"
         inkscape:connector-curvature="0" />
    </g>
    <g
       style="letter-spacing:0px;word-spacing:0px;writing-mode:lr-tb;text-anchor:start;fill:#000000;fill-opacity:1;stroke:none;stroke-width:1px;stroke-linecap:butt;stroke-linejoin:miter;stroke-opacity:1"
       id="use4227"
       transform="translate(-3.9774213,-784)">
      <path
         d="m 1021.25,849.61221 0,14.15 -4.45,0 0,-14.15 -8.8,-21.25 4.9,0 6.15,16.65 6.3,-16.65 4.8,0 -8.9,21.25 z"
         style="font-style:normal;font-variant:normal;font-weight:500;font-stretch:condensed;font-size:50px;line-height:110.00000238%;font-family:'Avenir Next Condensed';-inkscape-font-specification:'Avenir Next Condensed, Medium Condensed';text-align:start;writing-mode:lr-tb;text-anchor:start"
         id="path3408"
         inkscape:connector-curvature="0" />
      <path
         d="m 1047.7906,851.26221 q 0,3 -0.65,5.45 -0.6,2.45 -1.8,4.2 -1.15,1.75 -2.85,2.75 -1.7,0.95 -3.85,0.95 -2.1,0 -3.8,-0.95 -1.7,-1 -2.9,-2.75 -1.15,-1.75 -1.8,-4.2 -0.6,-2.45 -0.6,-5.45 0,-3 0.6,-5.5 0.65,-2.5 1.8,-4.25 1.15,-1.75 2.85,-2.7 1.7,-1 3.85,-1 2.15,0 3.85,1 1.7,0.95 2.85,2.7 1.2,1.75 1.8,4.25 0.65,2.5 0.65,5.5 z m -4.4,-0.05 q 0,-2.05 -0.3,-3.8 -0.25,-1.8 -0.85,-3.1 -0.6,-1.3 -1.5,-2.05 -0.9,-0.75 -2.1,-0.75 -1.2,0 -2.1,0.75 -0.9,0.75 -1.5,2.05 -0.55,1.3 -0.85,3.1 -0.25,1.75 -0.25,3.8 0,2.05 0.25,3.8 0.3,1.75 0.85,3.05 0.6,1.3 1.5,2.05 0.9,0.75 2.1,0.75 1.25,0 2.15,-0.75 0.9,-0.75 1.45,-2.05 0.6,-1.3 0.85,-3.05 0.3,-1.75 0.3,-3.8 z"
         style="font-style:normal;font-variant:normal;font-weight:500;font-stretch:condensed;font-size:50px;line-height:110.00000238%;font-family:'Avenir Next Condensed';-inkscape-font-specification:'Avenir Next Condensed, Medium Condensed';text-align:start;writing-mode:lr-tb;text-anchor:start"
         id="path3410"
         inkscape:connector-curvature="0" />
      <path
         d="m 1057.7946,838.66221 0,16 q 0,1.05 0.1,2.15 0.1,1.1 0.45,2 0.4,0.9 1.1,1.45 0.7,0.55 1.9,0.55 1.05,0 1.95,-0.55 0.9,-0.6 1.55,-1.6 0.65,-1.05 1,-2.45 0.35,-1.45 0.35,-3.15 l 0,-14.4 4.25,0 0,18.75 q 0,1.5 0.05,3.25 0.05,1.7 0.15,3.1 l -4.05,0 q -0.15,-1.25 -0.25,-2.5 -0.05,-1.25 -0.05,-1.85 l -0.1,0 q -0.7,2.2 -2.35,3.7 -1.6,1.5 -3.95,1.5 -2.05,0 -3.3,-0.85 -1.25,-0.85 -1.95,-2.25 -0.65,-1.4 -0.9,-3.2 -0.25,-1.8 -0.25,-3.65 l 0,-16 4.3,0 z"
         style="font-style:normal;font-variant:normal;font-weight:500;font-stretch:condensed;font-size:50px;line-height:110.00000238%;font-family:'Avenir Next Condensed';-inkscape-font-specification:'Avenir Next Condensed, Medium Condensed';text-align:start;writing-mode:lr-tb;text-anchor:start"
         id="path3412"
         inkscape:connector-curvature="0" />
    </g>
    <path
       style="fill:none;fill-rule:evenodd;stroke:#000000;stroke-width:8;stroke-linecap:butt;stroke-linejoin:miter;stroke-miterlimit:4;stroke-dasharray:none;stroke-opacity:1"
       d="m 300.02258,-419.63783 160,0"
       id="path4241"
       inkscape:connector-curvature="0"
       sodipodi:nodetypes="cc" />
    <use
       x="0"
       y="0"
       xlink:href="#path4241"
       id="use4243"
       transform="translate(1152,4.0000048)"
       width="100%"
       height="100%" />
    <g
       style="fill:#000000;fill-opacity:1;stroke:none;stroke-width:1px;stroke-linecap:butt;stroke-linejoin:miter;stroke-opacity:1"
       id="text4245"
       transform="translate(-3.9774213,-784)">
      <path
         d="m 895.72002,228.46215 q 0,3.78 -1.19,6.65 -1.12,2.8 -3.01,4.69 -1.89,1.89 -4.34,2.8 -2.45,0.91 -5.04,0.91 l -5.88,0 0,19.88 -8.26,0 0,-49.56 13.72,0 q 2.38,0 4.9,0.7 2.52,0.7 4.48,2.45 2.03,1.68 3.29,4.48 1.33,2.8 1.33,7 z m -7.98,0.07 q 0,-3.99 -1.89,-5.81 -1.89,-1.82 -4.83,-1.82 l -4.76,0 0,15.75 4.76,0 q 2.94,0 4.83,-2.03 1.89,-2.1 1.89,-6.09 z"
         id="path3423"
         inkscape:connector-curvature="0" />
      <path
         d="m 914.47565,246.66215 -2.31,0 q -1.47,0 -2.87,0.28 -1.33,0.21 -2.38,0.91 -1.05,0.7 -1.68,1.96 -0.63,1.19 -0.63,3.08 0,2.8 1.19,4.13 1.26,1.33 2.87,1.33 1.61,0 2.73,-0.91 1.12,-0.91 1.75,-2.31 0.7,-1.4 0.98,-3.08 0.35,-1.75 0.35,-3.36 l 0,-2.03 z m 0.28,11.41 q -0.77,2.94 -2.8,4.62 -2.03,1.61 -5.39,1.61 -1.54,0 -3.15,-0.56 -1.61,-0.56 -2.94,-1.82 -1.26,-1.33 -2.1,-3.36 -0.84,-2.1 -0.84,-5.04 0,-3.78 1.33,-6.16 1.4,-2.45 3.5,-3.85 2.17,-1.4 4.76,-1.89 2.66,-0.56 5.18,-0.56 l 1.96,0 0,-1.12 q 0,-3.57 -1.47,-5.11 -1.4,-1.61 -3.78,-1.61 -2.03,0 -3.71,0.98 -1.61,0.91 -2.8,2.45 l -3.78,-4.97 q 1.96,-2.45 4.97,-3.78 3.01,-1.4 5.95,-1.4 3.29,0 5.53,1.05 2.31,1.05 3.71,3.08 1.4,1.96 1.96,4.9 0.63,2.94 0.63,6.65 l 0,21.21 -6.58,0 0,-5.32 -0.14,0 z"
         id="path3425"
         inkscape:connector-curvature="0" />
      <path
         d="m 945.66393,235.74215 q -0.98,-1.33 -2.45,-2.17 -1.47,-0.84 -3.36,-0.84 -1.75,0 -2.94,1.26 -1.19,1.19 -1.19,3.22 0,2.1 1.26,3.08 1.26,0.91 3.99,1.89 1.54,0.56 3.01,1.4 1.54,0.77 2.73,2.03 1.26,1.26 1.96,3.08 0.77,1.75 0.77,4.2 0,2.94 -0.98,5.18 -0.91,2.17 -2.52,3.64 -1.61,1.47 -3.71,2.17 -2.03,0.7 -4.27,0.7 -3.36,0 -6.3,-1.33 -2.87,-1.33 -4.9,-3.57 l 4.27,-5.04 q 1.26,1.47 2.94,2.52 1.68,1.05 3.92,1.05 1.96,0 3.08,-1.33 1.12,-1.33 1.12,-3.5 0,-2.52 -1.68,-3.64 -1.61,-1.12 -4.34,-2.1 -1.4,-0.49 -2.73,-1.19 -1.33,-0.7 -2.45,-1.89 -1.12,-1.19 -1.82,-2.87 -0.63,-1.75 -0.63,-4.2 0,-2.59 0.91,-4.62 0.98,-2.03 2.52,-3.43 1.54,-1.47 3.57,-2.17 2.03,-0.77 4.2,-0.77 3.22,0 5.81,1.19 2.59,1.12 4.41,2.94 l -4.2,5.11 z"
         id="path3427"
         inkscape:connector-curvature="0" />
      <path
         d="m 971.23033,235.74215 q -0.98,-1.33 -2.45,-2.17 -1.47,-0.84 -3.36,-0.84 -1.75,0 -2.94,1.26 -1.19,1.19 -1.19,3.22 0,2.1 1.26,3.08 1.26,0.91 3.99,1.89 1.54,0.56 3.01,1.4 1.54,0.77 2.73,2.03 1.26,1.26 1.96,3.08 0.77,1.75 0.77,4.2 0,2.94 -0.98,5.18 -0.91,2.17 -2.52,3.64 -1.61,1.47 -3.71,2.17 -2.03,0.7 -4.27,0.7 -3.36,0 -6.3,-1.33 -2.87,-1.33 -4.9,-3.57 l 4.27,-5.04 q 1.26,1.47 2.94,2.52 1.68,1.05 3.92,1.05 1.96,0 3.08,-1.33 1.12,-1.33 1.12,-3.5 0,-2.52 -1.68,-3.64 -1.61,-1.12 -4.34,-2.1 -1.4,-0.49 -2.73,-1.19 -1.33,-0.7 -2.45,-1.89 -1.12,-1.19 -1.82,-2.87 -0.63,-1.75 -0.63,-4.2 0,-2.59 0.91,-4.62 0.98,-2.03 2.52,-3.43 1.54,-1.47 3.57,-2.17 2.03,-0.77 4.2,-0.77 3.22,0 5.81,1.19 2.59,1.12 4.41,2.94 l -4.2,5.11 z"
         id="path3429"
         inkscape:connector-curvature="0" />
      <path
         d="m 990.5569,217.33215 q 0,2.1 -1.33,3.5 -1.33,1.4 -3.29,1.4 -2.03,0 -3.36,-1.4 -1.26,-1.4 -1.26,-3.5 0,-2.03 1.26,-3.5 1.33,-1.47 3.36,-1.47 2.03,0 3.29,1.47 1.33,1.47 1.33,3.5 z m -8.54,46.06 0,-35.7 7.84,0 0,35.7 -7.84,0 z"
         id="path3431"
         inkscape:connector-curvature="0" />
      <path
         d="m 1014.3569,263.39215 -9.45,0 -9.45,-35.7 8.33,0 6.02,27.37 0.14,0 5.81,-27.37 8.05,0 -9.45,35.7 z"
         id="path3433"
         inkscape:connector-curvature="0" />
      <path
         d="m 1034.9916,247.57215 q 0,2.1 0.42,3.99 0.42,1.82 1.19,3.22 0.84,1.33 1.96,2.17 1.19,0.77 2.73,0.77 2.17,0 3.43,-1.4 1.33,-1.4 2.1,-3.22 l 5.81,3.36 q -1.54,3.71 -4.41,5.95 -2.8,2.17 -7.21,2.17 -6.23,0 -10.01,-4.9 -3.78,-4.9 -3.78,-14.07 0,-4.27 0.98,-7.77 0.98,-3.57 2.8,-6.09 1.82,-2.52 4.27,-3.85 2.52,-1.4 5.6,-1.4 3.43,0 5.81,1.4 2.45,1.4 3.92,3.85 1.54,2.38 2.24,5.67 0.7,3.29 0.7,7.14 l 0,3.01 -18.55,0 z m 10.99,-5.74 q 0,-3.99 -1.26,-6.44 -1.26,-2.52 -3.92,-2.52 -1.54,0 -2.66,0.91 -1.05,0.91 -1.75,2.31 -0.63,1.33 -0.98,2.94 -0.35,1.54 -0.35,2.8 l 10.92,0 z"
         id="path3435"
         inkscape:connector-curvature="0" />
    </g>
    <g
       transform="translate(-3.9774213,-851.63783)"
       style="letter-spacing:0px;word-spacing:0px;writing-mode:lr-tb;text-anchor:start;fill:#000000;fill-opacity:1;stroke:none;stroke-width:1px;stroke-linecap:butt;stroke-linejoin:miter;stroke-opacity:1"
       id="use4249">
      <path
         d="m 874.38999,707.03003 -2.45,-10.5 -13.02,0 -2.52,10.5 -8.4,0 12.32,-49.56 10.71,0 12.11,49.56 -8.75,0 z m -8.75,-41.65 -0.28,0 -5.39,24.57 10.92,0 -5.25,-24.57 z"
         id="path3420"
         inkscape:connector-curvature="0" />
      <path
         d="m 903.22014,679.38003 q -0.98,-1.33 -2.45,-2.17 -1.47,-0.84 -3.36,-0.84 -1.75,0 -2.94,1.26 -1.19,1.19 -1.19,3.22 0,2.1 1.26,3.08 1.26,0.91 3.99,1.89 1.54,0.56 3.01,1.4 1.54,0.77 2.73,2.03 1.26,1.26 1.96,3.08 0.77,1.75 0.77,4.2 0,2.94 -0.98,5.18 -0.91,2.17 -2.52,3.64 -1.61,1.47 -3.71,2.17 -2.03,0.7 -4.27,0.7 -3.36,0 -6.3,-1.33 -2.87,-1.33 -4.9,-3.57 l 4.27,-5.04 q 1.26,1.47 2.94,2.52 1.68,1.05 3.92,1.05 1.96,0 3.08,-1.33 1.12,-1.33 1.12,-3.5 0,-2.52 -1.68,-3.64 -1.61,-1.12 -4.34,-2.1 -1.4,-0.49 -2.73,-1.19 -1.33,-0.7 -2.45,-1.89 -1.12,-1.19 -1.82,-2.87 -0.63,-1.75 -0.63,-4.2 0,-2.59 0.91,-4.62 0.98,-2.03 2.52,-3.43 1.54,-1.47 3.57,-2.17 2.03,-0.77 4.2,-0.77 3.22,0 5.81,1.19 2.59,1.12 4.41,2.94 l -4.2,5.11 z"
         id="path3422"
         inkscape:connector-curvature="0" />
      <path
         d="m 928.78655,679.38003 q -0.98,-1.33 -2.45,-2.17 -1.47,-0.84 -3.36,-0.84 -1.75,0 -2.94,1.26 -1.19,1.19 -1.19,3.22 0,2.1 1.26,3.08 1.26,0.91 3.99,1.89 1.54,0.56 3.01,1.4 1.54,0.77 2.73,2.03 1.26,1.26 1.96,3.08 0.77,1.75 0.77,4.2 0,2.94 -0.98,5.18 -0.91,2.17 -2.52,3.64 -1.61,1.47 -3.71,2.17 -2.03,0.7 -4.27,0.7 -3.36,0 -6.3,-1.33 -2.87,-1.33 -4.9,-3.57 l 4.27,-5.04 q 1.26,1.47 2.94,2.52 1.68,1.05 3.92,1.05 1.96,0 3.08,-1.33 1.12,-1.33 1.12,-3.5 0,-2.52 -1.68,-3.64 -1.61,-1.12 -4.34,-2.1 -1.4,-0.49 -2.73,-1.19 -1.33,-0.7 -2.45,-1.89 -1.12,-1.19 -1.82,-2.87 -0.63,-1.75 -0.63,-4.2 0,-2.59 0.91,-4.62 0.98,-2.03 2.52,-3.43 1.54,-1.47 3.57,-2.17 2.03,-0.77 4.2,-0.77 3.22,0 5.81,1.19 2.59,1.12 4.41,2.94 l -4.2,5.11 z"
         id="path3424"
         inkscape:connector-curvature="0" />
      <path
         d="m 945.24311,691.21003 q 0,2.1 0.42,3.99 0.42,1.82 1.19,3.22 0.84,1.33 1.96,2.17 1.19,0.77 2.73,0.77 2.17,0 3.43,-1.4 1.33,-1.4 2.1,-3.22 l 5.81,3.36 q -1.54,3.71 -4.41,5.95 -2.8,2.17 -7.21,2.17 -6.23,0 -10.01,-4.9 -3.78,-4.9 -3.78,-14.07 0,-4.27 0.98,-7.77 0.98,-3.57 2.8,-6.09 1.82,-2.52 4.27,-3.85 2.52,-1.4 5.6,-1.4 3.43,0 5.81,1.4 2.45,1.4 3.92,3.85 1.54,2.38 2.24,5.67 0.7,3.29 0.7,7.14 l 0,3.01 -18.55,0 z m 10.99,-5.74 q 0,-3.99 -1.26,-6.44 -1.26,-2.52 -3.92,-2.52 -1.54,0 -2.66,0.91 -1.05,0.91 -1.75,2.31 -0.63,1.33 -0.98,2.94 -0.35,1.54 -0.35,2.8 l 10.92,0 z"
         id="path3426"
         inkscape:connector-curvature="0" />
      <path
         d="m 978.79499,678.19003 q 0.91,-3.99 2.87,-6.02 1.96,-2.03 4.62,-2.03 0.35,0 0.56,0 0.28,0 0.63,0.14 l -0.42,8.12 q -0.77,-0.21 -1.68,-0.21 -1.54,0 -2.73,0.98 -1.19,0.91 -2.03,2.45 -0.84,1.54 -1.26,3.5 -0.42,1.96 -0.42,3.99 l 0,17.92 -8.05,0 0,-35.7 7.77,0 0,6.86 0.14,0 0,0 z"
         id="path3428"
         inkscape:connector-curvature="0" />
      <path
         d="m 1000.3265,677.42003 0,18.34 q 0,2.94 0.84,4.27 0.91,1.33 2.73,1.33 0.63,0 1.26,-0.14 0.7,-0.14 1.19,-0.42 l 0.14,6.16 q -0.84,0.42 -2.24,0.7 -1.4,0.28 -2.8,0.28 -4.54995,0 -6.57995,-2.66 -1.96,-2.73 -1.96,-7.77 l 0,-20.09 -4.48,0 0,-6.09 4.48,0 0,-9.1 7.41995,0 0,9.1 6.23,0 0,6.09 -6.23,0 z"
         id="path3430"
         inkscape:connector-curvature="0" />
      <path
         d="m 1020.8475,660.97003 q 0,2.1 -1.33,3.5 -1.33,1.4 -3.29,1.4 -2.03,0 -3.36,-1.4 -1.26,-1.4 -1.26,-3.5 0,-2.03 1.26,-3.5 1.33,-1.47 3.36,-1.47 2.03,0 3.29,1.47 1.33,1.47 1.33,3.5 z m -8.54,46.06 0,-35.7 7.84,0 0,35.7 -7.84,0 z"
         id="path3432"
         inkscape:connector-curvature="0" />
      <path
         d="m 1044.6475,707.03003 -9.45,0 -9.45,-35.7 8.33,0 6.02,27.37 0.14,0 5.81,-27.37 8.05,0 -9.45,35.7 z"
         id="path3434"
         inkscape:connector-curvature="0" />
      <path
         d="m 1065.2822,691.21003 q 0,2.1 0.42,3.99 0.42,1.82 1.19,3.22 0.84,1.33 1.96,2.17 1.19,0.77 2.73,0.77 2.17,0 3.43,-1.4 1.33,-1.4 2.1,-3.22 l 5.81,3.36 q -1.54,3.71 -4.41,5.95 -2.8,2.17 -7.21,2.17 -6.23,0 -10.01,-4.9 -3.78,-4.9 -3.78,-14.07 0,-4.27 0.98,-7.77 0.98,-3.57 2.8,-6.09 1.82,-2.52 4.27,-3.85 2.52,-1.4 5.6,-1.4 3.43,0 5.81,1.4 2.45,1.4 3.92,3.85 1.54,2.38 2.24,5.67 0.7,3.29 0.7,7.14 l 0,3.01 -18.55,0 z m 10.99,-5.74 q 0,-3.99 -1.26,-6.44 -1.26,-2.52 -3.92,-2.52 -1.54,0 -2.66,0.91 -1.05,0.91 -1.75,2.31 -0.63,1.33 -0.98,2.94 -0.35,1.54 -0.35,2.8 l 10.92,0 z"
         id="path3436"
         inkscape:connector-curvature="0" />
    </g>
    <g
       transform="translate(-3.9774213,-851.63783)"
       style="letter-spacing:0px;word-spacing:0px;writing-mode:lr-tb;text-anchor:start;fill:#000000;fill-opacity:1;stroke:none;stroke-width:1px;stroke-linecap:butt;stroke-linejoin:miter;stroke-opacity:1"
       id="use4251">
      <path
         d="m 858.38999,1091.03 -2.45,-10.5 -13.02,0 -2.52,10.5 -8.4,0 12.32,-49.56 10.71,0 12.11,49.56 -8.75,0 z m -8.75,-41.65 -0.28,0 -5.39,24.57 10.92,0 -5.25,-24.57 z"
         id="path3387"
         inkscape:connector-curvature="0" />
      <path
         d="m 897.09014,1090.05 q 0,3.99 -0.77,7.21 -0.77,3.29 -2.52,5.6 -1.75,2.38 -4.48,3.64 -2.73,1.33 -6.65,1.33 -3.71,0 -7.07,-1.47 -3.36,-1.4 -5.53,-3.78 l 4.27,-5.67 q 1.54,1.68 3.57,2.8 2.1,1.12 4.55,1.12 1.96,0 3.29,-0.84 1.33,-0.77 2.1,-2.17 0.84,-1.33 1.19,-3.22 0.35,-1.82 0.35,-3.99 l 0,-4.34 -0.14,0 q -0.77,2.38 -2.87,4.06 -2.03,1.61 -4.97,1.61 -2.87,0 -5.04,-1.4 -2.17,-1.4 -3.64,-3.92 -1.4,-2.52 -2.17,-5.95 -0.7,-3.43 -0.7,-7.49 0,-4.13 0.77,-7.63 0.77,-3.5 2.24,-6.02 1.47,-2.52 3.57,-3.92 2.17,-1.47 4.97,-1.47 3.43,0 5.25,1.82 1.82,1.75 2.66,4.41 l 0.21,0 0,-5.04 7.56,0 0,34.72 z m -7.49,-16.94 q 0,-2.52 -0.42,-4.76 -0.35,-2.24 -1.12,-3.85 -0.7,-1.61 -1.82,-2.52 -1.12,-0.98 -2.59,-0.98 -1.54,0 -2.66,0.98 -1.12,0.91 -1.82,2.52 -0.7,1.61 -1.05,3.85 -0.35,2.24 -0.35,4.76 0,2.52 0.35,4.76 0.35,2.24 1.05,3.92 0.7,1.61 1.82,2.59 1.12,0.91 2.66,0.91 1.47,0 2.59,-0.91 1.12,-0.98 1.82,-2.59 0.77,-1.68 1.12,-3.92 0.42,-2.24 0.42,-4.76 z"
         id="path3389"
         inkscape:connector-curvature="0" />
      <path
         d="m 931.54327,1090.05 q 0,3.99 -0.77,7.21 -0.77,3.29 -2.52,5.6 -1.75,2.38 -4.48,3.64 -2.73,1.33 -6.65,1.33 -3.71,0 -7.07,-1.47 -3.36,-1.4 -5.53,-3.78 l 4.27,-5.67 q 1.54,1.68 3.57,2.8 2.1,1.12 4.55,1.12 1.96,0 3.29,-0.84 1.33,-0.77 2.1,-2.17 0.84,-1.33 1.19,-3.22 0.35,-1.82 0.35,-3.99 l 0,-4.34 -0.14,0 q -0.77,2.38 -2.87,4.06 -2.03,1.61 -4.97,1.61 -2.87,0 -5.04,-1.4 -2.17,-1.4 -3.64,-3.92 -1.4,-2.52 -2.17,-5.95 -0.7,-3.43 -0.7,-7.49 0,-4.13 0.77,-7.63 0.77,-3.5 2.24,-6.02 1.47,-2.52 3.57,-3.92 2.17,-1.47 4.97,-1.47 3.43,0 5.25,1.82 1.82,1.75 2.66,4.41 l 0.21,0 0,-5.04 7.56,0 0,34.72 z m -7.49,-16.94 q 0,-2.52 -0.42,-4.76 -0.35,-2.24 -1.12,-3.85 -0.7,-1.61 -1.82,-2.52 -1.12,-0.98 -2.59,-0.98 -1.54,0 -2.66,0.98 -1.12,0.91 -1.82,2.52 -0.7,1.61 -1.05,3.85 -0.35,2.24 -0.35,4.76 0,2.52 0.35,4.76 0.35,2.24 1.05,3.92 0.7,1.61 1.82,2.59 1.12,0.91 2.66,0.91 1.47,0 2.59,-0.91 1.12,-0.98 1.82,-2.59 0.77,-1.68 1.12,-3.92 0.42,-2.24 0.42,-4.76 z"
         id="path3391"
         inkscape:connector-curvature="0" />
      <path
         d="m 948.98639,1062.19 q 0.91,-3.99 2.87,-6.02 1.96,-2.03 4.62,-2.03 0.35,0 0.56,0 0.28,0 0.63,0.14 l -0.42,8.12 q -0.77,-0.21 -1.68,-0.21 -1.54,0 -2.73,0.98 -1.19,0.91 -2.03,2.45 -0.84,1.54 -1.26,3.5 -0.42,1.96 -0.42,3.99 l 0,17.92 -8.05,0 0,-35.7 7.77,0 0,6.86 0.14,0 0,0 z"
         id="path3393"
         inkscape:connector-curvature="0" />
      <path
         d="m 967.7978,1075.21 q 0,2.1 0.42,3.99 0.42,1.82 1.19,3.22 0.84,1.33 1.96,2.17 1.19,0.77 2.73,0.77 2.17,0 3.43,-1.4 1.33,-1.4 2.1,-3.22 l 5.81,3.36 q -1.54,3.71 -4.41,5.95 -2.8,2.17 -7.21,2.17 -6.23,0 -10.01,-4.9 -3.78,-4.9 -3.78,-14.07 0,-4.27 0.98,-7.77 0.98,-3.57 2.8,-6.09 1.82,-2.52 4.27,-3.85 2.52,-1.4 5.6,-1.4 3.43,0 5.81,1.4 2.45,1.4 3.92,3.85 1.54,2.38 2.24,5.67 0.7,3.29 0.7,7.14 l 0,3.01 -18.55,0 z m 10.99,-5.74 q 0,-3.99 -1.26,-6.44 -1.26,-2.52 -3.92,-2.52 -1.54,0 -2.66,0.91 -1.05,0.91 -1.75,2.31 -0.63,1.33 -0.98,2.94 -0.35,1.54 -0.35,2.8 l 10.92,0 z"
         id="path3395"
         inkscape:connector-curvature="0" />
      <path
         d="m 1008.4897,1063.38 q -0.98,-1.33 -2.45,-2.17 -1.47,-0.84 -3.36,-0.84 -1.75,0 -2.94003,1.26 -1.19,1.19 -1.19,3.22 0,2.1 1.26,3.08 1.26003,0.91 3.99003,1.89 1.54,0.56 3.01,1.4 1.54,0.77 2.73,2.03 1.26,1.26 1.96,3.08 0.77,1.75 0.77,4.2 0,2.94 -0.98,5.18 -0.91,2.17 -2.52,3.64 -1.61,1.47 -3.71,2.17 -2.03,0.7 -4.27,0.7 -3.36003,0 -6.30003,-1.33 -2.87,-1.33 -4.9,-3.57 l 4.27,-5.04 q 1.26,1.47 2.94,2.52 1.68,1.05 3.92003,1.05 1.96,0 3.08,-1.33 1.12,-1.33 1.12,-3.5 0,-2.52 -1.68,-3.64 -1.61,-1.12 -4.34003,-2.1 -1.4,-0.49 -2.73,-1.19 -1.33,-0.7 -2.45,-1.89 -1.12,-1.19 -1.82,-2.87 -0.63,-1.75 -0.63,-4.2 0,-2.59 0.91,-4.62 0.98,-2.03 2.52,-3.43 1.54,-1.47 3.57,-2.17 2.03003,-0.77 4.20003,-0.77 3.22,0 5.81,1.19 2.59,1.12 4.41,2.94 l -4.2,5.11 z"
         id="path3397"
         inkscape:connector-curvature="0" />
      <path
         d="m 1034.0561,1063.38 q -0.98,-1.33 -2.45,-2.17 -1.47,-0.84 -3.36,-0.84 -1.75,0 -2.94,1.26 -1.19,1.19 -1.19,3.22 0,2.1 1.26,3.08 1.26,0.91 3.99,1.89 1.54,0.56 3.01,1.4 1.54,0.77 2.73,2.03 1.26,1.26 1.96,3.08 0.77,1.75 0.77,4.2 0,2.94 -0.98,5.18 -0.91,2.17 -2.52,3.64 -1.61,1.47 -3.71,2.17 -2.03,0.7 -4.27,0.7 -3.36,0 -6.3,-1.33 -2.87,-1.33 -4.9,-3.57 l 4.27,-5.04 q 1.26,1.47 2.94,2.52 1.68,1.05 3.92,1.05 1.96,0 3.08,-1.33 1.12,-1.33 1.12,-3.5 0,-2.52 -1.68,-3.64 -1.61,-1.12 -4.34,-2.1 -1.4,-0.49 -2.73,-1.19 -1.33,-0.7 -2.45,-1.89 -1.12,-1.19 -1.82,-2.87 -0.63,-1.75 -0.63,-4.2 0,-2.59 0.91,-4.62 0.98,-2.03 2.52,-3.43 1.54,-1.47 3.57,-2.17 2.03,-0.77 4.2,-0.77 3.22,0 5.81,1.19 2.59,1.12 4.41,2.94 l -4.2,5.11 z"
         id="path3399"
         inkscape:connector-curvature="0" />
      <path
         d="m 1053.3826,1044.97 q 0,2.1 -1.33,3.5 -1.33,1.4 -3.29,1.4 -2.03,0 -3.36,-1.4 -1.26,-1.4 -1.26,-3.5 0,-2.03 1.26,-3.5 1.33,-1.47 3.36,-1.47 2.03,0 3.29,1.47 1.33,1.47 1.33,3.5 z m -8.54,46.06 0,-35.7 7.84,0 0,35.7 -7.84,0 z"
         id="path3401"
         inkscape:connector-curvature="0" />
      <path
         d="m 1077.1826,1091.03 -9.45,0 -9.45,-35.7 8.33,0 6.02,27.37 0.14,0 5.81,-27.37 8.05,0 -9.45,35.7 z"
         id="path3403"
         inkscape:connector-curvature="0" />
      <path
         d="m 1097.8173,1075.21 q 0,2.1 0.42,3.99 0.42,1.82 1.19,3.22 0.84,1.33 1.96,2.17 1.19,0.77 2.73,0.77 2.17,0 3.43,-1.4 1.33,-1.4 2.1,-3.22 l 5.81,3.36 q -1.54,3.71 -4.41,5.95 -2.8,2.17 -7.21,2.17 -6.23,0 -10.01,-4.9 -3.78,-4.9 -3.78,-14.07 0,-4.27 0.98,-7.77 0.98,-3.57 2.8,-6.09 1.82,-2.52 4.27,-3.85 2.52,-1.4 5.6,-1.4 3.43,0 5.81,1.4 2.45,1.4 3.92,3.85 1.54,2.38 2.24,5.67 0.7,3.29 0.7,7.14 l 0,3.01 -18.55,0 z m 10.99,-5.74 q 0,-3.99 -1.26,-6.44 -1.26,-2.52 -3.92,-2.52 -1.54,0 -2.66,0.91 -1.05,0.91 -1.75,2.31 -0.63,1.33 -0.98,2.94 -0.35,1.54 -0.35,2.8 l 10.92,0 z"
         id="path3405"
         inkscape:connector-curvature="0" />
    </g>
    <g
       style="font-style:normal;font-variant:normal;font-weight:600;font-stretch:condensed;font-size:70px;line-height:110.00000238%;font-family:'Avenir Next Condensed';-inkscape-font-specification:'Avenir Next Condensed, Semi-Bold Condensed';text-align:center;letter-spacing:0px;word-spacing:0px;writing-mode:lr-tb;text-anchor:middle;fill:#000000;fill-opacity:1;stroke:none;stroke-width:1px;stroke-linecap:butt;stroke-linejoin:miter;stroke-opacity:1"
       id="text4398"
       transform="translate(9.9715,1e-5)">
      <path
         d="m 733.74993,876.46215 q 0,3.78 -1.19,6.65 -1.12,2.8 -3.01,4.69 -1.89,1.89 -4.34,2.8 -2.45,0.91 -5.04,0.91 l -5.88,0 0,19.88 -8.26,0 0,-49.56 13.72,0 q 2.38,0 4.9,0.7 2.52,0.7 4.48,2.45 2.03,1.68 3.29,4.48 1.33,2.8 1.33,7 z m -7.98,0.07 q 0,-3.99 -1.89,-5.81 -1.89,-1.82 -4.83,-1.82 l -4.76,0 0,15.75 4.76,0 q 2.94,0 4.83,-2.03 1.89,-2.1 1.89,-6.09 z"
         id="path4409"
         inkscape:connector-curvature="0" />
      <path
         d="m 752.50555,894.66215 -2.31,0 q -1.47,0 -2.87,0.28 -1.33,0.21 -2.38,0.91 -1.05,0.7 -1.68,1.96 -0.63,1.19 -0.63,3.08 0,2.8 1.19,4.13 1.26,1.33 2.87,1.33 1.61,0 2.73,-0.91 1.12,-0.91 1.75,-2.31 0.7,-1.4 0.98,-3.08 0.35,-1.75 0.35,-3.36 l 0,-2.03 z m 0.28,11.41 q -0.77,2.94 -2.8,4.62 -2.03,1.61 -5.39,1.61 -1.54,0 -3.15,-0.56 -1.61,-0.56 -2.94,-1.82 -1.26,-1.33 -2.1,-3.36 -0.84,-2.1 -0.84,-5.04 0,-3.78 1.33,-6.16 1.4,-2.45 3.5,-3.85 2.17,-1.4 4.76,-1.89 2.66,-0.56 5.18,-0.56 l 1.96,0 0,-1.12 q 0,-3.57 -1.47,-5.11 -1.4,-1.61 -3.78,-1.61 -2.03,0 -3.71,0.98 -1.61,0.91 -2.8,2.45 l -3.78,-4.97 q 1.96,-2.45 4.97,-3.78 3.01,-1.4 5.95,-1.4 3.29,0 5.53,1.05 2.31,1.05 3.71,3.08 1.4,1.96 1.96,4.9 0.63,2.94 0.63,6.65 l 0,21.21 -6.58,0 0,-5.32 -0.14,0 z"
         id="path4411"
         inkscape:connector-curvature="0" />
      <path
         d="m 783.69384,883.74215 q -0.98,-1.33 -2.45,-2.17 -1.47,-0.84 -3.36,-0.84 -1.75,0 -2.94,1.26 -1.19,1.19 -1.19,3.22 0,2.1 1.26,3.08 1.26,0.91 3.99,1.89 1.54,0.56 3.01,1.4 1.54,0.77 2.73,2.03 1.26,1.26 1.96,3.08 0.77,1.75 0.77,4.2 0,2.94 -0.98,5.18 -0.91,2.17 -2.52,3.64 -1.61,1.47 -3.71,2.17 -2.03,0.7 -4.27,0.7 -3.36,0 -6.3,-1.33 -2.87,-1.33 -4.9,-3.57 l 4.27,-5.04 q 1.26,1.47 2.94,2.52 1.68,1.05 3.92,1.05 1.96,0 3.08,-1.33 1.12,-1.33 1.12,-3.5 0,-2.52 -1.68,-3.64 -1.61,-1.12 -4.34,-2.1 -1.4,-0.49 -2.73,-1.19 -1.33,-0.7 -2.45,-1.89 -1.12,-1.19 -1.82,-2.87 -0.63,-1.75 -0.63,-4.2 0,-2.59 0.91,-4.62 0.98,-2.03 2.52,-3.43 1.54,-1.47 3.57,-2.17 2.03,-0.77 4.2,-0.77 3.22,0 5.81,1.19 2.59,1.12 4.41,2.94 l -4.2,5.11 z"
         id="path4413"
         inkscape:connector-curvature="0" />
      <path
         d="m 809.26024,883.74215 q -0.98,-1.33 -2.45,-2.17 -1.47,-0.84 -3.36,-0.84 -1.75,0 -2.94,1.26 -1.19,1.19 -1.19,3.22 0,2.1 1.26,3.08 1.26,0.91 3.99,1.89 1.54,0.56 3.01,1.4 1.54,0.77 2.73,2.03 1.26,1.26 1.96,3.08 0.77,1.75 0.77,4.2 0,2.94 -0.98,5.18 -0.91,2.17 -2.52,3.64 -1.61,1.47 -3.71,2.17 -2.03,0.7 -4.27,0.7 -3.36,0 -6.3,-1.33 -2.87,-1.33 -4.9,-3.57 l 4.27,-5.04 q 1.26,1.47 2.94,2.52 1.68,1.05 3.92,1.05 1.96,0 3.08,-1.33 1.12,-1.33 1.12,-3.5 0,-2.52 -1.68,-3.64 -1.61,-1.12 -4.34,-2.1 -1.4,-0.49 -2.73,-1.19 -1.33,-0.7 -2.45,-1.89 -1.12,-1.19 -1.82,-2.87 -0.63,-1.75 -0.63,-4.2 0,-2.59 0.91,-4.62 0.98,-2.03 2.52,-3.43 1.54,-1.47 3.57,-2.17 2.03,-0.77 4.2,-0.77 3.22,0 5.81,1.19 2.59,1.12 4.41,2.94 l -4.2,5.11 z"
         id="path4415"
         inkscape:connector-curvature="0" />
      <path
         d="m 828.5868,865.33215 q 0,2.1 -1.33,3.5 -1.33,1.4 -3.29,1.4 -2.03,0 -3.36,-1.4 -1.26,-1.4 -1.26,-3.5 0,-2.03 1.26,-3.5 1.33,-1.47 3.36,-1.47 2.03,0 3.29,1.47 1.33,1.47 1.33,3.5 z m -8.54,46.06 0,-35.7 7.84,0 0,35.7 -7.84,0 z"
         id="path4417"
         inkscape:connector-curvature="0" />
      <path
         d="m 852.3868,911.39215 -9.45,0 -9.45,-35.7 8.33,0 6.02,27.37 0.14,0 5.81,-27.37 8.05,0 -9.45,35.7 z"
         id="path4419"
         inkscape:connector-curvature="0" />
      <path
         d="m 873.02149,895.57215 q 0,2.1 0.42,3.99 0.42,1.82 1.19,3.22 0.84,1.33 1.96,2.17 1.19,0.77 2.73,0.77 2.17,0 3.43,-1.4 1.33,-1.4 2.1,-3.22 l 5.81,3.36 q -1.54,3.71 -4.41,5.95 -2.8,2.17 -7.21,2.17 -6.23,0 -10.01,-4.9 -3.78,-4.9 -3.78,-14.07 0,-4.27 0.98,-7.77 0.98,-3.57 2.8,-6.09 1.82,-2.52 4.27,-3.85 2.52,-1.4 5.6,-1.4 3.43,0 5.81,1.4 2.45,1.4 3.92,3.85 1.54,2.38 2.24,5.67 0.7,3.29 0.7,7.14 l 0,3.01 -18.55,0 z m 10.99,-5.74 q 0,-3.99 -1.26,-6.44 -1.26,-2.52 -3.92,-2.52 -1.54,0 -2.66,0.91 -1.05,0.91 -1.75,2.31 -0.63,1.33 -0.98,2.94 -0.35,1.54 -0.35,2.8 l 10.92,0 z"
         id="path4421"
         inkscape:connector-curvature="0" />
      <path
         d="m 896.07337,895.64215 0,-6.16 12.04,0 0,6.16 -12.04,0 z"
         id="path4423"
         inkscape:connector-curvature="0" />
      <path
         d="m 929.69305,894.66215 -2.31,0 q -1.47,0 -2.87,0.28 -1.33,0.21 -2.38,0.91 -1.05,0.7 -1.68,1.96 -0.63,1.19 -0.63,3.08 0,2.8 1.19,4.13 1.26,1.33 2.87,1.33 1.61,0 2.73,-0.91 1.12,-0.91 1.75,-2.31 0.7,-1.4 0.98,-3.08 0.35,-1.75 0.35,-3.36 l 0,-2.03 z m 0.28,11.41 q -0.77,2.94 -2.8,4.62 -2.03,1.61 -5.39,1.61 -1.54,0 -3.15,-0.56 -1.61,-0.56 -2.94,-1.82 -1.26,-1.33 -2.1,-3.36 -0.84,-2.1 -0.84,-5.04 0,-3.78 1.33,-6.16 1.4,-2.45 3.5,-3.85 2.17,-1.4 4.76,-1.89 2.66,-0.56 5.18,-0.56 l 1.96,0 0,-1.12 q 0,-3.57 -1.47,-5.11 -1.4,-1.61 -3.78,-1.61 -2.03,0 -3.71,0.98 -1.61,0.91 -2.8,2.45 l -3.78,-4.97 q 1.96,-2.45 4.97,-3.78 3.01,-1.4 5.95,-1.4 3.29,0 5.53,1.05 2.31,1.05 3.71,3.08 1.4,1.96 1.96,4.9 0.63,2.94 0.63,6.65 l 0,21.21 -6.58,0 0,-5.32 -0.14,0 z"
         id="path4425"
         inkscape:connector-curvature="0" />
      <path
         d="m 970.75134,910.41215 q 0,3.99 -0.77,7.21 -0.77,3.29 -2.52,5.6 -1.75,2.38 -4.48,3.64 -2.73,1.33 -6.65,1.33 -3.71,0 -7.07,-1.47 -3.36,-1.4 -5.53,-3.78 l 4.27,-5.67 q 1.54,1.68 3.57,2.8 2.1,1.12 4.55,1.12 1.96,0 3.29,-0.84 1.33,-0.77 2.1,-2.17 0.84,-1.33 1.19,-3.22 0.35,-1.82 0.35,-3.99 l 0,-4.34 -0.14,0 q -0.77,2.38 -2.87,4.06 -2.03,1.61 -4.97,1.61 -2.87,0 -5.04,-1.4 -2.17,-1.4 -3.64,-3.92 -1.4,-2.52 -2.17,-5.95 -0.7,-3.43 -0.7,-7.49 0,-4.13 0.77,-7.63 0.77,-3.5 2.24,-6.02 1.47,-2.52 3.57,-3.92 2.17,-1.47 4.97,-1.47 3.43,0 5.25,1.82 1.82,1.75 2.66,4.41 l 0.21,0 0,-5.04 7.56,0 0,34.72 z m -7.49,-16.94 q 0,-2.52 -0.42,-4.76 -0.35,-2.24 -1.12,-3.85 -0.7,-1.61 -1.82,-2.52 -1.12,-0.98 -2.59,-0.98 -1.54,0 -2.66,0.98 -1.12,0.91 -1.82,2.52 -0.7,1.61 -1.05,3.85 -0.35,2.24 -0.35,4.76 0,2.52 0.35,4.76 0.35,2.24 1.05,3.92 0.7,1.61 1.82,2.59 1.12,0.91 2.66,0.91 1.47,0 2.59,-0.91 1.12,-0.98 1.82,-2.59 0.77,-1.68 1.12,-3.92 0.42,-2.24 0.42,-4.76 z"
         id="path4427"
         inkscape:connector-curvature="0" />
      <path
         d="m 1005.2045,910.41215 q 0,3.99 -0.77,7.21 -0.77,3.29 -2.52,5.6 -1.75,2.38 -4.48004,3.64 -2.73,1.33 -6.65,1.33 -3.71,0 -7.07,-1.47 -3.36,-1.4 -5.53,-3.78 l 4.27,-5.67 q 1.54,1.68 3.57,2.8 2.1,1.12 4.55,1.12 1.96,0 3.29,-0.84 1.33,-0.77 2.1,-2.17 0.84,-1.33 1.19,-3.22 0.35,-1.82 0.35,-3.99 l 0,-4.34 -0.14,0 q -0.77,2.38 -2.87,4.06 -2.03,1.61 -4.97,1.61 -2.87,0 -5.04,-1.4 -2.17,-1.4 -3.64,-3.92 -1.4,-2.52 -2.17,-5.95 -0.7,-3.43 -0.7,-7.49 0,-4.13 0.77,-7.63 0.77,-3.5 2.24,-6.02 1.47,-2.52 3.57,-3.92 2.17,-1.47 4.97,-1.47 3.43,0 5.25,1.82 1.82,1.75 2.66,4.41 l 0.21,0 0,-5.04 7.56004,0 0,34.72 z m -7.49004,-16.94 q 0,-2.52 -0.42,-4.76 -0.35,-2.24 -1.12,-3.85 -0.7,-1.61 -1.82,-2.52 -1.12,-0.98 -2.59,-0.98 -1.54,0 -2.66,0.98 -1.12,0.91 -1.82,2.52 -0.7,1.61 -1.05,3.85 -0.35,2.24 -0.35,4.76 0,2.52 0.35,4.76 0.35,2.24 1.05,3.92 0.7,1.61 1.82,2.59 1.12,0.91 2.66,0.91 1.47,0 2.59,-0.91 1.12,-0.98 1.82,-2.59 0.77,-1.68 1.12,-3.92 0.42,-2.24 0.42,-4.76 z"
         id="path4429"
         inkscape:connector-curvature="0" />
      <path
         d="m 1022.6476,882.55215 q 0.91,-3.99 2.87,-6.02 1.96,-2.03 4.62,-2.03 0.35,0 0.56,0 0.28,0 0.63,0.14 l -0.42,8.12 q -0.77,-0.21 -1.68,-0.21 -1.54,0 -2.73,0.98 -1.19,0.91 -2.03,2.45 -0.84,1.54 -1.26,3.5 -0.42,1.96 -0.42,3.99 l 0,17.92 -8.05,0 0,-35.7 7.77,0 0,6.86 0.14,0 0,0 z"
         id="path4431"
         inkscape:connector-curvature="0" />
      <path
         d="m 1041.459,895.57215 q 0,2.1 0.42,3.99 0.42,1.82 1.19,3.22 0.84,1.33 1.96,2.17 1.19,0.77 2.73,0.77 2.17,0 3.43,-1.4 1.33,-1.4 2.1,-3.22 l 5.81,3.36 q -1.54,3.71 -4.41,5.95 -2.8,2.17 -7.21,2.17 -6.23,0 -10.01,-4.9 -3.78,-4.9 -3.78,-14.07 0,-4.27 0.98,-7.77 0.98,-3.57 2.8,-6.09 1.82,-2.52 4.27,-3.85 2.52,-1.4 5.6,-1.4 3.43,0 5.81,1.4 2.45,1.4 3.92,3.85 1.54,2.38 2.24,5.67 0.7,3.29 0.7,7.14 l 0,3.01 -18.55,0 z m 10.99,-5.74 q 0,-3.99 -1.26,-6.44 -1.26,-2.52 -3.92,-2.52 -1.54,0 -2.66,0.91 -1.05,0.91 -1.75,2.31 -0.63,1.33 -0.98,2.94 -0.35,1.54 -0.35,2.8 l 10.92,0 z"
         id="path4433"
         inkscape:connector-curvature="0" />
      <path
         d="m 1082.1509,883.74215 q -0.98,-1.33 -2.45,-2.17 -1.47,-0.84 -3.36,-0.84 -1.75,0 -2.94,1.26 -1.19,1.19 -1.19,3.22 0,2.1 1.26,3.08 1.26,0.91 3.99,1.89 1.54,0.56 3.01,1.4 1.54,0.77 2.73,2.03 1.26,1.26 1.96,3.08 0.77,1.75 0.77,4.2 0,2.94 -0.98,5.18 -0.91,2.17 -2.52,3.64 -1.61,1.47 -3.71,2.17 -2.03,0.7 -4.27,0.7 -3.36,0 -6.3,-1.33 -2.87,-1.33 -4.9,-3.57 l 4.27,-5.04 q 1.26,1.47 2.94,2.52 1.68,1.05 3.92,1.05 1.96,0 3.08,-1.33 1.12,-1.33 1.12,-3.5 0,-2.52 -1.68,-3.64 -1.61,-1.12 -4.34,-2.1 -1.4,-0.49 -2.73,-1.19 -1.33,-0.7 -2.45,-1.89 -1.12,-1.19 -1.82,-2.87 -0.63,-1.75 -0.63,-4.2 0,-2.59 0.91,-4.62 0.98,-2.03 2.52,-3.43 1.54,-1.47 3.57,-2.17 2.03,-0.77 4.2,-0.77 3.22,0 5.81,1.19 2.59,1.12 4.41,2.94 l -4.2,5.11 z"
         id="path4435"
         inkscape:connector-curvature="0" />
      <path
         d="m 1107.7173,883.74215 q -0.98,-1.33 -2.45,-2.17 -1.47,-0.84 -3.36,-0.84 -1.75,0 -2.94,1.26 -1.19,1.19 -1.19,3.22 0,2.1 1.26,3.08 1.26,0.91 3.99,1.89 1.54,0.56 3.01,1.4 1.54,0.77 2.73,2.03 1.26,1.26 1.96,3.08 0.77,1.75 0.77,4.2 0,2.94 -0.98,5.18 -0.91,2.17 -2.52,3.64 -1.61,1.47 -3.71,2.17 -2.03,0.7 -4.27,0.7 -3.36,0 -6.3,-1.33 -2.87,-1.33 -4.9,-3.57 l 4.27,-5.04 q 1.26,1.47 2.94,2.52 1.68,1.05 3.92,1.05 1.96,0 3.08,-1.33 1.12,-1.33 1.12,-3.5 0,-2.52 -1.68,-3.64 -1.61,-1.12 -4.34,-2.1 -1.4,-0.49 -2.73,-1.19 -1.33,-0.7 -2.45,-1.89 -1.12,-1.19 -1.82,-2.87 -0.63,-1.75 -0.63,-4.2 0,-2.59 0.91,-4.62 0.98,-2.03 2.52,-3.43 1.54,-1.47 3.57,-2.17 2.03,-0.77 4.2,-0.77 3.22,0 5.81,1.19 2.59,1.12 4.41,2.94 l -4.2,5.11 z"
         id="path4437"
         inkscape:connector-curvature="0" />
      <path
         d="m 1127.0438,865.33215 q 0,2.1 -1.33,3.5 -1.33,1.4 -3.29,1.4 -2.03,0 -3.36,-1.4 -1.26,-1.4 -1.26,-3.5 0,-2.03 1.26,-3.5 1.33,-1.47 3.36,-1.47 2.03,0 3.29,1.47 1.33,1.47 1.33,3.5 z m -8.54,46.06 0,-35.7 7.84,0 0,35.7 -7.84,0 z"
         id="path4439"
         inkscape:connector-curvature="0" />
      <path
         d="m 1150.8438,911.39215 -9.45,0 -9.45,-35.7 8.33,0 6.02,27.37 0.14,0 5.81,-27.37 8.05,0 -9.45,35.7 z"
         id="path4441"
         inkscape:connector-curvature="0" />
      <path
         d="m 1171.4785,895.57215 q 0,2.1 0.42,3.99 0.42,1.82 1.19,3.22 0.84,1.33 1.96,2.17 1.19,0.77 2.73,0.77 2.17,0 3.43,-1.4 1.33,-1.4 2.1,-3.22 l 5.81,3.36 q -1.54,3.71 -4.41,5.95 -2.8,2.17 -7.21,2.17 -6.23,0 -10.01,-4.9 -3.78,-4.9 -3.78,-14.07 0,-4.27 0.98,-7.77 0.98,-3.57 2.8,-6.09 1.82,-2.52 4.27,-3.85 2.52,-1.4 5.6,-1.4 3.43,0 5.81,1.4 2.45,1.4 3.92,3.85 1.54,2.38 2.24,5.67 0.7,3.29 0.7,7.14 l 0,3.01 -18.55,0 z m 10.99,-5.74 q 0,-3.99 -1.26,-6.44 -1.26,-2.52 -3.92,-2.52 -1.54,0 -2.66,0.91 -1.05,0.91 -1.75,2.31 -0.63,1.33 -0.98,2.94 -0.35,1.54 -0.35,2.8 l 10.92,0 z"
         id="path4443"
         inkscape:connector-curvature="0" />
      <path
         d="m 713.75899,975.95538 q -1.305,-2.16 -2.34,-4.635 -0.99,-2.475 -1.665,-5.13 -0.675,-2.655 -1.035,-5.4 -0.36,-2.79 -0.36,-5.49 0,-2.7 0.36,-5.445 0.36,-2.79 1.035,-5.445 0.675,-2.655 1.665,-5.13 1.035,-2.475 2.34,-4.635 l 3.51,1.62 q -1.17,1.98 -2.07,4.275 -0.9,2.295 -1.53,4.77 -0.63,2.43 -0.945,4.995 -0.315,2.52 -0.315,4.995 0,2.475 0.315,5.04 0.315,2.52 0.945,4.995 0.63,2.43 1.53,4.725 0.9,2.295 2.07,4.275 l -3.51,1.62 z"
         style="font-style:normal;font-variant:normal;font-weight:600;font-stretch:condensed;font-size:45px;line-height:110.00000238%;font-family:'Avenir Next Condensed';-inkscape-font-specification:'Avenir Next Condensed, Semi-Bold Condensed';text-align:center;writing-mode:lr-tb;text-anchor:middle"
         id="path4445"
         inkscape:connector-curvature="0" />
      <path
         d="m 722.38001,968.26038 0,-34.02 5.13,0 0,34.02 -5.13,0 z"
         style="font-style:normal;font-variant:normal;font-weight:600;font-stretch:condensed;font-size:45px;line-height:110.00000238%;font-family:'Avenir Next Condensed';-inkscape-font-specification:'Avenir Next Condensed, Semi-Bold Condensed';text-align:center;writing-mode:lr-tb;text-anchor:middle"
         id="path4447"
         inkscape:connector-curvature="0" />
      <path
         d="m 749.92001,956.83038 q 0,2.7 -0.63,4.95 -0.585,2.25 -1.755,3.87 -1.125,1.575 -2.745,2.475 -1.62,0.9 -3.69,0.9 -2.07,0 -3.69,-0.9 -1.62,-0.9 -2.79,-2.475 -1.125,-1.62 -1.755,-3.87 -0.585,-2.25 -0.585,-4.95 0,-2.745 0.585,-4.995 0.63,-2.295 1.755,-3.915 1.125,-1.62 2.745,-2.475 1.665,-0.9 3.735,-0.9 2.07,0 3.69,0.9 1.62,0.855 2.745,2.475 1.17,1.62 1.755,3.915 0.63,2.25 0.63,4.995 z m -5.04,-0.045 q 0,-1.665 -0.225,-3.06 -0.225,-1.44 -0.72,-2.475 -0.45,-1.08 -1.17,-1.665 -0.675,-0.63 -1.665,-0.63 -0.99,0 -1.71,0.63 -0.675,0.585 -1.125,1.665 -0.45,1.035 -0.675,2.475 -0.225,1.395 -0.225,3.06 0,1.62 0.225,3.06 0.225,1.44 0.675,2.475 0.45,1.035 1.125,1.665 0.72,0.585 1.71,0.585 0.99,0 1.71,-0.585 0.72,-0.63 1.17,-1.665 0.45,-1.035 0.675,-2.475 0.225,-1.44 0.225,-3.06 z"
         style="font-style:normal;font-variant:normal;font-weight:600;font-stretch:condensed;font-size:45px;line-height:110.00000238%;font-family:'Avenir Next Condensed';-inkscape-font-specification:'Avenir Next Condensed, Semi-Bold Condensed';text-align:center;writing-mode:lr-tb;text-anchor:middle"
         id="path4449"
         inkscape:connector-curvature="0" />
      <path
         d="m 770.92587,956.83038 q 0,2.7 -0.63,4.95 -0.585,2.25 -1.755,3.87 -1.125,1.575 -2.745,2.475 -1.62,0.9 -3.69,0.9 -2.07,0 -3.69,-0.9 -1.62,-0.9 -2.79,-2.475 -1.125,-1.62 -1.755,-3.87 -0.585,-2.25 -0.585,-4.95 0,-2.745 0.585,-4.995 0.63,-2.295 1.755,-3.915 1.125,-1.62 2.745,-2.475 1.665,-0.9 3.735,-0.9 2.07,0 3.69,0.9 1.62,0.855 2.745,2.475 1.17,1.62 1.755,3.915 0.63,2.25 0.63,4.995 z m -5.04,-0.045 q 0,-1.665 -0.225,-3.06 -0.225,-1.44 -0.72,-2.475 -0.45,-1.08 -1.17,-1.665 -0.675,-0.63 -1.665,-0.63 -0.99,0 -1.71,0.63 -0.675,0.585 -1.125,1.665 -0.45,1.035 -0.675,2.475 -0.225,1.395 -0.225,3.06 0,1.62 0.225,3.06 0.225,1.44 0.675,2.475 0.45,1.035 1.125,1.665 0.72,0.585 1.71,0.585 0.99,0 1.71,-0.585 0.72,-0.63 1.17,-1.665 0.45,-1.035 0.675,-2.475 0.225,-1.44 0.225,-3.06 z"
         style="font-style:normal;font-variant:normal;font-weight:600;font-stretch:condensed;font-size:45px;line-height:110.00000238%;font-family:'Avenir Next Condensed';-inkscape-font-specification:'Avenir Next Condensed, Semi-Bold Condensed';text-align:center;writing-mode:lr-tb;text-anchor:middle"
         id="path4451"
         inkscape:connector-curvature="0" />
      <path
         d="m 786.93673,968.26038 -6.075,-11.025 -0.09,0 0,11.025 -5.085,0 0,-34.02 5.085,0 0,20.745 0.09,0 5.85,-9.675 5.895,0 -7.2,10.575 7.515,12.375 -5.985,0 z"
         style="font-style:normal;font-variant:normal;font-weight:600;font-stretch:condensed;font-size:45px;line-height:110.00000238%;font-family:'Avenir Next Condensed';-inkscape-font-specification:'Avenir Next Condensed, Semi-Bold Condensed';text-align:center;writing-mode:lr-tb;text-anchor:middle"
         id="path4453"
         inkscape:connector-curvature="0" />
      <path
         d="m 805.44579,950.48538 q -0.63,-0.855 -1.575,-1.395 -0.945,-0.54 -2.16,-0.54 -1.125,0 -1.89,0.81 -0.765,0.765 -0.765,2.07 0,1.35 0.81,1.98 0.81,0.585 2.565,1.215 0.99,0.36 1.935,0.9 0.99,0.495 1.755,1.305 0.81,0.81 1.26,1.98 0.495,1.125 0.495,2.7 0,1.89 -0.63,3.33 -0.585,1.395 -1.62,2.34 -1.035,0.945 -2.385,1.395 -1.305,0.45 -2.745,0.45 -2.16,0 -4.05,-0.855 -1.845,-0.855 -3.15,-2.295 l 2.745,-3.24 q 0.81,0.945 1.89,1.62 1.08,0.675 2.52,0.675 1.26,0 1.98,-0.855 0.72,-0.855 0.72,-2.25 0,-1.62 -1.08,-2.34 -1.035,-0.72 -2.79,-1.35 -0.9,-0.315 -1.755,-0.765 -0.855,-0.45 -1.575,-1.215 -0.72,-0.765 -1.17,-1.845 -0.405,-1.125 -0.405,-2.7 0,-1.665 0.585,-2.97 0.63,-1.305 1.62,-2.205 0.99,-0.945 2.295,-1.395 1.305,-0.495 2.7,-0.495 2.07,0 3.735,0.765 1.665,0.72 2.835,1.89 l -2.7,3.285 z"
         style="font-style:normal;font-variant:normal;font-weight:600;font-stretch:condensed;font-size:45px;line-height:110.00000238%;font-family:'Avenir Next Condensed';-inkscape-font-specification:'Avenir Next Condensed, Semi-Bold Condensed';text-align:center;writing-mode:lr-tb;text-anchor:middle"
         id="path4455"
         inkscape:connector-curvature="0" />
      <path
         d="m 821.16907,968.26038 0,-34.02 5.13,0 0,34.02 -5.13,0 z"
         style="font-style:normal;font-variant:normal;font-weight:600;font-stretch:condensed;font-size:45px;line-height:110.00000238%;font-family:'Avenir Next Condensed';-inkscape-font-specification:'Avenir Next Condensed, Semi-Bold Condensed';text-align:center;writing-mode:lr-tb;text-anchor:middle"
         id="path4457"
         inkscape:connector-curvature="0" />
      <path
         d="m 837.90907,938.65038 q 0,1.35 -0.855,2.25 -0.855,0.9 -2.115,0.9 -1.305,0 -2.16,-0.9 -0.81,-0.9 -0.81,-2.25 0,-1.305 0.81,-2.25 0.855,-0.945 2.16,-0.945 1.305,0 2.115,0.945 0.855,0.945 0.855,2.25 z m -5.49,29.61 0,-22.95 5.04,0 0,22.95 -5.04,0 z"
         style="font-style:normal;font-variant:normal;font-weight:600;font-stretch:condensed;font-size:45px;line-height:110.00000238%;font-family:'Avenir Next Condensed';-inkscape-font-specification:'Avenir Next Condensed, Semi-Bold Condensed';text-align:center;writing-mode:lr-tb;text-anchor:middle"
         id="path4459"
         inkscape:connector-curvature="0" />
      <path
         d="m 854.96407,968.26038 -6.075,-11.025 -0.09,0 0,11.025 -5.085,0 0,-34.02 5.085,0 0,20.745 0.09,0 5.85,-9.675 5.895,0 -7.2,10.575 7.515,12.375 -5.985,0 z"
         style="font-style:normal;font-variant:normal;font-weight:600;font-stretch:condensed;font-size:45px;line-height:110.00000238%;font-family:'Avenir Next Condensed';-inkscape-font-specification:'Avenir Next Condensed, Semi-Bold Condensed';text-align:center;writing-mode:lr-tb;text-anchor:middle"
         id="path4461"
         inkscape:connector-curvature="0" />
      <path
         d="m 867.08946,958.09038 q 0,1.35 0.27,2.565 0.27,1.17 0.765,2.07 0.54,0.855 1.26,1.395 0.765,0.495 1.755,0.495 1.395,0 2.205,-0.9 0.855,-0.9 1.35,-2.07 l 3.735,2.16 q -0.99,2.385 -2.835,3.825 -1.8,1.395 -4.635,1.395 -4.005,0 -6.435,-3.15 -2.43,-3.15 -2.43,-9.045 0,-2.745 0.63,-4.995 0.63,-2.295 1.8,-3.915 1.17,-1.62 2.745,-2.475 1.62,-0.9 3.6,-0.9 2.205,0 3.735,0.9 1.575,0.9 2.52,2.475 0.99,1.53 1.44,3.645 0.45,2.115 0.45,4.59 l 0,1.935 -11.925,0 z m 7.065,-3.69 q 0,-2.565 -0.81,-4.14 -0.81,-1.62 -2.52,-1.62 -0.99,0 -1.71,0.585 -0.675,0.585 -1.125,1.485 -0.405,0.855 -0.63,1.89 -0.225,0.99 -0.225,1.8 l 7.02,0 z"
         style="font-style:normal;font-variant:normal;font-weight:600;font-stretch:condensed;font-size:45px;line-height:110.00000238%;font-family:'Avenir Next Condensed';-inkscape-font-specification:'Avenir Next Condensed, Semi-Bold Condensed';text-align:center;writing-mode:lr-tb;text-anchor:middle"
         id="path4463"
         inkscape:connector-curvature="0" />
      <path
         d="m 909.82259,956.74038 q 0,2.655 -0.495,4.905 -0.45,2.205 -1.395,3.87 -0.945,1.665 -2.34,2.61 -1.395,0.9 -3.195,0.9 -1.98,0 -3.285,-1.08 -1.26,-1.125 -1.755,-2.7 l -0.09,0 0,13.815 -4.995,0 0,-33.75 4.905,0 0,3.24 0.09,0 q 0.585,-1.71 1.755,-2.835 1.17,-1.17 3.375,-1.17 1.8,0 3.15,0.945 1.395,0.9 2.34,2.565 0.945,1.62 1.44,3.87 0.495,2.205 0.495,4.815 z m -5.085,0 q 0,-1.62 -0.225,-3.06 -0.225,-1.44 -0.675,-2.475 -0.45,-1.035 -1.17,-1.62 -0.72,-0.63 -1.71,-0.63 -0.945,0 -1.665,0.63 -0.72,0.585 -1.215,1.62 -0.45,1.035 -0.72,2.475 -0.225,1.44 -0.225,3.06 0,1.62 0.225,3.06 0.27,1.44 0.72,2.52 0.495,1.035 1.215,1.665 0.72,0.585 1.665,0.585 0.99,0 1.71,-0.585 0.72,-0.63 1.17,-1.665 0.45,-1.08 0.675,-2.52 0.225,-1.44 0.225,-3.06 z"
         style="font-style:normal;font-variant:normal;font-weight:600;font-stretch:condensed;font-size:45px;line-height:110.00000238%;font-family:'Avenir Next Condensed';-inkscape-font-specification:'Avenir Next Condensed, Semi-Bold Condensed';text-align:center;writing-mode:lr-tb;text-anchor:middle"
         id="path4465"
         inkscape:connector-curvature="0" />
      <path
         d="m 923.9118,957.50538 -1.485,0 q -0.945,0 -1.845,0.18 -0.855,0.135 -1.53,0.585 -0.675,0.45 -1.08,1.26 -0.405,0.765 -0.405,1.98 0,1.8 0.765,2.655 0.81,0.855 1.845,0.855 1.035,0 1.755,-0.585 0.72,-0.585 1.125,-1.485 0.45,-0.9 0.63,-1.98 0.225,-1.125 0.225,-2.16 l 0,-1.305 z m 0.18,7.335 q -0.495,1.89 -1.8,2.97 -1.305,1.035 -3.465,1.035 -0.99,0 -2.025,-0.36 -1.035,-0.36 -1.89,-1.17 -0.81,-0.855 -1.35,-2.16 -0.54,-1.35 -0.54,-3.24 0,-2.43 0.855,-3.96 0.9,-1.575 2.25,-2.475 1.395,-0.9 3.06,-1.215 1.71,-0.36 3.33,-0.36 l 1.26,0 0,-0.72 q 0,-2.295 -0.945,-3.285 -0.9,-1.035 -2.43,-1.035 -1.305,0 -2.385,0.63 -1.035,0.585 -1.8,1.575 l -2.43,-3.195 q 1.26,-1.575 3.195,-2.43 1.935,-0.9 3.825,-0.9 2.115,0 3.555,0.675 1.485,0.675 2.385,1.98 0.9,1.26 1.26,3.15 0.405,1.89 0.405,4.275 l 0,13.635 -4.23,0 0,-3.42 -0.09,0 z"
         style="font-style:normal;font-variant:normal;font-weight:600;font-stretch:condensed;font-size:45px;line-height:110.00000238%;font-family:'Avenir Next Condensed';-inkscape-font-specification:'Avenir Next Condensed, Semi-Bold Condensed';text-align:center;writing-mode:lr-tb;text-anchor:middle"
         id="path4467"
         inkscape:connector-curvature="0" />
      <path
         d="m 943.96141,950.48538 q -0.63,-0.855 -1.575,-1.395 -0.945,-0.54 -2.16,-0.54 -1.125,0 -1.89,0.81 -0.765,0.765 -0.765,2.07 0,1.35 0.81,1.98 0.81,0.585 2.565,1.215 0.99,0.36 1.935,0.9 0.99,0.495 1.755,1.305 0.81,0.81 1.26,1.98 0.495,1.125 0.495,2.7 0,1.89 -0.63,3.33 -0.585,1.395 -1.62,2.34 -1.035,0.945 -2.385,1.395 -1.305,0.45 -2.745,0.45 -2.16,0 -4.05,-0.855 -1.845,-0.855 -3.15,-2.295 l 2.745,-3.24 q 0.81,0.945 1.89,1.62 1.08,0.675 2.52,0.675 1.26,0 1.98,-0.855 0.72,-0.855 0.72,-2.25 0,-1.62 -1.08,-2.34 -1.035,-0.72 -2.79,-1.35 -0.9,-0.315 -1.755,-0.765 -0.855,-0.45 -1.575,-1.215 -0.72,-0.765 -1.17,-1.845 -0.405,-1.125 -0.405,-2.7 0,-1.665 0.585,-2.97 0.63,-1.305 1.62,-2.205 0.99,-0.945 2.295,-1.395 1.305,-0.495 2.7,-0.495 2.07,0 3.735,0.765 1.665,0.72 2.835,1.89 l -2.7,3.285 z"
         style="font-style:normal;font-variant:normal;font-weight:600;font-stretch:condensed;font-size:45px;line-height:110.00000238%;font-family:'Avenir Next Condensed';-inkscape-font-specification:'Avenir Next Condensed, Semi-Bold Condensed';text-align:center;writing-mode:lr-tb;text-anchor:middle"
         id="path4469"
         inkscape:connector-curvature="0" />
      <path
         d="m 960.39696,950.48538 q -0.63,-0.855 -1.575,-1.395 -0.945,-0.54 -2.16,-0.54 -1.125,0 -1.89,0.81 -0.765,0.765 -0.765,2.07 0,1.35 0.81,1.98 0.81,0.585 2.565,1.215 0.99,0.36 1.935,0.9 0.99,0.495 1.755,1.305 0.81,0.81 1.26,1.98 0.495,1.125 0.495,2.7 0,1.89 -0.63,3.33 -0.585,1.395 -1.62,2.34 -1.035,0.945 -2.385,1.395 -1.305,0.45 -2.745,0.45 -2.16,0 -4.05,-0.855 -1.845,-0.855 -3.15,-2.295 l 2.745,-3.24 q 0.81,0.945 1.89,1.62 1.08,0.675 2.52,0.675 1.26,0 1.98,-0.855 0.72,-0.855 0.72,-2.25 0,-1.62 -1.08,-2.34 -1.035,-0.72 -2.79,-1.35 -0.9,-0.315 -1.755,-0.765 -0.855,-0.45 -1.575,-1.215 -0.72,-0.765 -1.17,-1.845 -0.405,-1.125 -0.405,-2.7 0,-1.665 0.585,-2.97 0.63,-1.305 1.62,-2.205 0.99,-0.945 2.295,-1.395 1.305,-0.495 2.7,-0.495 2.07,0 3.735,0.765 1.665,0.72 2.835,1.89 l -2.7,3.285 z"
         style="font-style:normal;font-variant:normal;font-weight:600;font-stretch:condensed;font-size:45px;line-height:110.00000238%;font-family:'Avenir Next Condensed';-inkscape-font-specification:'Avenir Next Condensed, Semi-Bold Condensed';text-align:center;writing-mode:lr-tb;text-anchor:middle"
         id="path4471"
         inkscape:connector-curvature="0" />
      <path
         d="m 972.82118,938.65038 q 0,1.35 -0.855,2.25 -0.855,0.9 -2.115,0.9 -1.305,0 -2.16,-0.9 -0.81,-0.9 -0.81,-2.25 0,-1.305 0.81,-2.25 0.855,-0.945 2.16,-0.945 1.305,0 2.115,0.945 0.855,0.945 0.855,2.25 z m -5.49,29.61 0,-22.95 5.04,0 0,22.95 -5.04,0 z"
         style="font-style:normal;font-variant:normal;font-weight:600;font-stretch:condensed;font-size:45px;line-height:110.00000238%;font-family:'Avenir Next Condensed';-inkscape-font-specification:'Avenir Next Condensed, Semi-Bold Condensed';text-align:center;writing-mode:lr-tb;text-anchor:middle"
         id="path4473"
         inkscape:connector-curvature="0" />
      <path
         d="m 988.12118,968.26038 -6.075,0 -6.075,-22.95 5.355,0 3.87,17.595 0.09,0 3.735,-17.595 5.175,0 -6.075,22.95 z"
         style="font-style:normal;font-variant:normal;font-weight:600;font-stretch:condensed;font-size:45px;line-height:110.00000238%;font-family:'Avenir Next Condensed';-inkscape-font-specification:'Avenir Next Condensed, Semi-Bold Condensed';text-align:center;writing-mode:lr-tb;text-anchor:middle"
         id="path4475"
         inkscape:connector-curvature="0" />
      <path
         d="m 1001.3863,958.09038 q 0,1.35 0.27,2.565 0.27,1.17 0.765,2.07 0.54,0.855 1.26,1.395 0.765,0.495 1.755,0.495 1.395,0 2.205,-0.9 0.855,-0.9 1.35,-2.07 l 3.735,2.16 q -0.99,2.385 -2.835,3.825 -1.8,1.395 -4.635,1.395 -4.005,0 -6.43496,-3.15 -2.43,-3.15 -2.43,-9.045 0,-2.745 0.63,-4.995 0.63,-2.295 1.8,-3.915 1.17,-1.62 2.74496,-2.475 1.62,-0.9 3.6,-0.9 2.205,0 3.735,0.9 1.575,0.9 2.52,2.475 0.99,1.53 1.44,3.645 0.45,2.115 0.45,4.59 l 0,1.935 -11.925,0 z m 7.065,-3.69 q 0,-2.565 -0.81,-4.14 -0.81,-1.62 -2.52,-1.62 -0.99,0 -1.71,0.585 -0.675,0.585 -1.125,1.485 -0.405,0.855 -0.63,1.89 -0.225,0.99 -0.225,1.8 l 7.02,0 z"
         style="font-style:normal;font-variant:normal;font-weight:600;font-stretch:condensed;font-size:45px;line-height:110.00000238%;font-family:'Avenir Next Condensed';-inkscape-font-specification:'Avenir Next Condensed, Semi-Bold Condensed';text-align:center;writing-mode:lr-tb;text-anchor:middle"
         id="path4477"
         inkscape:connector-curvature="0" />
      <path
         d="m 1020.1204,973.84038 -4.005,0 2.61,-12.105 4.815,0 -3.42,12.105 z"
         style="font-style:normal;font-variant:normal;font-weight:600;font-stretch:condensed;font-size:45px;line-height:110.00000238%;font-family:'Avenir Next Condensed';-inkscape-font-specification:'Avenir Next Condensed, Semi-Bold Condensed';text-align:center;writing-mode:lr-tb;text-anchor:middle"
         id="path4479"
         inkscape:connector-curvature="0" />
      <path
         d="m 1036.2824,934.24038 5.085,0 0,13.95 0.09,0 q 0.495,-1.575 1.8,-2.61 1.305,-1.035 3.195,-1.035 1.8,0 3.195,0.9 1.395,0.9 2.34,2.52 0.945,1.575 1.395,3.78 0.495,2.205 0.495,4.815 0,2.655 -0.495,4.95 -0.495,2.25 -1.44,3.96 -0.945,1.665 -2.34,2.61 -1.395,0.945 -3.15,0.945 -2.25,0 -3.42,-1.17 -1.17,-1.17 -1.71,-2.88 l -0.09,0 0,3.285 -4.95,0 0,-34.02 z m 4.905,22.545 q 0,1.62 0.225,3.06 0.27,1.395 0.72,2.475 0.495,1.035 1.215,1.665 0.72,0.585 1.665,0.585 0.99,0 1.665,-0.585 0.72,-0.63 1.17,-1.665 0.45,-1.08 0.675,-2.475 0.225,-1.44 0.225,-3.06 0,-1.62 -0.225,-3.06 -0.225,-1.44 -0.675,-2.475 -0.45,-1.08 -1.17,-1.665 -0.675,-0.63 -1.665,-0.63 -0.945,0 -1.665,0.63 -0.72,0.585 -1.215,1.665 -0.45,1.035 -0.72,2.475 -0.225,1.44 -0.225,3.06 z"
         style="font-style:normal;font-variant:normal;font-weight:600;font-stretch:condensed;font-size:45px;line-height:110.00000238%;font-family:'Avenir Next Condensed';-inkscape-font-specification:'Avenir Next Condensed, Semi-Bold Condensed';text-align:center;writing-mode:lr-tb;text-anchor:middle"
         id="path4481"
         inkscape:connector-curvature="0" />
      <path
         d="m 1070.1695,968.26038 0,-3.645 -0.09,0 q -0.63,1.845 -2.115,3.15 -1.44,1.26 -3.6,1.26 -1.89,0 -3.06,-0.765 -1.125,-0.81 -1.755,-2.115 -0.63,-1.305 -0.855,-2.97 -0.225,-1.71 -0.225,-3.465 l 0,-14.4 5.085,0 0,14.4 q 0,0.9 0.09,1.755 0.09,0.855 0.36,1.575 0.315,0.675 0.855,1.125 0.585,0.405 1.485,0.405 1.71,0 2.7,-1.665 1.035,-1.71 1.035,-4.32 l 0,-13.275 5.085,0 0,22.95 -4.995,0 z"
         style="font-style:normal;font-variant:normal;font-weight:600;font-stretch:condensed;font-size:45px;line-height:110.00000238%;font-family:'Avenir Next Condensed';-inkscape-font-specification:'Avenir Next Condensed, Semi-Bold Condensed';text-align:center;writing-mode:lr-tb;text-anchor:middle"
         id="path4483"
         inkscape:connector-curvature="0" />
      <path
         d="m 1086.5432,949.22538 0,11.79 q 0,1.89 0.54,2.745 0.585,0.855 1.755,0.855 0.405,0 0.81,-0.09 0.45,-0.09 0.765,-0.27 l 0.09,3.96 q -0.54,0.27 -1.44,0.45 -0.9,0.18 -1.8,0.18 -2.925,0 -4.23,-1.71 -1.26,-1.755 -1.26,-4.995 l 0,-12.915 -2.88,0 0,-3.915 2.88,0 0,-5.85 4.77,0 0,5.85 4.005,0 0,3.915 -4.005,0 z"
         style="font-style:normal;font-variant:normal;font-weight:600;font-stretch:condensed;font-size:45px;line-height:110.00000238%;font-family:'Avenir Next Condensed';-inkscape-font-specification:'Avenir Next Condensed, Semi-Bold Condensed';text-align:center;writing-mode:lr-tb;text-anchor:middle"
         id="path4485"
         inkscape:connector-curvature="0" />
      <path
         d="m 1108.5243,938.65038 q 0,1.35 -0.855,2.25 -0.855,0.9 -2.115,0.9 -1.305,0 -2.16,-0.9 -0.81,-0.9 -0.81,-2.25 0,-1.305 0.81,-2.25 0.855,-0.945 2.16,-0.945 1.305,0 2.115,0.945 0.855,0.945 0.855,2.25 z m -5.49,29.61 0,-22.95 5.04,0 0,22.95 -5.04,0 z"
         style="font-style:normal;font-variant:normal;font-weight:600;font-stretch:condensed;font-size:45px;line-height:110.00000238%;font-family:'Avenir Next Condensed';-inkscape-font-specification:'Avenir Next Condensed, Semi-Bold Condensed';text-align:center;writing-mode:lr-tb;text-anchor:middle"
         id="path4487"
         inkscape:connector-curvature="0" />
      <path
         d="m 1124.0493,950.48538 q -0.63,-0.855 -1.575,-1.395 -0.945,-0.54 -2.16,-0.54 -1.125,0 -1.89,0.81 -0.765,0.765 -0.765,2.07 0,1.35 0.81,1.98 0.81,0.585 2.565,1.215 0.99,0.36 1.935,0.9 0.99,0.495 1.755,1.305 0.81,0.81 1.26,1.98 0.495,1.125 0.495,2.7 0,1.89 -0.63,3.33 -0.585,1.395 -1.62,2.34 -1.035,0.945 -2.385,1.395 -1.305,0.45 -2.745,0.45 -2.16,0 -4.05,-0.855 -1.845,-0.855 -3.15,-2.295 l 2.745,-3.24 q 0.81,0.945 1.89,1.62 1.08,0.675 2.52,0.675 1.26,0 1.98,-0.855 0.72,-0.855 0.72,-2.25 0,-1.62 -1.08,-2.34 -1.035,-0.72 -2.79,-1.35 -0.9,-0.315 -1.755,-0.765 -0.855,-0.45 -1.575,-1.215 -0.72,-0.765 -1.17,-1.845 -0.405,-1.125 -0.405,-2.7 0,-1.665 0.585,-2.97 0.63,-1.305 1.62,-2.205 0.99,-0.945 2.295,-1.395 1.305,-0.495 2.7,-0.495 2.07,0 3.735,0.765 1.665,0.72 2.835,1.89 l -2.7,3.285 z"
         style="font-style:normal;font-variant:normal;font-weight:600;font-stretch:condensed;font-size:45px;line-height:110.00000238%;font-family:'Avenir Next Condensed';-inkscape-font-specification:'Avenir Next Condensed, Semi-Bold Condensed';text-align:center;writing-mode:lr-tb;text-anchor:middle"
         id="path4489"
         inkscape:connector-curvature="0" />
      <path
         d="m 1136.0685,945.31038 0,3.645 0.09,0 q 0.63,-1.845 2.07,-3.105 1.485,-1.305 3.645,-1.305 1.89,0 3.015,0.81 1.17,0.765 1.8,2.07 0.63,1.305 0.855,3.015 0.225,1.665 0.225,3.42 l 0,14.4 -5.085,0 0,-14.4 q 0,-0.855 -0.09,-1.71 -0.09,-0.9 -0.405,-1.62 -0.27,-0.72 -0.855,-1.125 -0.54,-0.45 -1.44,-0.45 -1.71,0 -2.745,1.71 -0.99,1.71 -0.99,4.32 l 0,13.275 -5.085,0 0,-22.95 4.995,0 z"
         style="font-style:normal;font-variant:normal;font-weight:600;font-stretch:condensed;font-size:45px;line-height:110.00000238%;font-family:'Avenir Next Condensed';-inkscape-font-specification:'Avenir Next Condensed, Semi-Bold Condensed';text-align:center;writing-mode:lr-tb;text-anchor:middle"
         id="path4491"
         inkscape:connector-curvature="0" />
      <path
         d="m 1154.0172,948.05538 0,-11.655 3.69,0 0,11.655 -3.69,0 z"
         style="font-style:normal;font-variant:normal;font-weight:600;font-stretch:condensed;font-size:45px;line-height:110.00000238%;font-family:'Avenir Next Condensed';-inkscape-font-specification:'Avenir Next Condensed, Semi-Bold Condensed';text-align:center;writing-mode:lr-tb;text-anchor:middle"
         id="path4493"
         inkscape:connector-curvature="0" />
      <path
         d="m 1169.2483,949.22538 0,11.79 q 0,1.89 0.54,2.745 0.585,0.855 1.755,0.855 0.405,0 0.81,-0.09 0.45,-0.09 0.765,-0.27 l 0.09,3.96 q -0.54,0.27 -1.44,0.45 -0.9,0.18 -1.8,0.18 -2.925,0 -4.23,-1.71 -1.26,-1.755 -1.26,-4.995 l 0,-12.915 -2.88,0 0,-3.915 2.88,0 0,-5.85 4.77,0 0,5.85 4.005,0 0,3.915 -4.005,0 z"
         style="font-style:normal;font-variant:normal;font-weight:600;font-stretch:condensed;font-size:45px;line-height:110.00000238%;font-family:'Avenir Next Condensed';-inkscape-font-specification:'Avenir Next Condensed, Semi-Bold Condensed';text-align:center;writing-mode:lr-tb;text-anchor:middle"
         id="path4495"
         inkscape:connector-curvature="0" />
      <path
         d="m 1175.9603,974.33538 q 1.17,-1.98 2.07,-4.275 0.9,-2.295 1.53,-4.725 0.63,-2.475 0.945,-4.995 0.315,-2.565 0.315,-5.04 0,-2.475 -0.315,-4.995 -0.315,-2.565 -0.945,-4.995 -0.63,-2.475 -1.53,-4.77 -0.9,-2.295 -2.07,-4.275 l 3.51,-1.62 q 1.305,2.16 2.295,4.635 1.035,2.475 1.71,5.13 0.675,2.655 1.035,5.445 0.36,2.745 0.36,5.445 0,2.7 -0.36,5.49 -0.36,2.745 -1.035,5.4 -0.675,2.655 -1.71,5.13 -0.99,2.475 -2.295,4.635 l -3.51,-1.62 0,0 z"
         style="font-style:normal;font-variant:normal;font-weight:600;font-stretch:condensed;font-size:45px;line-height:110.00000238%;font-family:'Avenir Next Condensed';-inkscape-font-specification:'Avenir Next Condensed, Semi-Bold Condensed';text-align:center;writing-mode:lr-tb;text-anchor:middle"
         id="path4497"
         inkscape:connector-curvature="0" />
    </g>
    <use
       x="0"
       y="0"
       xlink:href="#use4161"
       id="use3472"
       transform="translate(226.55805,510.44701)"
       width="100%"
       height="100%" />
    <use
       x="0"
       y="0"
       xlink:href="#path4166"
       id="use3474"
       transform="translate(226.55805,510.44701)"
       width="100%"
       height="100%" />
    <use
       x="0"
       y="0"
       xlink:href="#use4215"
       id="use3476"
       transform="translate(226.55805,510.44701)"
       width="100%"
       height="100%" />
    <use
       x="0"
       y="0"
       xlink:href="#use4227"
       id="use3478"
       transform="translate(226.55805,510.44701)"
       width="100%"
       height="100%" />
    <use
       x="0"
       y="0"
       xlink:href="#path4157"
       id="use3482"
       transform="translate(-227.64525,1278.327)"
       width="100%"
       height="100%" />
    <use
       x="0"
       y="0"
       xlink:href="#use4169"
       id="use3484"
       transform="translate(-227.64525,1278.327)"
       width="100%"
       height="100%" />
    <use
       x="0"
       y="0"
       xlink:href="#use4221"
       id="use3486"
       transform="translate(-227.64525,1278.327)"
       width="100%"
       height="100%" />
    <use
       x="0"
       y="0"
       xlink:href="#text4223"
       id="use3488"
       transform="translate(-227.64525,1278.327)"
       width="100%"
       height="100%" />
    <text
       xml:space="preserve"
       style="font-style:normal;font-variant:normal;font-weight:normal;font-stretch:normal;font-size:25px;line-height:89.99999762%;font-family:sans-serif;-inkscape-font-specification:'sans-serif, Normal';text-align:start;letter-spacing:0px;word-spacing:0px;writing-mode:lr-tb;text-anchor:start;fill:#5f5f5f;fill-opacity:1;stroke:none;stroke-width:1px;stroke-linecap:butt;stroke-linejoin:miter;stroke-opacity:1;"
       x="1559.9519"
       y="-816.64368"
       id="text11693"
       sodipodi:linespacing="89.999998%"><tspan
         sodipodi:role="line"
         id="tspan11695"
         x="1559.9519"
         y="-816.64368">freeman.blue/pages/assert</tspan></text>
  </g>
  <g
     inkscape:groupmode="layer"
     id="layer2"
     inkscape:label="Working">
    <path
       style="fill:none;fill-rule:evenodd;stroke:#000000;stroke-width:3;stroke-linecap:butt;stroke-linejoin:miter;stroke-miterlimit:4;stroke-dasharray:none;stroke-opacity:1;marker-start:url(#marker11599);marker-end:url(#marker11626)"
       d="m 814.61135,1328 c 112,-112 190.88925,-112 286.88925,0"
       id="path3492"
       inkscape:connector-curvature="0"
       sodipodi:nodetypes="cc" />
    <use
       x="0"
       y="0"
       xlink:href="#path3492"
       id="use5992"
       transform="matrix(-1,0,0,-1,1919.0797,2882.2215)"
       width="100%"
       height="100%" />
    <text
       xml:space="preserve"
       style="font-style:italic;font-variant:normal;font-weight:normal;font-stretch:normal;font-size:30px;line-height:89.99999762%;font-family:sans-serif;-inkscape-font-specification:'sans-serif, Italic';text-align:start;letter-spacing:0px;word-spacing:0px;writing-mode:lr-tb;text-anchor:start;fill:#000000;fill-opacity:1;stroke:none;stroke-width:1px;stroke-linecap:butt;stroke-linejoin:miter;stroke-opacity:1"
       id="text5994"
       sodipodi:linespacing="89.999998%"
       x="129.17108"
       y="0"><textPath
         xlink:href="#path11681"
         id="textPath11683"><tspan
   id="tspan5996"
   style="text-align:start;text-anchor:start">         disguised as</tspan></textPath></text>
    <text
       xml:space="preserve"
       style="font-style:italic;font-variant:normal;font-weight:normal;font-stretch:normal;font-size:30px;line-height:89.99999762%;font-family:sans-serif;-inkscape-font-specification:'sans-serif, Italic';text-align:start;letter-spacing:0px;word-spacing:0px;writing-mode:lr-tb;text-anchor:start;fill:#000000;fill-opacity:1;stroke:none;stroke-width:1px;stroke-linecap:butt;stroke-linejoin:miter;stroke-opacity:1"
       id="text5998"
       sodipodi:linespacing="89.999998%"><textPath
         xlink:href="#use11686"
         id="textPath11690"><tspan
   id="tspan6000">         actually is</tspan></textPath></text>
    <path
       style="fill:none;fill-rule:evenodd;stroke:none;stroke-width:1px;stroke-linecap:butt;stroke-linejoin:miter;stroke-opacity:1"
       d="m 816,1312 c 96,-112 192,-112 288,0"
       id="path11681"
       inkscape:connector-curvature="0"
       sodipodi:nodetypes="cc" />
    <path
       sodipodi:nodetypes="cc"
       inkscape:connector-curvature="0"
       id="use11686"
       d="m 816,1536 c 96,112 176,112 288,0"
       style="fill:none;fill-rule:evenodd;stroke:none;stroke-width:1px;stroke-linecap:butt;stroke-linejoin:miter;stroke-opacity:1" />
  </g>
</svg>
