<svg xmlns="http://www.w3.org/2000/svg" xmlns:xlink="http://www.w3.org/1999/xlink" width="1024" height="288" viewBox="0 0 1024 288"><g transform="translate(16 -530.91)"><path d="M96 672h800" fill="none" stroke="#000" stroke-width="4" stroke-miterlimit="2"/><path d="M96 688v32" id="a" fill="none" fill-rule="evenodd" stroke="#000"/><use xlink:href="#a" transform="translate(80)" width="100%" height="100%"/><use xlink:href="#a" transform="translate(160)" width="100%" height="100%"/><use xlink:href="#a" transform="translate(240)" width="100%" height="100%"/><use xlink:href="#a" transform="translate(320)" width="100%" height="100%"/><use xlink:href="#a" transform="translate(400)" width="100%" height="100%"/><use xlink:href="#a" transform="translate(480)" width="100%" height="100%"/><use xlink:href="#a" transform="translate(560)" width="100%" height="100%"/><use xlink:href="#a" transform="translate(640)" width="100%" height="100%"/><use xlink:href="#a" transform="translate(720)" width="100%" height="100%"/><use xlink:href="#a" transform="translate(800)" width="100%" height="100%"/><path d="M112 688v16" id="b" fill="none" fill-rule="evenodd" stroke="#000"/><use xlink:href="#b" transform="translate(16)" width="100%" height="100%"/><use xlink:href="#b" transform="translate(32)" width="100%" height="100%"/><use xlink:href="#b" transform="translate(48)" width="100%" height="100%"/><use xlink:href="#b" transform="translate(64)" width="100%" height="100%"/><use xlink:href="#b" transform="translate(80)" width="100%" height="100%"/><use xlink:href="#b" transform="translate(96)" width="100%" height="100%"/><use xlink:href="#b" transform="translate(112)" width="100%" height="100%"/><use xlink:href="#b" transform="translate(128)" width="100%" height="100%"/><use xlink:href="#b" transform="translate(144)" width="100%" height="100%"/><use xlink:href="#b" transform="translate(160)" width="100%" height="100%"/><use xlink:href="#b" transform="translate(176)" width="100%" height="100%"/><use xlink:href="#b" transform="translate(192)" width="100%" height="100%"/><use xlink:href="#b" transform="translate(208)" width="100%" height="100%"/><use xlink:href="#b" transform="translate(224)" width="100%" height="100%"/><use xlink:href="#b" transform="translate(240)" width="100%" height="100%"/><use xlink:href="#b" transform="translate(256)" width="100%" height="100%"/><use xlink:href="#b" transform="translate(272)" width="100%" height="100%"/><use xlink:href="#b" transform="translate(288)" width="100%" height="100%"/><use xlink:href="#b" transform="translate(304)" width="100%" height="100%"/><use xlink:href="#b" transform="translate(320)" width="100%" height="100%"/><use xlink:href="#b" transform="translate(336)" width="100%" height="100%"/><use xlink:href="#b" transform="translate(352)" width="100%" height="100%"/><use xlink:href="#b" transform="translate(368)" width="100%" height="100%"/><use xlink:href="#b" transform="translate(384)" width="100%" height="100%"/><use xlink:href="#b" transform="translate(400)" width="100%" height="100%"/><use xlink:href="#b" transform="translate(416)" width="100%" height="100%"/><use xlink:href="#b" transform="translate(432)" width="100%" height="100%"/><use xlink:href="#b" transform="translate(448)" width="100%" height="100%"/><use xlink:href="#b" transform="translate(464)" width="100%" height="100%"/><use xlink:href="#b" transform="translate(480)" width="100%" height="100%"/><use xlink:href="#b" transform="translate(496)" width="100%" height="100%"/><use xlink:href="#b" transform="translate(512)" width="100%" height="100%"/><use xlink:href="#b" transform="translate(528)" width="100%" height="100%"/><use xlink:href="#b" transform="translate(544)" width="100%" height="100%"/><use xlink:href="#b" transform="translate(560)" width="100%" height="100%"/><use xlink:href="#b" transform="translate(576)" width="100%" height="100%"/><use xlink:href="#b" transform="translate(592)" width="100%" height="100%"/><use xlink:href="#b" transform="translate(608)" width="100%" height="100%"/><use xlink:href="#b" transform="translate(624)" width="100%" height="100%"/><use xlink:href="#b" transform="translate(640)" width="100%" height="100%"/><use xlink:href="#b" transform="translate(656)" width="100%" height="100%"/><use xlink:href="#b" transform="translate(672)" width="100%" height="100%"/><use xlink:href="#b" transform="translate(688)" width="100%" height="100%"/><use xlink:href="#b" transform="translate(704)" width="100%" height="100%"/><use xlink:href="#b" transform="translate(720)" width="100%" height="100%"/><use xlink:href="#b" transform="translate(736)" width="100%" height="100%"/><use xlink:href="#b" transform="translate(752)" width="100%" height="100%"/><use xlink:href="#b" transform="translate(768)" width="100%" height="100%"/><path d="M48 672h48" id="c" fill="none" fill-rule="evenodd" stroke="#000" stroke-width="4" stroke-dasharray="8, 8" stroke-dashoffset="5.2"/><use xlink:href="#c" transform="matrix(-1 0 0 1 992 0)" width="100%" height="100%"/></g><text word-spacing="0" letter-spacing="0" font-size="25" y="223.645" x="87.995" style="line-height:89.99999762%;-inkscape-font-specification:'sans-serif, Normal';text-align:start" font-family="sans-serif"><tspan y="223.645" x="87.995">500</tspan></text><text word-spacing="0" letter-spacing="0" font-size="25" y="223.645" x="879.627" style="line-height:89.99999762%;-inkscape-font-specification:'sans-serif, Normal';text-align:start" font-family="sans-serif"><tspan y="223.645" x="879.627">1000</tspan></text><text word-spacing="0" letter-spacing="0" font-size="25" y="223.645" x="248.086" style="line-height:89.99999762%;-inkscape-font-specification:'sans-serif, Normal';text-align:start" font-family="sans-serif"><tspan y="223.645" x="248.086">600</tspan></text><text word-spacing="0" letter-spacing="0" font-size="25" y="223.645" x="408.044" style="line-height:89.99999762%;-inkscape-font-specification:'sans-serif, Normal';text-align:start" font-family="sans-serif"><tspan y="223.645" x="408.044">700</tspan></text><text word-spacing="0" letter-spacing="0" font-size="25" y="223.645" x="568.111" style="line-height:89.99999762%;-inkscape-font-specification:'sans-serif, Normal';text-align:start" font-family="sans-serif"><tspan y="223.645" x="568.111">800</tspan></text><text word-spacing="0" letter-spacing="0" font-size="25" y="223.645" x="728.172" style="line-height:89.99999762%;-inkscape-font-specification:'sans-serif, Normal';text-align:start" font-family="sans-serif"><tspan y="223.645" x="728.172">900</tspan></text><path id="d" d="M378.598 62.1a8 8 0 0 1 11.293.487 8 8 0 0 1-.466 11.294 8 8 0 0 1-11.295-.445 8 8 0 0 1 .427-11.296" fill-rule="evenodd" stroke-linecap="round"/><use xlink:href="#d" transform="translate(16)" width="100%" height="100%"/><use xlink:href="#d" transform="translate(48)" width="100%" height="100%"/><use xlink:href="#d" transform="translate(128)" width="100%" height="100%"/><use xlink:href="#d" transform="translate(288)" width="100%" height="100%"/></svg>