<svg xmlns="http://www.w3.org/2000/svg" xmlns:xlink="http://www.w3.org/1999/xlink" width="1024" height="288" viewBox="0 0 1024 288"><g transform="translate(16 -530.91)"><path d="M96 672h800" fill="none" stroke="#000" stroke-width="4" stroke-miterlimit="2"/><path d="M96 688v32" id="a" fill="none" fill-rule="evenodd" stroke="#000"/><use xlink:href="#a" transform="translate(80)" width="100%" height="100%"/><use xlink:href="#a" transform="translate(160)" width="100%" height="100%"/><use xlink:href="#a" transform="translate(240)" width="100%" height="100%"/><use xlink:href="#a" transform="translate(320)" width="100%" height="100%"/><use xlink:href="#a" transform="translate(400)" width="100%" height="100%"/><use xlink:href="#a" transform="translate(480)" width="100%" height="100%"/><use xlink:href="#a" transform="translate(560)" width="100%" height="100%"/><use xlink:href="#a" transform="translate(640)" width="100%" height="100%"/><use xlink:href="#a" transform="translate(720)" width="100%" height="100%"/><use xlink:href="#a" transform="translate(800)" width="100%" height="100%"/><path d="M112 688v16" id="b" fill="none" fill-rule="evenodd" stroke="#000"/><use xlink:href="#b" transform="translate(16)" width="100%" height="100%"/><use xlink:href="#b" transform="translate(32)" width="100%" height="100%"/><use xlink:href="#b" transform="translate(48)" width="100%" height="100%"/><use xlink:href="#b" transform="translate(64)" width="100%" height="100%"/><use xlink:href="#b" transform="translate(80)" width="100%" height="100%"/><use xlink:href="#b" transform="translate(96)" width="100%" height="100%"/><use xlink:href="#b" transform="translate(112)" width="100%" height="100%"/><use xlink:href="#b" transform="translate(128)" width="100%" height="100%"/><use xlink:href="#b" transform="translate(144)" width="100%" height="100%"/><use xlink:href="#b" transform="translate(160)" width="100%" height="100%"/><use xlink:href="#b" transform="translate(176)" width="100%" height="100%"/><use xlink:href="#b" transform="translate(192)" width="100%" height="100%"/><use xlink:href="#b" transform="translate(208)" width="100%" height="100%"/><use xlink:href="#b" transform="translate(224)" width="100%" height="100%"/><use xlink:href="#b" transform="translate(240)" width="100%" height="100%"/><use xlink:href="#b" transform="translate(256)" width="100%" height="100%"/><use xlink:href="#b" transform="translate(272)" width="100%" height="100%"/><use xlink:href="#b" transform="translate(288)" width="100%" height="100%"/><use xlink:href="#b" transform="translate(304)" width="100%" height="100%"/><use xlink:href="#b" transform="translate(320)" width="100%" height="100%"/><use xlink:href="#b" transform="translate(336)" width="100%" height="100%"/><use xlink:href="#b" transform="translate(352)" width="100%" height="100%"/><use xlink:href="#b" transform="translate(368)" width="100%" height="100%"/><use xlink:href="#b" transform="translate(384)" width="100%" height="100%"/><use xlink:href="#b" transform="translate(400)" width="100%" height="100%"/><use xlink:href="#b" transform="translate(416)" width="100%" height="100%"/><use xlink:href="#b" transform="translate(432)" width="100%" height="100%"/><use xlink:href="#b" transform="translate(448)" width="100%" height="100%"/><use xlink:href="#b" transform="translate(464)" width="100%" height="100%"/><use xlink:href="#b" transform="translate(480)" width="100%" height="100%"/><use xlink:href="#b" transform="translate(496)" width="100%" height="100%"/><use xlink:href="#b" transform="translate(512)" width="100%" height="100%"/><use xlink:href="#b" transform="translate(528)" width="100%" height="100%"/><use xlink:href="#b" transform="translate(544)" width="100%" height="100%"/><use xlink:href="#b" transform="translate(560)" width="100%" height="100%"/><use xlink:href="#b" transform="translate(576)" width="100%" height="100%"/><use xlink:href="#b" transform="translate(592)" width="100%" height="100%"/><use xlink:href="#b" transform="translate(608)" width="100%" height="100%"/><use xlink:href="#b" transform="translate(624)" width="100%" height="100%"/><use xlink:href="#b" transform="translate(640)" width="100%" height="100%"/><use xlink:href="#b" transform="translate(656)" width="100%" height="100%"/><use xlink:href="#b" transform="translate(672)" width="100%" height="100%"/><use xlink:href="#b" transform="translate(688)" width="100%" height="100%"/><use xlink:href="#b" transform="translate(704)" width="100%" height="100%"/><use xlink:href="#b" transform="translate(720)" width="100%" height="100%"/><use xlink:href="#b" transform="translate(736)" width="100%" height="100%"/><use xlink:href="#b" transform="translate(752)" width="100%" height="100%"/><use xlink:href="#b" transform="translate(768)" width="100%" height="100%"/><path d="M48 672h48" id="c" fill="none" fill-rule="evenodd" stroke="#000" stroke-width="4" stroke-dasharray="8, 8" stroke-dashoffset="5.2"/><use xlink:href="#c" transform="matrix(-1 0 0 1 992 0)" width="100%" height="100%"/></g><g transform="translate(16 -1058.91)"><path id="d" d="M362.598 1122.597a8 8 0 0 1 11.293.487 8 8 0 0 1-.466 11.294 8 8 0 0 1-11.295-.447 8 8 0 0 1 .427-11.294" stroke="#000" stroke-linecap="square" stroke-dashoffset="5.2"/><use xlink:href="#d" transform="translate(16)" width="100%" height="100%"/><use xlink:href="#d" transform="translate(48)" width="100%" height="100%"/><use xlink:href="#d" transform="translate(128)" width="100%" height="100%"/><use xlink:href="#d" transform="translate(288)" width="100%" height="100%"/><text transform="translate(0 528)" style="line-height:90%;-inkscape-font-specification:'sans-serif, Normal';text-align:start" x="71.995" y="754.555" font-size="25" font-family="sans-serif" letter-spacing="0" word-spacing="0"><tspan x="71.995" y="754.555">500</tspan></text><text transform="translate(0 528)" style="line-height:90%;-inkscape-font-specification:'sans-serif, Normal';text-align:start" x="863.627" y="754.555" font-size="25" font-family="sans-serif" letter-spacing="0" word-spacing="0"><tspan x="863.627" y="754.555">1000</tspan></text><text transform="translate(0 528)" style="line-height:90%;-inkscape-font-specification:'sans-serif, Normal';text-align:start" x="232.086" y="754.555" font-size="25" font-family="sans-serif" letter-spacing="0" word-spacing="0"><tspan x="232.086" y="754.555">600</tspan></text><text transform="translate(0 528)" style="line-height:90%;-inkscape-font-specification:'sans-serif, Normal';text-align:start" x="392.044" y="754.555" font-size="25" font-family="sans-serif" letter-spacing="0" word-spacing="0"><tspan x="392.044" y="754.555">700</tspan></text><text transform="translate(0 528)" style="line-height:90%;-inkscape-font-specification:'sans-serif, Normal';text-align:start" x="552.111" y="754.555" font-size="25" font-family="sans-serif" letter-spacing="0" word-spacing="0"><tspan x="552.111" y="754.555">800</tspan></text><text transform="translate(0 528)" style="line-height:90%;-inkscape-font-specification:'sans-serif, Normal';text-align:start" x="712.172" y="754.555" font-size="25" font-family="sans-serif" letter-spacing="0" word-spacing="0"><tspan x="712.172" y="754.555">900</tspan></text></g></svg>