<svg xmlns="http://www.w3.org/2000/svg" xmlns:xlink="http://www.w3.org/1999/xlink" width="1008" height="816" viewBox="0 0 1008 816"><path d="M112 664h736v-12c-152-4-204-200-228-252-24-44-80-256-140-256-56 0-116 208-148 280-28 60-72 220-220 228z" fill="#f7f7f7" fill-rule="evenodd"/><path d="M620 400c-16-24-80-256-140-256-56 0-112 192-144 272-8 20-52 128-88 166.475V664h464v-83.78C668 532 632 432 620 400z" fill="#e7e7e7" fill-rule="evenodd" stroke="#3f3f3f" stroke-width="1.125" stroke-dasharray="3.375, 3.375"/><path d="M591.03 326.862C561.863 251.947 524 144 480 144c-40 0-69.962 83.07-106.205 170.66-9.07 24.437-23.066 62.032-29.795 79.84V664h272V391.83c-7.57-18.3-16.797-43.167-24.97-64.968z" fill="#dbdbdb" fill-rule="evenodd" stroke="#000" stroke-width="1.125" stroke-dasharray="3.375, 3.375"/><g font-size="25" letter-spacing="0" word-spacing="0" font-family="sans-serif"><text style="line-height:89.99999762%;-inkscape-font-specification:'sans-serif, Italic';text-align:start" x="511.902" y="871.646" font-style="italic" transform="translate(0 -720)"><tspan x="511.902" y="871.646">25%</tspan></text><text style="line-height:89.99999762%;-inkscape-font-specification:'sans-serif, Italic';text-align:start" x="581.681" y="1011.646" font-style="italic" transform="translate(0 -720)"><tspan x="581.681" y="1011.646">75%</tspan></text><text style="line-height:89.99999762%;-inkscape-font-specification:'sans-serif, Italic';text-align:start" x="654.901" y="1191.646" font-style="italic" transform="translate(0 -720)"><tspan x="654.901" y="1191.646">95%</tspan></text><text style="line-height:89.99999762%;-inkscape-font-specification:'sans-serif, Normal';text-align:start" x="87.995" y="1466.555" transform="translate(0 -720)"><tspan x="87.995" y="1466.555">500</tspan></text><text style="line-height:89.99999762%;-inkscape-font-specification:'sans-serif, Normal';text-align:start" x="879.627" y="1466.555" transform="translate(0 -720)"><tspan x="879.627" y="1466.555">1000</tspan></text><text style="line-height:89.99999762%;-inkscape-font-specification:'sans-serif, Normal';text-align:start" x="248.086" y="1466.555" transform="translate(0 -720)"><tspan x="248.086" y="1466.555">600</tspan></text><text style="line-height:89.99999762%;-inkscape-font-specification:'sans-serif, Normal';text-align:start" x="408.044" y="1466.555" transform="translate(0 -720)"><tspan x="408.044" y="1466.555">700</tspan></text><text style="line-height:89.99999762%;-inkscape-font-specification:'sans-serif, Normal';text-align:start" x="568.111" y="1466.555" transform="translate(0 -720)"><tspan x="568.111" y="1466.555">800</tspan></text><text style="line-height:89.99999762%;-inkscape-font-specification:'sans-serif, Normal';text-align:start" x="728.172" y="1466.555" transform="translate(0 -720)"><tspan x="728.172" y="1466.555">900</tspan></text><text style="line-height:89.99999762%;-inkscape-font-specification:'sans-serif, Normal';text-align:start" x="-895.909" y="67.646" transform="rotate(-90 -360 -360)"><tspan x="-895.909" y="67.646" style="line-height:89.99999762%;-inkscape-font-specification:'sans-serif, Normal';text-align:start">0.5%</tspan></text></g><path d="M444 168.96V664h72V166.96c-8.118-8.61-17.953-22.972-36-22.96-18.41.012-31.517 18.073-36 24.96z" fill="#cbcbcb" fill-rule="evenodd" stroke="#000" stroke-width="1.125" stroke-dasharray="3.375, 3.37500000000000000"/><path d="M112 652c148-8 192-168 220-228 32-72 91.575-280.364 147.575-280.364C539.575 143.636 596 356 620 400c24 52 76 248 228 252" fill="none" stroke="#000" stroke-width="2"/><g transform="translate(0 -192)"><path d="M112 856V264" fill="none" stroke="#000" stroke-width="2" stroke-linecap="square"/><path d="M112 856h800" stroke-miterlimit="2" fill="none" stroke="#000" stroke-width="4"/><path d="M112 872v32" id="a" fill="none" fill-rule="evenodd" stroke="#000"/><use xlink:href="#a" transform="translate(80)" width="100%" height="100%"/><use xlink:href="#a" transform="translate(160)" width="100%" height="100%"/><use xlink:href="#a" transform="translate(240)" width="100%" height="100%"/><use xlink:href="#a" transform="translate(320)" width="100%" height="100%"/><use xlink:href="#a" transform="translate(400)" width="100%" height="100%"/><use xlink:href="#a" transform="translate(480)" width="100%" height="100%"/><use xlink:href="#a" transform="translate(560)" width="100%" height="100%"/><use xlink:href="#a" transform="translate(640)" width="100%" height="100%"/><use xlink:href="#a" transform="translate(720)" width="100%" height="100%"/><use xlink:href="#a" transform="translate(800)" width="100%" height="100%"/><path d="M128 872v16" id="b" fill="none" fill-rule="evenodd" stroke="#000"/><use xlink:href="#b" transform="translate(16)" width="100%" height="100%"/><use xlink:href="#b" transform="translate(32)" width="100%" height="100%"/><use xlink:href="#b" transform="translate(48)" width="100%" height="100%"/><use xlink:href="#b" transform="translate(64)" width="100%" height="100%"/><use xlink:href="#b" transform="translate(80)" width="100%" height="100%"/><use xlink:href="#b" transform="translate(96)" width="100%" height="100%"/><use xlink:href="#b" transform="translate(112)" width="100%" height="100%"/><use xlink:href="#b" transform="translate(128)" width="100%" height="100%"/><use xlink:href="#b" transform="translate(144)" width="100%" height="100%"/><use xlink:href="#b" transform="translate(160)" width="100%" height="100%"/><use xlink:href="#b" transform="translate(176)" width="100%" height="100%"/><use xlink:href="#b" transform="translate(192)" width="100%" height="100%"/><use xlink:href="#b" transform="translate(208)" width="100%" height="100%"/><use xlink:href="#b" transform="translate(224)" width="100%" height="100%"/><use xlink:href="#b" transform="translate(240)" width="100%" height="100%"/><use xlink:href="#b" transform="translate(256)" width="100%" height="100%"/><use xlink:href="#b" transform="translate(272)" width="100%" height="100%"/><use xlink:href="#b" transform="translate(288)" width="100%" height="100%"/><use xlink:href="#b" transform="translate(304)" width="100%" height="100%"/><use xlink:href="#b" transform="translate(320)" width="100%" height="100%"/><use xlink:href="#b" transform="translate(336)" width="100%" height="100%"/><use xlink:href="#b" transform="translate(352)" width="100%" height="100%"/><use xlink:href="#b" transform="translate(368)" width="100%" height="100%"/><use xlink:href="#b" transform="translate(384)" width="100%" height="100%"/><use xlink:href="#b" transform="translate(400)" width="100%" height="100%"/><use xlink:href="#b" transform="translate(416)" width="100%" height="100%"/><use xlink:href="#b" transform="translate(432)" width="100%" height="100%"/><use xlink:href="#b" transform="translate(448)" width="100%" height="100%"/><use xlink:href="#b" transform="translate(464)" width="100%" height="100%"/><use xlink:href="#b" transform="translate(480)" width="100%" height="100%"/><use xlink:href="#b" transform="translate(496)" width="100%" height="100%"/><use xlink:href="#b" transform="translate(512)" width="100%" height="100%"/><use xlink:href="#b" transform="translate(528)" width="100%" height="100%"/><use xlink:href="#b" transform="translate(544)" width="100%" height="100%"/><use xlink:href="#b" transform="translate(560)" width="100%" height="100%"/><use xlink:href="#b" transform="translate(576)" width="100%" height="100%"/><use xlink:href="#b" transform="translate(592)" width="100%" height="100%"/><use xlink:href="#b" transform="translate(608)" width="100%" height="100%"/><use xlink:href="#b" transform="translate(624)" width="100%" height="100%"/><use xlink:href="#b" transform="translate(640)" width="100%" height="100%"/><use xlink:href="#b" transform="translate(656)" width="100%" height="100%"/><use xlink:href="#b" transform="translate(672)" width="100%" height="100%"/><use xlink:href="#b" transform="translate(688)" width="100%" height="100%"/><use xlink:href="#b" transform="translate(704)" width="100%" height="100%"/><use xlink:href="#b" transform="translate(720)" width="100%" height="100%"/><use xlink:href="#b" transform="translate(736)" width="100%" height="100%"/><use xlink:href="#b" transform="translate(752)" width="100%" height="100%"/><use xlink:href="#b" transform="translate(768)" width="100%" height="100%"/><use xlink:href="#a" transform="rotate(-90 -176 624)" width="100%" height="100%"/></g></svg>