<?xml version="1.0" encoding="UTF-8" standalone="no"?>
<!-- Created with Inkscape (http://www.inkscape.org/) -->

<svg
   xmlns:dc="http://purl.org/dc/elements/1.1/"
   xmlns:cc="http://creativecommons.org/ns#"
   xmlns:rdf="http://www.w3.org/1999/02/22-rdf-syntax-ns#"
   xmlns:svg="http://www.w3.org/2000/svg"
   xmlns="http://www.w3.org/2000/svg"
   xmlns:xlink="http://www.w3.org/1999/xlink"
   xmlns:sodipodi="http://sodipodi.sourceforge.net/DTD/sodipodi-0.dtd"
   xmlns:inkscape="http://www.inkscape.org/namespaces/inkscape"
   width="1008"
   height="816"
   viewBox="0 0 1008 816"
   id="svg3336"
   version="1.1"
   inkscape:version="0.91 r13725"
   sodipodi:docname="probability-brief-4.svg"
   inkscape:export-filename="/Users/MJF/Documents/Git Repositories/freeman.blue/pages/images/large/probability-brief-4.png"
   inkscape:export-xdpi="90"
   inkscape:export-ydpi="90">
  <defs
     id="defs3338">
    <marker
       inkscape:isstock="true"
       style="overflow:visible"
       id="marker33327"
       refX="0"
       refY="0"
       orient="auto"
       inkscape:stockid="Arrow1Lstart">
      <path
         transform="matrix(0.8,0,0,0.8,10,0)"
         style="fill:#000000;fill-opacity:1;fill-rule:evenodd;stroke:#000000;stroke-width:1pt;stroke-opacity:1"
         d="M 0,0 5,-5 -12.5,0 5,5 0,0 Z"
         id="path33329"
         inkscape:connector-curvature="0" />
    </marker>
  </defs>
  <sodipodi:namedview
     id="base"
     pagecolor="#ffffff"
     bordercolor="#666666"
     borderopacity="1.0"
     inkscape:pageopacity="1"
     inkscape:pageshadow="2"
     inkscape:zoom="0.5"
     inkscape:cx="335.83482"
     inkscape:cy="309.06841"
     inkscape:document-units="px"
     inkscape:current-layer="layer5"
     showgrid="false"
     units="px"
     objecttolerance="24"
     inkscape:window-width="1212"
     inkscape:window-height="751"
     inkscape:window-x="0"
     inkscape:window-y="0"
     inkscape:window-maximized="0"
     inkscape:object-nodes="true"
     inkscape:snap-bbox="true"
     inkscape:bbox-nodes="true"
     inkscape:object-paths="false"
     inkscape:snap-grids="true"
     inkscape:bbox-paths="false"
     inkscape:snap-nodes="false"
     inkscape:snap-bbox-edge-midpoints="false"
     inkscape:snap-smooth-nodes="false"
     inkscape:snap-intersection-paths="false"
     inkscape:snap-global="true"
     inkscape:snap-bbox-midpoints="false">
    <inkscape:grid
       type="xygrid"
       id="grid3344"
       snapvisiblegridlinesonly="true"
       spacingx="4"
       spacingy="4"
       empspacing="4" />
  </sodipodi:namedview>
  <metadata
     id="metadata3341">
    <rdf:RDF>
      <cc:Work
         rdf:about="http://www.freeman.blue/pages/images/large/basic-prob-alpha.svg">
        <dc:format>image/svg+xml</dc:format>
        <dc:type
           rdf:resource="http://purl.org/dc/dcmitype/StillImage" />
        <dc:title></dc:title>
        <dc:creator>
          <cc:Agent>
            <dc:title>M.J. Freeman</dc:title>
          </cc:Agent>
        </dc:creator>
        <dc:source>www.freeman.blue</dc:source>
        <cc:license
           rdf:resource="http://creativecommons.org/licenses/by-nc/3.0/" />
      </cc:Work>
      <cc:License
         rdf:about="http://creativecommons.org/licenses/by-nc/3.0/">
        <cc:permits
           rdf:resource="http://creativecommons.org/ns#Reproduction" />
        <cc:permits
           rdf:resource="http://creativecommons.org/ns#Distribution" />
        <cc:requires
           rdf:resource="http://creativecommons.org/ns#Notice" />
        <cc:requires
           rdf:resource="http://creativecommons.org/ns#Attribution" />
        <cc:prohibits
           rdf:resource="http://creativecommons.org/ns#CommercialUse" />
        <cc:permits
           rdf:resource="http://creativecommons.org/ns#DerivativeWorks" />
      </cc:License>
    </rdf:RDF>
  </metadata>
  <g
     inkscape:groupmode="layer"
     id="layer5"
     inkscape:label="Shade"
     style="display:inline"
     transform="translate(0,-720)">
    <path
       style="fill:#f7f7f7;fill-opacity:1;fill-rule:evenodd;stroke:none;stroke-width:1px;stroke-linecap:butt;stroke-linejoin:miter;stroke-opacity:1"
       d="m 105.49438,1406.5456 736,0 0,-12 c -152,-4 -204,-200 -228,-252 -24,-44 -80,-255.99994 -140,-255.99994 -56,0 -116,207.99994 -148,279.99994 -28,60 -72,220 -220,228 z"
       id="path4378"
       inkscape:connector-curvature="0"
       sodipodi:nodetypes="cccccccc" />
    <path
       style="display:inline;opacity:1;fill:#e7e7e7;fill-opacity:1;fill-rule:evenodd;stroke:#3f3f3f;stroke-width:1.125;stroke-linecap:butt;stroke-linejoin:miter;stroke-miterlimit:4;stroke-dasharray:3.375, 3.375;stroke-dashoffset:0;stroke-opacity:1"
       d="m 613.49438,1142.5456 c -16,-24 -80,-255.99994 -140,-255.99994 -48,0 -93.2543,137.83734 -145.7063,274.72034 -30.2937,65.2796 -78.2937,229.2796 -222.2937,233.2796 l 0,12 560,0 0,-144.1582 c -12,-19.8418 -37.75895,-84.4901 -52,-119.8418 z"
       id="path4463"
       inkscape:connector-curvature="0"
       sodipodi:nodetypes="cccccccc" />
    <path
       sodipodi:nodetypes="ccccccc"
       inkscape:connector-curvature="0"
       id="use4483"
       d="m 473.49438,886.54566 c -56,0 -116,207.99994 -151.05682,286.78054 -16.94318,37.2194 -68.94318,217.2194 -216.94318,221.2194 l 0,12 448,0 0,-416.4111 c -20.4252,-43.07938 -48,-103.58884 -80,-103.58884 z"
       style="display:inline;opacity:1;fill:#dbdbdb;fill-opacity:1;fill-rule:evenodd;stroke:#000000;stroke-width:1.125;stroke-linecap:butt;stroke-linejoin:miter;stroke-miterlimit:4;stroke-dasharray:3.375, 3.375;stroke-dashoffset:0;stroke-opacity:1" />
    <path
       style="display:inline;opacity:1;fill:#cbcbcb;fill-opacity:1;fill-rule:evenodd;stroke:#000000;stroke-width:1.125;stroke-linecap:butt;stroke-linejoin:miter;stroke-miterlimit:4;stroke-dasharray:3.375, 3.375;stroke-dashoffset:0;stroke-opacity:1"
       d="m 105.49438,1394.5456 0,12 288,0 0,-414.67723 c -16,38.67723 -68,178.67723 -83.65577,211.63883 -20.34423,51.0384 -76.34423,187.0384 -204.34423,191.0384 z"
       id="path4455"
       inkscape:connector-curvature="0"
       sodipodi:nodetypes="cccccc" />
  </g>
  <g
     inkscape:groupmode="layer"
     id="layer4"
     inkscape:label="Axis"
     style="display:inline"
     transform="translate(0,-192)">
    <path
       style="display:inline;fill:none;fill-rule:evenodd;stroke:#000000;stroke-width:2;stroke-linecap:square;stroke-linejoin:miter;stroke-miterlimit:4;stroke-dasharray:none;stroke-opacity:1"
       d="m 105.49438,878.54566 0,-592"
       id="path4471"
       inkscape:connector-curvature="0"
       sodipodi:nodetypes="cc" />
    <path
       style="display:inline;fill:none;fill-rule:evenodd;stroke:#000000;stroke-width:4;stroke-linecap:butt;stroke-linejoin:miter;stroke-miterlimit:2;stroke-dasharray:none;stroke-opacity:1"
       d="m 105.49438,878.54566 800,0"
       id="path4469"
       inkscape:connector-curvature="0"
       sodipodi:nodetypes="cc" />
    <path
       style="fill:none;fill-rule:evenodd;stroke:#000000;stroke-width:1px;stroke-linecap:butt;stroke-linejoin:miter;stroke-opacity:1"
       d="m 105.49438,894.54566 0,32"
       id="path3414"
       inkscape:connector-curvature="0"
       inkscape:tile-cx="48"
       inkscape:tile-cy="712"
       inkscape:tile-w="1"
       inkscape:tile-h="48"
       inkscape:tile-x0="47.5"
       inkscape:tile-y0="688"
       sodipodi:nodetypes="cc" />
    <use
       x="0"
       y="0"
       inkscape:tiled-clone-of="#path3414"
       xlink:href="#path3414"
       transform="translate(79.999995,4.30625e-6)"
       id="use3548"
       width="100%"
       height="100%" />
    <use
       x="0"
       y="0"
       inkscape:tiled-clone-of="#path3414"
       xlink:href="#path3414"
       transform="translate(160,4.30625e-6)"
       id="use3550"
       width="100%"
       height="100%" />
    <use
       x="0"
       y="0"
       inkscape:tiled-clone-of="#path3414"
       xlink:href="#path3414"
       transform="translate(240,4.30625e-6)"
       id="use3552"
       width="100%"
       height="100%" />
    <use
       x="0"
       y="0"
       inkscape:tiled-clone-of="#path3414"
       xlink:href="#path3414"
       transform="translate(320,4.30625e-6)"
       id="use3554"
       width="100%"
       height="100%" />
    <use
       x="0"
       y="0"
       inkscape:tiled-clone-of="#path3414"
       xlink:href="#path3414"
       transform="translate(400,4.30625e-6)"
       id="use3556"
       width="100%"
       height="100%" />
    <use
       x="0"
       y="0"
       inkscape:tiled-clone-of="#path3414"
       xlink:href="#path3414"
       transform="translate(480,4.30625e-6)"
       id="use3558"
       width="100%"
       height="100%" />
    <use
       x="0"
       y="0"
       inkscape:tiled-clone-of="#path3414"
       xlink:href="#path3414"
       transform="translate(560,4.30625e-6)"
       id="use3560"
       width="100%"
       height="100%" />
    <use
       x="0"
       y="0"
       inkscape:tiled-clone-of="#path3414"
       xlink:href="#path3414"
       transform="translate(640,4.30625e-6)"
       id="use3562"
       width="100%"
       height="100%" />
    <use
       x="0"
       y="0"
       inkscape:tiled-clone-of="#path3414"
       xlink:href="#path3414"
       transform="translate(720,4.30625e-6)"
       id="use3564"
       width="100%"
       height="100%" />
    <use
       x="0"
       y="0"
       inkscape:tiled-clone-of="#path3414"
       xlink:href="#path3414"
       transform="translate(800,4.30625e-6)"
       id="use3566"
       width="100%"
       height="100%" />
    <path
       style="fill:none;fill-rule:evenodd;stroke:#000000;stroke-width:1px;stroke-linecap:butt;stroke-linejoin:miter;stroke-opacity:1"
       d="m 121.49438,894.54566 0,16"
       id="path3568"
       inkscape:connector-curvature="0"
       inkscape:tile-cx="64"
       inkscape:tile-cy="700"
       inkscape:tile-w="1"
       inkscape:tile-h="24"
       inkscape:tile-x0="63.5"
       inkscape:tile-y0="688"
       sodipodi:nodetypes="cc" />
    <use
       x="0"
       y="0"
       inkscape:tiled-clone-of="#path3568"
       xlink:href="#path3568"
       transform="translate(16,4.30625e-6)"
       id="use3616"
       width="100%"
       height="100%" />
    <use
       x="0"
       y="0"
       inkscape:tiled-clone-of="#path3568"
       xlink:href="#path3568"
       transform="translate(32,4.30625e-6)"
       id="use3618"
       width="100%"
       height="100%" />
    <use
       x="0"
       y="0"
       inkscape:tiled-clone-of="#path3568"
       xlink:href="#path3568"
       transform="translate(48,4.30625e-6)"
       id="use3620"
       width="100%"
       height="100%" />
    <use
       x="0"
       y="0"
       inkscape:tiled-clone-of="#path3568"
       xlink:href="#path3568"
       transform="translate(64,4.30625e-6)"
       id="use3622"
       width="100%"
       height="100%" />
    <use
       x="0"
       y="0"
       inkscape:tiled-clone-of="#path3568"
       xlink:href="#path3568"
       transform="translate(79.999995,4.30625e-6)"
       id="use3624"
       width="100%"
       height="100%" />
    <use
       x="0"
       y="0"
       inkscape:tiled-clone-of="#path3568"
       xlink:href="#path3568"
       transform="translate(95.999995,4.30625e-6)"
       id="use3626"
       width="100%"
       height="100%" />
    <use
       x="0"
       y="0"
       inkscape:tiled-clone-of="#path3568"
       xlink:href="#path3568"
       transform="translate(112,4.30625e-6)"
       id="use3628"
       width="100%"
       height="100%" />
    <use
       x="0"
       y="0"
       inkscape:tiled-clone-of="#path3568"
       xlink:href="#path3568"
       transform="translate(128,4.30625e-6)"
       id="use3630"
       width="100%"
       height="100%" />
    <use
       x="0"
       y="0"
       inkscape:tiled-clone-of="#path3568"
       xlink:href="#path3568"
       transform="translate(144,4.30625e-6)"
       id="use3632"
       width="100%"
       height="100%" />
    <use
       x="0"
       y="0"
       inkscape:tiled-clone-of="#path3568"
       xlink:href="#path3568"
       transform="translate(160,4.30625e-6)"
       id="use3634"
       width="100%"
       height="100%" />
    <use
       x="0"
       y="0"
       inkscape:tiled-clone-of="#path3568"
       xlink:href="#path3568"
       transform="translate(176,4.30625e-6)"
       id="use3636"
       width="100%"
       height="100%" />
    <use
       x="0"
       y="0"
       inkscape:tiled-clone-of="#path3568"
       xlink:href="#path3568"
       transform="translate(192,4.30625e-6)"
       id="use3638"
       width="100%"
       height="100%" />
    <use
       x="0"
       y="0"
       inkscape:tiled-clone-of="#path3568"
       xlink:href="#path3568"
       transform="translate(208,4.30625e-6)"
       id="use3640"
       width="100%"
       height="100%" />
    <use
       x="0"
       y="0"
       inkscape:tiled-clone-of="#path3568"
       xlink:href="#path3568"
       transform="translate(224,4.30625e-6)"
       id="use3642"
       width="100%"
       height="100%" />
    <use
       x="0"
       y="0"
       inkscape:tiled-clone-of="#path3568"
       xlink:href="#path3568"
       transform="translate(240,4.30625e-6)"
       id="use3644"
       width="100%"
       height="100%" />
    <use
       x="0"
       y="0"
       inkscape:tiled-clone-of="#path3568"
       xlink:href="#path3568"
       transform="translate(256,4.30625e-6)"
       id="use3646"
       width="100%"
       height="100%" />
    <use
       x="0"
       y="0"
       inkscape:tiled-clone-of="#path3568"
       xlink:href="#path3568"
       transform="translate(272,4.30625e-6)"
       id="use3648"
       width="100%"
       height="100%" />
    <use
       x="0"
       y="0"
       inkscape:tiled-clone-of="#path3568"
       xlink:href="#path3568"
       transform="translate(288,4.30625e-6)"
       id="use3650"
       width="100%"
       height="100%" />
    <use
       x="0"
       y="0"
       inkscape:tiled-clone-of="#path3568"
       xlink:href="#path3568"
       transform="translate(304,4.30625e-6)"
       id="use3652"
       width="100%"
       height="100%" />
    <use
       x="0"
       y="0"
       inkscape:tiled-clone-of="#path3568"
       xlink:href="#path3568"
       transform="translate(320,4.30625e-6)"
       id="use3654"
       width="100%"
       height="100%" />
    <use
       x="0"
       y="0"
       inkscape:tiled-clone-of="#path3568"
       xlink:href="#path3568"
       transform="translate(336,4.30625e-6)"
       id="use3656"
       width="100%"
       height="100%" />
    <use
       x="0"
       y="0"
       inkscape:tiled-clone-of="#path3568"
       xlink:href="#path3568"
       transform="translate(352,4.30625e-6)"
       id="use3658"
       width="100%"
       height="100%" />
    <use
       x="0"
       y="0"
       inkscape:tiled-clone-of="#path3568"
       xlink:href="#path3568"
       transform="translate(368,4.30625e-6)"
       id="use3660"
       width="100%"
       height="100%" />
    <use
       x="0"
       y="0"
       inkscape:tiled-clone-of="#path3568"
       xlink:href="#path3568"
       transform="translate(384,4.30625e-6)"
       id="use3662"
       width="100%"
       height="100%" />
    <use
       x="0"
       y="0"
       inkscape:tiled-clone-of="#path3568"
       xlink:href="#path3568"
       transform="translate(400,4.30625e-6)"
       id="use3664"
       width="100%"
       height="100%" />
    <use
       x="0"
       y="0"
       inkscape:tiled-clone-of="#path3568"
       xlink:href="#path3568"
       transform="translate(416,4.30625e-6)"
       id="use3666"
       width="100%"
       height="100%" />
    <use
       x="0"
       y="0"
       inkscape:tiled-clone-of="#path3568"
       xlink:href="#path3568"
       transform="translate(432,4.30625e-6)"
       id="use3668"
       width="100%"
       height="100%" />
    <use
       x="0"
       y="0"
       inkscape:tiled-clone-of="#path3568"
       xlink:href="#path3568"
       transform="translate(448,4.30625e-6)"
       id="use3670"
       width="100%"
       height="100%" />
    <use
       x="0"
       y="0"
       inkscape:tiled-clone-of="#path3568"
       xlink:href="#path3568"
       transform="translate(464,4.30625e-6)"
       id="use3672"
       width="100%"
       height="100%" />
    <use
       x="0"
       y="0"
       inkscape:tiled-clone-of="#path3568"
       xlink:href="#path3568"
       transform="translate(480,4.30625e-6)"
       id="use3674"
       width="100%"
       height="100%" />
    <use
       x="0"
       y="0"
       inkscape:tiled-clone-of="#path3568"
       xlink:href="#path3568"
       transform="translate(496,4.30625e-6)"
       id="use3676"
       width="100%"
       height="100%" />
    <use
       x="0"
       y="0"
       inkscape:tiled-clone-of="#path3568"
       xlink:href="#path3568"
       transform="translate(512,4.30625e-6)"
       id="use3678"
       width="100%"
       height="100%" />
    <use
       x="0"
       y="0"
       inkscape:tiled-clone-of="#path3568"
       xlink:href="#path3568"
       transform="translate(528,4.30625e-6)"
       id="use3680"
       width="100%"
       height="100%" />
    <use
       x="0"
       y="0"
       inkscape:tiled-clone-of="#path3568"
       xlink:href="#path3568"
       transform="translate(544,4.30625e-6)"
       id="use3682"
       width="100%"
       height="100%" />
    <use
       x="0"
       y="0"
       inkscape:tiled-clone-of="#path3568"
       xlink:href="#path3568"
       transform="translate(560,4.30625e-6)"
       id="use3684"
       width="100%"
       height="100%" />
    <use
       x="0"
       y="0"
       inkscape:tiled-clone-of="#path3568"
       xlink:href="#path3568"
       transform="translate(576,4.30625e-6)"
       id="use3686"
       width="100%"
       height="100%" />
    <use
       x="0"
       y="0"
       inkscape:tiled-clone-of="#path3568"
       xlink:href="#path3568"
       transform="translate(592,4.30625e-6)"
       id="use3688"
       width="100%"
       height="100%" />
    <use
       x="0"
       y="0"
       inkscape:tiled-clone-of="#path3568"
       xlink:href="#path3568"
       transform="translate(608,4.30625e-6)"
       id="use3690"
       width="100%"
       height="100%" />
    <use
       x="0"
       y="0"
       inkscape:tiled-clone-of="#path3568"
       xlink:href="#path3568"
       transform="translate(624,4.30625e-6)"
       id="use3692"
       width="100%"
       height="100%" />
    <use
       x="0"
       y="0"
       inkscape:tiled-clone-of="#path3568"
       xlink:href="#path3568"
       transform="translate(640,4.30625e-6)"
       id="use3694"
       width="100%"
       height="100%" />
    <use
       x="0"
       y="0"
       inkscape:tiled-clone-of="#path3568"
       xlink:href="#path3568"
       transform="translate(656,4.30625e-6)"
       id="use3696"
       width="100%"
       height="100%" />
    <use
       x="0"
       y="0"
       inkscape:tiled-clone-of="#path3568"
       xlink:href="#path3568"
       transform="translate(672,4.30625e-6)"
       id="use3698"
       width="100%"
       height="100%" />
    <use
       x="0"
       y="0"
       inkscape:tiled-clone-of="#path3568"
       xlink:href="#path3568"
       transform="translate(688,4.30625e-6)"
       id="use3700"
       width="100%"
       height="100%" />
    <use
       x="0"
       y="0"
       inkscape:tiled-clone-of="#path3568"
       xlink:href="#path3568"
       transform="translate(704,4.30625e-6)"
       id="use3702"
       width="100%"
       height="100%" />
    <use
       x="0"
       y="0"
       inkscape:tiled-clone-of="#path3568"
       xlink:href="#path3568"
       transform="translate(720,4.30625e-6)"
       id="use3704"
       width="100%"
       height="100%" />
    <use
       x="0"
       y="0"
       inkscape:tiled-clone-of="#path3568"
       xlink:href="#path3568"
       transform="translate(736,4.30625e-6)"
       id="use3706"
       width="100%"
       height="100%" />
    <use
       x="0"
       y="0"
       inkscape:tiled-clone-of="#path3568"
       xlink:href="#path3568"
       transform="translate(752,4.30625e-6)"
       id="use3708"
       width="100%"
       height="100%" />
    <use
       x="0"
       y="0"
       inkscape:tiled-clone-of="#path3568"
       xlink:href="#path3568"
       transform="translate(768,4.30625e-6)"
       id="use3710"
       width="100%"
       height="100%" />
  </g>
  <g
     inkscape:label="Main"
     inkscape:groupmode="layer"
     id="layer1"
     style="display:inline;opacity:1"
     transform="translate(0,-720)">
    <path
       style="display:inline;fill:none;fill-rule:evenodd;stroke:#000000;stroke-width:2;stroke-linecap:butt;stroke-linejoin:miter;stroke-miterlimit:4;stroke-dasharray:none;stroke-opacity:1"
       d="m 105.49438,1394.5456 c 148,-8 192,-168 220,-228 32,-72 91.57473,-280.36358 147.57473,-280.36358 60,0 116.42527,212.36358 140.42527,256.36358 24,52 76,248 228,252"
       id="path3422"
       inkscape:connector-curvature="0"
       sodipodi:nodetypes="ccccc" />
  </g>
  <g
     inkscape:groupmode="layer"
     id="layer2"
     inkscape:label="Text"
     style="display:inline"
     transform="translate(0,-720)">
    <text
       xml:space="preserve"
       style="font-style:italic;font-variant:normal;font-weight:normal;font-stretch:normal;font-size:25px;line-height:89.99999762%;font-family:sans-serif;-inkscape-font-specification:'sans-serif, Italic';text-align:start;letter-spacing:0px;word-spacing:0px;writing-mode:lr-tb;text-anchor:start;fill:#000000;fill-opacity:1;stroke:none;stroke-width:1px;stroke-linecap:butt;stroke-linejoin:miter;stroke-opacity:1"
       x="324.18628"
       y="1009.1003"
       id="text4467"
       sodipodi:linespacing="89.999998%"><tspan
         sodipodi:role="line"
         x="324.18628"
         y="1009.1003"
         id="tspan4471">25%</tspan></text>
    <text
       xml:space="preserve"
       style="font-style:italic;font-variant:normal;font-weight:normal;font-stretch:normal;font-size:25px;line-height:89.99999762%;font-family:sans-serif;-inkscape-font-specification:'sans-serif, Italic';text-align:start;letter-spacing:0px;word-spacing:0px;writing-mode:lr-tb;text-anchor:start;fill:#000000;fill-opacity:1;stroke:none;stroke-width:1px;stroke-linecap:butt;stroke-linejoin:miter;stroke-opacity:1"
       x="525.68066"
       y="927.646"
       id="text4475"
       sodipodi:linespacing="89.999998%"><tspan
         sodipodi:role="line"
         id="tspan4477"
         x="525.68066"
         y="927.646">75%</tspan></text>
    <text
       xml:space="preserve"
       style="font-style:italic;font-variant:normal;font-weight:normal;font-stretch:normal;font-size:25px;line-height:89.99999762%;font-family:sans-serif;-inkscape-font-specification:'sans-serif, Italic';text-align:start;letter-spacing:0px;word-spacing:0px;writing-mode:lr-tb;text-anchor:start;fill:#000000;fill-opacity:1;stroke:none;stroke-width:1px;stroke-linecap:butt;stroke-linejoin:miter;stroke-opacity:1"
       x="638.29102"
       y="1191.646"
       id="text4479"
       sodipodi:linespacing="89.999998%"><tspan
         sodipodi:role="line"
         id="tspan4481"
         x="638.29102"
         y="1191.646">95%</tspan></text>
  </g>
</svg>
