<svg xmlns="http://www.w3.org/2000/svg" xmlns:xlink="http://www.w3.org/1999/xlink" width="1008" height="816" viewBox="0 0 1008 816"><g fill-rule="evenodd"><path d="M128 664h736v-12c-152-4-204-200-228-252-24-44-80-256-140-256-56 0-116 208-148 280-28 60-72 220-220 228z" fill="#f7f7f7"/><path d="M488 664V144.87c2.858-1.047 5.08-1.133 8-.87 3.367-.292 5.333.172 8 1.002V664z" fill="#cfcfcf" stroke="#7f7f7f" stroke-width="1.25" stroke-dasharray="3.75, 3.75" stroke-dashoffset="7.125"/></g><g transform="translate(0 -192)"><path d="M128 856V264" fill="none" stroke="#000" stroke-width="2" stroke-linecap="square"/><path d="M128 856h800" fill="none" stroke="#000" stroke-width="4" stroke-miterlimit="2"/><path d="M128 872v32" id="a" fill="none" fill-rule="evenodd" stroke="#000"/><use xlink:href="#a" transform="translate(80)" width="100%" height="100%"/><use xlink:href="#a" transform="translate(160)" width="100%" height="100%"/><use xlink:href="#a" transform="translate(240)" width="100%" height="100%"/><use xlink:href="#a" transform="translate(320)" width="100%" height="100%"/><use xlink:href="#a" transform="translate(400)" width="100%" height="100%"/><use xlink:href="#a" transform="translate(480)" width="100%" height="100%"/><use xlink:href="#a" transform="translate(560)" width="100%" height="100%"/><use xlink:href="#a" transform="translate(640)" width="100%" height="100%"/><use xlink:href="#a" transform="translate(720)" width="100%" height="100%"/><use xlink:href="#a" transform="translate(800)" width="100%" height="100%"/><path d="M144 872v16" id="b" fill="none" fill-rule="evenodd" stroke="#000"/><use xlink:href="#b" transform="translate(16)" width="100%" height="100%"/><use xlink:href="#b" transform="translate(32)" width="100%" height="100%"/><use xlink:href="#b" transform="translate(48)" width="100%" height="100%"/><use xlink:href="#b" transform="translate(64)" width="100%" height="100%"/><use xlink:href="#b" transform="translate(80)" width="100%" height="100%"/><use xlink:href="#b" transform="translate(96)" width="100%" height="100%"/><use xlink:href="#b" transform="translate(112)" width="100%" height="100%"/><use xlink:href="#b" transform="translate(128)" width="100%" height="100%"/><use xlink:href="#b" transform="translate(144)" width="100%" height="100%"/><use xlink:href="#b" transform="translate(160)" width="100%" height="100%"/><use xlink:href="#b" transform="translate(176)" width="100%" height="100%"/><use xlink:href="#b" transform="translate(192)" width="100%" height="100%"/><use xlink:href="#b" transform="translate(208)" width="100%" height="100%"/><use xlink:href="#b" transform="translate(224)" width="100%" height="100%"/><use xlink:href="#b" transform="translate(240)" width="100%" height="100%"/><use xlink:href="#b" transform="translate(256)" width="100%" height="100%"/><use xlink:href="#b" transform="translate(272)" width="100%" height="100%"/><use xlink:href="#b" transform="translate(288)" width="100%" height="100%"/><use xlink:href="#b" transform="translate(304)" width="100%" height="100%"/><use xlink:href="#b" transform="translate(320)" width="100%" height="100%"/><use xlink:href="#b" transform="translate(336)" width="100%" height="100%"/><use xlink:href="#b" transform="translate(352)" width="100%" height="100%"/><use xlink:href="#b" transform="translate(368)" width="100%" height="100%"/><use xlink:href="#b" transform="translate(384)" width="100%" height="100%"/><use xlink:href="#b" transform="translate(400)" width="100%" height="100%"/><use xlink:href="#b" transform="translate(416)" width="100%" height="100%"/><use xlink:href="#b" transform="translate(432)" width="100%" height="100%"/><use xlink:href="#b" transform="translate(448)" width="100%" height="100%"/><use xlink:href="#b" transform="translate(464)" width="100%" height="100%"/><use xlink:href="#b" transform="translate(480)" width="100%" height="100%"/><use xlink:href="#b" transform="translate(496)" width="100%" height="100%"/><use xlink:href="#b" transform="translate(512)" width="100%" height="100%"/><use xlink:href="#b" transform="translate(528)" width="100%" height="100%"/><use xlink:href="#b" transform="translate(544)" width="100%" height="100%"/><use xlink:href="#b" transform="translate(560)" width="100%" height="100%"/><use xlink:href="#b" transform="translate(576)" width="100%" height="100%"/><use xlink:href="#b" transform="translate(592)" width="100%" height="100%"/><use xlink:href="#b" transform="translate(608)" width="100%" height="100%"/><use xlink:href="#b" transform="translate(624)" width="100%" height="100%"/><use xlink:href="#b" transform="translate(640)" width="100%" height="100%"/><use xlink:href="#b" transform="translate(656)" width="100%" height="100%"/><use xlink:href="#b" transform="translate(672)" width="100%" height="100%"/><use xlink:href="#b" transform="translate(688)" width="100%" height="100%"/><use xlink:href="#b" transform="translate(704)" width="100%" height="100%"/><use xlink:href="#b" transform="translate(720)" width="100%" height="100%"/><use xlink:href="#b" transform="translate(736)" width="100%" height="100%"/><use xlink:href="#b" transform="translate(752)" width="100%" height="100%"/><use xlink:href="#b" transform="translate(768)" width="100%" height="100%"/><use xlink:href="#a" transform="rotate(-90 -160 624)" width="100%" height="100%"/></g><g transform="translate(0 -720)"><path d="M128 1372c148-8 192-168 220-228 32-72 91.575-280.364 147.575-280.364C555.575 863.636 612 1076 636 1120c24 52 76 248 228 252" fill="none" stroke="#000" stroke-width="2"/><path id="c" d="M394.598 1346.1a8 8 0 0 1 11.293.487 8 8 0 0 1-.466 11.294 8 8 0 0 1-11.295-.445 8 8 0 0 1 .427-11.296" stroke="#000" stroke-linecap="square" stroke-dashoffset="5.2"/><use xlink:href="#c" transform="translate(16)" width="100%" height="100%"/><use xlink:href="#c" transform="translate(48)" width="100%" height="100%"/><use xlink:href="#c" transform="translate(288)" width="100%" height="100%"/><use xlink:href="#c" transform="translate(128)" width="100%" height="100%"/><path d="M496 840v544" fill="none" stroke="#000" stroke-width="1.5"/></g><g font-size="25" font-family="sans-serif" letter-spacing="0" word-spacing="0"><text style="line-height:89.99999762%;-inkscape-font-specification:'sans-serif, Normal';text-align:start" x="103.995" y="1466.555" transform="translate(0 -720)"><tspan x="103.995" y="1466.555">500</tspan></text><text style="line-height:89.99999762%;-inkscape-font-specification:'sans-serif, Normal';text-align:start" x="895.627" y="1466.555" transform="translate(0 -720)"><tspan x="895.627" y="1466.555">1000</tspan></text><text style="line-height:89.99999762%;-inkscape-font-specification:'sans-serif, Normal';text-align:start" x="264.086" y="1466.555" transform="translate(0 -720)"><tspan x="264.086" y="1466.555">600</tspan></text><text style="line-height:89.99999762%;-inkscape-font-specification:'sans-serif, Normal';text-align:start" x="424.044" y="1466.555" transform="translate(0 -720)"><tspan x="424.044" y="1466.555">700</tspan></text><text style="line-height:89.99999762%;-inkscape-font-specification:'sans-serif, Normal';text-align:start" x="584.111" y="1466.555" transform="translate(0 -720)"><tspan x="584.111" y="1466.555">800</tspan></text><text style="line-height:89.99999762%;-inkscape-font-specification:'sans-serif, Normal';text-align:start" x="744.172" y="1466.555" transform="translate(0 -720)"><tspan x="744.172" y="1466.555">900</tspan></text><text style="line-height:89.99999762%;-inkscape-font-specification:'sans-serif, Normal';text-align:start" x="-895.909" y="83.646" transform="rotate(-90 -360 -360)"><tspan x="-895.909" y="83.646" style="line-height:89.99999762%;-inkscape-font-specification:'sans-serif, Normal';text-align:start">0.5%</tspan></text></g></svg>