<svg xmlns="http://www.w3.org/2000/svg" xmlns:xlink="http://www.w3.org/1999/xlink" width="1008" height="816" viewBox="0 0 1008 816"><g fill-rule="evenodd"><path d="M105.494 686.546h736v-12c-152-4-204-200-228-252-24-44-80-256-140-256-56 0-116 208-148 280-28 60-72 220-220 228z" fill="#f7f7f7"/><path d="M613.494 422.546c-16-24-80-256-140-256-48 0-93.254 137.837-145.706 274.72-30.294 65.28-78.294 229.28-222.294 233.28v12h560v-144.16c-12-19.84-37.76-84.49-52-119.84z" fill="#e7e7e7" stroke="#3f3f3f" stroke-width="1.125" stroke-dasharray="3.375, 3.375"/><path d="M473.494 166.546c-56 0-116 208-151.056 286.78-16.944 37.22-68.944 217.22-216.944 221.22v12h448V270.134c-20.425-43.08-48-103.588-80-103.588z" fill="#dbdbdb" stroke="#000" stroke-width="1.125" stroke-dasharray="3.375, 3.375"/><path d="M105.494 674.546v12h288V271.868c-16 38.678-68 178.678-83.655 211.64-20.347 51.038-76.347 187.038-204.347 191.038z" fill="#cbcbcb" stroke="#000" stroke-width="1.125" stroke-dasharray="3.375, 3.375"/></g><g transform="translate(0 -192)"><path d="M105.494 878.546v-592" fill="none" stroke="#000" stroke-width="2" stroke-linecap="square"/><path d="M105.494 878.546h800" fill="none" stroke="#000" stroke-width="4" stroke-miterlimit="2"/><path d="M105.494 894.546v32" id="a" fill="none" fill-rule="evenodd" stroke="#000"/><use xlink:href="#a" transform="translate(80)" width="100%" height="100%"/><use xlink:href="#a" transform="translate(160)" width="100%" height="100%"/><use xlink:href="#a" transform="translate(240)" width="100%" height="100%"/><use xlink:href="#a" transform="translate(320)" width="100%" height="100%"/><use xlink:href="#a" transform="translate(400)" width="100%" height="100%"/><use xlink:href="#a" transform="translate(480)" width="100%" height="100%"/><use xlink:href="#a" transform="translate(560)" width="100%" height="100%"/><use xlink:href="#a" transform="translate(640)" width="100%" height="100%"/><use xlink:href="#a" transform="translate(720)" width="100%" height="100%"/><use xlink:href="#a" transform="translate(800)" width="100%" height="100%"/><path d="M121.494 894.546v16" id="b" fill="none" fill-rule="evenodd" stroke="#000"/><use xlink:href="#b" transform="translate(16)" width="100%" height="100%"/><use xlink:href="#b" transform="translate(32)" width="100%" height="100%"/><use xlink:href="#b" transform="translate(48)" width="100%" height="100%"/><use xlink:href="#b" transform="translate(64)" width="100%" height="100%"/><use xlink:href="#b" transform="translate(80)" width="100%" height="100%"/><use xlink:href="#b" transform="translate(96)" width="100%" height="100%"/><use xlink:href="#b" transform="translate(112)" width="100%" height="100%"/><use xlink:href="#b" transform="translate(128)" width="100%" height="100%"/><use xlink:href="#b" transform="translate(144)" width="100%" height="100%"/><use xlink:href="#b" transform="translate(160)" width="100%" height="100%"/><use xlink:href="#b" transform="translate(176)" width="100%" height="100%"/><use xlink:href="#b" transform="translate(192)" width="100%" height="100%"/><use xlink:href="#b" transform="translate(208)" width="100%" height="100%"/><use xlink:href="#b" transform="translate(224)" width="100%" height="100%"/><use xlink:href="#b" transform="translate(240)" width="100%" height="100%"/><use xlink:href="#b" transform="translate(256)" width="100%" height="100%"/><use xlink:href="#b" transform="translate(272)" width="100%" height="100%"/><use xlink:href="#b" transform="translate(288)" width="100%" height="100%"/><use xlink:href="#b" transform="translate(304)" width="100%" height="100%"/><use xlink:href="#b" transform="translate(320)" width="100%" height="100%"/><use xlink:href="#b" transform="translate(336)" width="100%" height="100%"/><use xlink:href="#b" transform="translate(352)" width="100%" height="100%"/><use xlink:href="#b" transform="translate(368)" width="100%" height="100%"/><use xlink:href="#b" transform="translate(384)" width="100%" height="100%"/><use xlink:href="#b" transform="translate(400)" width="100%" height="100%"/><use xlink:href="#b" transform="translate(416)" width="100%" height="100%"/><use xlink:href="#b" transform="translate(432)" width="100%" height="100%"/><use xlink:href="#b" transform="translate(448)" width="100%" height="100%"/><use xlink:href="#b" transform="translate(464)" width="100%" height="100%"/><use xlink:href="#b" transform="translate(480)" width="100%" height="100%"/><use xlink:href="#b" transform="translate(496)" width="100%" height="100%"/><use xlink:href="#b" transform="translate(512)" width="100%" height="100%"/><use xlink:href="#b" transform="translate(528)" width="100%" height="100%"/><use xlink:href="#b" transform="translate(544)" width="100%" height="100%"/><use xlink:href="#b" transform="translate(560)" width="100%" height="100%"/><use xlink:href="#b" transform="translate(576)" width="100%" height="100%"/><use xlink:href="#b" transform="translate(592)" width="100%" height="100%"/><use xlink:href="#b" transform="translate(608)" width="100%" height="100%"/><use xlink:href="#b" transform="translate(624)" width="100%" height="100%"/><use xlink:href="#b" transform="translate(640)" width="100%" height="100%"/><use xlink:href="#b" transform="translate(656)" width="100%" height="100%"/><use xlink:href="#b" transform="translate(672)" width="100%" height="100%"/><use xlink:href="#b" transform="translate(688)" width="100%" height="100%"/><use xlink:href="#b" transform="translate(704)" width="100%" height="100%"/><use xlink:href="#b" transform="translate(720)" width="100%" height="100%"/><use xlink:href="#b" transform="translate(736)" width="100%" height="100%"/><use xlink:href="#b" transform="translate(752)" width="100%" height="100%"/><use xlink:href="#b" transform="translate(768)" width="100%" height="100%"/></g><path d="M105.494 674.546c148-8 192-168 220-228 32-72 91.575-280.364 147.575-280.364 60 0 116.423 212.364 140.423 256.364 24 52 76 248 228 252" fill="none" stroke="#000" stroke-width="2"/><g font-style="italic" font-size="25" font-family="sans-serif" letter-spacing="0" word-spacing="0"><text style="line-height:89.99999762%;-inkscape-font-specification:'sans-serif, Italic';text-align:start" x="324.186" y="1009.1" transform="translate(0 -720)"><tspan x="324.186" y="1009.1">25%</tspan></text><text style="line-height:89.99999762%;-inkscape-font-specification:'sans-serif, Italic';text-align:start" x="525.681" y="927.646" transform="translate(0 -720)"><tspan x="525.681" y="927.646">75%</tspan></text><text style="line-height:89.99999762%;-inkscape-font-specification:'sans-serif, Italic';text-align:start" x="638.291" y="1191.646" transform="translate(0 -720)"><tspan x="638.291" y="1191.646">95%</tspan></text></g></svg>