<svg xmlns="http://www.w3.org/2000/svg" width="960" height="960" viewBox="0 0 960 960"><path d="M64 896h832v-4c-160 4-249.683-97.274-283.318-127.573C596.082 749.24 536 688 480 688c-56 0-104.545 51.467-128.54 72.67C324 780 236 896 64 892z" fill="#dfdfdf" fill-rule="evenodd" opacity=".1"/><path d="M64 892c172 4 260-112 287.46-131.33C375.455 739.468 424 688 480 688c56 0 116.083 61.24 132.682 76.427C646.317 794.727 736 896 896 892" fill="none" stroke="#000"/><path d="M64 896c13.586 0 43.643-.1 80.205-.493C292 896 316 840 372.783 736.004 405.597 671.278 440 588 480 588c36 0 69.642 74.958 107.288 148.14C652 856 680 896 815.92 895.513c16 .188 44.08.488 80.08.488z" fill="#bdbdbd" fill-rule="evenodd" opacity=".12"/><path d="M64 896c13.586 0 43.643-.1 80.205-.493C292 896 316 840 372.783 736.004 405.597 671.278 440 588 480 588c36 0 69.642 74.958 107.288 148.14C652 856 680 896 815.92 895.513c16 .188 44.08.488 80.08.488" fill="none" stroke="#000"/><path d="M64 896l159.937-.466C301.97 895.767 336 872 370.41 776.664c15.31-45.726 17.423-52.596 29.474-94.005C428 584 452 480 480 480s52 100 80.33 203.442c10.825 37.31 14.314 47.292 28.72 91.717C620 860 648 896 736.33 895.54L896 896z" fill="#9d9d9d" fill-rule="evenodd" opacity=".14"/><path d="M64 896l159.937-.466C301.97 895.767 336 872 370.41 776.664c15.31-45.726 17.423-52.596 29.474-94.005C428 584 452 480 480 480s52 100 80.33 203.442c10.825 37.31 14.314 47.292 28.72 91.717C620 860 648 896 736.33 895.54L896 896" fill="none" stroke="#000"/><path d="M64 896c99.287 0 171.193 0 224.052-.58C360 896 368 840 383.428 796.997 396 756 405.998 694.364 430.4 544.185 441.53 474.287 460 344 480 341.3c20 2.7 38.576 133.628 49.59 202.825C552.84 687.983 564 760 577.493 800.257 592 840 600 896 671.933 895.42c25.06.094 113.66.307 224.067.58z" fill="#7d7d7d" fill-rule="evenodd" opacity=".16"/><path d="M64 896c99.287 0 171.193 0 224.052-.58C360 896 368 840 383.428 796.997 396 756 405.998 694.364 430.4 544.185 441.53 474.287 460 344 480 341.3c20 2.7 38.576 133.628 49.59 202.825C552.84 687.983 564 760 577.493 800.257 592 840 600 896 671.933 895.42c25.06.094 113.66.307 224.067.58" fill="none" stroke="#000"/><path d="M64 896c115.563 0 215.478-.607 272.08-.11C380 896 388 884 401.424 831.97 424 740 438.028 496.08 454.844 256.204 460.077 190.914 468 64 480 64s19.83 125.835 25.09 191.275C522.244 499.8 536 736 558.457 831.463 572 880 576 896 624.92 895.9c36.773-.148 168.534.1 271.08.1z" fill="#5d5d5d" fill-rule="evenodd" opacity=".18"/><path d="M64 896c115.563 0 215.478-.607 272.08-.11C380 896 388 884 401.424 831.97 424 740 438.028 496.08 454.844 256.204 460.077 190.914 468 64 480 64s19.83 125.835 25.09 191.275C522.244 499.8 536 736 558.457 831.463 572 880 576 896 624.92 895.9c36.773-.148 168.534.1 271.08.1" fill="none" stroke="#000"/><g font-size="22.5" font-family="sans-serif" letter-spacing="0" word-spacing="0"><text style="line-height:89.99999762%;-inkscape-font-specification:'sans-serif, Normal';text-align:start" x="86.399" y="612.699"><tspan x="86.399" y="612.699">2.2 N</tspan></text><text style="line-height:89.99999762%;-inkscape-font-specification:'sans-serif, Normal';text-align:start" x="86.399" y="504.699"><tspan x="86.399" y="504.699">4.0 N</tspan></text><text style="line-height:89.99999762%;-inkscape-font-specification:'sans-serif, Normal';text-align:start" x="86.399" y="364.403"><tspan x="86.399" y="364.403">7.1 N</tspan></text><text style="line-height:89.99999762%;-inkscape-font-specification:'sans-serif, Normal';text-align:start" x="93.562" y="87.681"><tspan x="93.562" y="87.681">16 N</tspan></text></g><path d="M376 688H64m340-100H64m356-108H64m368-140H64M456 64H64" fill="none" stroke="#000" stroke-width=".875"/></svg>