<svg xmlns="http://www.w3.org/2000/svg" xmlns:xlink="http://www.w3.org/1999/xlink" width="3072" height="1536" viewBox="0 0 3072 1536"><path d="M2496 1140V924h99.56C2532 972 2508 1026 2508 1140zM588 1320c0-174 60-204 192-282 66-42 126-66 126-114H576v396m972-114c0-174 60-204 192-282h-204v282" fill="silver" fill-rule="evenodd"/><use xlink:href="#a" transform="translate(960 -66)" width="100%" height="100%"/><use xlink:href="#b" transform="translate(960)" width="100%" height="100%"/><use xlink:href="#c" id="b" transform="translate(960)" width="100%" height="100%"/><use xlink:href="#d" transform="translate(1920)" width="100%" height="100%"/><use xlink:href="#d" transform="translate(960)" width="100%" height="100%"/><path d="M588 1320c0-174 60-204 192-282 66-42 126-66 126-114s-60-72-126-114c-126-78-192-102-192-282" id="f" fill="none" fill-rule="evenodd" stroke="#000" stroke-width="3"/><path id="e" d="M564 1206c0-174-60-204-192-282-66-42-126-66-126-114s60-72 126-114c126-78 192-102 192-282" fill="none" fill-rule="evenodd" stroke="#000" stroke-width="3"/><path d="M222 810h354" fill="none" stroke="#000" stroke-width="2"/><path d="M984 924H168" id="c" fill="none" fill-rule="evenodd" stroke="#000" stroke-width="4"/><path id="a" d="M1890 810h-354" fill="none" fill-rule="evenodd" stroke="#000" stroke-width="2"/><path id="h" d="M1333.693 810H1536" fill="none" fill-rule="evenodd" stroke="#000" stroke-width="2" stroke-dasharray="8, 8"/><path d="M1182 696h354m606-66h354" fill="none" stroke="#000" stroke-width="2"/><path d="M576 1380V156" id="d" fill="none" fill-rule="evenodd" stroke="#000" stroke-width="4.306"/><use xlink:href="#e" transform="translate(960 -114)" width="100%" height="100%"/><use xlink:href="#e" transform="translate(1920 -180)" width="100%" height="100%"/><use xlink:href="#f" id="g" transform="translate(960 -114)" width="100%" height="100%"/><use xlink:href="#g" transform="translate(960 -66)" width="100%" height="100%"/><use xlink:href="#h" transform="translate(960 -66)" width="100%" height="100%"/><use xlink:href="#g" width="100%" height="100%"/><g font-size="70" font-family="sans-serif"><text style="line-height:125%;-inkscape-font-specification:'sans-serif, Normal';text-align:start" x="189.847" y="1031.02" letter-spacing="-3" word-spacing="-10"><tspan x="189.847" y="1031.02" dx="0 0 0 0 0">α = 0.50</tspan></text><text y="1031.02" x="1149.847" style="line-height:125%;-inkscape-font-specification:'sans-serif, Normal';text-align:start" letter-spacing="0" word-spacing="0" writing-mode="lr"><tspan x="1149.847" y="1031.02" letter-spacing="-3" word-spacing="-10">α = 0.16</tspan></text><text style="line-height:125%;-inkscape-font-specification:'sans-serif, Normal';text-align:start" x="2109.847" y="1034.54" letter-spacing="0" word-spacing="0" writing-mode="lr"><tspan x="2109.847" y="1034.54" letter-spacing="-3" word-spacing="-10">α = 0.05</tspan></text></g></svg>