<svg xmlns="http://www.w3.org/2000/svg" xmlns:xlink="http://www.w3.org/1999/xlink" width="3072" height="1536" viewBox="0 0 3072 1536"><g fill-rule="evenodd"><path d="M2484 276h12v576h-99.56C2364 828 2322 804 2292 786c-66-42-126-66-126-114s60-72 126-114c156-90 192-132 192-282zM576 852H246c0-42 36-60 114-108 156-90 204-126 204-288h12zm960 0h-202.307C1289.193 828 1206 785 1206 737c0-42 36-60 114-108 156-90 204-126 204-288h12z" fill="silver"/><path d="M564 1248c0-174-60-204-192-282-66-42-126-66-126-114h330v396zm960.012-114c0-174-60-204-192-282H1536l.012 282z" fill="#efefef" fill-opacity=".937"/><path d="M2484 1068c0-168-67.942-199.658-87.56-216H2496v216z" fill="#efefef"/></g><use xlink:href="#a" transform="translate(-1920)" width="100%" height="100%"/><use xlink:href="#b" id="a" transform="translate(960)" width="100%" height="100%"/><use xlink:href="#c" transform="translate(960)" width="100%" height="100%"/><use xlink:href="#d" id="c" transform="translate(960)" width="100%" height="100%"/><use xlink:href="#e" transform="translate(1920)" width="100%" height="100%"/><use xlink:href="#e" transform="translate(960)" width="100%" height="100%"/><path d="M588 1248c0-174 60-204 192-282 66-42 126-66 126-114s-60-72-126-114c-126-78-192-102-192-282" id="g" fill="none" fill-rule="evenodd" stroke="#000" stroke-width="3"/><path id="f" d="M564 1248c0-174-60-204-192-282-66-42-126-66-126-114s60-72 126-114c126-78 192-102 192-282" fill="none" fill-rule="evenodd" stroke="#000" stroke-width="3"/><path d="M332.5 852H576" fill="none" stroke="#000" stroke-width="2" stroke-dasharray="8, 8"/><path d="M222 852h354" fill="none" stroke="#000" stroke-width="2"/><path d="M984 1032H168" id="d" fill="none" fill-rule="evenodd" stroke="#000" stroke-width="4"/><path id="b" d="M1890 852h-354" fill="none" fill-rule="evenodd" stroke="#000" stroke-width="2"/><path d="M1333.693 852H1536" fill="none" stroke="#000" stroke-width="2" stroke-dasharray="8, 8"/><path d="M1182 738h354" fill="none" stroke="#000" stroke-width="2"/><path d="M2396.44 852H2496" fill="none" stroke="#000" stroke-width="2" stroke-dasharray="8, 8"/><path d="M2142 672h354" fill="none" stroke="#000" stroke-width="2"/><path d="M576 1320V264" id="e" fill="none" fill-rule="evenodd" stroke="#000" stroke-width="4"/><use xlink:href="#f" transform="translate(960 -114)" width="100%" height="100%"/><use xlink:href="#f" transform="translate(1920 -180)" width="100%" height="100%"/><use xlink:href="#g" id="h" transform="translate(960)" width="100%" height="100%"/><use xlink:href="#h" transform="translate(960)" width="100%" height="100%"/><g font-size="70" font-family="sans-serif" letter-spacing="0" word-spacing="0"><text style="line-height:125%;-inkscape-font-specification:'sans-serif, Normal';text-align:start" x="188.387" y="1110.99"><tspan x="188.387" y="1110.99">β = 0.50</tspan></text><text y="1110.99" x="1146.113" style="line-height:125%;-inkscape-font-specification:'sans-serif, Normal';text-align:start"><tspan x="1146.113" y="1110.99">β = 0.16</tspan></text><text style="line-height:125%;-inkscape-font-specification:'sans-serif, Normal';text-align:start" x="2109.901" y="1109.34"><tspan x="2109.901" y="1109.34">β = 0.05</tspan></text><text y="531.59" x="2109.27" style="line-height:125%;-inkscape-font-specification:'sans-serif, Normal';text-align:start"><tspan x="2109.27" y="531.59">95%</tspan></text><text style="line-height:125%;-inkscape-font-specification:'sans-serif, Normal';text-align:start" x="1149.13" y="531.59"><tspan x="1149.13" y="531.59">84%</tspan></text><text y="526.46" x="189.27" style="line-height:125%;-inkscape-font-specification:'sans-serif, Normal';text-align:start"><tspan x="189.27" y="526.46">50%</tspan></text></g></svg>