<svg xmlns="http://www.w3.org/2000/svg" xmlns:xlink="http://www.w3.org/1999/xlink" width="2048" height="1536" viewBox="0 0 2048 1536"><path d="M1506 720h-305.293c-13.185-14.555-24.707-24-24.707-49 0-41 48-65 118.91-108.41C1458 468 1494 432 1494 276h12zm-978 348V888h60.975C546 942 540 996 540 1068zm0-396H198c0-42 36-61 114-109 156-90 204-125 204-287h12zm990.207 444c-.207-90 11.793-168 104.125-228h-116.125v228" fill="silver" fill-rule="evenodd"/><path d="M882 672H528" id="b" fill="none" fill-rule="evenodd" stroke="#000" stroke-width="2"/><path d="M936 888H120m1794.207 0h-816" fill="none" stroke="#000" stroke-width="4"/><path d="M528 1344V120m978.207 1224V120" fill="none" stroke="#000" stroke-width="4.306"/><path d="M1860.207 720h-354" fill="none" stroke="#000" stroke-width="2"/><path d="M1200.707 720H1506" fill="none" stroke="#000" stroke-width="2" stroke-dasharray="8, 8"/><path d="M174 672h24" fill="none" stroke="#000" stroke-width="2"/><path id="a" d="M540 1068c0-174 60-204 192-282 66-42 126-66 126-114s-60-72-126-114c-126-78-192-102-192-282" fill="none" fill-rule="evenodd" stroke="#000" stroke-width="3"/><path d="M198 672h330" fill="none" stroke="#000" stroke-width="2" stroke-dasharray="8, 8"/><use xlink:href="#a" transform="matrix(-1 0 0 1 1056 0)" width="100%" height="100%"/><use xlink:href="#b" transform="translate(624)" width="100%" height="100%"/><use xlink:href="#a" transform="translate(978.207 48)" width="100%" height="100%"/><use xlink:href="#a" transform="matrix(-1 0 0 1 2034.207 0)" width="100%" height="100%"/><g font-weight="600" font-stretch="condensed" font-size="70" font-family="Avenir Next Condensed" letter-spacing="0" word-spacing="0"><text y="1298.54" x="1575.847" style="line-height:125%;-inkscape-font-specification:'Avenir Next Condensed, Semi-Bold Condensed';text-align:start"><tspan x="1575.847" y="1298.54"><tspan style="line-height:125%;-inkscape-font-specification:'Arial Narrow, Bold Condensed';text-align:start" font-weight="bold" font-family="Arial Narrow">α</tspan> = 0.10</tspan></text><text style="line-height:125%;-inkscape-font-specification:'Avenir Next Condensed, Semi-Bold Condensed';text-align:start" x="597.847" y="1298.54"><tspan x="597.847" y="1298.54"><tspan style="line-height:125%;-inkscape-font-specification:'Arial Narrow, Bold Condensed';text-align:start" font-weight="bold" font-family="Arial Narrow">α</tspan> = 0.05</tspan></text><text y="1301.34" x="228.315" style="line-height:125%;-inkscape-font-specification:'Avenir Next Condensed, Semi-Bold Condensed';text-align:start"><tspan y="1301.34" x="228.315">β = 0.50</tspan></text><text style="line-height:125%;-inkscape-font-specification:'Avenir Next Condensed, Semi-Bold Condensed';text-align:start" x="1205.195" y="1301.34"><tspan x="1205.195" y="1301.34">β = 0.36</tspan></text></g></svg>