<?xml version="1.0" encoding="UTF-8" standalone="no"?>
<!-- Created with Inkscape (http://www.inkscape.org/) -->

<svg
   xmlns:dc="http://purl.org/dc/elements/1.1/"
   xmlns:cc="http://creativecommons.org/ns#"
   xmlns:rdf="http://www.w3.org/1999/02/22-rdf-syntax-ns#"
   xmlns:svg="http://www.w3.org/2000/svg"
   xmlns="http://www.w3.org/2000/svg"
   xmlns:xlink="http://www.w3.org/1999/xlink"
   xmlns:sodipodi="http://sodipodi.sourceforge.net/DTD/sodipodi-0.dtd"
   xmlns:inkscape="http://www.inkscape.org/namespaces/inkscape"
   width="960"
   height="960"
   viewBox="0 0 960.00001 960.00002"
   id="svg2"
   version="1.1"
   inkscape:version="0.91 r13725"
   sodipodi:docname="TruncationBunched.svg"
   inkscape:export-filename="/Users/MJF/Dropbox/NHST-share/graphics/TruncationOverlay.png"
   inkscape:export-xdpi="90"
   inkscape:export-ydpi="90">
  <defs
     id="defs4" />
  <sodipodi:namedview
     id="base"
     pagecolor="#ffffff"
     bordercolor="#666666"
     borderopacity="1.0"
     inkscape:pageopacity="1"
     inkscape:pageshadow="2"
     inkscape:zoom="0.76"
     inkscape:cx="496.55951"
     inkscape:cy="262.8027"
     inkscape:document-units="px"
     inkscape:current-layer="layer7"
     showgrid="true"
     units="px"
     inkscape:window-width="1228"
     inkscape:window-height="754"
     inkscape:window-x="0"
     inkscape:window-y="0"
     inkscape:window-maximized="0"
     inkscape:object-nodes="true"
     inkscape:snap-grids="true"
     inkscape:object-paths="false"
     inkscape:snap-midpoints="false"
     inkscape:snap-bbox="false"
     inkscape:bbox-nodes="true"
     inkscape:snap-nodes="true"
     inkscape:snap-intersection-paths="false">
    <inkscape:grid
       type="xygrid"
       id="grid3336"
       spacingx="4"
       spacingy="4.0000001"
       empspacing="4" />
  </sodipodi:namedview>
  <metadata
     id="metadata7">
    <rdf:RDF>
      <cc:Work
         rdf:about="">
        <dc:format>image/svg+xml</dc:format>
        <dc:type
           rdf:resource="http://purl.org/dc/dcmitype/StillImage" />
        <dc:title></dc:title>
      </cc:Work>
    </rdf:RDF>
  </metadata>
  <g
     inkscape:groupmode="layer"
     id="layer12"
     inkscape:label="Shade 4"
     style="display:inline">
    <path
       style="display:inline;opacity:1;fill:#cfcfcf;fill-opacity:1;fill-rule:evenodd;stroke:none;stroke-width:1px;stroke-linecap:butt;stroke-linejoin:miter;stroke-opacity:1"
       d="M 464,918 C 584,894 628,781 636,765 688,659.00001 720,540 764,380 796,272 852,27.999996 912,31.999996 c 3.49842,0.358269 7.00356,-0.431121 15.99999,4 L 927.99999,928 464,928 Z"
       id="use4210"
       inkscape:connector-curvature="0"
       sodipodi:nodetypes="cccccccc" />
  </g>
  <g
     inkscape:groupmode="layer"
     id="layer11"
     inkscape:label="Shade 3"
     style="display:inline">
    <path
       style="display:inline;opacity:1;fill:#dfdfdf;fill-opacity:1;fill-rule:evenodd;stroke:none;stroke-width:1px;stroke-linecap:butt;stroke-linejoin:miter;stroke-opacity:1"
       d="M 404,919 C 548,907 612,736 640,672 688,576 766.06989,228.81781 852,228 c 38.68607,2.32848 67.99999,68 75.99999,84 l 0,616 L 404,928 Z"
       id="use4197"
       inkscape:connector-curvature="0"
       sodipodi:nodetypes="ccccccc" />
  </g>
  <g
     inkscape:groupmode="layer"
     id="layer10"
     inkscape:label="Shade 2"
     style="display:inline">
    <path
       style="display:inline;opacity:1;fill:#efefef;fill-opacity:1;fill-rule:evenodd;stroke:none;stroke-width:1px;stroke-linecap:butt;stroke-linejoin:miter;stroke-opacity:1"
       d="M 332,919 C 604.74071,913.89853 639.24504,366.21305 780.5612,351.67463 848.56119,351.67463 919.99999,564 927.99999,580 l 0,348 L 332,928 Z"
       id="use4192"
       inkscape:connector-curvature="0"
       sodipodi:nodetypes="cccccc" />
  </g>
  <g
     inkscape:groupmode="layer"
     id="layer9"
     inkscape:label="Shade 1"
     style="display:inline">
    <path
       sodipodi:nodetypes="cccccccc"
       inkscape:connector-curvature="0"
       id="use4181"
       d="m 32,920 c 172,0 240,-184 272,-232 32,-60 112,-248 176,-244 63.99999,-4 143.99999,184 175.99999,244 32,48 100,232 272,232 l 0,8 L 32,928 Z"
       style="display:inline;opacity:1;fill:#f7f7f7;fill-opacity:0.96862745;fill-rule:evenodd;stroke:none;stroke-width:1px;stroke-linecap:butt;stroke-linejoin:miter;stroke-opacity:1" />
  </g>
  <g
     inkscape:groupmode="layer"
     id="layer2"
     inkscape:label="Guides"
     style="display:none"
     sodipodi:insensitive="true">
    <path
       style="fill:none;fill-rule:evenodd;stroke:#000000;stroke-width:1px;stroke-linecap:butt;stroke-linejoin:miter;stroke-opacity:1"
       d="m 927.99999,944 0,-912.000004"
       id="path3355"
       inkscape:connector-curvature="0"
       sodipodi:nodetypes="cc" />
    <path
       style="fill:none;fill-rule:evenodd;stroke:#000000;stroke-width:1px;stroke-linecap:butt;stroke-linejoin:miter;stroke-opacity:1"
       d="m 495.99999,35.999996 496.00001,0"
       id="path3389"
       inkscape:connector-curvature="0" />
    <use
       x="0"
       y="0"
       xlink:href="#path3389"
       id="use3391"
       transform="translate(60,276)"
       width="100%"
       height="100%" />
    <use
       x="0"
       y="0"
       xlink:href="#use3391"
       id="use3393"
       transform="translate(72,268)"
       width="100%"
       height="100%" />
  </g>
  <g
     inkscape:label="Layer 1"
     inkscape:groupmode="layer"
     id="layer1"
     style="display:inline;opacity:1">
    <path
       style="fill:none;fill-rule:evenodd;stroke:#000000;stroke-width:1px;stroke-linecap:butt;stroke-linejoin:miter;stroke-opacity:1"
       d="m 32,920 c 172,0 240,-184 272,-232 32,-60 112,-248 176,-244 63.99999,-4 143.99999,184 175.99999,244 32,48 100,232 272,232"
       id="path3352"
       inkscape:connector-curvature="0"
       sodipodi:nodetypes="ccccc" />
    <path
       sodipodi:nodetypes="cccc"
       inkscape:connector-curvature="0"
       id="use3359"
       d="M 332,919 C 604.74071,913.89853 639.24504,366.21305 780.5612,351.67463 848.56119,351.67463 919.99999,564 927.99999,580 l 0,348"
       style="fill:none;fill-rule:evenodd;stroke:#000000;stroke-width:1px;stroke-linecap:butt;stroke-linejoin:miter;stroke-opacity:1" />
    <path
       sodipodi:nodetypes="ccccc"
       inkscape:connector-curvature="0"
       id="use3363"
       d="M 404,919 C 548,907 612,736 640,672 688,576 766.06989,228.81781 852,228 c 38.68607,2.32848 67.99999,68 75.99999,84 l 0,616"
       style="fill:none;fill-rule:evenodd;stroke:#000000;stroke-width:1px;stroke-linecap:butt;stroke-linejoin:miter;stroke-opacity:1" />
    <path
       sodipodi:nodetypes="cccccc"
       inkscape:connector-curvature="0"
       id="use3367"
       d="M 464,918 C 584,894 628,781 636,765 688,659.00001 720,540 764,380 796,272 852,27.999996 912,31.999996 c 3.49842,0.358269 7.00356,-0.431121 15.99999,4 l 0,892.000004"
       style="fill:none;fill-rule:evenodd;stroke:#000000;stroke-width:1px;stroke-linecap:butt;stroke-linejoin:miter;stroke-opacity:1" />
  </g>
  <g
     inkscape:groupmode="layer"
     id="layer7"
     inkscape:label="Axis"
     style="display:inline">
    <path
       style="fill:none;fill-rule:evenodd;stroke:#000000;stroke-width:3;stroke-linecap:butt;stroke-linejoin:miter;stroke-miterlimit:4;stroke-dasharray:none;stroke-opacity:1"
       d="m 16,928 911.99999,0"
       id="path3372"
       inkscape:connector-curvature="0"
       sodipodi:nodetypes="cc" />
    <path
       style="fill:none;fill-rule:evenodd;stroke:#000000;stroke-width:3;stroke-linecap:butt;stroke-linejoin:miter;stroke-miterlimit:4;stroke-dasharray:none;stroke-dashoffset:0;stroke-opacity:1"
       d="m 927.99999,15.999996 0,912.000004"
       id="path4174"
       inkscape:connector-curvature="0" />
  </g>
</svg>
