<svg xmlns="http://www.w3.org/2000/svg" xmlns:xlink="http://www.w3.org/1999/xlink" width="960" height="960" viewBox="0 0 960 960"><path d="M588 144c14.37 12.744 25.496 22.273 41.424 36H480v-36z" fill="#cfcfcf" fill-rule="evenodd"/><path d="M480 332H252" fill="none" stroke="#000"/><path d="M252 332h228v264h-4c-12-152-126.173-205.102-224-264z" fill="#cfcfcf" fill-rule="evenodd"/><g fill="none" stroke="#000"><path d="M752 332H480" stroke-dasharray="1, 2"/><path d="M480 144h108c7.4 7 46.92 40.91 74.674 64.084C688.807 230.994 752 280 752 332c-.3 53.4-53.966 92.466-121.7 151.1C562.072 546.715 492 588 483.2 749.3M480 180h149.424"/></g><g fill="none" stroke="#000"><path d="M476 596c-12-160-144-216-224-264-96-56-188-96-188-152-.245-9.716 2.284-21.55 12-36h404"/><path d="M64 180h416" stroke-dasharray="1, 2"/><path d="M480 332H252"/></g><path d="M480 832V144" id="a" fill="none" fill-rule="evenodd" stroke="#000" stroke-width="3"/><use xlink:href="#a" transform="rotate(-90 272 352)" width="100%" height="100%"/></svg>