<?xml version="1.0" encoding="UTF-8" standalone="no"?>
<svg
   xmlns:dc="http://purl.org/dc/elements/1.1/"
   xmlns:cc="http://creativecommons.org/ns#"
   xmlns:rdf="http://www.w3.org/1999/02/22-rdf-syntax-ns#"
   xmlns:svg="http://www.w3.org/2000/svg"
   xmlns="http://www.w3.org/2000/svg"
   xmlns:sodipodi="http://sodipodi.sourceforge.net/DTD/sodipodi-0.dtd"
   xmlns:inkscape="http://www.inkscape.org/namespaces/inkscape"
   width="960"
   height="960"
   viewBox="0 0 960 960"
   id="svg2"
   version="1.1"
   inkscape:version="0.91 r13725"
   sodipodi:docname="TruncationBeta.svg">
  <metadata
     id="metadata48">
    <rdf:RDF>
      <cc:Work
         rdf:about="">
        <dc:format>image/svg+xml</dc:format>
        <dc:type
           rdf:resource="http://purl.org/dc/dcmitype/StillImage" />
      </cc:Work>
    </rdf:RDF>
  </metadata>
  <sodipodi:namedview
     pagecolor="#ffffff"
     bordercolor="#666666"
     borderopacity="1"
     objecttolerance="10"
     gridtolerance="10"
     guidetolerance="10"
     inkscape:pageopacity="0"
     inkscape:pageshadow="2"
     inkscape:window-width="1089"
     inkscape:window-height="659"
     id="namedview46"
     showgrid="false"
     inkscape:snap-bbox="true"
     inkscape:snap-bbox-edge-midpoints="true"
     inkscape:zoom="0.41986485"
     inkscape:cx="483.04378"
     inkscape:cy="463.09587"
     inkscape:window-x="0"
     inkscape:window-y="0"
     inkscape:window-maximized="0"
     inkscape:current-layer="layer1">
    <inkscape:grid
       type="xygrid"
       id="grid3386" />
  </sodipodi:namedview>
  <defs
     id="defs4">
    <marker
       id="b"
       orient="auto"
       overflow="visible">
      <path
         d="M10 0l4-4L0 0l14 4-4-4z"
         fill-rule="evenodd"
         stroke="#000"
         stroke-width=".8pt"
         id="path7" />
    </marker>
    <marker
       orient="auto"
       id="a"
       overflow="visible">
      <path
         d="M10 0l4-4L0 0l14 4-4-4z"
         fill-rule="evenodd"
         stroke="#000"
         stroke-width=".8pt"
         id="path10" />
    </marker>
  </defs>
  <g
     inkscape:groupmode="layer"
     id="layer1"
     inkscape:label="Main">
    <path
       style=""
       d="M76 112h404v188H252c-85.55-51.847-187.822-92.844-188-152-.043-17.804 7.836-29.2 12-36z"
       fill="#cfcfcf"
       fill-rule="evenodd"
       id="path12" />
    <g
       style=""
       fill="none"
       stroke="#000"
       stroke-width="2"
       id="g14">
      <path
         d="M768 300H480m0-188h108c7.4 7 46.92 40.91 74.674 64.084C688.807 198.994 752 248 752 300c-.3 53.4-53.966 92.466-121.7 151.1C562.072 514.715 492 556 483.2 717.3"
         id="path16" />
      <path
         d="M480 148h149.424"
         stroke-dasharray="6,6"
         id="path18" />
    </g>
    <g
       style=""
       fill="none"
       stroke="#000"
       stroke-width="2"
       id="g20">
      <path
         d="M476 564c-12-160-144-216-224-264-96-56-188-96-188-152-.245-9.716 2.284-21.55 12-36h404M64 148h416"
         id="path22" />
      <path
         d="M480 300H252"
         stroke-dasharray="6,6"
         id="path24" />
    </g>
    <path
       style=""
       d="M784 300h144"
       fill="none"
       stroke="#000"
       stroke-width="2"
       id="path26" />
    <path
       style=""
       d="M888 108V32"
       fill="none"
       stroke="#000"
       stroke-width="2"
       marker-start="url(#a)"
       id="path30" />
    <path
       style=""
       d="M888 304v160"
       fill="none"
       stroke="#000"
       stroke-width="2"
       marker-start="url(#b)"
       id="path32" />
    <g
       style=""
       fill="none"
       id="g34">
      <path
         d="M480 896V64"
         stroke="#000"
         stroke-width="4"
         id="path36" />
      <path
         d="M588 112H76"
         stroke="#7f7f7f"
         stroke-width="2"
         id="path38" />
      <path
         d="M48 800h864"
         stroke="#000"
         stroke-width="4"
         id="path40" />
      <path
         d="M588 112h324"
         stroke="#7f7f7f"
         stroke-width="2"
         stroke-dasharray="6, 2"
         id="path42" />
      <path
         d="M48 112h28"
         stroke="#7f7f7f"
         stroke-width="2"
         stroke-dasharray="4, 2"
         id="path44" />
    </g>
    <text
       xml:space="preserve"
       style="font-style:normal;font-variant:normal;font-weight:600;font-stretch:condensed;font-size:70px;line-height:125%;font-family:'Avenir Next Condensed';-inkscape-font-specification:'Avenir Next Condensed, Semi-Bold Condensed';text-align:end;letter-spacing:0px;word-spacing:0px;writing-mode:lr-tb;text-anchor:end;fill:#000000;fill-opacity:1;stroke:none;stroke-width:1px;stroke-linecap:butt;stroke-linejoin:miter;stroke-opacity:1"
       x="936.14001"
       y="184.435"
       id="text3376"
       sodipodi:linespacing="125%"><tspan
         sodipodi:role="line"
         id="tspan3378"
         x="936.14001"
         y="184.435">Type II</tspan><tspan
         sodipodi:role="line"
         x="936.14001"
         y="271.935"
         id="tspan3382">error</tspan></text>
  </g>
</svg>
