<svg xmlns="http://www.w3.org/2000/svg" xmlns:xlink="http://www.w3.org/1999/xlink" width="960" height="960" viewBox="0 0 960 960"><path d="M480 886c152-12 216-288 236-348C776 346 828 64 896 64v832H480z" fill="#919191" fill-rule="evenodd"/><path d="M480 886c152-12 216-288 236-348C776 346 828 64 896 64v832" fill="none" stroke="#000"/><path d="M444 888c152-16 208-216 256-348 60-172 100-338 160-340 20 0 32 18 36 22v674H444z" fill="#afafaf" fill-rule="evenodd" opacity=".5"/><path d="M444 888c152-16 208-216 256-348 60-172 100-338 160-340 20 0 32 18 36 22v674" fill="none" stroke="#000"/><path d="M412 896h484V364c-8-16-36-68-64-70h-2c-68 0-130 226-178 332-36 86-100 258-240 262z" fill="#bfbfbf" fill-opacity=".749" fill-rule="evenodd" opacity=".5"/><path d="M412 888c140-4 204-176 240-262 48-106 110-332 178-332h2c28 2 56 54 64 70v532" fill="none" stroke="#000"/><path d="M340 896h556V596c-8-16-40-82-56-112-8-10-40-82-84-82-64-2-140 200-160 240-24 44-92 240-256 248z" fill="#cfcfcf" fill-rule="evenodd" opacity=".5"/><path d="M340 890c164-8 232-204 256-248 20-40 96-242 160-240 44 0 76 72 84 82 16 30 48 96 56 112v300" fill="none" stroke="#000"/><path d="M896 896H204v-6c132-4 200-114 232-170 40-62 116-250 184-250 64 0 124 146 162.894 212.29C812 738 856 804 896 836v52z" fill="#dfdfdf" fill-rule="evenodd" opacity=".5"/><path d="M204 890c132-4 200-114 232-170 40-62 116-250 184-250 64 0 124 146 162.894 212.29C812 738 856 804 896 836v60" fill="none" stroke="#000"/><path d="M896 896H64v-4c164-12 228.953-163.733 260.744-219.752C356.48 616.908 420 480 480 480s124 136 156 192 96 212 260 220z" fill="#efefef" fill-rule="evenodd" opacity=".5"/><path d="M64 892c164-12 228.953-163.733 260.744-219.752C356.48 616.908 420 480 480 480s124 136 156 192 96 212 260 220" fill="none" stroke="#000"/><path d="M64 896h832" id="a" fill="none" fill-rule="evenodd" stroke="#000" stroke-width="3"/><use xlink:href="#a" transform="rotate(90 896 896)" width="100%" height="100%"/></svg>