<svg xmlns="http://www.w3.org/2000/svg" xmlns:xlink="http://www.w3.org/1999/xlink" width="1008" height="1200" viewBox="0 0 1008 1200"><defs><marker orient="auto" id="d" overflow="visible"><path d="M-10.69-4.437L1.328-.017l-12.018 4.42c1.92-2.61 1.91-6.18 0-8.84z" fill-rule="evenodd" stroke="#000" stroke-width=".688" stroke-linejoin="round"/></marker></defs><g transform="translate(0 -336)"><path d="M456 1242v-216h99.56C492 1074 468 1128 468 1242z" id="a" fill="silver" fill-rule="evenodd"/><use xlink:href="#a" transform="rotate(180 456 936)" width="100%" height="100%"/></g><g transform="translate(0 -336)"><path d="M456 1494V378m408 648H48" fill="none" stroke="#000" stroke-width="4"/><use xlink:href="#b" transform="matrix(-1 0 0 1 960 300)" width="100%" height="100%"/><path d="M356.44 846H456" fill="none" stroke="#000" stroke-width="2" stroke-dasharray="8, 8"/><g fill="none" fill-rule="evenodd" stroke="#000"><path d="M444 1422c0-174-60-204-192-282-66-42-126-66-126-114s60-72 126-114c126-78 192-102 192-282" id="c" stroke-width="3"/><path id="b" d="M102 1026h354" stroke-width="2"/></g><use xlink:href="#c" transform="matrix(-1 0 0 1 960 300)" width="100%" height="100%"/></g><g transform="translate(0 -336)"><path d="M528 630h432M822 846h138" fill="none" stroke="#000" stroke-width="2"/><path d="M912 552v72" id="e" fill="none" fill-rule="evenodd" stroke="#000" stroke-width="2" marker-end="url(#d)"/><use xlink:href="#e" transform="matrix(1 0 0 -1 0 1476)" width="100%" height="100%" stroke-width="2"/><path d="M462 630h42" fill="none" stroke="#000" stroke-width="2"/><text style="line-height:125%;-inkscape-font-specification:'Avenir Next Condensed, Semi-Bold Condensed';text-align:end" x="936.112" y="703.56" font-weight="600" font-stretch="condensed" font-size="70" font-family="Avenir Next Condensed" letter-spacing="0" word-spacing="0" text-anchor="end"><tspan x="936.112" y="703.56" style="line-height:125%;-inkscape-font-specification:'Avenir Next Condensed, Semi-Bold Condensed';text-align:end">Type I</tspan><tspan x="936.112" y="791.06" style="line-height:125%;-inkscape-font-specification:'Avenir Next Condensed, Semi-Bold Condensed';text-align:end">error</tspan></text></g></svg>