<svg xmlns="http://www.w3.org/2000/svg" xmlns:xlink="http://www.w3.org/1999/xlink" width="1008" height="1200" viewBox="0 0 1008 1200"><defs><marker id="a" orient="auto" overflow="visible"><path d="M-10.69-4.437L1.328-.017l-12.018 4.42c1.92-2.61 1.91-6.18 0-8.84z" fill-rule="evenodd" stroke="#000" stroke-width=".688" stroke-linejoin="round"/></marker></defs><path d="M408 660H205.693C300 720 366 750 385.73 840H408z" fill="silver" fill-rule="evenodd"/><g fill="none" stroke="#000"><path d="M762 660H408" stroke-width="2"/><path d="M420 1056c0-174 60-204 192-282 66-42 126-66 126-114s-60-72-126-114c-126-78-192-102-192-282m-24 678c0-174-60-204-192-282-66-42-126-66-126-114s60-72 126-114c126-78 192-102 192-282" stroke-width="3"/><path d="M205.693 660H408" stroke-width="2" stroke-dasharray="8, 8"/><path d="M54 546h354" stroke-width="2"/><path d="M762 840H30m378 288V72m372 768h180" stroke-width="4"/></g><g transform="translate(0 -336)"><path d="M780 996h180" fill="none" stroke="#000" stroke-width="2"/><path d="M870 918v72" id="b" fill="none" fill-rule="evenodd" stroke="#000" stroke-width="2" marker-end="url(#a)"/><text style="line-height:125%;-inkscape-font-specification:'Avenir Next Condensed, Semi-Bold Condensed';text-align:end" x="956.765" y="1069.56" font-weight="600" font-stretch="condensed" font-size="70" font-family="Avenir Next Condensed" letter-spacing="0" word-spacing="0" text-anchor="end"><tspan x="956.765" y="1069.56" style="line-height:125%;-inkscape-font-specification:'Avenir Next Condensed, Semi-Bold Condensed';text-align:end">Type II</tspan> <tspan x="956.765" y="1157.06" style="line-height:125%;-inkscape-font-specification:'Avenir Next Condensed, Semi-Bold Condensed';text-align:end">error</tspan></text><use xlink:href="#b" transform="matrix(1 0 0 -1 0 2172)" width="100%" height="100%"/></g></svg>