<?xml version="1.0" encoding="UTF-8" standalone="no"?>
<svg
   xmlns:dc="http://purl.org/dc/elements/1.1/"
   xmlns:cc="http://creativecommons.org/ns#"
   xmlns:rdf="http://www.w3.org/1999/02/22-rdf-syntax-ns#"
   xmlns:svg="http://www.w3.org/2000/svg"
   xmlns="http://www.w3.org/2000/svg"
   xmlns:xlink="http://www.w3.org/1999/xlink"
   xmlns:sodipodi="http://sodipodi.sourceforge.net/DTD/sodipodi-0.dtd"
   xmlns:inkscape="http://www.inkscape.org/namespaces/inkscape"
   width="1008"
   height="1200"
   viewBox="0 0 1008 1200"
   id="svg2"
   version="1.1"
   inkscape:version="0.91 r13725"
   sodipodi:docname="upper-bound-type-I-error.svg">
  <metadata
     id="metadata52">
    <rdf:RDF>
      <cc:Work
         rdf:about="">
        <dc:format>image/svg+xml</dc:format>
        <dc:type
           rdf:resource="http://purl.org/dc/dcmitype/StillImage" />
      </cc:Work>
    </rdf:RDF>
  </metadata>
  <sodipodi:namedview
     pagecolor="#ffffff"
     bordercolor="#666666"
     borderopacity="1"
     objecttolerance="10"
     gridtolerance="10"
     guidetolerance="10"
     inkscape:pageopacity="0"
     inkscape:pageshadow="2"
     inkscape:window-width="1163"
     inkscape:window-height="746"
     id="namedview50"
     showgrid="false"
     inkscape:snap-bbox="true"
     inkscape:snap-bbox-edge-midpoints="true"
     inkscape:zoom="0.4"
     inkscape:cx="607.56008"
     inkscape:cy="637.82581"
     inkscape:window-x="0"
     inkscape:window-y="0"
     inkscape:window-maximized="0"
     inkscape:current-layer="svg2">
    <inkscape:grid
       type="xygrid"
       id="grid3440" />
  </sodipodi:namedview>
  <defs
     id="defs4">
    <linearGradient
       id="a">
      <stop
         offset="0"
         stop-color="#e7e7e7"
         id="stop7" />
      <stop
         offset="1"
         stop-color="#e7e7e7"
         stop-opacity="0"
         id="stop9" />
    </linearGradient>
    <marker
       orient="auto"
       id="g"
       overflow="visible">
      <path
         d="M10 0l4-4L0 0l14 4-4-4z"
         fill-rule="evenodd"
         stroke="#000"
         stroke-width=".8pt"
         id="path12" />
    </marker>
    <linearGradient
       xlink:href="#a"
       id="b"
       x1="450"
       y1="522"
       x2="450"
       y2="474"
       gradientUnits="userSpaceOnUse" />
  </defs>
  <path
     d="M46 522h764v-48H46z"
     fill="url(#b)"
     fill-rule="evenodd"
     opacity=".847"
     id="path15" />
  <path
     d="M46 522h764"
     fill="none"
     stroke="#000"
     stroke-width="2"
     id="path17" />
  <path
     d="M456 126v396H126c0-48 60-72 126-114 126-78 192-102 192-282z"
     fill="#fff"
     fill-rule="evenodd"
     id="path19" />
  <g
     transform="translate(0 -336)"
     id="g21">
    <path
       d="M456 1038c-108 0-20.53 1.603-99.56 0C420 1086 444 1146 444 1254h12z"
       id="c"
       fill="silver"
       fill-rule="evenodd" />
    <use
       xlink:href="#c"
       transform="rotate(180 456 948)"
       width="100%"
       height="100%"
       id="use24" />
  </g>
  <path
     d="M126 522h430.565"
     fill="none"
     stroke="#9f9f9f"
     stroke-width="2"
     id="path26" />
  <g
     transform="translate(0 -336)"
     id="g28">
    <path
       d="M456 1464V408m354 768H48"
       fill="none"
       stroke="#000"
       stroke-width="4"
       id="path30" />
    <use
       xlink:href="#d"
       transform="matrix(-1 0 0 1 912 180)"
       width="100%"
       height="100%"
       id="use32" />
    <path
       id="e"
       d="M444 1254c0-174-60-204-192-282-66-42-126-66-126-114s60-72 126-114c126-78 192-102 192-282"
       fill="none"
       fill-rule="evenodd"
       stroke="#000"
       stroke-width="3" />
    <path
       d="M102 858h354"
       id="d"
       fill="none"
       fill-rule="evenodd"
       stroke="#000"
       stroke-width="2" />
    <use
       xlink:href="#e"
       transform="matrix(-1 0 0 1 912 180)"
       width="100%"
       height="100%"
       id="use36" />
    <path
       id="f"
       d="M456 858h100.565"
       fill="none"
       fill-rule="evenodd"
       stroke="#000"
       stroke-width="2"
       stroke-dasharray="8, 8" />
    <use
       xlink:href="#f"
       transform="matrix(-1 0 0 1 912 180)"
       width="100%"
       height="100%"
       id="use39" />
  </g>
  <path
     d="M972 918H528"
     fill="none"
     stroke="#000"
     stroke-width="2"
     id="path41" />
  <path
     d="M822 702h150M462 918h48"
     fill="none"
     stroke="#000"
     stroke-width="2"
     id="path45" />
  <path
     d="M936 696v-96"
     id="h"
     fill="none"
     fill-rule="evenodd"
     stroke="#000"
     stroke-width="2"
     marker-start="url(#g)" />
  <use
     xlink:href="#h"
     transform="matrix(1 0 0 -1 0 1620)"
     width="100%"
     height="100%"
     id="use48" />
  <text
     xml:space="preserve"
     style="font-style:normal;font-variant:normal;font-weight:600;font-stretch:condensed;font-size:70px;line-height:125%;font-family:'Avenir Next Condensed';-inkscape-font-specification:'Avenir Next Condensed, Semi-Bold Condensed';text-align:end;letter-spacing:0px;word-spacing:0px;writing-mode:lr-tb;text-anchor:end;fill:#000000;fill-opacity:1;stroke:none;stroke-width:1px;stroke-linecap:butt;stroke-linejoin:miter;stroke-opacity:1;"
     x="972.14001"
     y="790.435"
     id="text3434"
     sodipodi:linespacing="125%"><tspan
       sodipodi:role="line"
       id="tspan3436"
       x="972.14001"
       y="790.435">Type I</tspan><tspan
       sodipodi:role="line"
       x="972.14001"
       y="877.935"
       id="tspan3438">error</tspan></text>
</svg>
