<?xml version="1.0" encoding="UTF-8" standalone="no"?>
<svg
   xmlns:dc="http://purl.org/dc/elements/1.1/"
   xmlns:cc="http://creativecommons.org/ns#"
   xmlns:rdf="http://www.w3.org/1999/02/22-rdf-syntax-ns#"
   xmlns:svg="http://www.w3.org/2000/svg"
   xmlns="http://www.w3.org/2000/svg"
   xmlns:xlink="http://www.w3.org/1999/xlink"
   xmlns:sodipodi="http://sodipodi.sourceforge.net/DTD/sodipodi-0.dtd"
   xmlns:inkscape="http://www.inkscape.org/namespaces/inkscape"
   width="1008"
   height="1200"
   viewBox="0 0 1008 1200"
   id="svg54"
   version="1.1"
   inkscape:version="0.91 r13725"
   sodipodi:docname="upper-bound-type-II-error.svg">
  <metadata
     id="metadata98">
    <rdf:RDF>
      <cc:Work
         rdf:about="">
        <dc:format>image/svg+xml</dc:format>
        <dc:type
           rdf:resource="http://purl.org/dc/dcmitype/StillImage" />
      </cc:Work>
    </rdf:RDF>
  </metadata>
  <sodipodi:namedview
     pagecolor="#ffffff"
     bordercolor="#666666"
     borderopacity="1"
     objecttolerance="10"
     gridtolerance="10"
     guidetolerance="10"
     inkscape:pageopacity="0"
     inkscape:pageshadow="2"
     inkscape:window-width="1165"
     inkscape:window-height="744"
     id="namedview96"
     showgrid="false"
     inkscape:snap-bbox="true"
     inkscape:snap-bbox-edge-midpoints="true"
     inkscape:zoom="0.4"
     inkscape:cx="676.45367"
     inkscape:cy="575.34314"
     inkscape:window-x="0"
     inkscape:window-y="0"
     inkscape:window-maximized="0"
     inkscape:current-layer="svg54">
    <inkscape:grid
       type="xygrid"
       id="grid3426" />
  </sodipodi:namedview>
  <defs
     id="defs56">
    <linearGradient
       id="a">
      <stop
         offset="0"
         stop-color="#efefef"
         id="stop59" />
      <stop
         offset="1"
         stop-color="#efefef"
         stop-opacity="0"
         id="stop61" />
    </linearGradient>
    <marker
       orient="auto"
       id="e"
       overflow="visible">
      <path
         d="M10 0l4-4L0 0l14 4-4-4z"
         fill-rule="evenodd"
         stroke="#000"
         stroke-width=".8pt"
         id="path64" />
    </marker>
    <linearGradient
       xlink:href="#a"
       id="b"
       x1="400"
       y1="520"
       x2="400"
       y2="464"
       gradientUnits="userSpaceOnUse" />
  </defs>
  <path
     d="M48 461.986v60h752v-60z"
     fill="url(#b)"
     fill-rule="evenodd"
     id="path67" />
  <path
     d="M48 521.986h752"
     fill="none"
     stroke="#000"
     stroke-width="2"
     id="path69" />
  <path
     d="M456 306v215.986h100.546C485.568 472.483 469.002 396.942 468 306z"
     fill="#fff"
     fill-rule="evenodd"
     id="path71" />
  <path
     d="M126 612c4.233 44.44 47.755 66.045 86.5 90H456V216h-12c6 192-108 222-133.585 246.252C258 504 126 552 126 612"
     fill="silver"
     fill-rule="evenodd"
     id="path75" />
  <path
     d="M456 1128V72m408 768H48"
     fill="none"
     stroke="#000"
     stroke-width="4"
     id="path77" />
  <use
     height="100%"
     width="100%"
     transform="matrix(-1 0 0 1 912 90)"
     xlink:href="#c"
     id="use79" />
  <use
     height="100%"
     width="100%"
     transform="matrix(-1 0 0 1 912 90)"
     xlink:href="#d"
     id="use81" />
  <path
     d="M556.565 522H212.5"
     fill="none"
     stroke="#9f9f9f"
     stroke-width="2"
     id="path83" />
  <path
     d="M454.014 522h102.55"
     fill="none"
     stroke="#000"
     stroke-width="2"
     stroke-dasharray="8, 8"
     id="path85" />
  <path
     d="M468 216h492M816 704h144"
     fill="none"
     stroke="#000"
     stroke-width="2"
     id="path87" />
  <path
     id="f"
     d="M924 220v156"
     fill="none"
     fill-rule="evenodd"
     stroke="#000"
     stroke-width="2"
     marker-start="url(#e)" />
  <use
     height="100%"
     width="100%"
     transform="matrix(1 0 0 -1 0 920)"
     xlink:href="#f"
     id="use90" />
  <path
     d="M444 1008c0-174-60-204-192-282-66-42-126-66-126-114s60-72 126-114c126-78 192-102 192-282"
     id="d"
     fill="none"
     fill-rule="evenodd"
     stroke="#000"
     stroke-width="3" />
  <path
     id="c"
     d="M114 612h342"
     fill="none"
     fill-rule="evenodd"
     stroke="#000"
     stroke-width="2" />
  <path
     d="M456 702H212.5"
     fill="none"
     stroke="#000"
     stroke-width="2"
     stroke-dasharray="8, 8"
     id="path94" />
  <text
     xml:space="preserve"
     style="font-style:normal;font-variant:normal;font-weight:600;font-stretch:condensed;font-size:70px;line-height:125%;font-family:'Avenir Next Condensed';-inkscape-font-specification:'Avenir Next Condensed, Semi-Bold Condensed';text-align:end;letter-spacing:0px;word-spacing:0px;writing-mode:lr-tb;text-anchor:end;fill:#000000;fill-opacity:1;stroke:none;stroke-width:1px;stroke-linecap:butt;stroke-linejoin:miter;stroke-opacity:1"
     x="972.11157"
     y="436.435"
     id="text3428"
     sodipodi:linespacing="125%"><tspan
       sodipodi:role="line"
       id="tspan3430"
       x="972.11157"
       y="436.435">Type II</tspan><tspan
       sodipodi:role="line"
       x="972.11157"
       y="523.935"
       id="tspan3432">error</tspan></text>
</svg>
