<svg xmlns="http://www.w3.org/2000/svg" xmlns:xlink="http://www.w3.org/1999/xlink" width="1056" height="3808" viewBox="0 0 1056 3808"><path d="M528 3568v-216h99.56C564 3400 540 3454 540 3568zm12-2400c0-174 60-204 192-282 66-42 126-66 126-114H528v396m12 1194c0-174 60-204 192-282H528v282" fill="silver" fill-rule="evenodd"/><g transform="translate(0 2272)"><use xlink:href="#a" transform="translate(0 1206)" width="100%" height="100%"/><use xlink:href="#b" transform="translate(0 1272)" width="100%" height="100%"/><use xlink:href="#c" id="b" transform="translate(0 1308)" width="100%" height="100%"/><use xlink:href="#d" transform="translate(0 2400)" width="100%" height="100%"/><use xlink:href="#d" transform="translate(0 1200)" width="100%" height="100%"/><path d="M540-1104c0-174 60-204 192-282 66-42 126-66 126-114s-60-72-126-114c-126-78-192-102-192-282" id="f" fill="none" fill-rule="evenodd" stroke="#000" stroke-width="3"/><path id="e" d="M516-1218c0-174-60-204-192-282-66-42-126-66-126-114s60-72 126-114c126-78 192-102 192-282" fill="none" fill-rule="evenodd" stroke="#000" stroke-width="3"/><path d="M174-1614h354" fill="none" stroke="#000" stroke-width="2"/><path d="M936-1500H120" id="c" fill="none" fill-rule="evenodd" stroke="#000" stroke-width="4"/><path id="a" d="M882-306H528" fill="none" fill-rule="evenodd" stroke="#000" stroke-width="2"/><path id="h" d="M325.693-306H528" fill="none" fill-rule="evenodd" stroke="#000" stroke-width="2" stroke-dasharray="8, 8"/><path d="M174-420h354M174 786h354" fill="none" stroke="#000" stroke-width="2"/><path d="M528-1056v-1008" id="d" fill="none" fill-rule="evenodd" stroke="#000" stroke-width="4.306"/><use xlink:href="#e" transform="translate(0 1194)" width="100%" height="100%"/><use xlink:href="#e" transform="translate(0 2400)" width="100%" height="100%"/><use xlink:href="#f" id="g" transform="translate(0 1194)" width="100%" height="100%"/><use xlink:href="#g" transform="translate(0 1206)" width="100%" height="100%"/><use xlink:href="#h" transform="translate(0 1206)" width="100%" height="100%"/><use xlink:href="#g" width="100%" height="100%"/></g><g font-size="70" font-family="sans-serif"><text style="line-height:125%;-inkscape-font-specification:'sans-serif, Normal';text-align:start" x="141.847" y="-1392.98" letter-spacing="-3" word-spacing="-10" transform="translate(0 2272)"><tspan x="141.847" y="-1392.98" dx="0 0 0 0 0">α = 0.50</tspan></text><text y="-84.98" x="141.847" style="line-height:125%;-inkscape-font-specification:'sans-serif, Normal';text-align:start" letter-spacing="0" word-spacing="0" transform="translate(0 2272)"><tspan x="141.847" y="-84.98" letter-spacing="-3" word-spacing="-10">α = 0.16</tspan></text><text style="line-height:125%;-inkscape-font-specification:'sans-serif, Normal';text-align:start" x="141.847" y="1190.54" letter-spacing="0" word-spacing="0" transform="translate(0 2272)"><tspan x="141.847" y="1190.54" letter-spacing="-3" word-spacing="-10">α = 0.05</tspan></text></g></svg>