<svg xmlns="http://www.w3.org/2000/svg" xmlns:xlink="http://www.w3.org/1999/xlink" width="1056" height="3808" viewBox="0 0 1056 3808"><g fill-rule="evenodd"><path d="M534 2620h12v576h-99.56C414 3172 372 3148 342 3130c-66-42-126-66-126-114s60-72 126-114c156-90 192-132 192-282zm12-1920H216c0-42 36-60 114-108 156-90 204-126 204-288h12zm0 1248H343.693C299.193 1924 216 1881 216 1833c0-42 36-60 114-108 156-90 204-126 204-288h12z" fill="silver"/><path d="M534 1096c0-174-60-204-192-282-66-42-126-66-126-114h330v396zm.012 1134c0-174-60-204-192-282H546l.012 282z" fill="#efefef" fill-opacity=".937"/><path d="M534 3412c0-168-67.942-199.658-87.56-216H546v216z" fill="#efefef"/></g><g transform="translate(0 2272)"><use xlink:href="#a" transform="translate(0 -2496)" width="100%" height="100%"/><use xlink:href="#b" id="a" transform="translate(0 1248)" width="100%" height="100%"/><use xlink:href="#c" transform="translate(0 1248)" width="100%" height="100%"/><use xlink:href="#d" id="c" transform="translate(0 1248)" width="100%" height="100%"/><use xlink:href="#e" transform="translate(0 2496)" width="100%" height="100%"/><use xlink:href="#e" transform="translate(0 1248)" width="100%" height="100%"/><path d="M558-1176c0-174 60-204 192-282 66-42 126-66 126-114s-60-72-126-114c-126-78-192-102-192-282" id="g" fill="none" fill-rule="evenodd" stroke="#000" stroke-width="3"/><path id="f" d="M534-1176c0-174-60-204-192-282-66-42-126-66-126-114s60-72 126-114c126-78 192-102 192-282" fill="none" fill-rule="evenodd" stroke="#000" stroke-width="3"/><path d="M302.5-1572H546" fill="none" stroke="#000" stroke-width="2" stroke-dasharray="8, 8"/><path d="M192-1572h354" fill="none" stroke="#000" stroke-width="2"/><path d="M954-1392H138" id="d" fill="none" fill-rule="evenodd" stroke="#000" stroke-width="4"/><path id="b" d="M900-324H546" fill="none" fill-rule="evenodd" stroke="#000" stroke-width="2"/><path d="M343.693-324H546" fill="none" stroke="#000" stroke-width="2" stroke-dasharray="8, 8"/><path d="M192-438h354" fill="none" stroke="#000" stroke-width="2"/><path d="M446.44 924H546" fill="none" stroke="#000" stroke-width="2" stroke-dasharray="8, 8"/><path d="M192 744h354" fill="none" stroke="#000" stroke-width="2"/><path d="M546-1104v-1056" id="e" fill="none" fill-rule="evenodd" stroke="#000" stroke-width="4"/><use xlink:href="#f" transform="translate(0 1134)" width="100%" height="100%"/><use xlink:href="#f" transform="translate(0 2316)" width="100%" height="100%"/><use xlink:href="#g" id="h" transform="translate(0 1248)" width="100%" height="100%"/><use xlink:href="#h" transform="translate(0 1248)" width="100%" height="100%"/></g><g font-size="70" font-family="sans-serif" letter-spacing="0" word-spacing="0"><text style="line-height:125%;-inkscape-font-specification:'sans-serif, Normal';text-align:start" x="158.387" y="-1313.01" transform="translate(0 2272)"><tspan x="158.387" y="-1313.01">β = 0.50</tspan></text><text y="-65.01" x="156.113" style="line-height:125%;-inkscape-font-specification:'sans-serif, Normal';text-align:start" transform="translate(0 2272)"><tspan x="156.113" y="-65.01">β = 0.16</tspan></text><text style="line-height:125%;-inkscape-font-specification:'sans-serif, Normal';text-align:start" x="159.901" y="1181.34" transform="translate(0 2272)"><tspan x="159.901" y="1181.34">β = 0.05</tspan></text><text y="603.59" x="159.27" style="line-height:125%;-inkscape-font-specification:'sans-serif, Normal';text-align:start" transform="translate(0 2272)"><tspan x="159.27" y="603.59">95%</tspan></text><text style="line-height:125%;-inkscape-font-specification:'sans-serif, Normal';text-align:start" x="159.13" y="-644.41" transform="translate(0 2272)"><tspan x="159.13" y="-644.41">84%</tspan></text><text y="-1897.54" x="159.27" style="line-height:125%;-inkscape-font-specification:'sans-serif, Normal';text-align:start" transform="translate(0 2272)"><tspan x="159.27" y="-1897.54">50%</tspan></text></g></svg>