<svg xmlns="http://www.w3.org/2000/svg" xmlns:xlink="http://www.w3.org/1999/xlink" width="280" height="109" viewBox="0 0 280 109"><g transform="translate(1.377 -939.862)"><text style="line-height:90%;-inkscape-font-specification:'sans-serif, Italic';text-align:start" x="14.711" y="1004.362" font-style="italic" font-size="30" font-family="sans-serif" letter-spacing="0" word-spacing="0"><tspan x="14.711" y="1004.362">z</tspan></text><text style="line-height:90%;-inkscape-font-specification:'sans-serif, Normal';text-align:start" x="36.821" y="1005.517" font-size="30" font-family="sans-serif" letter-spacing="0" word-spacing="0"><tspan x="36.821" y="1005.517">=</tspan></text><text style="line-height:90%;-inkscape-font-specification:'sans-serif, Normal';text-align:start" x="105.173" y="1004.362" font-size="30" font-family="sans-serif" letter-spacing="0" word-spacing="0"><tspan x="105.173" y="1004.362">ln</tspan></text><text style="line-height:90%;-inkscape-font-specification:'sans-serif, Normal';text-align:start" x="164.704" y="988.362" font-size="30" font-family="sans-serif" letter-spacing="0" word-spacing="0"><tspan x="164.704" y="988.362">1 +</tspan></text><text style="line-height:90%;-inkscape-font-specification:'sans-serif, Normal';text-align:start" x="164.704" y="1024.362" font-size="30" font-family="sans-serif" letter-spacing="0" word-spacing="0"><tspan x="164.704" y="1024.362">1 −</tspan></text><text style="line-height:90%;-inkscape-font-specification:'sans-serif, Normal';text-align:start" x="72.704" y="988.362" font-size="30" font-family="sans-serif" letter-spacing="0" word-spacing="0"><tspan x="72.704" y="988.362">1</tspan></text><text style="line-height:90%;-inkscape-font-specification:'sans-serif, Normal';text-align:start" x="73.803" y="1026.628" font-size="30" font-family="sans-serif" letter-spacing="0" word-spacing="0"><tspan x="73.803" y="1026.628">2</tspan></text><path d="M64 996.362h36" fill="none" stroke="#000" stroke-width="2.5"/><path d="M156 956.362h2c-14 28-14 56 0 76h-2c-16-20-16-48 0-76z" id="a" fill-rule="evenodd" stroke="#000"/><use xlink:href="#a" transform="matrix(-1 0 0 1 406 0)" width="100%" height="100%"/><path d="M156 996.362h92" fill="none" stroke="#000" stroke-width="2.5"/><text style="line-height:90%;-inkscape-font-specification:'sans-serif, Italic';text-align:start" x="228.945" y="48" transform="translate(0 940.362)" font-style="italic" font-size="30" font-family="sans-serif" letter-spacing="0" word-spacing="0"><tspan x="228.945" y="48">r</tspan></text><text y="84" x="228.945" style="line-height:90%;-inkscape-font-specification:'sans-serif, Italic';text-align:start" transform="translate(0 940.362)" font-style="italic" font-size="30" font-family="sans-serif" letter-spacing="0" word-spacing="0"><tspan y="84" x="228.945">r</tspan></text></g></svg>