<svg xmlns="http://www.w3.org/2000/svg" xmlns:xlink="http://www.w3.org/1999/xlink" width="960" height="1920" viewBox="0 0 960 1920" ><path d="M480 1888V32M160 960h640" fill="none" stroke="#000"/><text style="line-height:90%;text-align:start" x="783.194" y="986.225" id="a" font-weight="bold" font-size="25" font-family="monospace" letter-spacing="0" word-spacing="0">+1</text><use xlink:href="#a" transform="translate(-336.088 -334.225)" width="100%" height="100%"/><text id="b" y="986.225" x="147.106" style="line-height:90%;text-align:start" font-weight="bold" font-size="25" font-family="monospace" letter-spacing="0" word-spacing="0">–1</text><use xlink:href="#b" transform="translate(300 300)" width="100%" height="100%"/><path d="M180 1260V660h600v600z" fill="none" stroke="#5f5f5f" stroke-dasharray="1.25, 3.75"/><path d="M280 660v600" id="c" fill="none" fill-rule="evenodd" stroke="#5f5f5f" stroke-dasharray="1, 4"/><use xlink:href="#c" transform="translate(100)" width="100%" height="100%"/><use xlink:href="#c" transform="translate(300)" width="100%" height="100%"/><use xlink:href="#c" transform="translate(400)" width="100%" height="100%"/><use xlink:href="#c" id="d" transform="rotate(-90 280 760)" width="100%" height="100%"/><use xlink:href="#d" transform="translate(0 400)" width="100%" height="100%"/><use xlink:href="#d" transform="translate(0 100)" width="100%" height="100%"/><use xlink:href="#d" transform="translate(0 300)" width="100%" height="100%"/><g fill="none" stroke="#000"><path d="M180 1260l600-600" stroke-width="2.5"/><path d="M780 48c-8 568-44 656-300 912s-292 344-300 912" stroke-width="3.75"/></g></svg>
