<svg xmlns="http://www.w3.org/2000/svg" xmlns:xlink="http://www.w3.org/1999/xlink" width="832" height="1920" viewBox="0 0 832 1920" shape-rendering="auto"><g transform="translate(-63.548)"><path d="M280 660v600" id="a" fill="none" fill-rule="evenodd" stroke="#bfbfbf" stroke-width="3" stroke-dasharray="3, 9"/><use xlink:href="#a" transform="translate(100)" width="100%" height="100%"/><use xlink:href="#a" transform="translate(300)" width="100%" height="100%"/><use xlink:href="#a" transform="translate(400)" width="100%" height="100%"/><use xlink:href="#a" id="b" transform="rotate(-90 280 760)" width="100%" height="100%"/><use xlink:href="#b" transform="translate(0 400)" width="100%" height="100%"/><use xlink:href="#b" transform="translate(0 100)" width="100%" height="100%"/><use xlink:href="#b" transform="translate(0 300)" width="100%" height="100%"/><path d="M180 1260V660h600v600z" fill="none" stroke="#bfbfbf" stroke-width="3" stroke-dasharray="3, 9"/></g><path d="M116.452 1260l600-600m0-612c-8 568-44 656-300 912s-292 344-300 912" fill="none" stroke="#000" stroke-width="3.75"/><path d="M416.452 1888V32m-320 928h640" fill="none" stroke="#000" stroke-width="2"/><g transform="translate(-63.548)"><text style="line-height:90%;-inkscape-font-specification:'monospace, Bold';text-align:start;font-size:2.5em" x="735.548" y="993.515" id="c" font-weight="bold" font-size="2.5em" letter-spacing="0" word-spacing="0" font-family="monospace"><tspan x="735.548" y="993.515">+1</tspan></text><use xlink:href="#c" transform="translate(-304 -304)" width="100%" height="100%"/><text id="d" y="992" x="184" style="line-height:90%;-inkscape-font-specification:'monospace, Bold';text-align:start;font-size:2.5em" font-weight="bold" font-size="2.5em" letter-spacing="0" word-spacing="0" font-family="monospace"><tspan y="992" x="184">–1</tspan></text><use xlink:href="#d" transform="translate(247.548 264)" width="100%" height="100%"/></g></svg>
