<svg xmlns="http://www.w3.org/2000/svg" xmlns:xlink="http://www.w3.org/1999/xlink" width="600" height="800" viewBox="0 0 600 800"><path d="M2 0L0 3l6-3M2 0L0 8l6-8M2 0L0 17 6 0M2 0L0 32 6 0M2 0L0 56 6 0M2 0L0 96 6 0M2 0L0 165 6 0M2 0L0 281 6 0M2 0L0 475 6 0M2 0L0 800 6 0m7 0L0 3l24-3M13 0L0 8l24-8M13 0L0 17 24 0M13 0L0 32 24 0M13 0L0 56 24 0M13 0L0 96 24 0M13 0L0 165 24 0M13 0L0 281 24 0M13 0L0 475 24 0M13 0L0 800 24 0m18 0L0 3l72-3M42 0L0 8l72-8M42 0L0 17 72 0M42 0L0 32 72 0M42 0L0 56 72 0M42 0L0 96 72 0M42 0L0 165 72 0M42 0L0 281 72 0M42 0L0 475 72 0M42 0L0 800 72 0m52 0L0 3l211-3m-87 0L0 8l211-8m-87 0L0 17 211 0m-87 0L0 32 211 0m-87 0L0 56 211 0m-87 0L0 96 211 0m-87 0L0 165 211 0m-87 0L0 281 211 0m-87 0L0 475 211 0m-87 0L0 800 211 0m145 0L0 3l600-3M356 0L0 8l600-8M356 0L0 17 600 0M356 0L0 32 600 0M356 0L0 56 600 0M356 0L0 96 600 0M356 0L0 165 600 0M356 0L0 281 600 0M356 0L0 475 600 0M356 0L0 800 600 0" id="a" fill="none" fill-rule="evenodd" stroke="#9dc4f6" stroke-width="3"/><use xlink:href="#a" transform="rotate(180 300 400)" width="100%" height="100%"/></svg>
