<svg xmlns="http://www.w3.org/2000/svg" xmlns:xlink="http://www.w3.org/1999/xlink" viewBox="0 0 100 100" preserveAspectRatio="none"><path d="M1 100L0 0l100 1M9 100L0 0l16 100m7 0L0 0l30 100m7 0L0 0l44 100m7 0L0 0l58 100m7 0L0 0l72 100m7 0L0 0l86 100m7 0L0 0l100 100m0-91L0 0l100 16m0 7L0 0l100 30m0 7L0 0l100 44m0 7L0 0l100 58m0 7L0 0l100 72m0 7L0 0l100 86m0 7L0 0" id="a" fill="none" fill-rule="evenodd" stroke="#9dc4f6" stroke-width=".1875"/><use xlink:href="#a" transform="rotate(180 50 50)" width="100" height="100"/></svg>
