<svg xmlns="http://www.w3.org/2000/svg" xmlns:xlink="http://www.w3.org/1999/xlink" viewBox="0 0 100 100" preserveAspectRatio="none"><path d="M.333 0L0 .333 1 0M.333 0L0 1l1-1M.333 0L0 2.167 1 0M.333 0L0 4l1-4M.333 0L0 7l1-7M.333 0L0 12 1 0M.333 0L0 20.67 1 0M.333 0L0 35.17 1 0M.333 0L0 59.33 1 0M.333 0L0 100 1 0m1.167 0L0 .333 4 0M2.167 0L0 1l4-1M2.167 0L0 2.167 4 0M2.167 0L0 4l4-4M2.167 0L0 7l4-7M2.167 0L0 12 4 0M2.167 0L0 20.67 4 0M2.167 0L0 35.17 4 0M2.167 0L0 59.33 4 0M2.167 0L0 100 4 0m3 0L0 .333 12 0M7 0L0 1l12-1M7 0L0 2.167 12 0M7 0L0 4l12-4M7 0L0 7l12-7M7 0L0 12 12 0M7 0L0 20.67 12 0M7 0L0 35.17 12 0M7 0L0 59.33 12 0M7 0L0 100 12 0m8.67 0L0 .333 35.17 0m-14.5 0L0 1l35.17-1m-14.5 0L0 2.167 35.17 0m-14.5 0L0 4l35.17-4m-14.5 0L0 7l35.17-7m-14.5 0L0 12 35.17 0m-14.5 0L0 20.67 35.17 0m-14.5 0L0 35.17 35.17 0m-14.5 0L0 59.33 35.17 0m-14.5 0L0 100 35.17 0m24.16 0L0 .333 100 0M59.33 0L0 1l100-1M59.33 0L0 2.167 100 0M59.33 0L0 4l100-4M59.33 0L0 7l100-7M59.33 0L0 12 100 0M59.33 0L0 20.67 100 0M59.33 0L0 35.17 100 0M59.33 0L0 59.33 100 0M59.33 0L0 100 100 0" id="a" fill="none" fill-rule="evenodd" stroke="#9dc4f6" stroke-width=".188"/><use xlink:href="#a" transform="rotate(180 50 50)" width="100" height="100"/></svg>
