<svg xmlns="http://www.w3.org/2000/svg" width="251" height="38" viewBox="0 0 250.99893 38.000274"><path d="M4.34 16.3v.56h2.64V32.9H4.34v.56h10.6v-.56h-3.08V16.86h3.32v-.56h-3.32v-6.2c0-.7.02-1.35.04-1.96 0-.64.1-1.2.2-1.68s.3-.85.7-1.12c.3-.3.7-.44 1.3-.44.4 0 .8.12 1.2.36.3.2.5.56.5 1.04 0 .08 0 .2-.07.4 0 .2-.05.4-.1.64-.06.24-.1.45-.13.64l-.03.4c0 1.36.7 2.04 2.12 2.04.6 0 1.1-.2 1.6-.64.4-.43.6-.95.6-1.56 0-.7-.1-1.28-.4-1.76-.3-.5-.7-.9-1.2-1.2-.5-.32-1-.55-1.6-.68-.6-.16-1.2-.24-1.8-.24-1.4 0-2.5.17-3.4.52-.9.35-1.7.83-2.3 1.44-.6.6-1.1 1.28-1.4 2.08-.3.77-.6 1.6-.7 2.48-.2.88-.2 1.8-.3 2.72v2.72zm14.2 0v.56h2.6V32.9h-2.6v.56h10.63v-.56H26V22.66c0-.85.13-1.6.37-2.28.26-.7.57-1.28.92-1.76.3-.48.7-.84 1.1-1.08.4-.27.7-.4 1-.4.2 0 .4.05.5.16.1.08.2.2.3.32 0 .1.1.2.1.32v.16l-.1.32-.2.64-.1.64-.1.4c0 .7.2 1.17.7 1.44.5.24 1 .36 1.7.36.8 0 1.4-.23 1.8-.68.4-.45.6-1.08.6-1.88 0-1.07-.4-1.9-1.1-2.48-.7-.6-1.6-.92-2.8-.92-1.3 0-2.4.37-3.2 1.12-.8.72-1.5 1.6-1.9 2.6h-.1V16.3zm29.36 6.56h-6.4c0-.7 0-1.4.1-2.16.1-.77.2-1.48.5-2.12.2-.67.6-1.2 1-1.64.5-.43 1.2-.64 2.1-.64.63 0 1.12.15 1.47.44.37.3.64.65.8 1.08.16.43.25.85.3 1.28l.03 1.08zm-6.4.56h11.8c0-1.36-.3-2.52-.8-3.48-.5-1-1.1-1.8-1.86-2.4-.75-.6-1.6-1.07-2.5-1.36-.94-.3-1.88-.44-2.8-.44-1.3 0-2.54.27-3.7.8-1.1.5-2.1 1.2-2.95 2.04-.9.83-1.5 1.8-2 2.88-.5 1.08-.7 2.2-.7 3.36 0 1.44.2 2.73.7 3.88.5 1.12 1.2 2.08 2.1 2.88.9.77 1.9 1.37 3.1 1.8 1.2.4 2.4.6 3.8.6 1.2 0 2.2-.17 3-.52.8-.32 1.5-.72 2.1-1.2.5-.5 1-1.04 1.3-1.6.3-.6.6-1.13.7-1.64l-.6-.2c-.1.24-.2.6-.4 1.12-.3.5-.6 1.03-1.1 1.56-.5.5-1.1.96-1.8 1.36-.8.4-1.6.6-2.7.6-1.2 0-2.2-.25-2.8-.76-.7-.5-1.2-1.15-1.6-1.92-.4-.8-.6-1.68-.7-2.64-.1-1-.1-1.96-.1-2.92zm26.4-.56h-6.4c0-.7 0-1.4.1-2.16.1-.77.2-1.48.5-2.12.2-.67.6-1.2 1-1.64.5-.43 1.2-.64 2.1-.64.63 0 1.12.15 1.47.44.37.3.64.65.8 1.08.16.43.25.85.3 1.28l.03 1.08zm-6.4.56h11.8c0-1.36-.3-2.52-.8-3.48-.5-1-1.1-1.8-1.86-2.4-.75-.6-1.6-1.07-2.5-1.36-.94-.3-1.88-.44-2.8-.44-1.3 0-2.54.27-3.7.8-1.1.5-2.1 1.2-2.95 2.04-.9.83-1.5 1.8-2 2.88-.5 1.08-.7 2.2-.7 3.36 0 1.44.2 2.73.7 3.88.5 1.12 1.2 2.08 2.1 2.88.9.77 1.9 1.37 3.1 1.8 1.2.4 2.4.6 3.8.6 1.2 0 2.2-.17 3-.52.8-.32 1.5-.72 2.1-1.2.5-.5 1-1.04 1.3-1.6.3-.6.6-1.13.7-1.64l-.6-.2c-.1.24-.2.6-.4 1.12-.3.5-.6 1.03-1.1 1.56-.5.5-1.1.96-1.8 1.36-.8.4-1.6.6-2.7.6-1.2 0-2.2-.25-2.8-.76-.7-.5-1.2-1.15-1.6-1.92-.4-.8-.6-1.68-.7-2.64-.1-1-.1-1.96-.1-2.92zm14.8-7.12v.56h2.62V32.9h-2.64v.56h9.9v-.56H83.8v-9.76c0-.67 0-1.23.04-1.68.05-.48.12-.9.2-1.24.1-.37.24-.7.4-.96.16-.3.35-.57.56-.84.8-.93 1.72-1.4 2.8-1.4.6 0 1.16.24 1.67.72.5.45.75 1.27.75 2.44V32.9h-2.4v.56h9.64v-.56h-2.34V21.1c0-.72.13-1.33.4-1.84.3-.53.64-.96 1.04-1.28.4-.32.8-.56 1.25-.72.5-.16.8-.24 1.1-.24 1 0 1.7.3 2.1.92.5.6.7 1.44.7 2.56v12.4h-2.4v.56h9.9v-.56h-2.6V21.98c0-.48 0-1.07-.1-1.76 0-.7-.2-1.35-.6-1.96-.3-.64-.9-1.2-1.8-1.64-.8-.45-2-.68-3.5-.68-.3 0-.6.04-1.1.12-.4.05-.9.2-1.4.44-.5.2-1 .53-1.5.96-.4.4-.9.96-1.3 1.68-.2-.37-.4-.75-.7-1.12-.2-.37-.5-.7-1-1-.4-.32-.9-.57-1.5-.76-.6-.2-1.4-.32-2.3-.32-.9 0-1.6.12-2.3.36-.6.24-1.1.53-1.6.88-.4.32-.8.67-1 1.04-.3.35-.5.65-.6.92H84V16.3zm46.05 7.24v5.28c0 .77-.08 1.44-.24 2-.1.53-.4.97-.6 1.32-.2.32-.6.56-.9.72-.3.16-.6.24-1 .24-.6 0-1.1-.13-1.4-.4-.3-.3-.6-.64-.8-1.04l-.3-1.24V29.3c0-.8.1-1.45.4-1.96.3-.5.6-.93 1-1.28s.9-.63 1.4-.84l1.6-.72c.4-.2.7-.35.8-.48.2-.16.3-.32.3-.48zm8.1 9.28l-.37-.36c-.2.24-.44.43-.68.56-.22.13-.5.2-.84.2-.6 0-.97-.2-1.1-.56-.15-.4-.2-.85-.2-1.36v-9.92c0-1.12-.2-2.04-.6-2.76-.4-.75-.9-1.33-1.57-1.76-.7-.43-1.4-.72-2.3-.88-.9-.16-1.9-.24-2.9-.24-.9 0-1.8.1-2.6.28-.8.2-1.6.47-2.2.84-.7.35-1.2.8-1.6 1.36-.4.53-.5 1.15-.5 1.84 0 .45 0 .8.2 1.08.1.27.3.48.5.64.2.13.4.23.7.28.3.03.5.04.8.04h.7c.3-.03.5-.1.8-.2s.5-.27.7-.48c.2-.24.3-.56.3-.96l-.1-.44-.1-.68-.1-.64v-.44c0-.75.2-1.25.6-1.52.4-.3 1-.44 1.6-.44.9 0 1.6.3 1.9.88.3.58.5 1.24.5 1.96v2.44c0 .5-.1.92-.3 1.24-.2.32-.4.6-.8.88-.4.24-.9.48-1.6.72l-2.6.8c-.7.2-1.3.44-2 .68-.7.2-1.2.5-1.7.88-.5.35-.9.8-1.2 1.32-.3.5-.5 1.15-.5 1.92 0 .75.13 1.4.5 1.92.3.5.8.9 1.32 1.2.6.3 1.2.5 1.9.64s1.3.2 1.93.2c1.4 0 2.5-.2 3.26-.56.78-.37 1.3-1.1 1.8-2.16h.1c.1.85.5 1.52 1.2 2 .6.48 1.7.72 3 .72.6 0 1.3-.05 2-.16.7-.1 1.24-.44 1.6-1zm2.1.08v.56h10.03v-.56h-2.47v-8.56c0-1.23.2-2.3.4-3.2.3-.9.6-1.67 1.1-2.28.5-.6 1-1.07 1.6-1.36.6-.32 1.2-.48 1.9-.48.8 0 1.4.27 1.9.8.5.5.7 1.32.7 2.44V32.9h-2.5v.56h10.1v-.56h-2.7V21.62c0-1.76-.5-3.15-1.4-4.16-1-1-2.3-1.52-4.1-1.52-1.2 0-2.2.2-3 .56-.8.35-1.5.76-2 1.24s-.9.97-1.1 1.48c-.3.48-.5.84-.6 1.08h-.1v-4h-7.4v.56h2.7V32.9zm26.2-1.88c0 .77.3 1.44.83 2 .56.53 1.22.8 2 .8.77 0 1.44-.27 2-.8.56-.56.84-1.23.84-2s-.3-1.44-.86-2-1.24-.84-2-.84c-.8 0-1.45.28-2 .84-.57.56-.85 1.23-.85 2zm17.2-6.12c0-.88.04-1.83.12-2.84.1-1 .3-1.95.6-2.8.3-.85.72-1.56 1.3-2.12.6-.56 1.38-.84 2.37-.84.7 0 1.28.15 1.74.44.45.3.82.77 1.12 1.44.3.67.5 1.56.6 2.68.13 1.1.2 2.44.2 4.04 0 1.3-.04 2.5-.12 3.56-.05 1.04-.2 1.93-.43 2.68-.2.75-.55 1.32-1 1.72-.43.4-1 .6-1.76.6-1.1 0-2-.28-2.7-.84-.6-.6-1.1-1.3-1.4-2.16-.3-.88-.5-1.8-.6-2.8-.1-1-.1-1.93-.1-2.76zM171.1 5.18V32.9h-2.63v.56h7.43V30.5h.1c.4 1.12 1 2 1.72 2.6.74.6 1.73.88 2.93.88 1.3 0 2.5-.25 3.56-.76 1.1-.5 2-1.17 2.8-2 .8-.85 1.4-1.83 1.8-2.92.4-1.1.6-2.24.6-3.44 0-.93-.2-1.93-.5-3s-.8-2.05-1.5-2.96c-.7-.9-1.6-1.65-2.7-2.24-1.1-.6-2.4-.92-3.9-.92-1.2 0-2.2.28-2.9.84-.7.56-1.3 1.4-1.7 2.52h-.1V4.62h-7.5v.56zm21.3-.56v.56h2.7V32.9h-2.7v.56h10.26v-.56h-2.7V4.62zm12.24 11.68v.56h2.68v11.56c0 1.95.5 3.33 1.5 4.16 1 .8 2.4 1.2 4.3 1.2.6 0 1.2-.08 1.8-.24.6-.13 1.2-.35 1.75-.64.56-.32 1.05-.7 1.48-1.12.45-.45.77-.97 1-1.56h.04v3.24h7.4v-.56H224V16.3h-7.53v.56h2.64v10.32c0 .72-.1 1.4-.3 2.08-.2.67-.4 1.25-.8 1.76-.3.48-.7.87-1.2 1.16-.5.3-1 .44-1.7.44-1 0-1.7-.35-2.1-1.04-.4-.72-.6-1.6-.6-2.6V16.3zm36.57 6.56h-6.4l.2-2.16c.1-.77.3-1.48.5-2.12.3-.67.6-1.2 1.1-1.64.5-.43 1.2-.64 2.2-.64.7 0 1.2.15 1.5.44.4.3.7.65.8 1.08.2.43.3.85.3 1.28.1.43.1.8.1 1.08zm-6.4.56h11.8c0-1.36-.2-2.52-.7-3.48-.4-1-1.1-1.8-1.8-2.4-.7-.6-1.6-1.07-2.5-1.36-.9-.3-1.8-.44-2.8-.44-1.3 0-2.5.27-3.7.8-1.1.5-2.1 1.2-2.9 2.04-.8.83-1.5 1.8-1.9 2.88-.4 1.08-.7 2.2-.7 3.36 0 1.44.3 2.73.8 3.88.5 1.12 1.2 2.08 2.1 2.88.9.77 2 1.37 3.2 1.8 1.2.4 2.5.6 3.9.6 1.2 0 2.2-.17 3-.52.9-.32 1.6-.72 2.1-1.2.6-.5 1-1.04 1.4-1.6.3-.6.6-1.13.7-1.64l-.5-.2c0 .24-.1.6-.4 1.12-.2.5-.5 1.03-1 1.56-.4.5-1 .96-1.8 1.36-.7.4-1.6.6-2.7.6-1.2 0-2.1-.25-2.8-.76-.7-.5-1.2-1.15-1.5-1.92-.3-.8-.5-1.68-.6-2.64-.1-1-.1-1.96-.1-2.92z" fill="#4400e3"/><path d="M175.76 24.92q0-1.32.12-2.84.16-1.52.6-2.8.44-1.28 1.32-2.12.8-.84 2.3-.84 1 0 1.7.44t1.1 1.44q.43 1 .6 2.68.2 1.64.2 4.04 0 1.96-.13 3.56-.08 1.56-.44 2.68-.3 1.12-1 1.72-.64.6-1.76.6-1.66 0-2.62-.84-.9-.88-1.4-2.16-.46-1.32-.6-2.8-.06-1.52-.06-2.76zM170.88 5.2v27.72h-2.64v.56h7.44v-2.96h.08q.64 1.68 1.76 2.6 1.2.88 3 .88 2 0 3.6-.76t2.7-2q1.2-1.28 1.8-2.92.67-1.64.67-3.44 0-1.4-.6-3-.5-1.6-1.6-2.96-1-1.36-2.7-2.24-1.7-.92-4-.92-1.8 0-3 .84-1.1.84-1.7 2.52h-.1V4.64h-7.5v.56h2.7zm21.3-.56v.56h2.7v27.72h-2.7v.56h10.25v-.56h-2.68V4.64h-7.56zm12.23 11.68v.56h2.7v11.56q0 2.92 1.5 4.16 1.5 1.2 4.3 1.2.9 0 1.8-.24.9-.2 1.7-.64.9-.48 1.5-1.12.7-.68 1-1.56h.1v3.24h7.5v-.56h-2.6v-16.6h-7.5v.56h2.6V27.2q0 1.08-.3 2.08t-.8 1.76q-.5.72-1.3 1.16-.7.44-1.7.44-1.5 0-2.1-1.04-.6-1.08-.6-2.6V16.32h-7.5zm36.6 6.56h-6.4l.2-2.16q.1-1.16.4-2.12.4-1 1.1-1.64.8-.64 2.1-.64 1 0 1.5.44t.8 1.08q.3.64.3 1.28v3.76zm-6.4.56h11.8q0-2.04-.7-3.48-.7-1.48-1.8-2.4-1.1-.92-2.5-1.36-1.4-.44-2.8-.44-1.9 0-3.7.8-1.6.76-2.9 2.04-1.2 1.24-1.9 2.88t-.7 3.36q0 2.16.8 3.88.8 1.68 2.1 2.88 1.4 1.16 3.2 1.8 1.8.6 3.9.6 1.8 0 3-.52 1.3-.48 2.1-1.2.9-.76 1.3-1.6.5-.88.7-1.64l-.5-.2q0 .36-.4 1.12-.3.76-1 1.56-.7.76-1.8 1.36-1.1.6-2.7.6-1.8 0-2.8-.76-1-.76-1.5-1.92-.5-1.2-.6-2.64-.1-1.48-.1-2.92v-1.8z" fill="#00a3ff"/><path d="M4.06 16.3v.56H6.7V32.9H4v.56h10.6v-.56h-3.1V16.86h3.3v-.56h-3.33v-6.2c0-.7.02-1.35.04-1.96.1-.64.1-1.2.3-1.68.2-.48.4-.85.7-1.12.3-.3.8-.44 1.3-.44s.9.12 1.2.36c.4.2.5.56.5 1.04v.4l-.1.64-.1.64v.4c0 1.36.7 2.04 2.1 2.04.6 0 1.2-.2 1.6-.64.5-.43.7-.95.7-1.56 0-.7-.1-1.28-.4-1.76-.2-.5-.6-.9-1.1-1.2-.5-.32-1-.55-1.6-.68-.6-.16-1.2-.24-1.8-.24-1.3 0-2.4.17-3.3.52-.9.35-1.6.83-2.2 1.44-.6.6-1 1.28-1.3 2.08-.3.77-.6 1.6-.7 2.48-.1.88-.2 1.8-.2 2.72v2.72zm14.2 0v.56h2.6V32.9h-2.6v.56H28.9v-.56h-3.17V22.66c0-.85.12-1.6.36-2.28.2-.7.5-1.28.9-1.76.3-.48.7-.84 1.1-1.08.4-.27.7-.4 1-.4.2 0 .4.05.5.16.1.08.2.2.3.32 0 .1.1.2.1.32v.16l-.1.32-.1.64-.1.64-.1.4c0 .7.2 1.17.7 1.44.5.24 1 .36 1.7.36.8 0 1.4-.23 1.8-.68.4-.45.6-1.08.6-1.88 0-1.07-.4-1.9-1-2.48-.7-.6-1.6-.92-2.7-.92-1.4 0-2.4.37-3.3 1.12-.8.72-1.5 1.6-1.9 2.6h-.1V16.3zm29.36 6.56h-6.4l.2-2.16c.1-.77.26-1.48.5-2.12.25-.67.6-1.2 1.1-1.64.5-.43 1.2-.64 2.1-.64.65 0 1.14.15 1.5.44.36.3.63.65.8 1.08.15.43.24.85.27 1.28v1.08zm-6.4.56h11.8c0-1.36-.2-2.52-.7-3.48-.5-1-1.1-1.8-1.8-2.4-.7-.6-1.6-1.07-2.5-1.36-.9-.3-1.85-.44-2.8-.44-1.3 0-2.5.27-3.7.8-1.1.5-2.1 1.2-2.93 2.04-.9.83-1.5 1.8-2 2.88-.5 1.08-.7 2.2-.7 3.36 0 1.44.2 2.73.8 3.88.5 1.12 1.2 2.08 2 2.88.9.77 2 1.37 3.2 1.8 1.2.4 2.5.6 3.9.6 1.2 0 2.2-.17 3-.52.8-.32 1.5-.72 2.1-1.2.5-.5 1-1.04 1.3-1.6.3-.6.5-1.13.7-1.64l-.6-.2c0 .24-.2.6-.4 1.12-.2.5-.6 1.03-1 1.56-.5.5-1.1.96-1.8 1.36-.7.4-1.6.6-2.7.6-1.2 0-2.1-.25-2.8-.76-.7-.5-1.2-1.15-1.5-1.92-.4-.8-.6-1.68-.7-2.64-.1-1-.2-1.96-.2-2.92zm26.4-.56h-6.4l.2-2.16c.1-.77.26-1.48.5-2.12.25-.67.6-1.2 1.1-1.64.5-.43 1.2-.64 2.1-.64.65 0 1.14.15 1.5.44.36.3.63.65.8 1.08.15.43.24.85.27 1.28v1.08zm-6.4.56h11.8c0-1.36-.2-2.52-.7-3.48-.5-1-1.1-1.8-1.8-2.4-.7-.6-1.6-1.07-2.5-1.36-.9-.3-1.85-.44-2.8-.44-1.3 0-2.5.27-3.7.8-1.1.5-2.1 1.2-2.93 2.04-.9.83-1.5 1.8-2 2.88-.5 1.08-.7 2.2-.7 3.36 0 1.44.2 2.73.8 3.88.5 1.12 1.2 2.08 2 2.88.9.77 2 1.37 3.2 1.8 1.2.4 2.5.6 3.9.6 1.2 0 2.2-.17 3-.52.8-.32 1.5-.72 2.1-1.2.5-.5 1-1.04 1.3-1.6.3-.6.5-1.13.7-1.64l-.6-.2c0 .24-.2.6-.4 1.12-.2.5-.6 1.03-1 1.56-.5.5-1.1.96-1.8 1.36-.7.4-1.6.6-2.7.6-1.2 0-2.1-.25-2.8-.76-.7-.5-1.2-1.15-1.5-1.92-.4-.8-.6-1.68-.7-2.64-.1-1-.2-1.96-.2-2.92zm14.9-7.12v.56h2.7V32.9h-2.7v.56h9.86v-.56h-2.36v-9.76c0-.67.1-1.23.1-1.68.1-.48.1-.9.2-1.24.1-.37.28-.7.4-.96.2-.3.4-.57.6-.84.8-.93 1.74-1.4 2.8-1.4.6 0 1.18.24 1.7.72.5.45.75 1.27.75 2.44V32.9h-2.4v.56h9.64v-.56h-2.3V21.1c0-.72.2-1.33.4-1.84.3-.53.7-.96 1.1-1.28.4-.32.8-.56 1.3-.72.5-.16.8-.24 1.1-.24 1 0 1.7.3 2.1.92.4.6.6 1.44.6 2.56v12.4h-2.5v.56h9.9v-.56h-2.6V21.98c0-.48 0-1.07-.1-1.76 0-.7-.2-1.35-.6-1.96-.3-.64-.9-1.2-1.8-1.64-.8-.45-2-.68-3.5-.68-.3 0-.6.04-1.1.12-.4.05-.9.2-1.4.44-.5.2-1 .53-1.5.96-.5.4-.9.96-1.3 1.68-.2-.37-.4-.75-.7-1.12-.2-.37-.6-.7-1-1-.4-.32-.9-.57-1.6-.76-.6-.2-1.4-.32-2.3-.32-.9 0-1.6.12-2.3.36-.6.24-1.1.53-1.6.88-.4.32-.8.67-1 1.04-.3.35-.5.65-.7.92V16.3zm46.1 7.24v5.28c0 .77-.1 1.44-.2 2-.15.53-.4.97-.63 1.32-.3.32-.6.56-1 .72-.3.16-.7.24-1 .24-.6 0-1.1-.13-1.5-.4-.4-.3-.6-.64-.8-1.04-.2-.4-.3-.8-.3-1.24V29.3c0-.8.1-1.45.3-1.96.2-.5.6-.93 1-1.28s.8-.63 1.3-.84l1.5-.72c.4-.2.6-.35.8-.48l.3-.48zm8.1 9.28l-.33-.36c-.3.24-.5.43-.7.56-.2.13-.5.2-.9.2-.6 0-1-.2-1.1-.56-.2-.4-.2-.85-.2-1.36v-9.92c0-1.12-.2-2.04-.6-2.76-.4-.75-.9-1.33-1.6-1.76-.7-.43-1.5-.72-2.4-.88-.9-.16-1.9-.24-2.9-.24-.9 0-1.8.1-2.6.28-.8.2-1.6.47-2.2.84-.7.35-1.2.8-1.6 1.36-.4.53-.6 1.15-.6 1.84 0 .45 0 .8.2 1.08.1.27.3.48.5.64.2.13.4.23.7.28.3.03.6.04.8.04h.7c.3-.03.5-.1.8-.2s.5-.27.6-.48c.2-.24.3-.56.3-.96l-.07-.44v-.68l-.1-.64v-.44c0-.75.23-1.25.7-1.52.44-.3 1-.44 1.6-.44.95 0 1.6.3 1.95.88.3.58.5 1.24.5 1.96v2.44c0 .5-.1.92-.3 1.24-.2.32-.4.6-.8.88-.4.24-.9.48-1.6.72l-2.7.8c-.67.2-1.3.44-1.96.68-.67.2-1.2.5-1.7.88-.5.35-.9.8-1.2 1.32-.3.5-.48 1.15-.48 1.92 0 .75.14 1.4.5 1.92.32.5.8.9 1.34 1.2.6.3 1.2.5 1.9.64.6.14 1.3.2 1.9.2 1.4 0 2.5-.2 3.3-.56.72-.37 1.3-1.1 1.74-2.16h.1c.1.85.5 1.52 1.2 2 .6.48 1.7.72 3 .72.6 0 1.25-.05 1.95-.16.7-.1 1.3-.44 1.62-1zm2.1.08v.56h10.07v-.56h-2.6v-8.56c0-1.23.1-2.3.4-3.2.2-.9.6-1.67 1-2.28.4-.6 1-1.07 1.5-1.36.6-.32 1.2-.48 1.8-.48.8 0 1.4.27 1.9.8.4.5.6 1.32.6 2.44V32.9h-2.5v.56h10v-.56H152V21.62c0-1.76-.5-3.15-1.5-4.16-.96-1-2.3-1.52-4.1-1.52-1.2 0-2.2.2-3 .56-.8.35-1.42.76-1.93 1.24-.5.48-.9.97-1.16 1.48l-.5 1.08h-.1v-4h-7.4v.56h2.7V32.9zm26.2-1.88c0 .77.3 1.44.87 2 .5.53 1.2.8 2 .8.7 0 1.4-.27 2-.8.5-.56.8-1.23.8-2s-.3-1.44-.9-2c-.6-.56-1.3-.84-2-.84-.8 0-1.5.28-2 .84-.6.56-.9 1.23-.9 2z"/></svg>