<svg xmlns="http://www.w3.org/2000/svg" xmlns:xlink="http://www.w3.org/1999/xlink" width="932" height="932" viewBox="0 0 932.00001 932.00002"><defs><marker orient="auto" id="m" overflow="visible"><path d="M-4 0l-2 2 7-2-7-2 2 2z" fill-rule="evenodd" stroke="#000" stroke-width=".4pt"/></marker><marker orient="auto" id="l" overflow="visible"><path d="M-10.69-4.437L1.328-.017l-12.018 4.42c1.92-2.61 1.91-6.18 0-8.84z" fill-rule="evenodd" stroke="#000" stroke-width=".688" stroke-linejoin="round"/></marker></defs><g transform="translate(1.5 -29.5)"><path id="a" d="M512 128h80v80h-80z" fill="#e3e3e3" fill-rule="evenodd" stroke="silver" stroke-width="2"/><use xlink:href="#a" id="b" transform="translate(80 80)" width="100%" height="100%"/><use xlink:href="#b" id="c" transform="translate(80 80)" width="100%" height="100%"/><use xlink:href="#c" id="d" transform="translate(80 80)" width="100%" height="100%"/><use xlink:href="#d" id="e" transform="translate(-80 80)" width="100%" height="100%"/><use xlink:href="#e" id="f" transform="translate(-80 -80)" width="100%" height="100%"/><use xlink:href="#f" id="g" transform="translate(-80 -80)" width="100%" height="100%"/><use xlink:href="#g" id="h" transform="translate(-80 -80)" width="100%" height="100%"/><use xlink:href="#h" id="i" transform="translate(240 -80)" width="100%" height="100%"/><use xlink:href="#i" transform="translate(80 80)" width="100%" height="100%"/></g><g transform="translate(1.5 -29.5)"><path d="M368 800l112-112 112 112-112 112z" id="j" fill="#e3ffc0" fill-rule="evenodd"/><use xlink:href="#j" transform="translate(-320 -320)" width="100%" height="100%"/><path d="M352 352v256h256V352z" fill="#c0e3ff" fill-rule="evenodd"/></g><g transform="translate(1.5 -121.862)"><path d="M480 780.362l-112 112 112 112 112-112z" id="k" fill="none" fill-rule="evenodd" stroke="#000" stroke-width="3" stroke-linejoin="round"/><use xlink:href="#k" transform="translate(-320 -320)" width="100%" height="100%"/><path d="M352 700.362h256v-256H352z" fill="none" stroke="#000" stroke-width="3" stroke-linejoin="round"/></g><g transform="translate(1.5 -29.5)"><path d="M608 528h224V128H432v208" fill="none" stroke="#000" stroke-width="5" marker-end="url(#l)"/><path d="M480 608v72.36" id="n" fill="none" fill-rule="evenodd" stroke="#000" stroke-width="4" marker-end="url(#m)"/><use xlink:href="#n" transform="rotate(-90 312 648)" width="100%" height="100%"/></g></svg>