<svg height="1024" width="1024" xmlns="http://www.w3.org/2000/svg"><path d="M512 0C229.252 0 0 229.252 0 512c0 226.25 146.688 418.126 350.155 485.813 25.593 4.686 34.937-11.125 34.937-24.626 0-12.188-.47-52.562-.718-95.314-128.708 23.46-161.707-31.54-172.47-60.373-5.524-14.81-30.406-60.25-52.397-72.263-17.988-9.828-43.26-33.237-.917-33.735 40.434-.476 69.348 37.308 78.47 52.75 45.94 77.75 119.877 55.627 149 42.5 4.654-33 17.902-55.627 32.5-68.373-113.656-12.94-233.22-56.877-233.22-253.065 0-55.94 19.97-101.56 52.66-137.404-5.22-13-22.845-65.094 5.062-135.562 0 0 42.937-13.75 140.81 52.5 40.812-11.406 84.595-17.03 128.125-17.22 43.5.188 87.314 5.874 128.188 17.28 97.69-66.31 140.686-52.5 140.686-52.5 28 70.53 10.377 122.563 5.126 135.498 32.81 35.844 52.626 81.468 52.626 137.404 0 196.686-119.75 240-233.812 252.686 18.44 15.876 34.748 47 34.748 94.748 0 68.437-.686 123.627-.686 140.5 0 13.626 9.312 29.562 35.25 24.563C877.436 929.997 1024 738.125 1024 512 1024 229.252 794.748 0 512 0z"/></svg>