<svg height="100" viewBox="0 0 100 100" width="100" xmlns="http://www.w3.org/2000/svg" xmlns:xlink="http://www.w3.org/1999/xlink"><marker id="a" orient="auto" overflow="visible" refX="0.0" refY="0.0"><path d="m0 0 5-5-17.5 5 17.5 5z" fill-rule="evenodd" stroke="#000" stroke-width="1pt" transform="matrix(.4 0 0 .4 4 0)"/></marker><g transform="translate(0 -952.36216)"><path d="m50 1047.3622-20-20v-20h40v20z" fill="#ccc" fill-rule="evenodd" stroke="#000"/><path d="m26.925881 1020.9519a40 35 0 0 1 -15.051664-39.17775 40 35 0 0 1  38.117378-24.41197 40 35 0 0 1  38.1291 24.39795 40 35 0 0 1 -15.032847 39.18327" fill="none" marker-start="url(#a)" stroke="#000"/><path d="m50 1044.3622-18-18v-17h36v17z" fill="#fff" fill-rule="evenodd" stroke="#ccc"/></g></svg>