<?xml version="1.0" encoding="UTF-8" standalone="no"?>
<!-- Created with Inkscape (http://www.inkscape.org/) -->

<svg
   xmlns:dc="http://purl.org/dc/elements/1.1/"
   xmlns:cc="http://creativecommons.org/ns#"
   xmlns:rdf="http://www.w3.org/1999/02/22-rdf-syntax-ns#"
   xmlns:svg="http://www.w3.org/2000/svg"
   xmlns="http://www.w3.org/2000/svg"
   xmlns:xlink="http://www.w3.org/1999/xlink"
   xmlns:sodipodi="http://sodipodi.sourceforge.net/DTD/sodipodi-0.dtd"
   xmlns:inkscape="http://www.inkscape.org/namespaces/inkscape"
   width="200"
   height="200"
   viewBox="0 0 200 200"
   id="svg2"
   version="1.1"
   inkscape:version="0.91 r13725"
   sodipodi:docname="hashmoback.svg">
  <defs
     id="defs4" />
  <sodipodi:namedview
     id="base"
     pagecolor="#ffffff"
     bordercolor="#666666"
     borderopacity="1.0"
     inkscape:pageopacity="0"
     inkscape:pageshadow="2"
     inkscape:zoom="6.1198265"
     inkscape:cx="39.212401"
     inkscape:cy="168.69357"
     inkscape:document-units="px"
     inkscape:current-layer="layer2"
     showgrid="true"
     units="px"
     inkscape:object-nodes="true"
     inkscape:window-width="1227"
     inkscape:window-height="755"
     inkscape:window-x="0"
     inkscape:window-y="1"
     inkscape:window-maximized="0">
    <inkscape:grid
       type="xygrid"
       id="grid3336"
       spacingx="1"
       spacingy="1"
       empspacing="5" />
  </sodipodi:namedview>
  <metadata
     id="metadata7">
    <rdf:RDF>
      <cc:Work
         rdf:about="">
        <dc:format>image/svg+xml</dc:format>
        <dc:type
           rdf:resource="http://purl.org/dc/dcmitype/StillImage" />
        <dc:title></dc:title>
      </cc:Work>
    </rdf:RDF>
  </metadata>
  <g
     inkscape:groupmode="layer"
     id="layer2"
     inkscape:label="Layer 2"
     style="display:inline">
    <path
       style="fill:#6fa8f2;fill-opacity:1;fill-rule:evenodd;stroke:none;stroke-width:1px;stroke-linecap:butt;stroke-linejoin:miter;stroke-opacity:1"
       d="m 0,0 0,200 200,0 0,-200 z"
       id="path4138"
       inkscape:connector-curvature="0" />
    <path
       style="fill:none;fill-rule:evenodd;stroke:#9dc4f6;stroke-width:1px;stroke-linecap:square;stroke-linejoin:miter;stroke-opacity:1"
       d="M 200,2 2,200 M 4,200 200,4 M 200,6 6,200 M 8,200 200,8 m 0,2 -190,190 m 2,0 188,-188 m 0,2 -186,186 m 2,0 184,-184 m 0,2 -182,182 m 2,0 180,-180 m 0,2 -178,178 m 2,0 176,-176 m 0,2 -174,174 m 2,0 172,-172 m 0,2 -170,170 m 2,0 168,-168 m 0,2 -166,166 m 2,0 164,-164 m 0,2 -162,162 m 2,0 160,-160 m 0,2 -158,158 m 2,0 156,-156 m 0,2 -154,154 m 2,0 152,-152 m 0,2 -150,150 m 2,0 148,-148 m 0,2 -146,146 m 2,0 144,-144 m 0,2 -142,142 m 2,0 140,-140 m 0,2 -138,138 m 2,0 136,-136 m 0,2 -134,134 m 2,0 132,-132 m 0,2 -130,130 m 2,0 128,-128 m 0,2 -126,126 m 2,0 124,-124 m 0,2 -122,122 m 2,0 120,-120 m 0,2 -118,118 m 2,0 116,-116 m 0,2 -114,114 m 2,0 112,-112 m 0,2 -110,110 m 2,0 108,-108 m 0,2 -106,106 m 2,0 104,-104 m 0,2 -102,102 m 2,0 100,-100 m 0,2 -98,98 m 2,0 96,-96 m 0,2 -94,94 m 2,0 92,-92 m 0,2 -90,90 m 2,0 88,-88 m 0,2 -86,86 m 2,0 84,-84 m 0,2 -82,82 m 2,0 80,-80 m 0,2 -78,78 m 2,0 76,-76 m 0,2 -74,74 m 2,0 72,-72 m 0,2 -70,70 m 2,0 68,-68 m 0,2 -66,66 m 2,0 64,-64 m 0,2 -62,62 m 2,0 60,-60 m 0,2 -58,58 m 2,0 56,-56 m 0,2 -54,54 m 2,0 52,-52 m 0,2 -50,50 m 2,0 48,-48 m 0,2 -46,46 m 2,0 44,-44 m 0,2 -42,42 m 2,0 40,-40 m 0,2 -38,38 m 2,0 36,-36 m 0,2 -34,34 m 2,0 32,-32 m 0,2 -30,30 m 2,0 28,-28 m 0,2 -26,26 m 2,0 24,-24 m 0,2 -22,22 m 2,0 20,-20 m 0,2 -18,18 m 2,0 16,-16 m 0,2 -14,14 m 2,0 12,-12 m 0,2 -10,10 m 2,0 8,-8 m 0,2 -6,6 m 2,0 4,-4 m 0,2 -2,2 m 2,0 0,0"
       inkscape:connector-curvature="0"
       id="path8" />
    <path
       style="fill:none;fill-rule:evenodd;stroke:#9dc4f6;stroke-width:1px;stroke-linecap:butt;stroke-linejoin:miter;stroke-opacity:1"
       d="M 0,200 200,0"
       id="path4135"
       inkscape:connector-curvature="0" />
    <use
       x="0"
       y="0"
       xlink:href="#path8"
       id="use4137"
       transform="matrix(-1,0,0,-1,200,200)"
       width="100%"
       height="100%" />
  </g>
</svg>
