<?xml version="1.0" encoding="UTF-8" standalone="no"?>
<!-- Created with Inkscape (http://www.inkscape.org/) -->

<svg
   xmlns:dc="http://purl.org/dc/elements/1.1/"
   xmlns:cc="http://creativecommons.org/ns#"
   xmlns:rdf="http://www.w3.org/1999/02/22-rdf-syntax-ns#"
   xmlns:svg="http://www.w3.org/2000/svg"
   xmlns="http://www.w3.org/2000/svg"
   xmlns:xlink="http://www.w3.org/1999/xlink"
   xmlns:sodipodi="http://sodipodi.sourceforge.net/DTD/sodipodi-0.dtd"
   xmlns:inkscape="http://www.inkscape.org/namespaces/inkscape"
   width="200"
   height="200"
   viewBox="0 0 200 200"
   id="svg2"
   version="1.1"
   inkscape:version="0.91 r13725"
   sodipodi:docname="hashback.svg">
  <defs
     id="defs4" />
  <sodipodi:namedview
     id="base"
     pagecolor="#ffffff"
     bordercolor="#666666"
     borderopacity="1.0"
     inkscape:pageopacity="0.0"
     inkscape:pageshadow="2"
     inkscape:zoom="4.64"
     inkscape:cx="27.977721"
     inkscape:cy="22.164842"
     inkscape:document-units="px"
     inkscape:current-layer="layer2"
     showgrid="true"
     units="px"
     inkscape:object-nodes="true"
     inkscape:window-width="1227"
     inkscape:window-height="755"
     inkscape:window-x="0"
     inkscape:window-y="1"
     inkscape:window-maximized="0">
    <inkscape:grid
       type="xygrid"
       id="grid3336"
       spacingx="1"
       spacingy="1"
       empspacing="5" />
  </sodipodi:namedview>
  <metadata
     id="metadata7">
    <rdf:RDF>
      <cc:Work
         rdf:about="">
        <dc:format>image/svg+xml</dc:format>
        <dc:type
           rdf:resource="http://purl.org/dc/dcmitype/StillImage" />
        <dc:title />
      </cc:Work>
    </rdf:RDF>
  </metadata>
  <g
     inkscape:groupmode="layer"
     id="layer2"
     inkscape:label="Layer 2"
     transform="translate(0,0)">
    <path
       style="fill:none;fill-rule:evenodd;stroke:#0d4e9e;stroke-width:1px;stroke-linecap:square;stroke-linejoin:miter;stroke-opacity:1"
       d="M200,2 L2,200 m2,0 L200,4 m0,2 L6,200 m2,0 L200,8 m0,2 L10,200 m2,0 L200,12 m0,2 L14,200 m2,0 L200,16 m0,2 L18,200 m2,0 L200,20 m0,2 L22,200 m2,0 L200,24 m0,2 L26,200 m2,0 L200,28 m0,2 L30,200 m2,0 L200,32 m0,2 L34,200 m2,0 L200,36 m0,2 L38,200 m2,0 L200,40 m0,2 L42,200 m2,0 L200,44 m0,2 L46,200 m2,0 L200,48 m0,2 L50,200 m2,0 L200,52 m0,2 L54,200 m2,0 L200,56 m0,2 L58,200 m2,0 L200,60 m0,2 L62,200 m2,0 L200,64 m0,2 L66,200 m2,0 L200,68 m0,2 L70,200 m2,0 L200,72 m0,2 L74,200 m2,0 L200,76 m0,2 L78,200 m2,0 L200,80 m0,2 L82,200 m2,0 L200,84 m0,2 L86,200 m2,0 L200,88 m0,2 L90,200 m2,0 L200,92 m0,2 L94,200 m2,0 L200,96 m0,2 L98,200 m2,0 L200,100 m0,2 L102,200 m2,0 L200,104 m0,2 L106,200 m2,0 L200,108 m0,2 L110,200 m2,0 L200,112 m0,2 L114,200 m2,0 L200,116 m0,2 L118,200 m2,0 L200,120 m0,2 L122,200 m2,0 L200,124 m0,2 L126,200 m2,0 L200,128 m0,2 L130,200 m2,0 L200,132 m0,2 L134,200 m2,0 L200,136 m0,2 L138,200 m2,0 L200,140 m0,2 L142,200 m2,0 L200,144 m0,2 L146,200 m2,0 L200,148 m0,2 L150,200 m2,0 L200,152 m0,2 L154,200 m2,0 L200,156 m0,2 L158,200 m2,0 L200,160 m0,2 L162,200 m2,0 L200,164 m0,2 L166,200 m2,0 L200,168 m0,2 L170,200 m2,0 L200,172 m0,2 L174,200 m2,0 L200,176 m0,2 L178,200 m2,0 L200,180 m0,2 L182,200 m2,0 L200,184 m0,2 L186,200 m2,0 L200,188 m0,2 L190,200 m2,0 L200,192 m0,2 L194,200 m2,0 L200,196 m0,2 L198,200 m2,0 L200,200"
       inkscape:connector-curvature="0"
       id="path8" />
    <path
       style="fill:none;fill-rule:evenodd;stroke:#0d4e9e;stroke-width:1px;stroke-linecap:butt;stroke-linejoin:miter;stroke-opacity:1"
       d="M0,200 L200,0"
       id="path4135"
       inkscape:connector-curvature="0" />
    <use
       x="0"
       y="0"
       xlink:href="#path8"
       id="use4137"
       transform="matrix(-1,0,0,-1,200,200)"
       width="100%"
       height="100%" />
  </g>
</svg>
