<svg xmlns="http://www.w3.org/2000/svg" width="352.548" height="38.2" viewBox="0 0 352.54849 38.200276"><g fill="#4400e3"><path d="M6.64 16.52L13.6 34.2h.28l5.56-14.96 5.92 14.96h.28l6.56-17.68h1.96v-.56h-5.4v.56h2.8l-3.84 10.4-4.12-10.4h2.68v-.56h-10v.56h2.04l.8 1.88-3.16 8.52-4.12-10.4h2.6v-.56H4.28v.56h2.36z"/><path d="M36.327 16.52l6.96 17.68h.28l5.56-14.96 5.92 14.96h.28l6.56-17.68h1.96v-.56h-5.4v.56h2.8l-3.84 10.4-4.12-10.4h2.68v-.56h-10v.56h2.04l.8 1.88-3.16 8.52-4.12-10.4h2.6v-.56h-10.16v.56h2.36z"/><path d="M66.015 16.52l6.96 17.68h.28l5.56-14.96 5.92 14.96h.28l6.56-17.68h1.96v-.56h-5.4v.56h2.8l-3.84 10.4-4.12-10.4h2.68v-.56h-10v.56h2.04l.8 1.88-3.16 8.52-4.12-10.4h2.6v-.56h-10.16v.56h2.36zm30.247 14.16q0 1.16.84 2 .84.8 2 .8 1.16 0 2-.8.84-.84.84-2 0-1.16-.84-2-.84-.84-2-.84-1.16 0-2 .84-.84.84-.84 2zm9.972-14.72v.56h2.64v16.04h-2.64v.56h10.6v-.56h-3.08V16.52h3.32v-.56h-3.32v-6.2q0-1.04.04-1.96.04-.96.24-1.68.2-.72.68-1.12.48-.44 1.32-.44.68 0 1.2.36.52.32.52 1.04 0 .12-.04.4t-.12.64-.12.64q-.04.28-.04.4 0 2.04 2.12 2.04.92 0 1.6-.64t.68-1.56q0-1.04-.44-1.76-.44-.76-1.16-1.2-.72-.48-1.6-.68-.88-.24-1.8-.24-2 0-3.36.52-1.36.52-2.24 1.44-.88.88-1.36 2.08-.48 1.16-.72 2.48-.2 1.32-.24 2.72-.04 1.4-.04 2.72h-2.64zm14.183 0v.56h2.6v16.04h-2.6v.56h10.64v-.56h-3.16V22.32q0-1.28.36-2.28.4-1.04.92-1.76t1.12-1.08q.6-.4 1-.4.36 0 .52.16.2.12.28.32.08.16.08.32l.04.16q0 .04-.04.32t-.12.64l-.08.64q-.04.28-.04.4 0 1.04.76 1.44.76.36 1.68.36 1.28 0 1.84-.68.6-.68.6-1.88 0-1.6-1.04-2.48-1.04-.92-2.72-.92-2 0-3.24 1.12-1.2 1.08-1.92 2.6h-.08v-3.36h-7.4zm29.373 6.56h-6.4q.04-1.04.12-2.16.12-1.16.48-2.12.36-1 1.08-1.64.76-.64 2.12-.64.96 0 1.48.44.56.44.8 1.08.24.64.28 1.28.04.64.04 1.08v2.68zm-6.4.56h11.8q0-2.04-.72-3.48-.72-1.48-1.84-2.4-1.12-.92-2.52-1.36-1.4-.44-2.8-.44-1.96 0-3.68.8-1.68.76-2.96 2.04-1.24 1.24-1.96 2.88t-.72 3.36q0 2.16.76 3.88.76 1.68 2.08 2.88 1.36 1.16 3.16 1.8 1.8.6 3.88.6 1.76 0 3-.52 1.24-.48 2.08-1.2.84-.76 1.32-1.6.48-.88.68-1.64l-.56-.2q-.04.36-.4 1.12-.32.76-1.04 1.56-.68.76-1.8 1.36-1.08.6-2.68.6-1.8 0-2.8-.76-1-.76-1.52-1.92-.52-1.2-.64-2.64-.12-1.48-.12-2.92v-1.8zm26.4-.56h-6.4q.04-1.04.12-2.16.12-1.16.48-2.12.36-1 1.08-1.64.76-.64 2.12-.64.96 0 1.48.44.56.44.8 1.08.24.64.28 1.28.04.64.04 1.08v2.68zm-6.4.56h11.8q0-2.04-.72-3.48-.72-1.48-1.84-2.4-1.12-.92-2.52-1.36-1.4-.44-2.8-.44-1.96 0-3.68.8-1.68.76-2.96 2.04-1.24 1.24-1.96 2.88t-.72 3.36q0 2.16.76 3.88.76 1.68 2.08 2.88 1.36 1.16 3.16 1.8 1.8.6 3.88.6 1.76 0 3-.52 1.24-.48 2.08-1.2.84-.76 1.32-1.6.48-.88.68-1.64l-.56-.2q-.04.36-.4 1.12-.32.76-1.04 1.56-.68.76-1.8 1.36-1.08.6-2.68.6-1.8 0-2.8-.76-1-.76-1.52-1.92-.52-1.2-.64-2.64-.12-1.48-.12-2.92v-1.8zm14.88-7.12v.56h2.64v16.04h-2.64v.56h9.88v-.56h-2.36V22.8q0-1 .04-1.68.08-.72.2-1.24.16-.56.4-.96.24-.44.56-.84 1.2-1.4 2.8-1.4.92 0 1.68.72.76.68.76 2.44v12.72h-2.4v.56h9.64v-.56h-2.36v-11.8q0-1.08.4-1.84.44-.8 1.04-1.28.6-.48 1.24-.72t1.08-.24q1.44 0 2.04.92.64.88.64 2.56v12.4h-2.36v.56h9.88v-.56h-2.64V21.64q0-.72-.12-1.76-.08-1.04-.64-1.96-.56-.96-1.8-1.64-1.24-.68-3.52-.68-.44 0-1.12.12-.68.08-1.44.44-.76.32-1.52.96-.72.6-1.32 1.68-.32-.56-.72-1.12-.36-.56-1-1-.6-.48-1.56-.76-.92-.32-2.32-.32-1.32 0-2.28.36-.92.36-1.6.88-.64.48-1.04 1.04-.4.52-.64.92h-.08v-2.84h-7.44zm46.066 7.24v5.28q0 1.16-.24 2-.24.8-.64 1.32-.4.48-.92.72-.48.24-1 .24-.92 0-1.44-.4-.52-.44-.8-1.04-.24-.6-.32-1.24-.04-.64-.04-1.12 0-1.2.36-1.96.4-.76 1-1.28t1.36-.84l1.52-.72q.56-.28.76-.48.24-.24.32-.48h.08zm8.08 9.28l-.36-.36q-.32.36-.68.56-.32.2-.84.2-.88 0-1.12-.56-.2-.6-.2-1.36v-9.92q0-1.68-.6-2.76-.56-1.12-1.56-1.76-.96-.64-2.32-.88-1.32-.24-2.84-.24-1.32 0-2.56.28-1.2.28-2.16.84-.96.52-1.56 1.36-.56.8-.56 1.84 0 .68.2 1.08.24.4.56.64.32.2.72.28.44.04.84.04h.68q.44-.04.8-.2.4-.16.68-.48.28-.36.28-.96 0-.12-.04-.44t-.08-.68q-.04-.36-.08-.64-.04-.32-.04-.44 0-1.12.68-1.52.68-.44 1.6-.44 1.44 0 1.96.88t.52 1.96v2.44q0 .76-.24 1.24-.2.48-.76.88-.56.36-1.6.72-1 .32-2.64.8-1 .32-1.96.68-.92.32-1.68.88-.72.52-1.2 1.32-.44.76-.44 1.92 0 1.12.52 1.92.52.76 1.36 1.2.84.44 1.84.64t1.96.2q2.12 0 3.24-.56t1.76-2.16h.08q.24 1.28 1.2 2 1 .72 3.04.72.92 0 1.96-.16 1.08-.16 1.64-1zm2.104.08v.56h10.04v-.56h-2.52V24q0-1.84.4-3.2t1.04-2.28q.68-.92 1.56-1.36.88-.48 1.84-.48 1.16 0 1.84.8.68.76.68 2.44v12.64h-2.48v.56h10.04v-.56h-2.68V21.28q0-2.64-1.48-4.16-1.44-1.52-4.08-1.52-1.8 0-3 .56-1.2.52-1.96 1.24t-1.16 1.48q-.4.72-.56 1.08h-.08v-4h-7.44v.56h2.64v16.04h-2.64zm26.195-1.88q0 1.16.84 2 .84.8 2 .8 1.16 0 2-.8.84-.84.84-2 0-1.16-.84-2-.84-.84-2-.84-1.16 0-2 .84-.84.84-.84 2zm17.212-6.12q0-1.32.12-2.84.16-1.52.6-2.8.44-1.28 1.32-2.12.88-.84 2.36-.84 1.04 0 1.72.44.68.44 1.12 1.44.44 1 .6 2.68.2 1.64.2 4.04 0 1.96-.12 3.56-.08 1.56-.44 2.68-.32 1.12-1 1.72-.64.6-1.76.6-1.68 0-2.64-.84-.92-.88-1.4-2.16-.48-1.32-.6-2.8-.08-1.52-.08-2.76zm-4.88-19.72v27.72h-2.64v.56h7.44v-2.96h.08q.64 1.68 1.76 2.6 1.16.88 2.96.88 1.96 0 3.56-.76t2.72-2q1.16-1.28 1.8-2.92.64-1.64.64-3.44 0-1.4-.52-3-.48-1.6-1.56-2.96-1.04-1.36-2.68-2.24-1.64-.92-3.96-.92-1.8 0-2.92.84-1.12.84-1.72 2.52h-.08V4.28h-7.52v.56h2.64zm21.31-.56v.56h2.68v27.72h-2.68v.56h10.24v-.56h-2.68V4.28h-7.56zm12.218 11.68v.56h2.68v11.56q0 2.92 1.48 4.16 1.48 1.2 4.28 1.2.88 0 1.8-.24.92-.2 1.72-.64.84-.48 1.48-1.12.64-.68.96-1.56h.08v3.24h7.44v-.56h-2.64v-16.6h-7.52v.56h2.64v10.32q0 1.08-.32 2.08-.28 1-.84 1.76-.52.72-1.28 1.16-.76.44-1.68.44-1.52 0-2.12-1.04-.6-1.08-.6-2.6V15.96h-7.56zm36.573 6.56h-6.4q.04-1.04.12-2.16.12-1.16.48-2.12.36-1 1.08-1.64.76-.64 2.12-.64.96 0 1.48.44.56.44.8 1.08.24.64.28 1.28.04.64.04 1.08v2.68zm-6.4.56h11.8q0-2.04-.72-3.48-.72-1.48-1.84-2.4-1.12-.92-2.52-1.36-1.4-.44-2.8-.44-1.96 0-3.68.8-1.68.76-2.96 2.04-1.24 1.24-1.96 2.88t-.72 3.36q0 2.16.76 3.88.76 1.68 2.08 2.88 1.36 1.16 3.16 1.8 1.8.6 3.88.6 1.76 0 3-.52 1.24-.48 2.08-1.2.84-.76 1.32-1.6.48-.88.68-1.64l-.56-.2q-.04.36-.4 1.12-.32.76-1.04 1.56-.68.76-1.8 1.36-1.08.6-2.68.6-1.8 0-2.8-.76-1-.76-1.52-1.92-.52-1.2-.64-2.64-.12-1.48-.12-2.92v-1.8z"/></g><path d="M6.36 16.52l6.96 17.68h.28l5.56-14.96 5.92 14.96h.28l6.56-17.68h1.96v-.56h-5.4v.56h2.8l-3.84 10.4-4.12-10.4H26v-.56H16v.56h2.04l.8 1.88-3.16 8.52-4.12-10.4h2.6v-.56H4v.56h2.36z"/><path d="M36.048 16.52l6.96 17.68h.28l5.56-14.96 5.92 14.96h.28l6.56-17.68h1.96v-.56h-5.4v.56h2.8l-3.84 10.4-4.12-10.4h2.68v-.56h-10v.56h2.04l.8 1.88-3.16 8.52-4.12-10.4h2.6v-.56h-10.16v.56h2.36z"/><path d="M65.735 16.52l6.96 17.68h.28l5.56-14.96 5.92 14.96h.28l6.56-17.68h1.96v-.56h-5.4v.56h2.8l-3.84 10.4-4.12-10.4h2.68v-.56h-10v.56h2.04l.8 1.88-3.16 8.52-4.12-10.4h2.6v-.56h-10.16v.56h2.36zm30.248 14.16q0 1.16.84 2 .84.8 2 .8 1.16 0 2-.8.84-.84.84-2 0-1.16-.84-2-.84-.84-2-.84-1.16 0-2 .84-.84.84-.84 2zm9.97-14.72v.56h2.64v16.04h-2.64v.56h10.6v-.56h-3.08V16.52h3.32v-.56h-3.32v-6.2q0-1.04.04-1.96.04-.96.24-1.68.2-.72.68-1.12.48-.44 1.32-.44.68 0 1.2.36.52.32.52 1.04 0 .12-.04.4t-.12.64-.12.64q-.04.28-.04.4 0 2.04 2.12 2.04.92 0 1.6-.64t.68-1.56q0-1.04-.44-1.76-.44-.76-1.16-1.2-.72-.48-1.6-.68-.88-.24-1.8-.24-2 0-3.36.52-1.36.52-2.24 1.44-.88.88-1.36 2.08-.48 1.16-.72 2.48-.2 1.32-.24 2.72-.04 1.4-.04 2.72h-2.64zm14.184 0v.56h2.6v16.04h-2.6v.56h10.64v-.56h-3.16V22.32q0-1.28.36-2.28.4-1.04.92-1.76t1.12-1.08q.6-.4 1-.4.36 0 .52.16.2.12.28.32.08.16.08.32l.04.16q0 .04-.04.32t-.12.64l-.08.64q-.04.28-.04.4 0 1.04.76 1.44.76.36 1.68.36 1.28 0 1.84-.68.6-.68.6-1.88 0-1.6-1.04-2.48-1.04-.92-2.72-.92-2 0-3.24 1.12-1.2 1.08-1.92 2.6h-.08v-3.36h-7.4zm29.373 6.56h-6.4q.04-1.04.12-2.16.12-1.16.48-2.12.36-1 1.08-1.64.76-.64 2.12-.64.96 0 1.48.44.56.44.8 1.08.24.64.28 1.28.04.64.04 1.08v2.68zm-6.4.56h11.8q0-2.04-.72-3.48-.72-1.48-1.84-2.4-1.12-.92-2.52-1.36-1.4-.44-2.8-.44-1.96 0-3.68.8-1.68.76-2.96 2.04-1.24 1.24-1.96 2.88t-.72 3.36q0 2.16.76 3.88.76 1.68 2.08 2.88 1.36 1.16 3.16 1.8 1.8.6 3.88.6 1.76 0 3-.52 1.24-.48 2.08-1.2.84-.76 1.32-1.6.48-.88.68-1.64l-.56-.2q-.04.36-.4 1.12-.32.76-1.04 1.56-.68.76-1.8 1.36-1.08.6-2.68.6-1.8 0-2.8-.76-1-.76-1.52-1.92-.52-1.2-.64-2.64-.12-1.48-.12-2.92v-1.8zm26.4-.56h-6.4q.04-1.04.12-2.16.12-1.16.48-2.12.36-1 1.08-1.64.76-.64 2.12-.64.96 0 1.48.44.56.44.8 1.08.24.64.28 1.28.04.64.04 1.08v2.68zm-6.4.56h11.8q0-2.04-.72-3.48-.72-1.48-1.84-2.4-1.12-.92-2.52-1.36-1.4-.44-2.8-.44-1.96 0-3.68.8-1.68.76-2.96 2.04-1.24 1.24-1.96 2.88t-.72 3.36q0 2.16.76 3.88.76 1.68 2.08 2.88 1.36 1.16 3.16 1.8 1.8.6 3.88.6 1.76 0 3-.52 1.24-.48 2.08-1.2.84-.76 1.32-1.6.48-.88.68-1.64l-.56-.2q-.04.36-.4 1.12-.32.76-1.04 1.56-.68.76-1.8 1.36-1.08.6-2.68.6-1.8 0-2.8-.76-1-.76-1.52-1.92-.52-1.2-.64-2.64-.12-1.48-.12-2.92v-1.8zm14.88-7.12v.56h2.64v16.04h-2.64v.56h9.88v-.56h-2.36V22.8q0-1 .04-1.68.08-.72.2-1.24.16-.56.4-.96.24-.44.56-.84 1.2-1.4 2.8-1.4.92 0 1.68.72.76.68.76 2.44v12.72h-2.4v.56h9.64v-.56h-2.36v-11.8q0-1.08.4-1.84.44-.8 1.04-1.28.6-.48 1.24-.72t1.08-.24q1.44 0 2.04.92.64.88.64 2.56v12.4h-2.36v.56h9.88v-.56h-2.64V21.64q0-.72-.12-1.76-.08-1.04-.64-1.96-.56-.96-1.8-1.64-1.24-.68-3.52-.68-.44 0-1.12.12-.68.08-1.44.44-.76.32-1.52.96-.72.6-1.32 1.68-.32-.56-.72-1.12-.36-.56-1-1-.6-.48-1.56-.76-.92-.32-2.32-.32-1.32 0-2.28.36-.92.36-1.6.88-.64.48-1.04 1.04-.4.52-.64.92h-.08v-2.84h-7.44zm46.066 7.24v5.28q0 1.16-.24 2-.24.8-.64 1.32-.4.48-.92.72-.48.24-1 .24-.92 0-1.44-.4-.52-.44-.8-1.04-.24-.6-.32-1.24-.04-.64-.04-1.12 0-1.2.36-1.96.4-.76 1-1.28t1.36-.84l1.52-.72q.56-.28.76-.48.24-.24.32-.48h.08zm8.08 9.28l-.36-.36q-.32.36-.68.56-.32.2-.84.2-.88 0-1.12-.56-.2-.6-.2-1.36v-9.92q0-1.68-.6-2.76-.56-1.12-1.56-1.76-.96-.64-2.32-.88-1.32-.24-2.84-.24-1.32 0-2.56.28-1.2.28-2.16.84-.96.52-1.56 1.36-.56.8-.56 1.84 0 .68.2 1.08.24.4.56.64.32.2.72.28.44.04.84.04h.68q.44-.04.8-.2.4-.16.68-.48.28-.36.28-.96 0-.12-.04-.44t-.08-.68q-.04-.36-.08-.64-.04-.32-.04-.44 0-1.12.68-1.52.68-.44 1.6-.44 1.44 0 1.96.88t.52 1.96v2.44q0 .76-.24 1.24-.2.48-.76.88-.56.36-1.6.72-1 .32-2.64.8-1 .32-1.96.68-.92.32-1.68.88-.72.52-1.2 1.32-.44.76-.44 1.92 0 1.12.52 1.92.52.76 1.36 1.2.84.44 1.84.64t1.96.2q2.12 0 3.24-.56t1.76-2.16h.08q.24 1.28 1.2 2 1 .72 3.04.72.92 0 1.96-.16 1.08-.16 1.64-1zm2.104.08v.56h10.04v-.56h-2.52V24q0-1.84.4-3.2t1.04-2.28q.68-.92 1.56-1.36.88-.48 1.84-.48 1.16 0 1.84.8.68.76.68 2.44v12.64h-2.48v.56h10.04v-.56H254V21.28q0-2.64-1.48-4.16-1.44-1.52-4.08-1.52-1.8 0-3 .56-1.2.52-1.96 1.24t-1.16 1.48q-.4.72-.56 1.08h-.08v-4h-7.44v.56h2.64v16.04h-2.64zm26.196-1.88q0 1.16.84 2 .84.8 2 .8 1.16 0 2-.8.84-.84.84-2 0-1.16-.84-2-.84-.84-2-.84-1.16 0-2 .84-.84.84-.84 2z"/><path d="M277.647 24.577q0-1.32.12-2.84.16-1.52.6-2.8.44-1.28 1.32-2.12.88-.84 2.36-.84 1.04 0 1.72.44.68.44 1.12 1.44.44 1 .6 2.68.2 1.64.2 4.04 0 1.96-.12 3.56-.08 1.56-.44 2.68-.32 1.12-1 1.72-.64.6-1.76.6-1.68 0-2.64-.84-.92-.88-1.4-2.16-.48-1.32-.6-2.8-.08-1.52-.08-2.76zm-4.88-19.72v27.72h-2.64v.56h7.44v-2.96h.08q.64 1.68 1.76 2.6 1.16.88 2.96.88 1.96 0 3.56-.76t2.72-2q1.16-1.28 1.8-2.92.64-1.64.64-3.44 0-1.4-.52-3-.48-1.6-1.56-2.96-1.04-1.36-2.68-2.24-1.64-.92-3.96-.92-1.8 0-2.92.84-1.12.84-1.72 2.52h-.08V4.297h-7.52v.56h2.64zm21.31-.56v.56h2.68v27.72h-2.68v.56h10.24v-.56h-2.68V4.297h-7.56zm12.218 11.68v.56h2.68v11.56q0 2.92 1.48 4.16 1.48 1.2 4.28 1.2.88 0 1.8-.24.92-.2 1.72-.64.84-.48 1.48-1.12.64-.68.96-1.56h.08v3.24h7.44v-.56h-2.64v-16.6h-7.52v.56h2.64v10.32q0 1.08-.32 2.08-.28 1-.84 1.76-.52.72-1.28 1.16-.76.44-1.68.44-1.52 0-2.12-1.04-.6-1.08-.6-2.6v-12.68h-7.56zm36.573 6.56h-6.4q.04-1.04.12-2.16.12-1.16.48-2.12.36-1 1.08-1.64.76-.64 2.12-.64.96 0 1.48.44.56.44.8 1.08.24.64.28 1.28.04.64.04 1.08v2.68zm-6.4.56h11.8q0-2.04-.72-3.48-.72-1.48-1.84-2.4-1.12-.92-2.52-1.36-1.4-.44-2.8-.44-1.96 0-3.68.8-1.68.76-2.96 2.04-1.24 1.24-1.96 2.88t-.72 3.36q0 2.16.76 3.88.76 1.68 2.08 2.88 1.36 1.16 3.16 1.8 1.8.6 3.88.6 1.76 0 3-.52 1.24-.48 2.08-1.2.84-.76 1.32-1.6.48-.88.68-1.64l-.56-.2q-.04.36-.4 1.12-.32.76-1.04 1.56-.68.76-1.8 1.36-1.08.6-2.68.6-1.8 0-2.8-.76-1-.76-1.52-1.92-.52-1.2-.64-2.64-.12-1.48-.12-2.92v-1.8z" fill="#00a3ff"/></svg>