<svg xmlns="http://www.w3.org/2000/svg" xmlns:xlink="http://www.w3.org/1999/xlink" width="960" height="960" viewBox="0 0 960.0 960.0"><g fill="none" stroke="silver"><path d="M112 128l192 80 96 64 80 48 192-96V64M144 624l144-144h432" stroke-width="5"/><path d="M480 320v432l192-64M144 336l160-128m368 16l176 16M240 832V720l48-64V480" stroke-width="5"/><path d="M144 528v192l-64 64" stroke-width="2"/><path d="M64 576l80 48-80 48m48-448v-96l-80 64m0-112l80 48 80-48m112 128v-96m128-64h112l128 16-64 64m-128 0v192M672 64l96 16m160 96l-80 64 80 64m-80-64v96m-448 32l80-48m80 96l-80 64 80 48m320 64l-80-64-80-48v96m0-192v96l80-48m-512-48v96M144 880l96-48v96m160-224l80 48-80 48m240 80l-80-80-80-48v96m352-48l-80-64-80-48v96" stroke-width="2"/></g><g transform="translate(0 -92.362)"><path d="M672 748.362l-32 32 32 32 32-32z" id="n" fill="#d10c40" stroke="#000" stroke-width="2"/><path id="h" d="M698.388 548.758a32 32 0 0 1 45.177 1.95 32 32 0 0 1-1.87 45.18 32 32 0 0 1-45.184-1.79 32 32 0 0 1 1.718-45.187" fill="#df830b" stroke="#000" stroke-width="2"/><path d="M446 572.362l16-32h36l16 32-16 32h-36z" id="a" fill="#833faf" stroke="#000" stroke-width="2"/><path id="o" d="M144 796.362l-16 16 16 16 16-16z" fill="#d10c40" stroke="#000" stroke-width="2"/><path d="M708.552 463.86a16.953 16.953 0 0 1 23.93 1.032 16.953 16.953 0 0 1-.99 23.933 16.953 16.953 0 0 1-23.934-.95 16.953 16.953 0 0 1 .906-23.935" id="k" fill="#df830b" stroke="#000" stroke-width="2"/><path id="c" d="M384 460.362l8-16h16l8 16-8 16h-16z" fill="#833faf" stroke="#000" stroke-width="2"/><use xlink:href="#a" id="b" transform="translate(0 -160)"/><use xlink:href="#b" transform="translate(192 -96)"/><use xlink:href="#a" transform="translate(-192)"/><use xlink:href="#c" id="d" transform="translate(80 208)"/><use xlink:href="#d" id="e" transform="translate(-80 -304)"/><use xlink:href="#e" id="f" transform="translate(80 -48)"/><use xlink:href="#f" transform="translate(286.847 -142.97)"/><use xlink:href="#d" id="g" transform="translate(80 -48)"/><use xlink:href="#g" transform="translate(0 -112)"/><use xlink:href="#h" transform="translate(128 -240)"/><use xlink:href="#h" id="j" transform="translate(-480 352)"/><use xlink:href="#a" transform="translate(0 272)"/><use xlink:href="#d" id="i" transform="translate(0 80)"/><use xlink:href="#i" transform="translate(0 192)"/><use xlink:href="#i" transform="translate(80 144)"/><use xlink:href="#i" transform="translate(-80 48)"/><use xlink:href="#i" transform="translate(-80 144)"/><use xlink:href="#j" transform="translate(-96 -496)"/><use xlink:href="#k" id="m" transform="translate(0 192)"/><use xlink:href="#k" id="l" transform="translate(80 48)"/><use xlink:href="#l" transform="translate(0 96)"/><use xlink:href="#k" transform="translate(208 -208)"/><use xlink:href="#k" transform="translate(208 -80)"/><use xlink:href="#m" transform="translate(160 16)"/><use xlink:href="#k" id="v" transform="translate(-480 544)"/><use xlink:href="#k" transform="translate(-80 496)"/><use xlink:href="#a" transform="translate(-176 -272)"/><use xlink:href="#n" transform="translate(-528 -64)"/><use xlink:href="#n" transform="translate(-5.8 -624)"/><use xlink:href="#o" id="p" transform="translate(0 -192)"/><use xlink:href="#p" id="q" transform="translate(-80 48)"/><use xlink:href="#q" id="s" transform="translate(5 96)"/><use xlink:href="#o" transform="translate(-64 64)"/><use xlink:href="#p" transform="translate(464 -400)"/><use xlink:href="#p" transform="translate(144 -144)"/><use xlink:href="#p" transform="translate(704 -192)"/><use xlink:href="#p" transform="translate(336 -400)"/><use xlink:href="#p" transform="translate(400 -480)"/><use xlink:href="#k" transform="translate(-288 -336)"/><use xlink:href="#a" transform="translate(-368 -352)"/><path d="M288 204.362l8-16h16l8 16-8 16h-16z" fill="#833faf" stroke="#000" stroke-width="2"/><use xlink:href="#d" transform="translate(-368 -352)"/><path d="M16 172.362l8-16h16l8 16-8 16H24z" id="r" fill="#833faf" stroke="#000" stroke-width="2"/><use xlink:href="#d" transform="translate(-448 -384)"/><use xlink:href="#r" transform="translate(160 2.5)"/><use xlink:href="#s" id="t" transform="translate(688 64)"/><use xlink:href="#t" transform="translate(-80 48)"/><use xlink:href="#d" transform="translate(-112 -48)"/><use xlink:href="#d" transform="translate(-192 -6)"/><use xlink:href="#d" id="u" transform="translate(-192 80)"/><use xlink:href="#u" transform="translate(-48 64)"/><use xlink:href="#v" transform="translate(-96 -48)"/><use xlink:href="#t" transform="translate(80 64)"/></g></svg>