<?xml version="1.0" encoding="UTF-8" standalone="no"?>
<!-- Created with Inkscape (http://www.inkscape.org/) -->

<svg
   xmlns:dc="http://purl.org/dc/elements/1.1/"
   xmlns:cc="http://creativecommons.org/ns#"
   xmlns:rdf="http://www.w3.org/1999/02/22-rdf-syntax-ns#"
   xmlns:svg="http://www.w3.org/2000/svg"
   xmlns="http://www.w3.org/2000/svg"
   xmlns:xlink="http://www.w3.org/1999/xlink"
   xmlns:sodipodi="http://sodipodi.sourceforge.net/DTD/sodipodi-0.dtd"
   xmlns:inkscape="http://www.inkscape.org/namespaces/inkscape"
   width="960"
   height="960"
   viewBox="0 0 960.00003 960.00003"
   id="svg2"
   version="1.1"
   inkscape:version="0.91 r13725"
   sodipodi:docname="research-value-icon.svg">
  <defs
     id="defs4" />
  <sodipodi:namedview
     id="base"
     pagecolor="#ffffff"
     bordercolor="#666666"
     borderopacity="1.0"
     inkscape:pageopacity="0.0"
     inkscape:pageshadow="2"
     inkscape:zoom="0.55048947"
     inkscape:cx="498.29387"
     inkscape:cy="476.6917"
     inkscape:document-units="px"
     inkscape:current-layer="layer1"
     showgrid="false"
     inkscape:window-width="1203"
     inkscape:window-height="756"
     inkscape:window-x="0"
     inkscape:window-y="0"
     inkscape:window-maximized="0"
     inkscape:object-nodes="true"
     inkscape:snap-midpoints="false"
     inkscape:snap-others="false"
     inkscape:snap-bbox="false"
     inkscape:bbox-nodes="false"
     inkscape:snap-nodes="true"
     inkscape:snap-smooth-nodes="false"
     units="px"
     inkscape:snap-bbox-edge-midpoints="false"
     inkscape:bbox-paths="false"
     inkscape:snap-bbox-midpoints="true">
    <inkscape:grid
       type="xygrid"
       id="grid3336"
       spacingy="4.0000001"
       spacingx="4.0000001"
       empspacing="4"
       color="#ff3fdb"
       opacity="0.50196078"
       dotted="true" />
  </sodipodi:namedview>
  <metadata
     id="metadata7">
    <rdf:RDF>
      <cc:Work
         rdf:about="">
        <dc:format>image/svg+xml</dc:format>
        <dc:type
           rdf:resource="http://purl.org/dc/dcmitype/StillImage" />
        <dc:title></dc:title>
      </cc:Work>
    </rdf:RDF>
  </metadata>
  <g
     inkscape:groupmode="layer"
     id="layer4"
     inkscape:label="Lines">
    <path
       style="fill:none;fill-rule:evenodd;stroke:#c0c0c0;stroke-width:5;stroke-linecap:butt;stroke-linejoin:miter;stroke-opacity:1;stroke-miterlimit:4;stroke-dasharray:none"
       d="M 112,128.00001 304,208 l 96,64 80,48 192,-96 0,-159.999994"
       id="path4391"
       inkscape:connector-curvature="0" />
    <path
       style="fill:none;fill-rule:evenodd;stroke:#c0c0c0;stroke-width:5;stroke-linecap:butt;stroke-linejoin:miter;stroke-opacity:1;stroke-miterlimit:4;stroke-dasharray:none"
       d="m 144,624 144,-144 192,0 240,0"
       id="path4393"
       inkscape:connector-curvature="0" />
    <path
       style="fill:none;fill-rule:evenodd;stroke:#c0c0c0;stroke-width:5;stroke-linecap:butt;stroke-linejoin:miter;stroke-opacity:1;stroke-miterlimit:4;stroke-dasharray:none"
       d="m 480,320 0,160 0,96 0,80 0,96 192,-64"
       id="path4397"
       inkscape:connector-curvature="0" />
    <path
       style="fill:none;fill-rule:evenodd;stroke:#c0c0c0;stroke-width:5;stroke-linecap:butt;stroke-linejoin:miter;stroke-opacity:1;stroke-miterlimit:4;stroke-dasharray:none"
       d="M 144,336 304,208"
       id="path4399"
       inkscape:connector-curvature="0" />
    <path
       style="fill:none;fill-rule:evenodd;stroke:#c0c0c0;stroke-width:5;stroke-linecap:butt;stroke-linejoin:miter;stroke-opacity:1;stroke-miterlimit:4;stroke-dasharray:none"
       d="m 672,224 175.99999,16"
       id="path4401"
       inkscape:connector-curvature="0" />
    <path
       style="fill:none;fill-rule:evenodd;stroke:#c0c0c0;stroke-width:5;stroke-linecap:butt;stroke-linejoin:miter;stroke-opacity:1;stroke-miterlimit:4;stroke-dasharray:none"
       d="m 240,832 0,-112 48,-64 0,-80 0,-96"
       id="path4403"
       inkscape:connector-curvature="0"
       sodipodi:nodetypes="ccccc" />
    <path
       style="fill:none;fill-rule:evenodd;stroke:#c0c0c0;stroke-width:2;stroke-linecap:butt;stroke-linejoin:miter;stroke-opacity:1;stroke-miterlimit:4;stroke-dasharray:none"
       d="m 144,528 0,96 0,96 -64,64"
       id="path4405"
       inkscape:connector-curvature="0" />
    <path
       style="fill:none;fill-rule:evenodd;stroke:#c0c0c0;stroke-width:2;stroke-linecap:butt;stroke-linejoin:miter;stroke-opacity:1;stroke-miterlimit:4;stroke-dasharray:none"
       d="m 64,576 80,48 -80,48"
       id="path4407"
       inkscape:connector-curvature="0" />
    <path
       style="fill:none;fill-rule:evenodd;stroke:#c0c0c0;stroke-width:2;stroke-linecap:butt;stroke-linejoin:miter;stroke-opacity:1;stroke-miterlimit:4;stroke-dasharray:none"
       d="M 112,224 112,128.00001 32,192"
       id="path4409"
       inkscape:connector-curvature="0" />
    <path
       style="fill:none;fill-rule:evenodd;stroke:#c0c0c0;stroke-width:2;stroke-linecap:butt;stroke-linejoin:miter;stroke-opacity:1;stroke-miterlimit:4;stroke-dasharray:none"
       d="m 32,80.000005 80,48.000005 80,-48.000005"
       id="path4411"
       inkscape:connector-curvature="0" />
    <path
       style="fill:none;fill-rule:evenodd;stroke:#c0c0c0;stroke-width:2;stroke-linecap:butt;stroke-linejoin:miter;stroke-opacity:1;stroke-miterlimit:4;stroke-dasharray:none"
       d="m 304,208 0,-95.99999"
       id="path4413"
       inkscape:connector-curvature="0" />
    <path
       style="fill:none;fill-rule:evenodd;stroke:#c0c0c0;stroke-width:2;stroke-linecap:butt;stroke-linejoin:miter;stroke-opacity:1;stroke-miterlimit:4;stroke-dasharray:none"
       d="m 432,48.000006 112,0 128,16 -64,64.000004"
       id="path4415"
       inkscape:connector-curvature="0" />
    <path
       style="fill:none;fill-rule:evenodd;stroke:#c0c0c0;stroke-width:2;stroke-linecap:butt;stroke-linejoin:miter;stroke-opacity:1;stroke-miterlimit:4;stroke-dasharray:none"
       d="M 480,128.00001 480,224 l 0,96"
       id="path4417"
       inkscape:connector-curvature="0" />
    <path
       style="fill:none;fill-rule:evenodd;stroke:#c0c0c0;stroke-width:2;stroke-linecap:butt;stroke-linejoin:miter;stroke-opacity:1;stroke-miterlimit:4;stroke-dasharray:none"
       d="m 672,64.000006 96,15.999999"
       id="path4419"
       inkscape:connector-curvature="0" />
    <path
       style="fill:none;fill-rule:evenodd;stroke:#c0c0c0;stroke-width:2;stroke-linecap:butt;stroke-linejoin:miter;stroke-opacity:1;stroke-miterlimit:4;stroke-dasharray:none"
       d="m 927.99999,176 -80,64 80,64"
       id="path4421"
       inkscape:connector-curvature="0" />
    <path
       style="fill:none;fill-rule:evenodd;stroke:#c0c0c0;stroke-width:2;stroke-linecap:butt;stroke-linejoin:miter;stroke-opacity:1;stroke-miterlimit:4;stroke-dasharray:none"
       d="m 847.99999,240 0,96"
       id="path4423"
       inkscape:connector-curvature="0" />
    <path
       style="fill:none;fill-rule:evenodd;stroke:#c0c0c0;stroke-width:2;stroke-linecap:butt;stroke-linejoin:miter;stroke-opacity:1;stroke-miterlimit:4;stroke-dasharray:none"
       d="m 400,368 80,-48"
       id="path4425"
       inkscape:connector-curvature="0" />
    <path
       style="fill:none;fill-rule:evenodd;stroke:#c0c0c0;stroke-width:2;stroke-linecap:butt;stroke-linejoin:miter;stroke-opacity:1;stroke-miterlimit:4;stroke-dasharray:none"
       d="m 560,416 -80,64 80,48"
       id="path4427"
       inkscape:connector-curvature="0" />
    <path
       style="fill:none;fill-rule:evenodd;stroke:#c0c0c0;stroke-width:2;stroke-linecap:butt;stroke-linejoin:miter;stroke-opacity:1;stroke-miterlimit:4;stroke-dasharray:none"
       d="M 879.99999,592 800,528 l -80,-48 0,96"
       id="path4429"
       inkscape:connector-curvature="0" />
    <path
       style="fill:none;fill-rule:evenodd;stroke:#c0c0c0;stroke-width:2;stroke-linecap:butt;stroke-linejoin:miter;stroke-opacity:1;stroke-miterlimit:4;stroke-dasharray:none"
       d="m 720,384 0,96 80,-48"
       id="path4431"
       inkscape:connector-curvature="0" />
    <path
       style="fill:none;fill-rule:evenodd;stroke:#c0c0c0;stroke-width:2;stroke-linecap:butt;stroke-linejoin:miter;stroke-opacity:1;stroke-miterlimit:4;stroke-dasharray:none"
       d="m 288,384 0,96"
       id="path4433"
       inkscape:connector-curvature="0" />
    <path
       style="fill:none;fill-rule:evenodd;stroke:#c0c0c0;stroke-width:2;stroke-linecap:butt;stroke-linejoin:miter;stroke-opacity:1;stroke-miterlimit:4;stroke-dasharray:none"
       d="m 144,880 96,-48 0,96"
       id="path4435"
       inkscape:connector-curvature="0" />
    <path
       style="fill:none;fill-rule:evenodd;stroke:#c0c0c0;stroke-width:2;stroke-linecap:butt;stroke-linejoin:miter;stroke-opacity:1;stroke-miterlimit:4;stroke-dasharray:none"
       d="m 400,704 80,48 -80,48"
       id="path4437"
       inkscape:connector-curvature="0" />
    <path
       style="fill:none;fill-rule:evenodd;stroke:#c0c0c0;stroke-width:2;stroke-linecap:butt;stroke-linejoin:miter;stroke-opacity:1;stroke-miterlimit:4;stroke-dasharray:none"
       d="m 640,880 -80,-80 -80,-48 0,96"
       id="path4441"
       inkscape:connector-curvature="0" />
    <path
       style="fill:none;fill-rule:evenodd;stroke:#c0c0c0;stroke-width:2;stroke-linecap:butt;stroke-linejoin:miter;stroke-opacity:1;stroke-miterlimit:4;stroke-dasharray:none"
       d="M 831.99999,800 752,736 l -80,-48 0,96"
       id="path4443"
       inkscape:connector-curvature="0" />
  </g>
  <g
     inkscape:groupmode="layer"
     id="layer3"
     inkscape:label="Guides"
     transform="translate(0,-2441.5747)"
     style="display:none">
    <path
       style="fill:none;fill-opacity:1;fill-rule:evenodd;stroke:#c000c0;stroke-width:1px;stroke-linecap:butt;stroke-linejoin:miter;stroke-opacity:0.50196078"
       d="M 0.1249985,3403.033 -1.4999999e-6,3161.5747 240,3161.5747 l 0,240 z"
       id="path4264"
       inkscape:connector-curvature="0"
       sodipodi:nodetypes="ccccc" />
    <use
       x="0"
       y="0"
       xlink:href="#path4264"
       id="use4266"
       transform="translate(240,-240)"
       width="100%"
       height="100%" />
    <use
       x="0"
       y="0"
       xlink:href="#path4264"
       id="use4268"
       transform="translate(480,1.5000001e-6)"
       width="100%"
       height="100%" />
    <use
       x="0"
       y="0"
       xlink:href="#path4264"
       id="use4270"
       transform="translate(-1.5e-6,-480)"
       width="100%"
       height="100%" />
    <use
       x="0"
       y="0"
       xlink:href="#use4270"
       id="use4272"
       transform="translate(480,3.0000001e-6)"
       width="100%"
       height="100%" />
    <use
       x="0"
       y="0"
       xlink:href="#use4272"
       id="use4274"
       transform="translate(240,240)"
       width="100%"
       height="100%" />
    <use
       x="0"
       y="0"
       xlink:href="#use4274"
       id="use4276"
       transform="translate(-1.4999999e-6,-480)"
       width="100%"
       height="100%" />
    <use
       x="0"
       y="0"
       xlink:href="#use4276"
       id="use4278"
       transform="translate(-480,2.9999997e-6)"
       width="100%"
       height="100%" />
  </g>
  <g
     inkscape:label="Shapes"
     inkscape:groupmode="layer"
     id="layer1"
     transform="translate(0,-92.362107)"
     style="display:inline">
    <path
       style="fill:#d10c40;fill-opacity:1;fill-rule:evenodd;stroke:#000000;stroke-width:2;stroke-linecap:butt;stroke-linejoin:miter;stroke-miterlimit:4;stroke-dasharray:none;stroke-opacity:1"
       d="m 672,748.36211 -32,32 32,32 32.00001,-32 z"
       id="path3408"
       inkscape:connector-curvature="0"
       sodipodi:nodetypes="ccccc" />
    <path
       style="opacity:1;fill:#df830b;fill-opacity:1;stroke:#000000;stroke-width:1.91031897;stroke-linecap:butt;stroke-linejoin:round;stroke-miterlimit:4;stroke-dasharray:none;stroke-dashoffset:0;stroke-opacity:1"
       id="path4216"
       sodipodi:type="arc"
       sodipodi:cx="720"
       sodipodi:cy="572.36212"
       sodipodi:rx="32.003143"
       sodipodi:ry="32.003216"
       sodipodi:start="3.9710126"
       sodipodi:end="3.9639622"
       d="m 698.38816,548.75848 a 32.003143,32.003216 0 0 1 45.1773,1.95018 32.003143,32.003216 0 0 1 -1.87055,45.18077 32.003143,32.003216 0 0 1 -45.18389,-1.79091 32.003143,32.003216 0 0 1 1.71126,-45.18709"
       sodipodi:open="true" />
    <path
       style="fill:#833faf;fill-opacity:1;fill-rule:evenodd;stroke:#000000;stroke-width:2.06168461;stroke-linecap:butt;stroke-linejoin:miter;stroke-miterlimit:4;stroke-dasharray:none;stroke-opacity:1"
       d="m 445.99999,572.36211 16,-32 36.00001,0 16,32 -16,32 -36.00001,0 z"
       id="path4236"
       inkscape:connector-curvature="0"
       sodipodi:nodetypes="ccccccc" />
    <path
       sodipodi:nodetypes="ccccc"
       inkscape:connector-curvature="0"
       id="use4252"
       d="m 144,796.36211 -16,16 16,16 16,-16 z"
       style="fill:#d10c40;fill-opacity:1;fill-rule:evenodd;stroke:#000000;stroke-width:2;stroke-linecap:butt;stroke-linejoin:miter;stroke-miterlimit:4;stroke-dasharray:none;stroke-opacity:1" />
    <path
       sodipodi:open="true"
       d="m 708.5519,463.85887 a 16.952515,16.952646 0 0 1 23.93106,1.03305 16.952515,16.952646 0 0 1 -0.99086,23.93302 16.952515,16.952646 0 0 1 -23.93454,-0.94868 16.952515,16.952646 0 0 1 0.90648,-23.93637"
       sodipodi:end="3.9639622"
       sodipodi:start="3.9710126"
       sodipodi:ry="16.952646"
       sodipodi:rx="16.952515"
       sodipodi:cy="476.36212"
       sodipodi:cx="720"
       sodipodi:type="arc"
       id="use4256"
       style="opacity:1;fill:#df830b;fill-opacity:1;stroke:#000000;stroke-width:1.91031897;stroke-linecap:butt;stroke-linejoin:round;stroke-miterlimit:4;stroke-dasharray:none;stroke-dashoffset:0;stroke-opacity:1" />
    <path
       sodipodi:nodetypes="ccccccc"
       inkscape:connector-curvature="0"
       id="use4260"
       d="m 384,460.36211 8,-16 16,0 8,16 -8,16 -16,0 z"
       style="fill:#833faf;fill-opacity:1;fill-rule:evenodd;stroke:#000000;stroke-width:2.06168461;stroke-linecap:butt;stroke-linejoin:miter;stroke-miterlimit:4;stroke-dasharray:none;stroke-opacity:1" />
    <use
       x="0"
       y="0"
       xlink:href="#path4236"
       id="use4280"
       transform="translate(0,-160)"
       width="100%"
       height="100%" />
    <use
       x="0"
       y="0"
       xlink:href="#use4280"
       id="use4282"
       transform="translate(192,-95.999998)"
       width="100%"
       height="100%" />
    <use
       x="0"
       y="0"
       xlink:href="#path4236"
       id="use4284"
       transform="translate(-192,0)"
       width="100%"
       height="100%" />
    <use
       x="0"
       y="0"
       xlink:href="#use4260"
       id="use4286"
       transform="translate(79.999997,208)"
       width="100%"
       height="100%" />
    <use
       x="0"
       y="0"
       xlink:href="#use4286"
       id="use4288"
       transform="translate(-79.999999,-304)"
       width="100%"
       height="100%" />
    <use
       x="0"
       y="0"
       xlink:href="#use4288"
       id="use4290"
       transform="translate(79.999999,-47.999998)"
       width="100%"
       height="100%" />
    <use
       x="0"
       y="0"
       xlink:href="#use4290"
       id="use4292"
       transform="translate(286.84749,-142.96916)"
       width="100%"
       height="100%" />
    <use
       x="0"
       y="0"
       xlink:href="#use4286"
       id="use4294"
       transform="translate(80,-48)"
       width="100%"
       height="100%" />
    <use
       x="0"
       y="0"
       xlink:href="#use4294"
       id="use4296"
       transform="translate(-4.9999994e-7,-112)"
       width="100%"
       height="100%" />
    <use
       x="0"
       y="0"
       xlink:href="#path4216"
       id="use4298"
       transform="translate(127.99998,-239.99999)"
       width="100%"
       height="100%" />
    <use
       x="0"
       y="0"
       xlink:href="#path4216"
       id="use4300"
       transform="translate(-480.00002,352)"
       width="100%"
       height="100%" />
    <use
       x="0"
       y="0"
       xlink:href="#path4236"
       id="use4302"
       transform="translate(2e-6,272)"
       width="100%"
       height="100%" />
    <use
       x="0"
       y="0"
       xlink:href="#use4286"
       id="use4304"
       transform="translate(0,79.999999)"
       width="100%"
       height="100%" />
    <use
       x="0"
       y="0"
       xlink:href="#use4304"
       id="use4306"
       transform="translate(0,192)"
       width="100%"
       height="100%" />
    <use
       x="0"
       y="0"
       xlink:href="#use4304"
       id="use4310"
       transform="translate(80,144)"
       width="100%"
       height="100%" />
    <use
       x="0"
       y="0"
       xlink:href="#use4304"
       id="use4312"
       transform="translate(-79.999999,48)"
       width="100%"
       height="100%" />
    <use
       x="0"
       y="0"
       xlink:href="#use4304"
       id="use4314"
       transform="translate(-79.999999,144)"
       width="100%"
       height="100%" />
    <use
       x="0"
       y="0"
       xlink:href="#use4300"
       id="use4316"
       transform="translate(-95.999998,-495.99999)"
       width="100%"
       height="100%" />
    <use
       x="0"
       y="0"
       xlink:href="#use4256"
       id="use4318"
       transform="translate(-1.5170157e-5,192)"
       width="100%"
       height="100%" />
    <use
       x="0"
       y="0"
       xlink:href="#use4256"
       id="use4320"
       transform="translate(79.999984,48)"
       width="100%"
       height="100%" />
    <use
       x="0"
       y="0"
       xlink:href="#use4320"
       id="use4322"
       transform="translate(3.2984349e-7,95.999999)"
       width="100%"
       height="100%" />
    <use
       x="0"
       y="0"
       xlink:href="#use4256"
       id="use4324"
       transform="translate(207.99998,-208)"
       width="100%"
       height="100%" />
    <use
       x="0"
       y="0"
       xlink:href="#use4256"
       id="use4326"
       transform="translate(207.99998,-79.999999)"
       width="100%"
       height="100%" />
    <use
       x="0"
       y="0"
       xlink:href="#use4318"
       id="use4328"
       transform="translate(160,15.999999)"
       width="100%"
       height="100%" />
    <use
       x="0"
       y="0"
       xlink:href="#use4256"
       id="use4330"
       transform="translate(-480.00001,544)"
       width="100%"
       height="100%" />
    <use
       x="0"
       y="0"
       xlink:href="#use4256"
       id="use4332"
       transform="translate(-80.000015,496)"
       width="100%"
       height="100%" />
    <use
       x="0"
       y="0"
       xlink:href="#path4236"
       id="use4334"
       transform="translate(-176,-272)"
       width="100%"
       height="100%" />
    <use
       x="0"
       y="0"
       xlink:href="#path3408"
       id="use4336"
       transform="translate(-528.00001,-63.999999)"
       width="100%"
       height="100%" />
    <use
       x="0"
       y="0"
       xlink:href="#path3408"
       id="use4338"
       transform="translate(-5.8000001e-6,-624)"
       width="100%"
       height="100%" />
    <use
       x="0"
       y="0"
       xlink:href="#use4252"
       id="use4340"
       transform="translate(-8.9999997e-7,-192)"
       width="100%"
       height="100%" />
    <use
       x="0"
       y="0"
       xlink:href="#use4340"
       id="use4342"
       transform="translate(-80,47.999999)"
       width="100%"
       height="100%" />
    <use
       x="0"
       y="0"
       xlink:href="#use4342"
       id="use4344"
       transform="translate(4.9999998e-7,96)"
       width="100%"
       height="100%" />
    <use
       x="0"
       y="0"
       xlink:href="#use4252"
       id="use4346"
       transform="translate(-64,63.999998)"
       width="100%"
       height="100%" />
    <use
       x="0"
       y="0"
       xlink:href="#use4340"
       id="use4348"
       transform="translate(464,-400)"
       width="100%"
       height="100%" />
    <use
       x="0"
       y="0"
       xlink:href="#use4340"
       id="use4350"
       transform="translate(144,-144)"
       width="100%"
       height="100%" />
    <use
       x="0"
       y="0"
       xlink:href="#use4340"
       id="use4352"
       transform="translate(704,-192)"
       width="100%"
       height="100%" />
    <use
       x="0"
       y="0"
       xlink:href="#use4340"
       id="use4354"
       transform="translate(336,-400)"
       width="100%"
       height="100%" />
    <use
       x="0"
       y="0"
       xlink:href="#use4340"
       id="use4356"
       transform="translate(400,-480)"
       width="100%"
       height="100%" />
    <use
       x="0"
       y="0"
       xlink:href="#use4256"
       id="use4358"
       transform="translate(-288.00001,-336)"
       width="100%"
       height="100%" />
    <use
       x="0"
       y="0"
       xlink:href="#path4236"
       id="use4360"
       transform="translate(-368,-352)"
       width="100%"
       height="100%" />
    <path
       style="fill:#833faf;fill-opacity:1;fill-rule:evenodd;stroke:#000000;stroke-width:2.06168461;stroke-linecap:butt;stroke-linejoin:miter;stroke-miterlimit:4;stroke-dasharray:none;stroke-opacity:1"
       d="m 288,204.36211 8,-16 16,0 8,16 -8,16 -16,0 z"
       id="use4362"
       inkscape:connector-curvature="0"
       sodipodi:nodetypes="ccccccc" />
    <use
       x="0"
       y="0"
       xlink:href="#use4286"
       id="use4364"
       transform="translate(-368,-352)"
       width="100%"
       height="100%" />
    <path
       style="fill:#833faf;fill-opacity:1;fill-rule:evenodd;stroke:#000000;stroke-width:2.06168461;stroke-linecap:butt;stroke-linejoin:miter;stroke-miterlimit:4;stroke-dasharray:none;stroke-opacity:1"
       d="m 15.999997,172.36211 8,-16 16,0 8,16 -8,16 -16,0 z"
       id="use4366"
       inkscape:connector-curvature="0"
       sodipodi:nodetypes="ccccccc" />
    <use
       x="0"
       y="0"
       xlink:href="#use4286"
       id="use4368"
       transform="translate(-448,-384)"
       width="100%"
       height="100%" />
    <use
       x="0"
       y="0"
       xlink:href="#use4366"
       id="use4374"
       transform="translate(160,2.4999997e-6)"
       width="100%"
       height="100%" />
    <use
       x="0"
       y="0"
       xlink:href="#use4344"
       id="use4376"
       transform="translate(688,63.999999)"
       width="100%"
       height="100%" />
    <use
       x="0"
       y="0"
       xlink:href="#use4376"
       id="use4378"
       transform="translate(-79.999996,48)"
       width="100%"
       height="100%" />
    <use
       x="0"
       y="0"
       xlink:href="#use4286"
       id="use4380"
       transform="translate(-112,-48)"
       width="100%"
       height="100%" />
    <use
       x="0"
       y="0"
       xlink:href="#use4286"
       id="use4382"
       transform="translate(-192,-6.0000002e-7)"
       width="100%"
       height="100%" />
    <use
       x="0"
       y="0"
       xlink:href="#use4286"
       id="use4384"
       transform="translate(-192,79.999999)"
       width="100%"
       height="100%" />
    <use
       x="0"
       y="0"
       xlink:href="#use4384"
       id="use4386"
       transform="translate(-47.999998,63.999999)"
       width="100%"
       height="100%" />
    <use
       x="0"
       y="0"
       xlink:href="#use4330"
       id="use4388"
       transform="translate(-96.000002,-48.000003)"
       width="100%"
       height="100%" />
    <use
       x="0"
       y="0"
       xlink:href="#use4376"
       id="use4395"
       transform="translate(79.999995,64)"
       width="100%"
       height="100%" />
  </g>
</svg>
