<svg xmlns="http://www.w3.org/2000/svg" width="99" height="100" viewBox="0 0 99 100"><path d="M1.125 0L99 98M3.375 0L99 95.75M5.625 0L99 93.5M7.875 0L99 91.25M10.125 0L99 89M12.375 0L99 86.75M14.625 0L99 84.5M16.875 0L99 82.25M19.125 0L99 80M21.375 0L99 77.75M23.625 0L99 75.5M25.875 0L99 73.25M28.125 0L99 71M30.375 0L99 68.75M32.625 0L99 66.5M34.875 0L99 64.25M37.125 0L99 62M39.375 0L99 59.75M41.625 0L99 57.5M43.875 0L99 55.25M46.125 0L99 53M48.375 0L99 50.75M50.625 0L99 48.5M52.875 0L99 46.25M55.125 0L99 44M57.375 0L99 41.75M59.625 0L99 39.5M61.875 0L99 37.25M64.125 0L99 35M66.375 0L99 32.75M68.625 0L99 30.5M70.875 0L99 28.25M73.125 0L99 26M75.375 0L99 23.75M77.625 0L99 21.5M79.875 0L99 19.25M82.125 0L99 17M84.375 0L99 14.75M86.625 0L99 12.5M88.875 0L99 10.25M91.125 0L99 8m-5.625-8L99 5.75M95.625 0L99 3.5M97.875 0L99 1.25M98.875 100L0 1.125M96.625 100L0 3.375M94.375 100L0 5.625M92.125 100L0 7.875M89.875 100L0 10.125M87.625 100L0 12.375M85.375 100L0 14.625M83.125 100L0 16.875M80.875 100L0 19.125M78.625 100L0 21.375M76.375 100L0 23.625M74.125 100L0 25.875M71.875 100L0 28.125M69.625 100L0 30.375M67.375 100L0 32.625M65.125 100L0 34.875M62.875 100L0 37.125M60.625 100L0 39.375M58.375 100L0 41.625M56.125 100L0 43.875M53.875 100L0 46.125M51.625 100L0 48.375M49.375 100L0 50.625M47.125 100L0 52.875M44.875 100L0 55.125M42.625 100L0 57.375M40.375 100L0 59.625M38.125 100L0 61.875M35.875 100L0 64.125M33.625 100L0 66.375M31.375 100L0 68.625M29.125 100L0 70.875M26.875 100L0 73.125M24.625 100L0 75.375M22.375 100L0 77.625M20.125 100L0 79.875M17.875 100L0 82.125M15.625 100L0 84.375M13.375 100L0 86.625M11.125 100L0 88.875M8.875 100L0 91.125M6.625 100L0 93.375M4.375 100L0 95.625M2.125 100L0 97.875" fill="none" stroke="#9dc4f6" stroke-linecap="square"/></svg>