<?xml version="1.0" encoding="UTF-8" standalone="no"?>
<svg
   xmlns:dc="http://purl.org/dc/elements/1.1/"
   xmlns:cc="http://creativecommons.org/ns#"
   xmlns:rdf="http://www.w3.org/1999/02/22-rdf-syntax-ns#"
   xmlns:svg="http://www.w3.org/2000/svg"
   xmlns="http://www.w3.org/2000/svg"
   xmlns:xlink="http://www.w3.org/1999/xlink"
   version="1.1"
   id="svg2"
   viewBox="0 0 400 400"
   height="400"
   width="400">
  <defs
     id="defs4" />
  <metadata
     id="metadata7">
    <rdf:RDF>
      <cc:Work
         rdf:about="">
        <dc:format>image/svg+xml</dc:format>
        <dc:type
           rdf:resource="http://purl.org/dc/dcmitype/StillImage" />
        <dc:title></dc:title>
      </cc:Work>
    </rdf:RDF>
  </metadata>
  <g
     transform="translate(0,0)"
     id="board">
    <rect
       ry="2"
       y="0"
       x="0"
       height="50"
       width="50"
       id="rect5050"
       style="opacity:1;fill:#d7d7d7;fill-opacity:1;fill-rule:evenodd;stroke:none" />
    <use
       id="use4658"
       transform="translate(50,50)"
       xlink:href="#rect5050"
       y="0"
       x="0" />
    <use
       id="use4660"
       transform="translate(0,100)"
       xlink:href="#rect5050"
       y="0"
       x="0" />
    <use
       id="use4662"
       transform="translate(50,150)"
       xlink:href="#rect5050"
       y="0"
       x="0" />
    <use
       id="use4664"
       transform="translate(0,200)"
       xlink:href="#rect5050"
       y="0"
       x="0" />
    <use
       id="use4666"
       transform="translate(50,250)"
       xlink:href="#rect5050"
       y="0"
       x="0" />
    <use
       id="use4668"
       transform="translate(0,300)"
       xlink:href="#rect5050"
       y="0"
       x="0" />
    <use
       id="use4670"
       transform="translate(50,350)"
       xlink:href="#rect5050"
       y="0"
       x="0" />
    <use
       id="use4672"
       transform="translate(50,50)"
       xlink:href="#rect5050"
       y="0"
       x="0" />
    <use
       id="use4674"
       transform="translate(100,100)"
       xlink:href="#rect5050"
       y="0"
       x="0" />
    <use
       id="use4676"
       transform="translate(50,150)"
       xlink:href="#rect5050"
       y="0"
       x="0" />
    <use
       id="use4678"
       transform="translate(100,200)"
       xlink:href="#rect5050"
       y="0"
       x="0" />
    <use
       id="use4680"
       transform="translate(50,250)"
       xlink:href="#rect5050"
       y="0"
       x="0" />
    <use
       id="use4682"
       transform="translate(100,300)"
       xlink:href="#rect5050"
       y="0"
       x="0" />
    <use
       id="use4684"
       transform="translate(50,350)"
       xlink:href="#rect5050"
       y="0"
       x="0" />
    <use
       id="use4688"
       transform="translate(100,0)"
       xlink:href="#rect5050"
       y="0"
       x="0" />
    <use
       id="use4690"
       transform="translate(150,50)"
       xlink:href="#rect5050"
       y="0"
       x="0" />
    <use
       id="use4692"
       transform="translate(100,100)"
       xlink:href="#rect5050"
       y="0"
       x="0" />
    <use
       id="use4694"
       transform="translate(150,150)"
       xlink:href="#rect5050"
       y="0"
       x="0" />
    <use
       id="use4696"
       transform="translate(100,200)"
       xlink:href="#rect5050"
       y="0"
       x="0" />
    <use
       id="use4698"
       transform="translate(150,250)"
       xlink:href="#rect5050"
       y="0"
       x="0" />
    <use
       id="use4700"
       transform="translate(100,300)"
       xlink:href="#rect5050"
       y="0"
       x="0" />
    <use
       id="use4702"
       transform="translate(150,350)"
       xlink:href="#rect5050"
       y="0"
       x="0" />
    <use
       id="use4704"
       transform="translate(150,50)"
       xlink:href="#rect5050"
       y="0"
       x="0" />
    <use
       id="use4706"
       transform="translate(200,100)"
       xlink:href="#rect5050"
       y="0"
       x="0" />
    <use
       id="use4708"
       transform="translate(150,150)"
       xlink:href="#rect5050"
       y="0"
       x="0" />
    <use
       id="use4710"
       transform="translate(200,200)"
       xlink:href="#rect5050"
       y="0"
       x="0" />
    <use
       id="use4712"
       transform="translate(150,250)"
       xlink:href="#rect5050"
       y="0"
       x="0" />
    <use
       id="use4714"
       transform="translate(200,300)"
       xlink:href="#rect5050"
       y="0"
       x="0" />
    <use
       id="use4716"
       transform="translate(150,350)"
       xlink:href="#rect5050"
       y="0"
       x="0" />
    <use
       id="use4720"
       transform="translate(200,0)"
       xlink:href="#rect5050"
       y="0"
       x="0" />
    <use
       id="use4722"
       transform="translate(250,50)"
       xlink:href="#rect5050"
       y="0"
       x="0" />
    <use
       id="use4724"
       transform="translate(200,100)"
       xlink:href="#rect5050"
       y="0"
       x="0" />
    <use
       id="use4726"
       transform="translate(250,150)"
       xlink:href="#rect5050"
       y="0"
       x="0" />
    <use
       id="use4728"
       transform="translate(200,200)"
       xlink:href="#rect5050"
       y="0"
       x="0" />
    <use
       id="use4730"
       transform="translate(250,250)"
       xlink:href="#rect5050"
       y="0"
       x="0" />
    <use
       id="use4732"
       transform="translate(200,300)"
       xlink:href="#rect5050"
       y="0"
       x="0" />
    <use
       id="use4734"
       transform="translate(250,350)"
       xlink:href="#rect5050"
       y="0"
       x="0" />
    <use
       id="use4736"
       transform="translate(250,50)"
       xlink:href="#rect5050"
       y="0"
       x="0" />
    <use
       id="use4738"
       transform="translate(300,100)"
       xlink:href="#rect5050"
       y="0"
       x="0" />
    <use
       id="use4740"
       transform="translate(250,150)"
       xlink:href="#rect5050"
       y="0"
       x="0" />
    <use
       id="use4742"
       transform="translate(300,200)"
       xlink:href="#rect5050"
       y="0"
       x="0" />
    <use
       id="use4744"
       transform="translate(250,250)"
       xlink:href="#rect5050"
       y="0"
       x="0" />
    <use
       id="use4746"
       transform="translate(300,300)"
       xlink:href="#rect5050"
       y="0"
       x="0" />
    <use
       id="use4748"
       transform="translate(250,350)"
       xlink:href="#rect5050"
       y="0"
       x="0" />
    <use
       id="use4752"
       transform="translate(300,0)"
       xlink:href="#rect5050"
       y="0"
       x="0" />
    <use
       id="use4754"
       transform="translate(350,50)"
       xlink:href="#rect5050"
       y="0"
       x="0" />
    <use
       id="use4756"
       transform="translate(300,100)"
       xlink:href="#rect5050"
       y="0"
       x="0" />
    <use
       id="use4758"
       transform="translate(350,150)"
       xlink:href="#rect5050"
       y="0"
       x="0" />
    <use
       id="use4760"
       transform="translate(300,200)"
       xlink:href="#rect5050"
       y="0"
       x="0" />
    <use
       id="use4762"
       transform="translate(350,250)"
       xlink:href="#rect5050"
       y="0"
       x="0" />
    <use
       id="use4764"
       transform="translate(300,300)"
       xlink:href="#rect5050"
       y="0"
       x="0" />
    <use
       id="use4766"
       transform="translate(350,350)"
       xlink:href="#rect5050"
       y="0"
       x="0" />
    <path
       id="path4768"
       d="m 0,0 400,0 0,400 -400,0 0,-400"
       style="fill:none;stroke:#000000;stroke-width:1.25;stroke-linecap:butt;stroke-linejoin:miter;stroke-opacity:1;stroke-miterlimit:4;stroke-dasharray:none" />
  </g>
</svg>
